<svg width="16" height="15" viewBox="0 0 16 15" xmlns="http://www.w3.org/2000/svg"><title>C41AC349-896D-4F87-888C-6BCDFF37B69C</title><path d="M12.38 0c1.47 0 2.663 1.164 2.663 2.6v7.304c0 1.437-1.193 2.6-2.664 2.6-.633 0-.945.273-.937.677v1.203c.007.327.042.827-.2.6L8.01 12.582c-.163-.123.226-.075-.167 0h-5.4c-1.207-.075-2.4-1.24-2.4-2.674V2.6C.043 1.165 1.236 0 2.706 0h9.673zm-1.236 7.174c.497 0 .9-.403.9-.9 0-.498-.403-.902-.9-.902s-.9.404-.9.902c0 .497.403.9.9.9zm-3.6 0c.496 0 .9-.403.9-.9 0-.498-.404-.902-.9-.902-.498 0-.9.404-.9.902 0 .497.402.9.9.9zm-3.6 0c.497 0 .9-.403.9-.9 0-.498-.403-.902-.9-.902-.498 0-.9.404-.9.902 0 .497.402.9.9.9z" fill="#FDBA00" fill-rule="evenodd"/></svg>