<svg width="29" height="25" viewBox="0 0 29 25" xmlns="http://www.w3.org/2000/svg"><title>62E62F8A-40B5-49E7-BCF3-10706DC5AFE1</title><g fill="none" fill-rule="evenodd"><path d="M0-4h33v33H0"/><path d="M19.25 12.5c0-1.52-1.23-2.75-2.75-2.75s-2.75 1.23-2.75 2.75 1.23 2.75 2.75 2.75 2.75-1.23 2.75-2.75zM16.5.125C9.666.125 4.125 5.665 4.125 12.5H0L5.5 18l5.5-5.5H6.875c0-5.314 4.31-9.625 9.625-9.625 5.314 0 9.625 4.31 9.625 9.625 0 5.314-4.31 9.625-9.625 9.625-2.083 0-4-.667-5.582-1.794l-1.946 1.974c2.09 1.61 4.696 2.57 7.528 2.57 6.834 0 12.375-5.54 12.375-12.374C28.875 5.666 23.335.125 16.5.125z" fill="#3678BF"/></g></svg>