<svg width="17" height="17" viewBox="0 0 17 17" xmlns="http://www.w3.org/2000/svg"><title>518FBC9F-9D70-4BEC-BEC2-4B7205EC6527</title><path d="M13.31 1c1.464 0 2.65 1.164 2.65 2.6v7.304c0 1.437-1.186 2.6-2.65 2.6-.628 0-.937.273-.93.677v1.203c.007.327.042.827-.2.6l-3.214-2.402c-.162-.123.225-.075-.166 0H3.43c-1.2-.075-2.387-1.24-2.387-2.674V3.6c0-1.436 1.186-2.6 2.65-2.6h9.618zm-1.228 7.174c.495 0 .895-.403.895-.9 0-.498-.4-.902-.895-.902-.494 0-.895.404-.895.902 0 .497.4.9.895.9zm-3.58 0c.494 0 .895-.403.895-.9 0-.498-.4-.902-.895-.902s-.895.404-.895.902c0 .497.4.9.895.9zm-3.58 0c.494 0 .895-.403.895-.9 0-.498-.4-.902-.896-.902-.493 0-.893.404-.893.902 0 .497.4.9.894.9z" stroke="#979797" fill="none" fill-rule="evenodd"/></svg>