<svg width="18" height="16" viewBox="0 0 18 16" xmlns="http://www.w3.org/2000/svg"><title>9B654DFC-5571-429D-84E5-9DFFE2BA6874</title><path d="M9.89 14.877c-.498.485-1.257.482-1.754-.004-2.356-2.31-4.187-4.29-5.893-6.416C.48 6.577.66 3.407 2.78 1.787 3.995.857 5.64.755 6.98 1.47c.772.41 1.313 1 1.675 1.672.158.295.556.29.715-.004.387-.718.98-1.342 1.844-1.756 1.118-.535 2.44-.51 3.53.088 2.602 1.43 2.877 5.07.987 7.087-1.98 2.422-3.967 4.5-5.84 6.32" stroke="#979797" fill="none" fill-rule="evenodd"/></svg>