<svg width="220" height="222" viewBox="0 0 220 222" xmlns="http://www.w3.org/2000/svg"><title>16993FD0-1C8D-49A7-B439-8DA26B1A41BB</title><g fill="none" fill-rule="evenodd"><path d="M184.648 39.08L81.723 1.62C72.53-1.728 62.36 3.02 59.01 12.225L1.567 170.05c-3.35 9.204 1.387 19.378 10.58 22.724l51.463 18.73v.002l14.694 5.347c29.5 10.738 62.13-4.5 72.88-34.034l44.045-121.014c3.35-9.205-1.388-19.38-10.582-22.726z" stroke="#606060" stroke-width=".896"/><path d="M143.828 65.083c5.17-22.726 3.387-21.52-5.348-12.18-3.024 3.25-5.522 6.122-7.497 8.61 5.155.688 7.81 1.515 12.845 3.57m3.184 5.97c-.11.81-.12 1.948-.028 3.42-.753 1.804-3.242 2.435-5.57.128-.264-2.27.724-3.66 1.47-5.712-.082.227-.66.146-1.733-.245-1.12-.408-11.674-3.99-12.71-3.41-.44.247-1.276 1.916-2.512 5.005-2.272 1.632-4.818-1.635-4.14-3.497.06-.162 8.726-11.528 8.83-11.664 8.71-10.364 14.51-15.02 17.404-13.967 6.39 2.325 1.932 18.975.246 25.59.774.502 1.25.86 1.432 1.072 1.043 1.22-.23 4.11-2.688 3.282" fill="#606060"/><path d="M143.828 65.083c5.17-22.726 3.387-21.52-5.348-12.18-3.024 3.25-5.522 6.122-7.497 8.61 5.155.688 7.81 1.515 12.845 3.57zm3.184 5.97c-.11.81-.12 1.948-.028 3.42-.753 1.804-3.242 2.435-5.57.128-.264-2.27.724-3.66 1.47-5.712-.082.227-.66.146-1.733-.245-1.12-.408-11.674-3.99-12.71-3.41-.44.247-1.276 1.916-2.512 5.005-2.272 1.632-4.818-1.635-4.14-3.497.06-.162 8.726-11.528 8.83-11.664 8.71-10.364 14.51-15.02 17.404-13.967 6.39 2.325 1.932 18.975.246 25.59.774.502 1.25.86 1.432 1.072 1.043 1.22-.23 4.11-2.688 3.282z" stroke="#606060" stroke-width=".896"/><path d="M174.784 61.302c-.984 2.702-2.85 1.408-8.43-.623-1.543 4.236-1.67 4.14-1.856 6.273-.53.382-1 .496-1.413.345-1.585-.577-2.118-1.576-1.598-3l1.73-4.76-6.61-2.406c-.207-1.17-.14-2.083.923-2.65.453-.24.886-.283 1.3-.133.027.01 2.474 1.213 5.442 2.294l2.296-6.31c.737-.096 1.313-.07 1.726.08.724.264 1.89 1.445 1.62 2.19-.143.392-.44.926-.895 1.607-.88 1.305-.998 1.88-1.614 3.575 4.65 1.69 4.66 1.83 6.92 2.205.445.49.597.93.458 1.312" fill="#606060"/><path d="M174.784 61.302c-.984 2.702-2.85 1.408-8.43-.623-1.543 4.236-1.67 4.14-1.856 6.273-.53.382-1 .496-1.413.345-1.585-.577-2.118-1.576-1.598-3l1.73-4.76-6.61-2.406c-.207-1.17-.14-2.083.923-2.65.453-.24.886-.283 1.3-.133.027.01 2.474 1.213 5.442 2.294l2.296-6.31c.737-.096 1.313-.07 1.726.08.724.264 1.89 1.445 1.62 2.19-.143.392-.44.926-.895 1.607-.88 1.305-.998 1.88-1.614 3.575 4.65 1.69 4.66 1.83 6.92 2.205.445.49.597.93.458 1.312zM156.94 96.46l-47.925-17.444L61.09 61.573c-1.27-.462-2.67.192-3.132 1.463-.462 1.27.19 2.672 1.458 3.134l47.926 17.443 47.925 17.444c1.27.462 2.67-.193 3.133-1.464.462-1.27-.19-2.672-1.46-3.133zM153.17 113.958c.463-1.27-.19-2.672-1.458-3.134l-14.976-5.45-32.95-11.995-47.924-17.443c-1.27-.462-2.67.193-3.134 1.463-.462 1.27.19 2.672 1.46 3.134l47.926 17.444 47.925 17.443c1.268.463 2.668-.19 3.13-1.462zM147.943 128.324c.462-1.27-.19-2.672-1.46-3.134l-95.85-34.887c-1.27-.462-2.67.193-3.133 1.463-.462 1.27.19 2.672 1.46 3.134l47.925 17.443 47.926 17.444c1.27.46 2.67-.194 3.133-1.463zM142.714 142.69c.462-1.272-.19-2.674-1.46-3.135l-15.974-5.815-31.95-11.63-47.926-17.442c-1.268-.462-2.67.192-3.133 1.463-.46 1.272.19 2.674 1.46 3.136l47.927 17.444 47.924 17.443c1.27.462 2.67-.193 3.134-1.464zM136.026 153.92L88.1 136.48l-47.925-17.444c-1.27-.462-2.67.194-3.132 1.463-.462 1.27.19 2.672 1.46 3.134l47.925 17.444 47.925 17.444c1.27.46 2.67-.194 3.132-1.463.463-1.27-.19-2.672-1.46-3.134zM132.257 171.42c-.462 1.27-1.864 1.926-3.132 1.464l-95.852-34.887c-1.268-.462-1.92-1.865-1.46-3.135.464-1.27 1.865-1.925 3.134-1.463l95.85 34.886c1.27.462 1.923 1.863 1.46 3.134z" stroke="#606060" stroke-width=".896"/><path d="M82.872 150.842l-1.673 4.6 47.924 17.442c1.27.462 2.67-.193 3.133-1.463.462-1.27-.19-2.672-1.46-3.134l-47.925-17.444zM125.57 182.65l-47.926-17.443-47.926-17.444c-1.268-.462-2.67.194-3.132 1.465-.463 1.27.19 2.672 1.46 3.133l47.925 17.445 47.926 17.443c1.27.46 2.67-.193 3.132-1.462.463-1.27-.19-2.674-1.458-3.136zM120.34 197.016l-47.925-17.443L24.49 162.13c-1.27-.462-2.67.192-3.132 1.463-.463 1.27.19 2.672 1.458 3.134l47.926 17.443 47.926 17.444c1.268.46 2.67-.194 3.132-1.463.462-1.27-.19-2.672-1.46-3.134z" stroke="#606060" stroke-width=".896"/><path d="M151.183 182.818l.217-.595c-3.95 10.85-15.93 16.444-26.765 12.5l-14.776-5.372-5.384 14.788c-3.95 10.85-15.93 16.443-26.765 12.5l.594.215c29.5 10.74 62.13-4.502 72.88-34.035" fill="#606060"/><path d="M151.183 182.818l.217-.595c-3.95 10.85-15.93 16.444-26.765 12.5l-14.776-5.372-5.384 14.788c-3.95 10.85-15.93 16.443-26.765 12.5l.594.215c29.5 10.74 62.13-4.502 72.88-34.035z" stroke="#606060" stroke-width=".896"/><path d="M148.218 110.695c.046-.22.01-.455-.117-.66-.01-.016-.026-.025-.038-.04-.052-.076-.11-.144-.18-.197-.033-.026-.07-.04-.106-.058-.045-.026-.086-.06-.134-.077-.012-.004-.024 0-.036-.005-.08-.026-.164-.033-.25-.035-.034 0-.067-.01-.102-.007-.12.01-.24.04-.354.102L79.534 146.43c-1.197.652-2.63.705-3.87.145-1.24-.56-2.146-1.673-2.448-3.002l-2.685-11.885c-.326-1.447-1.703-2.403-3.17-2.202-1.47.2-2.543 1.487-2.475 2.97l1.06 23.136c.118 2.56 1.618 4.852 3.917 5.98 2.297 1.13 5.028.917 7.124-.556l20.282-14.242 50.583-35.52c.198-.137.324-.34.368-.56" fill="#606060"/><path d="M148.218 110.695c.046-.22.01-.455-.117-.66-.01-.016-.026-.025-.038-.04-.052-.076-.11-.144-.18-.197-.033-.026-.07-.04-.106-.058-.045-.026-.086-.06-.134-.077-.012-.004-.024 0-.036-.005-.08-.026-.164-.033-.25-.035-.034 0-.067-.01-.102-.007-.12.01-.24.04-.354.102L79.534 146.43c-1.197.652-2.63.705-3.87.145-1.24-.56-2.146-1.673-2.448-3.002l-2.685-11.885c-.326-1.447-1.703-2.403-3.17-2.202-1.47.2-2.543 1.487-2.475 2.97l1.06 23.136c.118 2.56 1.618 4.852 3.917 5.98 2.297 1.13 5.028.917 7.124-.556l20.282-14.242 50.583-35.52c.198-.137.324-.34.368-.56zM202.353 125.174l-.005-.01v-.003.002L189.72 99.914l-3.256 28.07.006-.002 2.015 11.47 15.88-2.807-2.016-11.47z" stroke="#606060" stroke-width=".896"/><path d="M211.356 176.414l-9.01-51.252c-.01-.06-.038-.115-.08-.158-.03-.032-.073-.05-.116-.065-.013-.007-.022-.02-.036-.023h-.003c-.038-.008-.078-.008-.116-.002-.008.002-.012.012-.02.014-.07.015-.133.05-.176.11h-.002c-.926 1.325-2.702 1.68-4.068.87-.066-.04-.137-.07-.2-.114h-.002v-.002c-.334-.232-.79-.15-1.022.18l-.002.005c-.97 1.386-2.88 1.724-4.265.754l-.007-.004c-.33-.232-.788-.15-1.02.18l-.002.003c-.467.667-1.18 1.12-1.98 1.262-.802.14-1.626-.043-2.292-.51l-.003-.002c-.1-.07-.23-.073-.333-.007-.103.065-.156.186-.136.305l13.458 76.558 15.88-2.808-4.446-25.296z" fill="#F0F0F0"/><path d="M211.356 176.414l-9.01-51.252c-.01-.06-.038-.115-.08-.158-.03-.032-.073-.05-.116-.065-.013-.007-.022-.02-.036-.023h-.003c-.038-.008-.078-.008-.116-.002-.008.002-.012.012-.02.014-.07.015-.133.05-.176.11h-.002c-.926 1.325-2.702 1.68-4.068.87-.066-.04-.137-.07-.2-.114h-.002v-.002c-.334-.232-.79-.15-1.022.18l-.002.005c-.97 1.386-2.88 1.724-4.265.754l-.007-.004c-.33-.232-.788-.15-1.02.18l-.002.003c-.467.667-1.18 1.12-1.98 1.262-.802.14-1.626-.043-2.292-.51l-.003-.002c-.1-.07-.23-.073-.333-.007-.103.065-.156.186-.136.305l13.458 76.558 15.88-2.808-4.446-25.296z" stroke="#606060" stroke-width=".896" fill="#FFF"/><path d="M189.72 99.914l-.778 6.71c.634.073 1.29.064 1.947-.056.66-.117 1.282-.327 1.85-.615l-3.02-6.04z" fill="#000"/><path d="M189.72 99.914l-.778 6.71c.634.073 1.29.064 1.947-.056.66-.117 1.282-.327 1.85-.615l-3.02-6.04z" stroke="#606060" stroke-width=".896"/><path d="M217.074 212.553l-1.286-7.327-7.324 1.295-7.322 1.297 1.29 7.325c.71 4.047 4.564 6.75 8.607 6.032 4.044-.715 6.745-4.576 6.034-8.62z" stroke="#000" stroke-width=".896"/><path d="M218.876 207.685l-.87-4.955c-.106-.596-.442-1.124-.937-1.472-.495-.347-1.108-.482-1.702-.376l-7.658 1.355-7.657 1.355c-1.24.22-2.066 1.4-1.848 2.64l.87 4.954c.105.595.44 1.126.937 1.47.494.35 1.106.484 1.7.378l15.315-2.707c.62-.11 1.137-.46 1.47-.938.336-.48.488-1.084.38-1.705" fill="#FFF"/><path d="M218.876 207.685l-.87-4.955c-.106-.596-.442-1.124-.937-1.472-.495-.347-1.108-.482-1.702-.376l-7.658 1.355-7.657 1.355c-1.24.22-2.066 1.4-1.848 2.64l.87 4.954c.105.595.44 1.126.937 1.47.494.35 1.106.484 1.7.378l15.315-2.707c.62-.11 1.137-.46 1.47-.938.336-.48.488-1.084.38-1.705z" stroke="#000" stroke-width=".896"/></g></svg>