<svg width="170" height="204" viewBox="0 0 170 204" xmlns="http://www.w3.org/2000/svg"><title>D869F7C9-6C7E-4D04-B264-F1B7321A5633</title><g fill="none" fill-rule="evenodd"><rect fill="#4B93EB" width="170" height="204" rx="4.15"/><path fill="#FFF" d="M48.052 49.932h86.398v82.048H45.084l-4.87-2.014-3.334-5.55-1.62-5.318 2.153-5.795 3.263-4.307 7.175-1.898"/><path d="M36.92 118.63h-3.318c0 7.7 6.306 13.927 14.105 13.927h88.78V47.35h-87.12V35.06h-1.66c-7.8 0-14.105 6.226-14.105 13.927v69.642h3.32c0-5.9 4.81-10.652 10.785-10.652h1.66V50.626h83.8v78.654h-85.46c-5.974 0-10.786-4.752-10.786-10.65zm9.128-13.847c-3.65.41-6.887 2.212-9.127 4.834v-60.63c0-5.325 3.983-9.75 9.128-10.487v66.283z" fill="#FFF"/><path d="M117.404 57.18h-9.957v55.304l4.978 9.832 4.98-9.832V57.18zm-3.32 3.278v9.012h-3.318v-9.012h3.32zm-1.66 54.484l-1.658-3.277V72.747h3.32v38.918l-1.66 3.277zM66.79 96.508v3.277h6.638L69.28 122.48l3.236.573 4.23-23.268h9.958l4.232 23.268 3.236-.573-4.15-22.695h6.64v-3.277h-7.22l-1.908-10.815c2.572-1.803 4.148-4.834 4.148-8.03 0-4.834-3.567-8.93-8.297-9.668V57.18h-3.32v10.815c-4.728.82-8.296 4.834-8.296 9.668 0 3.196 1.576 6.145 4.148 8.03l-1.91 10.815h-7.217zm11.783-13.11c-2.158-1.147-3.485-3.36-3.485-5.735 0-3.605 2.987-6.554 6.638-6.554 3.65 0 6.637 2.948 6.637 6.553 0 2.376-1.327 4.588-3.484 5.736l-1.08.572 2.323 12.536h-8.795l2.24-12.536-.995-.573z" fill="#4B93EB"/><text font-family="Roboto-Regular, Roboto" font-size="20" fill="#FFF"><tspan x="47.359" y="173">Projects</tspan></text></g></svg>