<svg width="170" height="204" viewBox="0 0 170 204" xmlns="http://www.w3.org/2000/svg"><title>4AAB33CB-BB2F-4CDB-AF17-EBB13FE7E2C3</title><g fill="none" fill-rule="evenodd"><rect fill="#FFF" width="170" height="204" rx="4.15"/><path d="M62.24 43.2L45 61.274v73.512h73.34V43.2h-56.1zM50.45 61.714h13.76V47.962h48.682v82.06H50.45V61.716z" fill="#787A7B"/><path d="M122.858 70.315l-29.85 37.89-28.524 11.386-4.584-3.69 4.565-30.715 42.427-53.856 3.262.97c11.028 3.285 18.16 8.87 23.634 19.155l1.584 2.975-12.514 15.885z" fill="#FEFEFE"/><path d="M65.332 113.752l24.564-9.805 28.868-36.644L98.14 50.65 69.263 87.302l-3.93 26.45zm8.964-24.088L86.5 99.52l-9.49 3.982-4.42-3.57 1.706-10.268zm55.04-35.782l-7.28 9.24-20.624-16.653 7.294-9.26c9.73 2.896 15.773 7.582 20.61 16.672z" fill="#787A7B"/><text font-family="Roboto-Regular, Roboto" font-size="20" fill="#4E4E4E"><tspan x="54" y="173">Exams</tspan></text></g></svg>