<?xml version="1.0" encoding="UTF-8"?>
<svg width="11px" height="20px" viewBox="0 0 11 20" version="1.1" xmlns="http://www.w3.org/2000/svg" xmlns:xlink="http://www.w3.org/1999/xlink">
    <!-- Generator: sketchtool 39.1 (31720) - http://www.bohemiancoding.com/sketch -->
    <title>CB52F7C7-F1C9-4D6C-8029-4B06BF65F998</title>
    <desc>Created with sketchtool.</desc>
    <defs></defs>
    <g id="ClassDig-Web-Teachers" stroke="none" stroke-width="1" fill="none" fill-rule="evenodd">
        <g id="Icons-Resources" transform="translate(-304.000000, -1654.000000)" fill="#4B93EB">
            <g id="1471268479_198_Paperclip-Copy-2" transform="translate(304.043353, 1654.000000)">
                <g id="Group">
                    <g id="Icons-with-numbers">
                        <g id="Group">
                            <path d="M1.25,5 L1.25,15 C1.25,16.875 3.125,18.75 5,18.75 C6.875,18.75 8.75,16.875 8.75,15 L8.75,5 L10.0000225,5 L10,15 C10,17.5 7.5,20 5,20 C2.5,20 0,17.5 0,15 L0,5 L0,3.75 C0,1.875 1.875,0 3.75,0 C5.625,0 7.5,1.875 7.5,3.75 L7.5,12.5 L7.5,13.75 C7.5,15 6.25,16.25 5,16.25 C3.75,16.25 2.5,15 2.5,13.75 L2.5,5 L3.75,5 L3.75,13.75 C3.75,14.375 4.375,15 5,15 C5.625,15 6.25,14.375 6.25,13.75 L6.25,12.5 L6.25,5 L6.25,3.75 C6.25,2.5 5,1.25 3.75,1.25 C2.5,1.25 1.25,2.5 1.25,3.75 L1.25,5 Z" id="Shape-copy"></path>
                        </g>
                    </g>
                </g>
            </g>
        </g>
    </g>
</svg>