<?xml version="1.0" encoding="UTF-8"?>
<svg width="10px" height="20px" viewBox="0 0 10 20" version="1.1" xmlns="http://www.w3.org/2000/svg" xmlns:xlink="http://www.w3.org/1999/xlink">
    <!-- Generator: sketchtool 39.1 (31720) - http://www.bohemiancoding.com/sketch -->
    <title>A9ED498E-D51A-427B-9D28-8DC2C45F16A9</title>
    <desc>Created with sketchtool.</desc>
    <defs></defs>
    <g id="ClassDig-Web-Parents" stroke="none" stroke-width="1" fill="none" fill-rule="evenodd">
        <g id="Feed-Community-Story" transform="translate(-607.000000, -267.000000)" fill="#CF515D">
            <path d="M608.25,272 L608.25,282 C608.25,283.875 610.125,285.75 612,285.75 C613.875,285.75 615.75,283.875 615.75,282 L615.75,272 L617.000022,272 L617,282 C617,284.5 614.5,287 612,287 C609.5,287 607,284.5 607,282 L607,272 L607,270.75 C607,268.875 608.875,267 610.75,267 C612.625,267 614.5,268.875 614.5,270.75 L614.5,279.5 L614.5,280.75 C614.5,282 613.25,283.25 612,283.25 C610.75,283.25 609.5,282 609.5,280.75 L609.5,272 L610.75,272 L610.75,280.75 C610.75,281.375 611.375,282 612,282 C612.625,282 613.25,281.375 613.25,280.75 L613.25,279.5 L613.25,272 L613.25,270.75 C613.25,269.5 612,268.25 610.75,268.25 C609.5,268.25 608.25,269.5 608.25,270.75 L608.25,272 Z" id="Shape-copy"></path>
        </g>
    </g>
</svg>