<?xml version="1.0" encoding="UTF-8"?>
<svg width="38px" height="34px" viewBox="0 0 38 34" version="1.1" xmlns="http://www.w3.org/2000/svg" xmlns:xlink="http://www.w3.org/1999/xlink">
    <!-- Generator: sketchtool 39.1 (31720) - http://www.bohemiancoding.com/sketch -->
    <title>4017B120-A1A3-4439-BC9D-8789D608C610</title>
    <desc>Created with sketchtool.</desc>
    <defs></defs>
    <g id="ClassDig-Web-Teachers" stroke="none" stroke-width="1" fill="none" fill-rule="evenodd">
        <g id="Icons-Resources" transform="translate(-325.000000, -1417.000000)">
            <g id="ic_photo_camera_black_24px" transform="translate(322.043353, 1414.000000)">
                <g id="Group">
                    <ellipse id="Oval" fill="#CF515D" cx="22" cy="22" rx="5.86666667" ry="5.86666667"></ellipse>
                    <path d="M16.5,3.66666667 L13.145,7.33333333 L7.33333333,7.33333333 C5.31666667,7.33333333 3.66666667,8.98333333 3.66666667,11 L3.66666667,33 C3.66666667,35.0166667 5.31666667,36.6666667 7.33333333,36.6666667 L36.6666667,36.6666667 C38.6833333,36.6666667 40.3333333,35.0166667 40.3333333,33 L40.3333333,11 C40.3333333,8.98333333 38.6833333,7.33333333 36.6666667,7.33333333 L30.855,7.33333333 L27.5,3.66666667 L16.5,3.66666667 L16.5,3.66666667 Z M22,31.1666667 C16.94,31.1666667 12.8333333,27.06 12.8333333,22 C12.8333333,16.94 16.94,12.8333333 22,12.8333333 C27.06,12.8333333 31.1666667,16.94 31.1666667,22 C31.1666667,27.06 27.06,31.1666667 22,31.1666667 L22,31.1666667 Z" id="Shape" fill="#CF515D"></path>
                    <polygon id="Shape" points="0 0 44 0 44 44 0 44"></polygon>
                </g>
            </g>
        </g>
    </g>
</svg>