<?xml version="1.0" encoding="UTF-8"?>
<svg width="10px" height="14px" viewBox="0 0 10 14" version="1.1" xmlns="http://www.w3.org/2000/svg" xmlns:xlink="http://www.w3.org/1999/xlink">
    <!-- Generator: sketchtool 39.1 (31720) - http://www.bohemiancoding.com/sketch -->
    <title>82589329-A029-4C9F-97CC-576D46BF9B95</title>
    <desc>Created with sketchtool.</desc>
    <defs></defs>
    <g id="ClassDig-Web-Teachers" stroke="none" stroke-width="1" fill="none" fill-rule="evenodd">
        <g id="Icons-Resources" transform="translate(-713.000000, -1025.000000)">
            <g id="location_grey" transform="translate(710.000000, 1024.000000)">
                <g id="1471266393_Location">
                    <g id="Layer_1">
                        <rect id="Rectangle" fill-opacity="0" fill="#D8D8D8" x="0" y="0" width="16" height="16"></rect>
                        <path d="M8,1 C5.23852273,1 3,3.15457813 3,5.8125 C3,8.47042187 8,15 8,15 C8,15 13,8.47042187 13,5.8125 C13,3.15457812 10.7614773,1 8,1 L8,1 Z M3.90909091,5.8125 C3.90909091,3.6411875 5.74409091,1.875 8,1.875 C10.2559091,1.875 12.0909091,3.6411875 12.0909091,5.8125 C12.0909091,7.3249375 9.81727273,10.9762031 8,13.4947812 C6.18272727,10.9762031 3.90909091,7.3249375 3.90909091,5.8125 L3.90909091,5.8125 Z M8,3.625 C6.74465909,3.625 5.72727273,4.60423438 5.72727273,5.8125 C5.72727273,7.02076562 6.74465909,8 8,8 C9.25534091,8 10.2727273,7.02076562 10.2727273,5.8125 C10.2727273,4.60423438 9.25534091,3.625 8,3.625 L8,3.625 Z M8,7.125 C7.24806818,7.125 6.63636364,6.53623437 6.63636364,5.8125 C6.63636364,5.08876563 7.24806818,4.5 8,4.5 C8.75193182,4.5 9.36363636,5.08876563 9.36363636,5.8125 C9.36363636,6.53623437 8.75193182,7.125 8,7.125 L8,7.125 Z" id="Shape" fill="#B2B2B2"></path>
                    </g>
                </g>
            </g>
        </g>
    </g>
</svg>