<?xml version="1.0" encoding="UTF-8"?>
<svg width="26px" height="25px" viewBox="0 0 26 25" version="1.1" xmlns="http://www.w3.org/2000/svg" xmlns:xlink="http://www.w3.org/1999/xlink">
    <!-- Generator: sketchtool 39.1 (31720) - http://www.bohemiancoding.com/sketch -->
    <title>438EBAB6-EE43-453E-9368-DD5EADDAB240</title>
    <desc>Created with sketchtool.</desc>
    <defs></defs>
    <g id="ClassDig-Web-Teachers" stroke="none" stroke-width="1" fill="none" fill-rule="evenodd">
        <g id="Icons-Resources" transform="translate(-848.000000, -858.000000)">
            <g id="ic_query_builder_black_24px-copy" transform="translate(846.043353, 856.000000)">
                <g id="Group">
                    <path d="M14.4875,2 C7.5875,2 2,7.6 2,14.5 C2,21.4 7.5875,27 14.4875,27 C21.4,27 27,21.4 27,14.5 C27,7.6 21.4,2 14.4875,2 L14.4875,2 Z M14.5,24.5 C8.975,24.5 4.5,20.025 4.5,14.5 C4.5,8.975 8.975,4.5 14.5,4.5 C20.025,4.5 24.5,8.975 24.5,14.5 C24.5,20.025 20.025,24.5 14.5,24.5 L14.5,24.5 Z" id="Shape" fill="#FFC600"></path>
                    <polygon id="Shape" points="0 0 30 0 30 30 0 30"></polygon>
                    <polygon id="Shape" fill="#FFC600" points="14.875 8 13 8 13 15.5 19.5625 19.4375 20.5 17.9 14.875 14.5625"></polygon>
                </g>
            </g>
        </g>
    </g>
</svg>