<?xml version="1.0" encoding="UTF-8"?>
<svg width="45px" height="45px" viewBox="0 0 45 45" version="1.1" xmlns="http://www.w3.org/2000/svg" xmlns:xlink="http://www.w3.org/1999/xlink">
    <!-- Generator: sketchtool 39.1 (31720) - http://www.bohemiancoding.com/sketch -->
    <title>D0625C49-7924-49BA-B1F7-01DB07CF95E2</title>
    <desc>Created with sketchtool.</desc>
    <defs>
        <circle id="path-1" cx="18.5" cy="18.5" r="18.5"></circle>
        <filter x="-50%" y="-50%" width="200%" height="200%" filterUnits="objectBoundingBox" id="filter-2">
            <feOffset dx="0" dy="1" in="SourceAlpha" result="shadowOffsetOuter1"></feOffset>
            <feGaussianBlur stdDeviation="2" in="shadowOffsetOuter1" result="shadowBlurOuter1"></feGaussianBlur>
            <feColorMatrix values="0 0 0 0 0.684762968   0 0 0 0 0.684762968   0 0 0 0 0.684762968  0 0 0 0.5 0" type="matrix" in="shadowBlurOuter1"></feColorMatrix>
        </filter>
    </defs>
    <g id="ClassDig-Web-Teachers" stroke="none" stroke-width="1" fill="none" fill-rule="evenodd">
        <g id="Icons-Resources" transform="translate(-506.000000, -852.000000)">
            <g id="timer_circle" transform="translate(510.043353, 855.000000)">
                <g id="Oval-8">
                    <use fill="black" fill-opacity="1" filter="url(#filter-2)" xlink:href="#path-1"></use>
                    <use fill="#FFC600" fill-rule="evenodd" xlink:href="#path-1"></use>
                </g>
                <g id="ic_query_builder_black_24px" transform="translate(4.000000, 4.000000)">
                    <g id="Group">
                        <path d="M14.4875,2 C7.5875,2 2,7.6 2,14.5 C2,21.4 7.5875,27 14.4875,27 C21.4,27 27,21.4 27,14.5 C27,7.6 21.4,2 14.4875,2 L14.4875,2 Z M14.5,24.5 C8.975,24.5 4.5,20.025 4.5,14.5 C4.5,8.975 8.975,4.5 14.5,4.5 C20.025,4.5 24.5,8.975 24.5,14.5 C24.5,20.025 20.025,24.5 14.5,24.5 L14.5,24.5 Z" id="Shape" fill="#FFFFFF"></path>
                        <polygon id="Shape" points="0 0 30 0 30 30 0 30"></polygon>
                        <polygon id="Shape" fill="#FFFFFF" points="14.875 8 13 8 13 15.5 19.5625 19.4375 20.5 17.9 14.875 14.5625"></polygon>
                    </g>
                </g>
            </g>
        </g>
    </g>
</svg>