<?xml version="1.0" encoding="UTF-8"?>
<svg width="38px" height="37px" viewBox="0 0 38 37" version="1.1" xmlns="http://www.w3.org/2000/svg" xmlns:xlink="http://www.w3.org/1999/xlink">
    <!-- Generator: sketchtool 39.1 (31720) - http://www.bohemiancoding.com/sketch -->
    <title>75BD0D9D-4661-4926-B9ED-3FE15CA4A65E</title>
    <desc>Created with sketchtool.</desc>
    <defs>
        <polygon id="path-1" points="16.4741379 11.1788597 16.4741379 0 0 0 0 22.3577194 16.4741379 22.3577194 16.4741379 11.1788597"></polygon>
    </defs>
    <g id="ClassDig-Web-Teachers" stroke="none" stroke-width="1" fill="none" fill-rule="evenodd">
        <g id="Icons-Resources" transform="translate(-759.000000, -1001.000000)">
            <g id="upfist" transform="translate(759.000000, 1001.000000)">
                <g transform="translate(0.043353, 0.000000)">
                    <circle id="Oval-8" fill="#1EA66D" cx="18" cy="18" r="18"></circle>
                    <g id="Page-1" transform="translate(5.000000, 5.000000)">
                        <g id="Group-3" transform="translate(8.629310, 0.000000)">
                            <mask id="mask-2" fill="white">
                                <use xlink:href="#path-1"></use>
                            </mask>
                            <g id="Clip-2"></g>
                            <path d="M0,12.1072754 L3.86828448,4.75745647 C3.90358621,4.69038319 3.91888362,4.6146806 3.91182328,4.53897802 L3.53017241,0.340034052 C3.53017241,0.340034052 5.03363362,-0.425228879 6.27586207,0.340034052 C7.73656897,1.23944353 8.23706897,2.79154267 8.23706897,4.65468922 C8.23706897,6.06440474 7.91111638,7.5608056 7.84482759,8.23702974 L7.84482759,8.23702974 L14.2426767,8.23702974 C15.2938836,8.23702974 16.2462457,8.95718491 16.436875,9.99113319 C16.6008319,10.8799522 16.2085905,11.6973832 15.5508017,12.1594435 C16.1073922,12.5505082 16.4741379,13.1965297 16.4741379,13.9245297 C16.4741379,14.755297 15.9975647,15.4785901 15.3052586,15.8386677 C15.5468793,16.1873703 15.6896552,16.6086375 15.6896552,17.0624608 C15.6896552,18.1348487 14.8957586,19.0283746 13.8673017,19.1907625 C14.0720517,19.5739823 14.1654052,20.0242754 14.1002931,20.4988875 C13.9516336,21.5806892 12.9729914,22.3577194 11.8805991,22.3577194 L2.35344828,22.3577194 C1.1669181,22.3577194 0,21.5830427 0,20.3965125 L0,12.1072754 Z" id="Fill-1" fill="#FFFFFF" mask="url(#mask-2)"></path>
                        </g>
                        <path d="M4.51077586,21.5732759 C3.96909052,21.5732759 3.53017241,21.1343578 3.53017241,20.5926724 C3.53017241,20.0509871 3.96909052,19.612069 4.51077586,19.612069 C5.05246121,19.612069 5.49137931,20.0509871 5.49137931,20.5926724 C5.49137931,21.1343578 5.05246121,21.5732759 4.51077586,21.5732759 M6.27586207,10.9827586 L0.784482759,10.9827586 C0.353017241,10.9827586 0,11.3357759 0,11.7672414 L0,21.9655172 C0,22.3969828 0.353017241,22.75 0.784482759,22.75 L6.27586207,22.75 C6.70732759,22.75 7.06034483,22.3969828 7.06034483,21.9655172 L7.06034483,11.7672414 C7.06034483,11.3357759 6.70732759,10.9827586 6.27586207,10.9827586" id="Fill-4" fill="#FFFFFF"></path>
                    </g>
                </g>
            </g>
        </g>
    </g>
</svg>