<svg width="23" height="23" viewBox="0 0 23 23" xmlns="http://www.w3.org/2000/svg"><title>762A69B6-A601-4EDF-8F16-C0982B8A4619</title><g fill="none" fill-rule="evenodd"><path d="M16.375 14.5h-.988l-.35-.337C16.263 12.738 17 10.887 17 8.875 17 4.388 13.363.75 8.875.75 4.388.75.75 4.388.75 8.875.75 13.363 4.388 17 8.875 17c2.012 0 3.863-.738 5.288-1.962l.337.35v.987l6.25 6.238 1.863-1.863-6.238-6.25zm-7.5 0c-3.113 0-5.625-2.512-5.625-5.625S5.762 3.25 8.875 3.25 14.5 5.762 14.5 8.875 11.988 14.5 8.875 14.5z" fill="#FFF"/><path d="M-3-3h30v30H-3"/></g></svg>