<svg width="417" height="256" viewBox="0 0 417 256" xmlns="http://www.w3.org/2000/svg" xmlns:xlink="http://www.w3.org/1999/xlink"><title>6186781C-F68D-4F54-AE45-A46C50CD9E5A</title><defs><path id="b" d="M157.835.483H.185v179.573h157.65z"/><path id="a" d="M115.205 180.056L.185 146.446 42.815.482l115.02 33.613z"/><mask id="d" x="0" y="0" width="157.65" height="179.574" fill="#fff"><use xlink:href="#a"/></mask></defs><g fill="none" fill-rule="evenodd"><path d="M60.63 188.738c-13.573 2.767-26.82-5.998-29.59-19.584-2.765-13.576 6.003-26.833 19.575-29.6 13.587-2.768 26.842 6 29.608 19.58 2.768 13.583-6.01 26.835-19.592 29.604zm38.067-33.37c-.294-1.437-.658-2.83-1.074-4.2l7.4-7.65c-1.668-4.008-3.795-7.73-6.295-11.126l-10.378 2.413c-1.93-2.16-4.07-4.108-6.375-5.84l1.5-10.54c-3.642-2.216-7.55-4.005-11.64-5.313l-6.973 8.05c-2.798-.6-5.668-.936-8.587-.98l-4.99-9.39c-2.107.16-4.217.45-6.344.885-2.122.43-4.18.994-6.193 1.672l-.9 10.584c-2.68 1.19-5.194 2.622-7.537 4.266l-9.558-4.675c-3.25 2.793-6.145 5.972-8.628 9.442l5.5 9.114c-1.45 2.495-2.65 5.123-3.583 7.868l-10.497 1.84c-.977 4.1-1.475 8.363-1.448 12.705l9.816 4.14c.144 1.424.36 2.846.65 4.284.297 1.43.65 2.826 1.08 4.192l-7.416 7.658c1.67 4.004 3.794 7.727 6.303 11.133l10.382-2.415c1.924 2.145 4.066 4.11 6.368 5.828l-1.495 10.547c3.64 2.217 7.544 4.006 11.632 5.307l6.97-8.046c2.8.6 5.676.94 8.6.972l4.974 9.408c2.115-.175 4.227-.456 6.348-.888 2.125-.435 4.184-1.002 6.192-1.668l.91-10.605c2.674-1.177 5.184-2.612 7.524-4.26l9.565 4.677c3.252-2.797 6.148-5.968 8.63-9.434l-5.497-9.124c1.446-2.482 2.65-5.13 3.584-7.86l10.49-1.836c.978-4.115 1.48-8.373 1.442-12.71l-9.8-4.148c-.155-1.425-.362-2.846-.653-4.28zM131.76 93.217c-1.98 1.43-4.053 2.624-6.168 3.687l6.12 8.47 12.93-9.348-6.263-8.664c-1.98 2.124-4.18 4.09-6.62 5.855M167.552 127.24L144.91 95.882l-12.93 9.34 22.64 31.355c1.3 1.79 3.186 2.875 5.196 3.2 2.02.325 4.157-.116 5.94-1.402 3.574-2.58 4.38-7.566 1.796-11.135" stroke="#979797" stroke-width="2.965" fill="#FFF"/><path d="M58.293 179.68c-8.792 1.792-17.373-3.89-19.163-12.677-1.79-8.792 3.888-17.364 12.682-19.158 8.785-1.79 17.36 3.883 19.155 12.67 1.786 8.79-3.884 17.374-12.674 19.165m-9.562-46.946c-17.13 3.49-28.19 20.206-24.7 37.347 3.493 17.138 20.208 28.2 37.338 24.71 17.138-3.49 28.2-20.213 24.708-37.352-3.492-17.137-20.21-28.197-37.345-24.704M141.224 232.362c-10.052 2.047-19.845-4.443-21.897-14.492-2.05-10.055 4.437-19.85 14.49-21.9 10.04-2.048 19.846 4.433 21.895 14.486 2.046 10.05-4.442 19.86-14.488 21.906m28.156-24.692c-.22-1.06-.486-2.098-.792-3.105l5.47-5.66c-1.23-2.97-2.807-5.722-4.66-8.23l-7.675 1.78c-1.418-1.592-3.005-3.034-4.717-4.32l1.108-7.797c-2.692-1.643-5.575-2.96-8.603-3.93l-5.16 5.955c-2.068-.443-4.195-.688-6.356-.72l-3.684-6.956c-1.558.134-3.127.345-4.695.662-1.57.32-3.096.743-4.582 1.226l-.673 7.847c-1.982.873-3.84 1.93-5.57 3.152l-7.073-3.463c-2.404 2.068-4.548 4.415-6.39 6.98l4.075 6.747c-1.07 1.85-1.96 3.794-2.655 5.818l-7.766 1.363c-.71 3.038-1.087 6.184-1.067 9.4l7.26 3.067c.103 1.052.27 2.108.486 3.17.214 1.053.476 2.093.79 3.102l-5.482 5.665c1.237 2.956 2.81 5.72 4.66 8.236l7.677-1.79c1.433 1.59 3.013 3.04 4.716 4.31l-1.108 7.81c2.702 1.64 5.59 2.962 8.613 3.93l5.155-5.957c2.07.445 4.197.686 6.358.72l3.69 6.952c1.56-.123 3.124-.334 4.697-.652 1.57-.323 3.092-.74 4.576-1.237l.678-7.842c1.972-.874 3.833-1.932 5.566-3.148l7.074 3.457c2.406-2.07 4.544-4.416 6.383-6.978l-4.068-6.756c1.073-1.833 1.968-3.79 2.653-5.815l7.76-1.355c.725-3.042 1.096-6.198 1.073-9.4l-7.255-3.07c-.11-1.055-.268-2.113-.483-3.17" stroke="#979797" stroke-width="2.965" fill="#FFF"/><path d="M140.765 226.936c-6.5 1.33-12.846-2.874-14.173-9.372-1.324-6.51 2.877-12.854 9.38-14.178 6.504-1.325 12.845 2.873 14.17 9.377 1.322 6.5-2.868 12.852-9.377 14.173m-7.068-34.734c-12.68 2.585-20.856 14.96-18.275 27.635 2.58 12.685 14.943 20.866 27.623 18.283 12.676-2.584 20.86-14.954 18.28-27.638-2.585-12.675-14.954-20.862-27.628-18.28" stroke="#979797" stroke-width="2.965" fill="#FFF"/><path d="M133.243 37.404c10.87 15.05 7.478 36.068-7.565 46.947-15.06 10.88-36.068 7.49-46.946-7.56-10.875-15.062-7.49-36.074 7.57-46.955 15.05-10.873 36.065-7.485 46.94 7.57" stroke="#979797" stroke-width="1.483" fill="#FFF"/><path d="M126.39 85.073c-15.06 10.88-36.068 7.49-46.946-7.56-10.875-15.063-7.49-36.074 7.57-46.956 15.05-10.873 36.063-7.484 46.94 7.57 10.87 15.05 7.477 36.067-7.564 46.946m16.78-53.602c-14.557-20.146-42.672-24.68-62.81-10.133-20.137 14.55-24.675 42.69-10.12 62.833 14.544 20.145 42.66 24.68 62.8 10.128 20.14-14.55 24.672-42.687 10.13-62.827" stroke="#979797" stroke-width="2.965" fill="#FFF"/><path d="M126.682 62.516c-1.646-.264-2.764-1.815-2.498-3.453 1.614-10.017-5.22-19.48-15.218-21.09-1.65-.266-2.764-1.812-2.498-3.457.26-1.642 1.808-2.758 3.454-2.49 13.28 2.14 22.35 14.7 20.21 27.998-.263 1.638-1.81 2.758-3.45 2.492" fill="#979797"/><path stroke="#979797" stroke-width="2.965" fill="#FFF" d="M323.524 219.165l-95.726-72.09 91.43-121.48 95.725 72.086z"/><path fill="#B666A3" d="M338.41 56.445L321.486 43.7l2.408-3.195 16.92 12.745"/><path fill="#979797" d="M397.054 101.54L368.33 79.906l2.404-3.194 28.724 21.635M392.61 110.593L315.1 52.217l2.404-3.193 77.51 58.372M386.227 119.112L308.71 60.74l2.4-3.196 77.523 58.37"/><path fill="#B666A3" d="M379.843 125.495l-77.52-58.367 2.408-3.195 77.52 58.372"/><path fill="#979797" d="M373.45 134.017L295.936 75.65l2.408-3.197 77.51 58.37M369.193 142.54l-77.517-58.37 2.404-3.198 77.525 58.372M362.805 151.058l-77.516-58.37 2.407-3.196 77.514 58.373M356.417 157.45L278.9 99.08l2.405-3.198 77.514 58.37M350.034 165.965l-77.52-58.37 2.403-3.194 77.516 58.377M343.646 174.485l-77.52-58.37 2.41-3.194 77.512 58.372"/><path fill="#B666A3" d="M339.385 180.874l-77.52-58.37 2.405-3.194 77.52 58.37M332.995 189.394l-77.516-58.372 2.403-3.192 77.514 58.37M326.61 197.92l-77.52-58.374 2.407-3.197 77.514 58.37M320.22 204.305l-77.517-58.37 2.408-3.196 77.515 58.37"/><path fill="#979797" d="M379.843 125.495l-77.52-58.367 2.408-3.195 77.52 58.372"/><g transform="translate(205.376 .037)"><mask id="c" fill="#fff"><use xlink:href="#b"/></mask><use mask="url(#d)" xlink:href="#a" stroke-width="5.93" stroke="#979797" fill="#FFF"/></g><path fill="#979797" d="M275.813 24.727L255.48 18.78l1.125-3.834 20.326 5.943M347.49 45.91l-34.52-10.085 1.126-3.84 34.513 10.087M346.482 54.517L253.35 27.302l1.12-3.836 93.136 27.215M342.22 65.17l-93.13-27.215 1.12-3.84 93.135 27.218"/><path fill="#3F91C3" d="M340.09 73.695L246.96 46.48l1.12-3.845 93.132 27.224"/><path fill="#979797" d="M337.963 82.216L244.833 55l1.115-3.846 93.135 27.224M335.836 92.86l-93.133-27.214 1.118-3.842 93.13 27.22M331.573 101.377l-93.13-27.214 1.12-3.84 93.132 27.216"/><path fill="#3F91C3" d="M329.45 112.028l-93.135-27.215 1.12-3.84 93.14 27.217M327.316 120.55l-93.13-27.214 1.116-3.844 93.132 27.22M323.06 131.197l-93.133-27.21 1.12-3.846 93.13 27.22M320.933 139.717l-93.135-27.22 1.124-3.836 93.13 27.214M318.806 150.364l-93.137-27.218 1.127-3.836 93.124 27.218M314.536 158.888l-93.126-27.22 1.114-3.838 93.132 27.215M312.41 167.405l-93.13-27.218 1.12-3.838 93.13 27.22"/><path fill="#979797" d="M340.09 73.695L246.96 46.48l1.12-3.845 93.132 27.224"/><path stroke="#979797" stroke-width="2.965" fill="#FFF" d="M297.668 189.632l-118.843-15.358 19.482-150.808 118.836 15.36z"/><path fill="#979797" d="M229.644 40.8l-21.01-2.715.516-3.97 21.003 2.72M303.915 51.21l-35.66-4.612.51-3.963 35.666 4.61M302.736 61.165l-96.23-12.433.508-3.967 96.23 12.436M302.73 71.818l-96.225-12.44.513-3.964 96.225 12.436"/><path fill="#E3E2E2" d="M300.604 80.336L204.376 67.9l.51-3.967 96.23 12.437M298.473 90.99l-96.226-12.44.513-3.967 96.23 12.438M298.473 99.502l-96.226-12.436.51-3.964 96.227 12.437M296.342 110.156l-96.225-12.438.518-3.966 96.226 12.438M296.34 120.8l-96.223-12.437.516-3.962 96.222 12.435M294.208 129.323l-96.22-12.437.513-3.965 96.23 12.44M292.083 139.972l-96.224-12.438.512-3.964 96.228 12.436M292.08 148.492l-96.22-12.437.51-3.966 96.226 12.432M289.956 159.147L193.73 146.71l.51-3.97 96.227 12.437M289.952 169.79l-96.223-12.44.51-3.962 96.227 12.44M287.822 178.306L191.6 165.87l.513-3.962 96.227 12.434"/><path fill="#979797" d="M300.604 80.336L204.376 67.9l.51-3.967 96.23 12.437"/><path d="M316.19 82.346h-85.256l-12.596-12.602-.028.044c-2.057-2.266-4.987-3.725-8.27-3.725h-45.563c-6.162 0-11.204 5.044-11.204 11.206v118.537c0 6.166 5.047 11.207 11.204 11.207H316.19c6.157 0 11.203-5.04 11.203-11.207V93.554c0-6.166-5.046-11.208-11.202-11.208" stroke="#979797" stroke-width="2.965" fill="#FFF"/><path d="M335.097 224.24c0 7.157-5.867 13.016-13.025 13.016H159.035c-7.16 0-13.02-5.86-13.02-13.017l-9.776-102.55c0-7.16 5.863-13.03 13.022-13.03h182.575c7.167 0 13.027 5.87 13.027 13.03l-9.767 102.55zM153.273 107.583H327.39V98.01H153.274z" stroke="#979797" stroke-width="2.965" fill="#FFF"/></g></svg>