<svg width="433" height="215" viewBox="0 0 433 215" xmlns="http://www.w3.org/2000/svg"><title>08A5EE30-9F1D-4ABF-82B2-C93351317F81</title><g fill="none" fill-rule="evenodd"><path d="M85.813 26.538c-.24 0-.47-.14-.57-.377-.136-.314.01-.68.326-.813.866-.37 1.838-.493 2.756-.37.34.045.58.357.533.697-.047.34-.358.588-.7.533-.7-.094-1.442 0-2.104.28-.08.035-.162.05-.243.05m6.124 2.627c-.252 0-.488-.154-.58-.404-.253-.673-.684-1.266-1.248-1.717-.27-.215-.312-.605-.098-.873.215-.267.604-.31.873-.097.738.59 1.303 1.37 1.633 2.253.12.32-.043.678-.363.8-.072.025-.146.038-.218.038M83.03 30.36c-.018 0-.037 0-.056-.002-.34-.03-.593-.333-.563-.674.086-.94.425-1.842.982-2.605.203-.276.59-.338.87-.136.275.2.336.59.133.867-.424.582-.682 1.268-.747 1.985-.03.323-.3.565-.617.565m8.546 2.78c-.11 0-.22-.028-.32-.088-.293-.176-.39-.557-.213-.85.37-.616.564-1.323.564-2.045 0-.343.278-.62.62-.62.344 0 .622.277.622.62 0 .947-.257 1.873-.742 2.682-.116.193-.322.3-.532.3m-6.498 1.48c-.118 0-.237-.033-.343-.103-.788-.522-1.42-1.247-1.83-2.094-.148-.31-.018-.68.29-.83.31-.15.68-.017.83.29.31.648.794 1.202 1.396 1.6.287.188.366.575.176.86-.12.18-.317.278-.518.278m2.54.764l-.23-.005c-.342-.014-.61-.302-.597-.645.013-.334.288-.597.62-.597h.025l.184.005c.66 0 1.312-.164 1.888-.474.302-.163.68-.052.84.25.163.302.05.68-.25.842-.758.406-1.615.622-2.48.622M19.51 185.758c-.24 0-.47-.14-.57-.377-.135-.315.01-.68.327-.813.867-.37 1.84-.494 2.758-.37.34.045.578.357.532.697-.045.34-.354.58-.698.532-.703-.094-1.445 0-2.105.28-.08.035-.162.052-.244.052m6.126 2.626c-.252 0-.488-.155-.58-.404-.253-.673-.684-1.267-1.248-1.718-.268-.214-.31-.605-.097-.873.216-.268.606-.31.874-.097.738.59 1.303 1.37 1.633 2.252.12.32-.043.678-.363.8-.072.025-.146.04-.218.04m-8.907 1.194c-.02 0-.04-.002-.057-.004-.342-.03-.594-.332-.564-.673.084-.94.423-1.842.98-2.605.203-.275.59-.338.868-.135.277.2.338.59.136.867-.425.58-.684 1.267-.748 1.984-.03.322-.3.565-.617.565m8.544 2.78c-.11 0-.22-.028-.32-.088-.293-.176-.39-.557-.213-.85.37-.617.565-1.325.565-2.046 0-.344.278-.62.62-.62.344 0 .622.276.622.62 0 .946-.256 1.873-.74 2.682-.116.195-.323.302-.533.302m-6.498 1.48c-.118 0-.237-.034-.343-.104-.788-.522-1.42-1.246-1.83-2.095-.148-.308-.018-.68.29-.828.31-.148.68-.018.83.29.31.648.795 1.2 1.396 1.6.285.19.364.574.174.86-.12.18-.316.278-.518.278m2.542.763l-.232-.005c-.342-.013-.61-.3-.597-.644.012-.342.297-.627.643-.596l.185.003c.66 0 1.312-.162 1.888-.472.302-.162.678-.05.84.252.163.3.05.678-.25.84-.758.408-1.614.623-2.478.623M391.076 166.672c-.24 0-.47-.14-.57-.377-.136-.316.01-.68.325-.814.87-.37 1.842-.492 2.76-.37.338.046.578.358.532.698-.046.34-.356.58-.698.532-.7-.094-1.443 0-2.105.28-.08.035-.163.052-.244.052m6.124 2.626c-.252 0-.488-.155-.58-.404-.254-.673-.685-1.267-1.248-1.718-.268-.214-.31-.605-.097-.873.215-.268.604-.31.872-.096.74.59 1.304 1.37 1.634 2.252.12.32-.042.677-.362.798-.072.026-.146.04-.218.04m-8.907 1.196c-.018 0-.037 0-.056-.003-.34-.03-.593-.332-.563-.672.085-.94.424-1.842.98-2.606.204-.275.592-.337.87-.134.275.2.337.59.134.867-.425.58-.682 1.267-.747 1.984-.028.32-.3.564-.617.564m8.546 2.78c-.11 0-.22-.03-.32-.087-.295-.177-.39-.558-.214-.852.37-.615.564-1.323.564-2.044 0-.343.278-.62.62-.62.344 0 .622.277.622.62 0 .947-.256 1.874-.74 2.682-.117.195-.323.302-.533.302m-6.5 1.48c-.117 0-.236-.033-.342-.103-.788-.52-1.42-1.246-1.83-2.094-.148-.31-.018-.68.29-.828.31-.15.68-.02.83.29.31.647.794 1.2 1.396 1.6.286.188.365.573.175.86-.12.18-.318.277-.52.277m2.542.763l-.23-.005c-.343-.013-.61-.302-.598-.644.012-.335.287-.598.62-.598h.023l.185.004c.66 0 1.313-.164 1.89-.474.3-.162.677-.05.84.253.162.3.05.677-.252.84-.757.408-1.614.623-2.478.623M324.375 183.373c-.24 0-.47-.14-.572-.378-.135-.315.012-.68.327-.813.868-.37 1.84-.495 2.758-.37.34.045.578.357.533.696-.045.34-.35.59-.697.533-.7-.09-1.443.002-2.105.282-.08.034-.162.05-.243.05M330.5 186c-.252 0-.49-.154-.582-.403-.252-.673-.683-1.267-1.246-1.718-.268-.214-.31-.605-.097-.873.214-.267.604-.31.873-.096.738.59 1.303 1.37 1.633 2.252.12.32-.042.678-.363.8-.07.025-.145.038-.218.038m-8.908 1.196c-.018 0-.037 0-.056-.003-.342-.03-.593-.332-.563-.672.085-.94.424-1.842.98-2.606.203-.275.59-.337.868-.135s.34.59.137.867c-.424.582-.682 1.268-.747 1.985-.03.32-.3.564-.618.564m8.545 2.78c-.108 0-.22-.027-.318-.087-.296-.176-.39-.557-.215-.852.37-.615.564-1.323.564-2.044 0-.343.277-.62.62-.62.343 0 .62.277.62.62 0 .946-.255 1.874-.74 2.683-.116.194-.322.302-.533.302m-6.497 1.48c-.118 0-.237-.034-.342-.104-.79-.52-1.42-1.246-1.83-2.094-.15-.31-.02-.68.29-.83.308-.147.68-.018.83.29.31.65.794 1.202 1.396 1.6.285.19.363.575.174.86-.12.18-.317.28-.518.28m2.542.762l-.232-.005c-.343-.013-.61-.302-.598-.644.013-.336.288-.598.62-.598h.024l.186.004c.66 0 1.31-.164 1.888-.474.3-.162.678-.05.84.253.163.3.05.677-.25.84-.758.407-1.614.623-2.478.623M41.416 138.185c-.24 0-.47-.14-.57-.377-.136-.315.01-.68.325-.814.87-.37 1.84-.492 2.76-.37.338.045.578.357.532.698-.046.34-.357.587-.698.532-.7-.093-1.443 0-2.105.28-.08.035-.163.05-.244.05m6.124 2.627c-.252 0-.488-.153-.58-.403-.254-.672-.685-1.266-1.248-1.717-.268-.215-.31-.605-.096-.873s.604-.31.872-.097c.738.592 1.303 1.37 1.633 2.253.12.32-.042.678-.362.8-.072.025-.146.038-.218.038m-8.907 1.197c-.018 0-.037 0-.056-.002-.34-.03-.593-.333-.563-.674.085-.94.424-1.84.98-2.604.204-.275.59-.337.87-.135.276.202.337.59.134.868-.424.58-.682 1.267-.747 1.984-.028.323-.3.565-.617.565m8.546 2.78c-.11 0-.22-.028-.32-.087-.295-.177-.39-.558-.214-.852.37-.615.564-1.322.564-2.044 0-.343.278-.62.62-.62.344 0 .622.277.622.62 0 .947-.256 1.874-.74 2.682-.117.194-.323.302-.533.302m-6.5 1.48c-.117 0-.236-.034-.342-.104-.788-.522-1.42-1.246-1.83-2.094-.148-.31-.018-.68.29-.83.31-.15.68-.017.83.29.31.648.794 1.202 1.396 1.6.286.19.365.575.175.86-.12.18-.318.28-.52.28m2.542.76l-.23-.004c-.343-.013-.61-.3-.598-.644.012-.34.29-.65.643-.596l.185.004c.66 0 1.313-.164 1.89-.474.3-.162.677-.05.84.252.162.3.05.678-.252.84-.757.408-1.614.623-2.478.623M7.757 164.484c-3.203 0-5.81 2.605-5.81 5.807 0 3.2 2.607 5.806 5.81 5.806h36.338c3.202 0 5.81-2.605 5.81-5.805 0-3.2-2.608-5.806-5.81-5.806H7.757zm36.338 12.854H7.757c-3.887 0-7.05-3.163-7.05-7.047 0-3.886 3.163-7.047 7.05-7.047h36.338c3.888 0 7.05 3.16 7.05 7.048 0 3.885-3.162 7.048-7.05 7.048zM59.19 186.11c-2.124 0-3.852 1.726-3.852 3.848 0 2.124 1.728 3.85 3.85 3.85h31.868c2.123 0 3.85-1.726 3.85-3.85 0-2.122-1.727-3.85-3.85-3.85H59.19zm31.866 8.94H59.19c-2.81 0-5.094-2.283-5.094-5.092 0-2.806 2.285-5.09 5.093-5.09h31.866c2.808 0 5.093 2.284 5.093 5.09 0 2.81-2.286 5.093-5.094 5.093zM361.152 205.904c-2.124 0-3.852 1.727-3.852 3.85 0 2.122 1.728 3.85 3.852 3.85h31.866c2.124 0 3.852-1.728 3.852-3.85 0-2.123-1.728-3.85-3.852-3.85h-31.866zm31.866 8.94h-31.866c-2.81 0-5.093-2.283-5.093-5.09s2.283-5.092 5.092-5.092h31.866c2.81 0 5.094 2.285 5.094 5.092 0 2.807-2.285 5.09-5.094 5.09zM325.315 26.575c-2 0-3.626 1.626-3.626 3.624 0 1.997 1.625 3.622 3.625 3.622h52.33c2 0 3.626-1.625 3.626-3.623 0-2-1.625-3.625-3.624-3.625h-52.33zm52.33 8.49h-52.33c-2.684 0-4.867-2.183-4.867-4.866 0-2.684 2.183-4.867 4.867-4.867h52.33c2.684 0 4.868 2.183 4.868 4.866 0 2.682-2.184 4.864-4.867 4.864zM51.253 44.3c-1.545 0-2.8 1.258-2.8 2.8 0 1.545 1.255 2.802 2.8 2.802h26.42c1.544 0 2.8-1.257 2.8-2.8 0-1.544-1.256-2.8-2.8-2.8h-26.42zm26.42 6.843h-26.42c-2.23 0-4.043-1.813-4.043-4.042 0-2.228 1.813-4.04 4.043-4.04h26.42c2.228 0 4.04 1.812 4.04 4.04 0 2.23-1.812 4.043-4.04 4.043zM110.357 53.658h-17.12c-.344 0-.62-.277-.62-.62 0-.343.276-.62.62-.62h17.12c.344 0 .62.277.62.62 0 .343-.276.62-.62.62M340.45 168.792h-28.233c-.343 0-.62-.277-.62-.62 0-.344.277-.622.62-.622h28.232c.343 0 .62.278.62.62 0 .345-.277.622-.62.622M110.357 198.742h-8.56c-.343 0-.62-.278-.62-.62 0-.344.277-.622.62-.622h8.56c.344 0 .62.278.62.62 0 .344-.276.622-.62.622M401.834 38.99h-8.56c-.344 0-.622-.28-.622-.622 0-.343.278-.62.622-.62h8.56c.343 0 .62.277.62.62 0 .343-.277.62-.62.62M346.617 21.863c-.343 0-.62-.278-.62-.62v-7.007c0-.343.277-.62.62-.62.344 0 .62.277.62.62v7.006c0 .343-.276.62-.62.62" fill="#606060"/><path d="M350.122 18.36h-7.01c-.342 0-.62-.278-.62-.62 0-.344.278-.622.62-.622h7.01c.343 0 .62.278.62.62 0 .344-.277.622-.62.622M64.462 176.537c-.343 0-.62-.278-.62-.62v-7.007c0-.342.277-.62.62-.62.344 0 .62.278.62.62v7.006c0 .343-.276.62-.62.62" fill="#606060"/><path d="M67.967 173.034h-7.01c-.342 0-.62-.278-.62-.62 0-.343.278-.622.62-.622h7.01c.343 0 .62.28.62.62 0 .344-.277.622-.62.622M39.962 42.492c-.344 0-.622-.278-.622-.62v-7.007c0-.343.278-.62.622-.62.343 0 .62.277.62.62v7.006c0 .344-.277.622-.62.622" fill="#606060"/><path d="M43.466 38.99h-7.01c-.342 0-.62-.28-.62-.622 0-.343.278-.62.62-.62h7.01c.343 0 .62.277.62.62 0 .343-.277.62-.62.62M13.205 122.337c-.343 0-.62-.277-.62-.62v-7.007c0-.343.277-.62.62-.62.344 0 .62.277.62.62v7.006c0 .344-.276.62-.62.62" fill="#606060"/><path d="M16.71 118.834H9.7c-.342 0-.62-.277-.62-.62 0-.344.278-.622.62-.622h7.01c.343 0 .62.278.62.62 0 .345-.277.622-.62.622M346.673 153.674c-.343 0-.62-.277-.62-.62v-7.007c0-.343.277-.62.62-.62.344 0 .62.277.62.62v7.006c0 .344-.276.62-.62.62" fill="#606060"/><path d="M350.178 150.17h-7.01c-.342 0-.62-.276-.62-.62 0-.343.278-.62.62-.62h7.01c.343 0 .62.277.62.62 0 .344-.277.62-.62.62M346.673 212.145c-.343 0-.62-.277-.62-.62v-7.007c0-.343.277-.62.62-.62.344 0 .62.277.62.62v7.006c0 .344-.276.62-.62.62" fill="#606060"/><path d="M350.178 208.642h-7.01c-.342 0-.62-.277-.62-.62 0-.344.278-.622.62-.622h7.01c.343 0 .62.278.62.62 0 .345-.277.622-.62.622M320.835 69.446c-.344 0-.62-.278-.62-.62v-7.007c0-.344.276-.622.62-.622.343 0 .62.278.62.62v7.007c0 .343-.277.62-.62.62" fill="#606060"/><path d="M324.34 65.943h-7.01c-.343 0-.62-.278-.62-.62 0-.344.277-.622.62-.622h7.01c.342 0 .62.28.62.622 0 .343-.278.62-.62.62M42.445 104.072h-2.483c-.344 0-.62-.277-.62-.62 0-.344.276-.622.62-.622h2.483c.343 0 .62.278.62.62 0 .345-.277.622-.62.622m4.966 0H44.93c-.343 0-.62-.277-.62-.62 0-.344.277-.622.62-.622h2.483c.345 0 .622.278.622.62 0 .345-.277.622-.62.622m4.966 0h-2.483c-.344 0-.62-.277-.62-.62 0-.344.276-.622.62-.622h2.483c.343 0 .62.278.62.62 0 .345-.277.622-.62.622m4.967 0H54.86c-.34 0-.62-.277-.62-.62 0-.344.28-.622.62-.622h2.485c.342 0 .62.278.62.62 0 .345-.278.622-.62.622m3.742 0H59.83c-.345 0-.623-.277-.623-.62 0-.344.278-.622.622-.622h1.257c.343 0 .62.278.62.62 0 .345-.277.622-.62.622M412.684 99.793c-.24 0-.47-.14-.57-.378-.136-.315.01-.68.326-.813.867-.37 1.84-.493 2.758-.37.34.045.578.356.532.697-.045.338-.357.586-.698.53-.7-.092-1.443 0-2.104.282-.08.034-.162.05-.244.05m6.124 2.626c-.25 0-.488-.154-.58-.404-.253-.672-.684-1.266-1.247-1.717-.267-.215-.31-.605-.096-.873s.605-.31.873-.096c.737.59 1.303 1.37 1.633 2.252.12.32-.043.678-.364.8-.072.025-.145.038-.218.038m-8.906 1.196c-.018 0-.038 0-.056-.002-.342-.03-.593-.333-.563-.674.085-.94.424-1.84.98-2.605.203-.275.59-.337.87-.135.276.2.336.59.134.867-.425.582-.683 1.267-.747 1.984-.03.322-.3.564-.618.564m8.545 2.78c-.108 0-.22-.028-.32-.087-.293-.177-.39-.558-.213-.852.37-.615.565-1.322.565-2.044 0-.342.276-.62.62-.62.342 0 .62.278.62.62 0 .948-.256 1.875-.74 2.683-.117.194-.323.302-.533.302m-6.498 1.48c-.12 0-.237-.033-.343-.103-.79-.522-1.42-1.247-1.83-2.095-.148-.31-.02-.68.29-.83.31-.148.68-.017.83.29.31.648.794 1.202 1.396 1.6.285.19.364.575.175.86-.12.18-.317.28-.52.28m2.543.762l-.23-.007c-.343-.013-.61-.3-.598-.643.012-.342.292-.65.644-.597l.185.004c.66 0 1.313-.164 1.89-.474.3-.162.678-.05.84.252.163.3.05.678-.252.84-.757.408-1.613.624-2.477.624M379.025 126.09c-3.203 0-5.808 2.606-5.808 5.808 0 3.2 2.605 5.805 5.808 5.805h36.34c3.2 0 5.807-2.604 5.807-5.805 0-3.202-2.606-5.807-5.808-5.807h-36.34zm36.34 12.855h-36.34c-3.887 0-7.05-3.162-7.05-7.047 0-3.887 3.163-7.048 7.05-7.048h36.34c3.886 0 7.05 3.16 7.05 7.048 0 3.885-3.164 7.047-7.05 7.047zM384.474 83.944c-.344 0-.62-.277-.62-.62v-7.007c0-.343.276-.62.62-.62.343 0 .62.277.62.62v7.006c0 .344-.277.62-.62.62" fill="#606060"/><path d="M387.978 80.44h-7.01c-.342 0-.62-.276-.62-.62 0-.343.278-.62.62-.62h7.01c.343 0 .62.277.62.62 0 .344-.277.62-.62.62M413.713 65.68h-2.483c-.343 0-.62-.278-.62-.622 0-.343.277-.62.62-.62h2.483c.344 0 .62.277.62.62 0 .344-.276.62-.62.62m4.967 0h-2.483c-.344 0-.62-.276-.62-.62 0-.343.276-.62.62-.62h2.483c.343 0 .62.277.62.62 0 .344-.277.62-.62.62m4.967 0h-2.484c-.343 0-.62-.276-.62-.62 0-.343.277-.62.62-.62h2.484c.342 0 .62.277.62.62 0 .344-.278.62-.62.62m4.966 0h-2.483c-.343 0-.62-.276-.62-.62 0-.343.277-.62.62-.62h2.483c.343 0 .62.277.62.62 0 .344-.277.62-.62.62m3.742 0h-1.258c-.343 0-.62-.276-.62-.62 0-.343.277-.62.62-.62h1.258c.343 0 .62.277.62.62 0 .344-.277.62-.62.62M303.286 65.943h-2.484c-.342 0-.62-.278-.62-.62 0-.344.278-.622.62-.622h2.484c.343 0 .62.28.62.622 0 .343-.277.62-.62.62m4.966 0h-2.483c-.344 0-.622-.277-.622-.62 0-.343.278-.62.62-.62h2.484c.344 0 .62.277.62.62 0 .343-.276.62-.62.62m4.968 0h-2.484c-.343 0-.62-.277-.62-.62 0-.343.277-.62.62-.62h2.484c.342 0 .62.277.62.62 0 .343-.278.62-.62.62m4.966 0h-2.484c-.342 0-.62-.277-.62-.62 0-.343.278-.62.62-.62h2.484c.343 0 .62.277.62.62 0 .343-.277.62-.62.62m3.743 0h-1.26c-.344 0-.62-.277-.62-.62 0-.343.276-.62.62-.62h1.26c.34 0 .62.277.62.62 0 .343-.28.62-.62.62M133.596 208.642h-2.483c-.343 0-.62-.277-.62-.62 0-.344.277-.622.62-.622h2.483c.343 0 .62.278.62.62 0 .345-.277.622-.62.622m4.966 0h-2.483c-.344 0-.622-.277-.622-.62 0-.344.278-.622.62-.622h2.484c.344 0 .62.278.62.62 0 .345-.276.622-.62.622m4.968 0h-2.484c-.344 0-.62-.277-.62-.62 0-.344.276-.622.62-.622h2.484c.342 0 .62.278.62.62 0 .345-.278.622-.62.622m4.966 0h-2.484c-.342 0-.62-.277-.62-.62 0-.344.278-.622.62-.622h2.484c.343 0 .62.278.62.62 0 .345-.277.622-.62.622m4.966 0h-2.482c-.344 0-.62-.277-.62-.62 0-.344.276-.622.62-.622h2.482c.344 0 .622.278.622.62 0 .345-.278.622-.622.622m4.968 0h-2.484c-.342 0-.62-.277-.62-.62 0-.344.278-.622.62-.622h2.484c.342 0 .62.278.62.62 0 .345-.278.622-.62.622m4.966 0h-2.483c-.343 0-.62-.277-.62-.62 0-.344.277-.622.62-.622h2.483c.344 0 .62.278.62.62 0 .345-.276.622-.62.622" fill="#606060"/><path d="M185.685 27.445h-63.893c-3.514 0-5.868 2.422-5.868 5.935v43.655c0 3.513 2.354 6.696 5.868 6.696h40.976l11.897 16.73V83.73h11.02c3.513 0 6.113-3.182 6.113-6.695V33.38c0-3.513-2.6-5.935-6.113-5.935" stroke="#606060" stroke-width=".93" fill="#FFF"/><path d="M216.504 62.93h-55.25c-3.04 0-6.17 1.33-6.17 4.368v37.75c0 3.037 3.13 4.378 6.17 4.378h35.435l9.793 15.877v-15.877h10.02c3.04 0 5.89-1.34 5.89-4.38V67.3c0-3.04-2.85-4.368-5.89-4.368M299.313 41.716h35.456c1.95 0 3.14.473 3.14 2.424v24.225c0 1.95-1.19 3.043-3.14 3.043h-22.74l-6.516 9.956v-9.956h-6.2c-1.95 0-3.698-1.093-3.698-3.043V44.14c0-1.95 1.748-2.424 3.697-2.424M185.974.486h48.22c2.652 0 4.27.643 4.27 3.295v32.947c0 2.65-1.618 4.138-4.27 4.138H203.27l-8.862 13.54v-13.54h-8.434c-2.65 0-5.028-1.487-5.028-4.138V3.78c0-2.65 2.377-3.294 5.028-3.294" stroke="#606060" stroke-width=".93" fill="#FFF"/><path d="M273.942 29.892h-38.586c-2.122 0-3.832 2.03-3.832 4.152v26.362c0 2.12 1.71 3.747 3.832 3.747h7.182V74.55l6.657-10.397h24.747c2.12 0 2.86-1.626 2.86-3.747V34.044c0-2.122-.74-4.152-2.86-4.152M331.54 89.85h-73.463c-4.04 0-8.348 2.913-8.348 6.952v50.19c0 4.042 4.307 7.708 8.347 7.708h12.457v19.227l13.89-19.227h47.116c4.04 0 7.525-3.666 7.525-7.707v-50.19c0-4.04-3.486-6.954-7.525-6.954" stroke="#606060" stroke-width=".93" fill="#FFF"/><path d="M267.813 121.662h-73.46c-4.042 0-6.885 3.042-6.885 7.083v50.19c0 4.04 2.843 8.802 6.884 8.802h12.696v18.132l13.65-18.133h47.115c4.04 0 7.767-4.76 7.767-8.802v-50.19c0-4.04-3.727-7.083-7.767-7.083M144.19 89.85H95.086c-2.7 0-5.426 1.68-5.426 4.38v33.55c0 2.7 2.725 4.895 5.426 4.895h31.492l8.36 13.108v-13.108h9.252c2.7 0 5.435-2.195 5.435-4.896V94.23c0-2.7-2.734-4.38-5.435-4.38M176.5 153.41h-28.026c-1.542 0-3.227 2.165-3.227 3.708v19.148c0 1.54 1.685 2.375 3.227 2.375h17.974l5.182 7.902v-7.9h4.87c1.542 0 3.16-.835 3.16-2.376v-19.148c0-1.543-1.618-3.71-3.16-3.71" stroke="#606060" stroke-width=".93" fill="#FFF"/></g></svg>