<svg width="24" height="27" viewBox="0 0 24 27" xmlns="http://www.w3.org/2000/svg"><title>E5D47A98-0225-434A-AF89-6CA4FE2F0531</title><path d="M22.304 3.99l.12.068v3.71l-.15.075c-.077-.12-.22-.24-.223-.36-.017-1.035-.018-2.07.003-3.105.002-.13.164-.26.25-.39zm-.824 6.05c.198-.668.363-1.263.565-1.846.016-.045.422-.04.438.01.19.584.34 1.18.52 1.837H21.48zm.906-6.367c-.17.076-.227.112-.29.13-3.263.882-6.524 1.767-9.79 2.633-.24.063-.528.03-.773-.036-2.84-.752-5.674-1.518-8.51-2.284-.445-.12-.885-.256-1.47-.426 3.495-1.236 6.83-2.42 10.17-3.588.163-.058.384-.055.55.003 3.338 1.17 6.672 2.35 10.113 3.568zm-12.86 16.24c1.644.98 3.34.95 4.933.01.23.15.38.292.555.352 2.06.702 4.125 1.395 6.19 2.083.8.266 1.43.753 1.753 1.515.375.884.652 1.81.982 2.75H.058c.26-.78.513-1.524.763-2.27.356-1.066 1.083-1.718 2.166-2.064 2.006-.64 3.995-1.333 5.987-2.016.177-.06.323-.208.553-.36zM6.084 5.693c.208.038.312.05.413.076 1.675.447 3.347.907 5.027 1.335.292.075.633.075.926.005.93-.22 1.846-.49 2.77-.736.862-.23 1.726-.457 2.694-.713 0 1.375.013 2.657-.01 3.938-.005.275.02.426.288.58.694.4.96 1.085.76 1.852-.163.627-.34 1.253-.552 1.865-.083.238-.266.45-.432.65-.222.268-.5.494-.704.774-.686.94-1.345 1.9-2.023 2.845-1.69 2.362-4.798 2.352-6.5.007-.98-1.35-2.075-2.624-3-4.01-.39-.588-.5-1.37-.692-2.075-.23-.844.046-1.452.773-1.946.136-.09.25-.314.253-.48.02-1.298.01-2.597.01-3.968z" fill="#429C87" fill-rule="evenodd"/></svg>