<svg width="25" height="19" viewBox="0 0 25 19" xmlns="http://www.w3.org/2000/svg"><title>F1B5F8FC-48E8-47E1-BEED-2F76CB888833</title><g fill="#3678BF" fill-rule="evenodd"><path d="M22.77 18.114H2.125a1.823 1.823 0 0 1-1.82-1.82V2.246c0-1.004.817-1.82 1.82-1.82H22.77c1.004 0 1.82.816 1.82 1.82v14.046c0 1.004-.816 1.82-1.82 1.82zM2.125 1.504a.743.743 0 0 0-.742.743v14.046c0 .41.333.743.742.743H22.77a.744.744 0 0 0 .742-.743V2.247a.744.744 0 0 0-.742-.742H2.126z"/><path d="M3.477 3.784h1.078v10.97H3.477zm2.316 0H6.87v10.97H5.794zm2.278 0h1.08v10.97H8.07zm1.65 0h1.077v10.97H9.72zm3.07 0h1.078v10.97H12.79zm1.296 0h1.078v10.97h-1.078zm2.127 0h1.078v10.97h-1.077zm2.516 0h1.077v10.97H18.73zm1.963 0h1.078v10.97h-1.077z"/></g></svg>