<svg width="13" height="16" viewBox="0 0 13 16" xmlns="http://www.w3.org/2000/svg"><title>E74B126D-E634-4B34-B557-699011D6E3BB</title><g fill="#CF515D" fill-rule="evenodd"><path d="M10.726 9.257c-1.82-.602-2.576-1.35-2.576-1.35l-.06.06c-.54.514-1.138.817-1.683.817h-.05c-.546 0-1.143-.303-1.683-.818l-.06-.06s-.757.75-2.577 1.35C-.648 10.274.157 14.41.157 14.442c.085.46.134.62.177.637 2.697 1.216 9.398 1.216 12.095 0 .042-.017.09-.176.176-.636 0-.03.816-4.15-1.88-5.183z"/><path d="M9.202 3.982l-.022-.025c-.152-.14-.14-.132-.14-.132s.264-1.347.052-1.984C8.762.825 6.78.14 6.382.064c0 0-.243-.05-.258-.05 0 0-.313-.064-.675.096-.237.09-1.47.657-1.82 1.73-.213.638.05 1.985.05 1.985s.013-.008-.14.132l-.02.025c-.103.117-.078.485.034.868.1.383.233.486.265.576.32 1.525 1.434 2.826 2.57 2.826s2.192-1.3 2.512-2.826c.032-.09.164-.193.265-.576.112-.383.14-.776.035-.868z"/></g></svg>