<svg width="370" height="310" viewBox="0 0 370 310" xmlns="http://www.w3.org/2000/svg"><title>CE804420-0C3E-42FF-9E72-FCDDA4DC9850</title><path d="M223.288 53.21c17.093 10.69 29.102 28.746 31.28 49.727 6.965 3.228 14.714 5.12 22.924 5.12 29.965 0 54.256-24.21 54.256-54.042S307.458 0 277.492 0c-29.686 0-53.776 23.75-54.204 53.21zM187.72 163.814c29.965 0 54.256-24.183 54.256-54.015 0-29.84-24.29-54.022-54.256-54.022-29.965 0-54.282 24.183-54.282 54.022 0 29.832 24.317 54.015 54.282 54.015zm23.027 3.68h-46.053c-38.298 0-69.475 31.046-69.475 69.174v56.08l.148.86 3.878 1.212C135.792 306.192 167.56 310 193.7 310c51.065 0 80.673-14.5 82.5-15.43l3.62-1.82h.382v-56.08c0-38.13-31.158-69.175-69.455-69.175zm89.77-55.758h-45.695c-.48 18.21-8.28 34.603-20.62 46.378 34.043 10.084 58.944 41.51 58.944 78.657v17.27c45.112-1.66 71.128-14.37 72.827-15.23l3.644-1.84H370v-56.088c0-38.127-31.158-69.147-69.482-69.147zm-208.01-3.68c10.61 0 20.492-3.1 28.877-8.348 2.658-17.276 11.95-32.383 25.224-42.64.052-1.014.156-2.022.156-3.055C146.764 24.183 122.474 0 92.508 0 62.543 0 38.246 24.183 38.246 54.015c0 29.858 24.297 54.042 54.262 54.042zm48.732 50.058c-12.282-11.724-20.057-28.044-20.615-46.127-1.7-.122-3.372-.25-5.123-.25h-46.02C31.158 111.737 0 142.757 0 180.91v56.062l.15.885 3.877 1.207c29.31 9.103 55.5 13.318 78.25 14.63V236.77c0-37.146 24.893-68.593 58.962-78.657z" fill="#606060" fill-rule="evenodd"/></svg>