<svg width="37" height="48" viewBox="0 0 37 48" xmlns="http://www.w3.org/2000/svg"><title>jpg</title><g fill="none" fill-rule="evenodd"><path d="M36.75 12.632V44.21c0 2.093-1.703 3.79-3.802 3.79H3.802C1.702 48 0 46.303 0 44.21V3.79C0 1.696 1.702 0 3.802 0h20.275L36.75 12.632z" fill="#E28500"/><path d="M27.712 36.136c-.585.464-1.524.696-2.818.696-1.066 0-2-.203-2.797-.61l.517-1.433c.74.343 1.5.516 2.28.516.726 0 1.23-.105 1.515-.313.282-.208.424-.558.424-1.052v-.582c-.58.53-1.282.794-2.104.794-.87 0-1.556-.312-2.055-.936-.5-.625-.75-1.523-.75-2.694 0-.733.118-1.378.352-1.936.233-.56.576-.99 1.028-1.296.45-.306.997-.46 1.637-.46.377 0 .753.084 1.13.25.376.165.692.373.946.627l.23-.672h1.342v6.98c0 .95-.293 1.658-.878 2.12v.002zm-.878-7.127c-.48-.426-1.005-.638-1.572-.638-.427 0-.787.194-1.083.583-.296.39-.443.903-.443 1.54 0 .724.13 1.258.39 1.6.262.345.6.517 1.02.517.58 0 1.143-.233 1.687-.7V29.01zm-7.23 4.89c-.43.308-.945.462-1.544.462-.79 0-1.463-.246-2.02-.74v3.21h-1.757v-9.797h1.62v.698c.326-.28.67-.5 1.03-.66.36-.162.775-.242 1.243-.242.903 0 1.59.318 2.062.952.473.633.708 1.553.708 2.76 0 .765-.116 1.44-.347 2.022-.232.584-.564 1.03-.995 1.337zm-.83-4.948c-.24-.388-.598-.58-1.075-.58-.287 0-.58.067-.882.2-.302.133-.562.297-.78.49v3.115c.187.168.417.316.692.445.274.13.557.194.847.194.48 0 .86-.205 1.14-.615.28-.408.42-.952.42-1.63-.002-.692-.122-1.232-.362-1.62v.002zm-7.078-2.97c-.373 0-.626-.075-.762-.23-.136-.153-.204-.373-.204-.658 0-.316.072-.544.217-.68.146-.14.395-.21.75-.21.353.002.606.068.758.202.152.133.227.363.227.688 0 .33-.08.56-.244.692-.164.132-.41.197-.742.197zm-.864 1.053h1.755v7.422c0 .85-.19 1.46-.57 1.825-.382.367-1.006.55-1.873.55-.195 0-.452-.022-.77-.065-.317-.043-.562-.09-.734-.14l.38-1.52c.332.133.675.2 1.03.2.352-.002.57-.11.655-.328.085-.217.127-.577.127-1.08v-6.865z" fill="#FFF"/><path d="M36.75 11.924v1.572H26.39c-2.145 0-3.134-1.74-3.134-3.886V0h1.57L36.75 11.924z" fill="#FFCF8B"/></g></svg>