<svg width="37" height="48" viewBox="0 0 37 48" xmlns="http://www.w3.org/2000/svg"><title>avi</title><g fill="none" fill-rule="evenodd"><path d="M36.444 12.632V44.21c0 2.093-1.688 3.79-3.77 3.79H3.77C1.688 48 0 46.303 0 44.21V3.79C0 1.696 1.688 0 3.77 0h20.107l12.567 12.632z" fill="#1DA0FF"/><path d="M14.237 32c-.088-.17-.152-.385-.19-.64-.463.515-1.062.772-1.8.772-.7 0-1.278-.202-1.738-.607-.46-.404-.69-.914-.69-1.53 0-.755.28-1.335.84-1.74.56-.403 1.37-.608 2.43-.612h.877v-.41c0-.328-.085-.592-.254-.79-.17-.198-.436-.297-.8-.297-.322 0-.573.077-.756.23-.182.155-.273.366-.273.634H9.98c0-.413.126-.795.38-1.147.256-.352.616-.627 1.082-.827.466-.2.99-.3 1.57-.3.878 0 1.575.22 2.092.662.516.442.774 1.063.774 1.862v3.092c.005.677.1 1.19.284 1.536V32h-1.925zm-1.575-1.325c.28 0 .54-.063.777-.188s.412-.293.527-.504v-1.226h-.712c-.954 0-1.46.33-1.523.99l-.006.11c0 .238.083.434.25.587.167.154.396.23.686.23zm7.49-1.002l1.324-4.805h1.99L21.06 32h-1.82l-2.405-7.132h1.99l1.326 4.805zM26.55 32h-1.91v-7.132h1.91V32zm-2.023-8.978c0-.286.094-.52.285-.705.192-.185.452-.277.782-.277.325 0 .584.092.777.277.194.184.29.42.29.705 0 .29-.097.527-.293.712-.194.184-.453.277-.773.277s-.58-.092-.775-.276c-.196-.185-.293-.422-.293-.712z" fill="#FFF"/><path d="M36.444 11.924v1.572H26.17c-2.126 0-3.107-1.74-3.107-3.886V0h1.556l11.824 11.924z" fill="#91D1FF"/></g></svg>