<svg width="37" height="48" viewBox="0 0 37 48" xmlns="http://www.w3.org/2000/svg"><title>xml</title><g fill="none" fill-rule="evenodd"><path d="M36.444 12.632V44.21c0 2.093-1.688 3.79-3.77 3.79H3.77C1.688 48 0 46.303 0 44.21V3.79C0 1.696 1.688 0 3.77 0h20.107l12.567 12.632z" fill="#FFBF48"/><path d="M10.523 26.997l1.2-2.13h2.036l-2.03 3.494L13.844 32H11.8l-1.27-2.24L9.262 32h-2.05l2.116-3.64-2.024-3.492H9.35l1.173 2.13zm6.177-2.13l.06.798c.505-.62 1.188-.93 2.05-.93.918 0 1.548.363 1.89 1.088.502-.725 1.216-1.087 2.144-1.087.773 0 1.35.225 1.727.675.38.452.567 1.13.567 2.035V32h-1.91v-4.548c0-.405-.08-.7-.238-.887-.16-.187-.44-.28-.84-.28-.57 0-.965.272-1.185.817L20.97 32h-1.904v-4.542c0-.413-.08-.712-.243-.896-.163-.185-.44-.277-.83-.277-.542 0-.933.224-1.174.672V32h-1.906v-7.132H16.7zM28.85 32h-1.912V21.875h1.912V32z" fill="#FFF"/><path d="M36.444 11.924v1.572H26.17c-2.126 0-3.107-1.74-3.107-3.886V0h1.556l11.824 11.924z" fill="#FFDB96"/></g></svg>