<svg width="37" height="48" viewBox="0 0 37 48" xmlns="http://www.w3.org/2000/svg"><title>mp3</title><g fill="none" fill-rule="evenodd"><path d="M36.75 12.632V44.21c0 2.093-1.703 3.79-3.802 3.79H3.802C1.702 48 0 46.303 0 44.21V3.79C0 1.696 1.702 0 3.802 0h20.275L36.75 12.632z" fill="#FF4A65"/><path d="M7.144 24.868l.06.797c.505-.62 1.188-.93 2.05-.93.918 0 1.55.363 1.89 1.088.502-.725 1.217-1.087 2.144-1.087.773 0 1.35.225 1.727.675.378.452.567 1.13.567 2.035V32H13.67v-4.548c0-.405-.08-.7-.237-.887-.158-.187-.437-.28-.837-.28-.572 0-.967.272-1.187.817L11.415 32H9.51v-4.542c0-.413-.08-.712-.243-.896-.163-.185-.44-.277-.83-.277-.54 0-.932.224-1.174.672V32H5.358v-7.132h1.786zm16.56 3.632c0 1.098-.25 1.978-.748 2.64-.5.66-1.173.992-2.02.992-.722 0-1.304-.25-1.748-.752v3.362h-1.905v-9.874h1.767l.066.698c.46-.553 1.063-.83 1.806-.83.88 0 1.562.325 2.05.975.488.652.732 1.548.732 2.69v.1zm-1.905-.14c0-.662-.12-1.174-.354-1.535-.235-.36-.577-.54-1.025-.54-.597 0-1.008.228-1.232.685v2.92c.233.47.65.706 1.246.706.91 0 1.365-.745 1.365-2.235zm5.18-2.003h1.016c.483 0 .842-.12 1.074-.362.233-.242.35-.563.35-.963 0-.386-.116-.687-.346-.903-.23-.216-.55-.324-.953-.324-.364 0-.67.1-.915.3-.246.2-.37.46-.37.78h-1.904c0-.5.136-.95.406-1.347.27-.398.648-.71 1.134-.933.486-.224 1.02-.336 1.605-.336 1.015 0 1.81.243 2.386.73.577.484.865 1.154.865 2.006 0 .44-.134.844-.402 1.213-.268.368-.62.652-1.055.85.54.193.944.483 1.21.87.265.386.398.843.398 1.37 0 .853-.31 1.536-.932 2.05-.622.515-1.445.772-2.47.772-.957 0-1.74-.253-2.35-.758-.608-.506-.912-1.174-.912-2.004h1.905c0 .36.135.655.406.883.27.23.603.343.998.343.454 0 .81-.12 1.066-.36.257-.24.385-.556.385-.952 0-.958-.526-1.437-1.58-1.437h-1.01v-1.49z" fill="#FFF"/><path d="M36.75 11.924v1.572H26.39c-2.145 0-3.134-1.74-3.134-3.886V0h1.57L36.75 11.924z" fill="#FD94A3"/></g></svg>