<svg width="37" height="48" viewBox="0 0 37 48" xmlns="http://www.w3.org/2000/svg"><title>txt</title><g fill="none" fill-rule="evenodd"><path d="M36.75 12.632V44.21c0 2.093-1.703 3.79-3.802 3.79H3.802C1.702 48 0 46.303 0 44.21V3.79C0 1.696 1.702 0 3.802 0h20.275L36.75 12.632z" fill="#9C9C9C"/><path d="M13.16 23.114v1.754h1.22v1.397h-1.22v3.56c0 .263.05.452.15.567.102.114.295.17.58.17.212 0 .4-.014.56-.045v1.443c-.372.115-.757.172-1.152.172-1.336 0-2.017-.675-2.044-2.024v-3.843h-1.04v-1.397h1.04v-1.754h1.905zm5.234 3.883l1.2-2.13h2.037l-2.03 3.494L21.716 32h-2.043L18.4 29.76 17.136 32h-2.05l2.116-3.64-2.023-3.492h2.044l1.174 2.13zm6.672-3.883v1.754h1.22v1.397h-1.22v3.56c0 .263.05.452.152.567.1.114.294.17.58.17.21 0 .397-.014.56-.045v1.443c-.374.115-.758.172-1.154.172-1.336 0-2.017-.675-2.043-2.024v-3.843h-1.04v-1.397h1.04v-1.754h1.906z" fill="#FFF"/><path d="M36.75 11.924v1.572H26.39c-2.145 0-3.134-1.74-3.134-3.886V0h1.57L36.75 11.924z" fill="#FFF2E0"/></g></svg>