<svg width="28" height="24" viewBox="0 0 28 24" xmlns="http://www.w3.org/2000/svg"><title>0F1E8699-E936-4C4A-A7D4-77AF91318630</title><path d="M24.957 23.333H3.043C1.363 23.333 0 21.96 0 20.263V6.14c0-.34.272-.614.61-.614h1.825v-3.07C2.435 1.1 3.525 0 4.87 0h6.087C12.3 0 13.39 1.1 13.39 2.456v.614h14c.338 0 .61.275.61.614v16.58c0 1.695-1.362 3.07-3.043 3.07zM1.217 6.753v13.51c0 1.018.818 1.842 1.826 1.842h19.492c-.385-.514-.622-1.147-.622-1.842V6.753H1.217zM26.783 4.3h-14.61V2.456c0-.678-.544-1.228-1.216-1.228H4.87c-.672 0-1.218.55-1.218 1.228v3.07h18.87c.17 0 .322.07.432.183.11.11.176.262.176.43v14.123c0 1.018.818 1.842 1.827 1.842 1.008 0 1.826-.824 1.826-1.842V4.298z" fill="#4785D6" fill-rule="evenodd"/></svg>