<svg width="66" height="48" viewBox="0 0 66 48" xmlns="http://www.w3.org/2000/svg"><title>8A01C351-04A7-4EC0-8D28-6939556F0642</title><g fill="none" fill-rule="evenodd"><path d="M3.03 14.965s-.017-11.72 0-12.823C3.047 1.04 2.526 0 4.997 0h21.5c1.87 0 2.175.555 2.175 1.805v2.233s31.696-.05 33.062 0c1.365.05 1.022.483 1.022 1.034v13.333H3.046l-.016-3.44z" fill="#429C87"/><path fill="#FFF" d="M4.224 6.642h57.34V23.85H4.223z"/><path d="M33.693 13.6s-31.217-.026-32.186 0c-.97.026-1.253.898-1.253.898s1.66 30.835 1.733 31.748c.074.914 0 1.746.954 1.746H62.68s1.154 0 1.305-1.706c.15-1.706 1.83-35.206 1.83-35.206s.31-1.464-1.382-1.464H39.347L33.693 13.6z" fill="#429C87"/></g></svg>