<svg width="37" height="48" viewBox="0 0 37 48" xmlns="http://www.w3.org/2000/svg"><title>csv</title><g fill="none" fill-rule="evenodd"><path d="M36.75 12.632V44.21c0 2.093-1.703 3.79-3.802 3.79H3.802C1.702 48 0 46.303 0 44.21V3.79C0 1.696 1.702 0 3.802 0h20.275L36.75 12.632z" fill="#FE6BA1"/><path d="M11.44 30.596c.35 0 .636-.097.856-.29.22-.193.334-.45.342-.77h1.787c-.005.482-.136.925-.396 1.327-.26.402-.615.714-1.065.936-.45.22-.948.332-1.493.332-1.02 0-1.824-.324-2.413-.972-.59-.65-.884-1.544-.884-2.687v-.125c0-1.098.292-1.975.877-2.63.584-.655 1.386-.982 2.406-.982.89 0 1.606.254 2.144.76.54.51.812 1.184.82 2.028H12.64c-.008-.37-.123-.67-.342-.9-.22-.23-.51-.346-.87-.346-.444 0-.78.162-1.006.485-.226.323-.34.847-.34 1.572v.198c0 .734.113 1.26.337 1.582.224.32.565.48 1.022.48zm8.174-.567c0-.234-.116-.417-.347-.55-.23-.135-.6-.255-1.11-.36-1.697-.357-2.545-1.077-2.545-2.163 0-.633.263-1.16.788-1.585.525-.424 1.212-.636 2.06-.636.905 0 1.63.213 2.172.64.543.426.814.98.814 1.66H19.54c0-.272-.087-.497-.263-.675-.175-.177-.45-.266-.824-.266-.32 0-.57.072-.744.217-.177.146-.265.33-.265.555 0 .21.1.38.3.51.2.13.537.243 1.012.337.474.095.874.2 1.2.32 1.006.37 1.51 1.008 1.51 1.918 0 .65-.28 1.177-.838 1.58-.56.4-1.28.602-2.163.602-.598 0-1.13-.107-1.592-.32-.464-.213-.828-.505-1.09-.877-.265-.37-.397-.772-.397-1.203h1.806c.018.34.143.598.376.778.233.18.545.27.936.27.365 0 .64-.07.827-.207.187-.14.28-.32.28-.544zm5.986-.357l1.325-4.805h1.99L26.51 32h-1.82l-2.406-7.132h1.99l1.326 4.805z" fill="#FFF"/><path d="M36.75 11.924v1.572H26.39c-2.145 0-3.134-1.74-3.134-3.886V0h1.57L36.75 11.924z" fill="#FFA2C4"/></g></svg>