<svg width="37" height="48" viewBox="0 0 37 48" xmlns="http://www.w3.org/2000/svg"><title>svg</title><g fill="none" fill-rule="evenodd"><path d="M36.75 12.632V44.21c0 2.093-1.703 3.79-3.802 3.79H3.802C1.702 48 0 46.303 0 44.21V3.79C0 1.696 1.702 0 3.802 0h20.275L36.75 12.632z" fill="#79AC00"/><path d="M12.045 31.03c0-.234-.115-.417-.346-.55-.232-.135-.602-.255-1.112-.36-1.696-.357-2.544-1.077-2.544-2.163 0-.633.263-1.16.788-1.585.525-.424 1.212-.636 2.06-.636.905 0 1.63.213 2.172.64.542.426.814.98.814 1.66h-1.905c0-.272-.088-.497-.264-.675-.177-.177-.45-.266-.825-.266-.32 0-.57.072-.745.217-.176.146-.263.33-.263.555 0 .21.1.38.3.51.2.13.537.243 1.01.337.476.095.876.2 1.2.32 1.007.37 1.51 1.008 1.51 1.918 0 .65-.28 1.177-.837 1.58-.558.4-1.278.602-2.162.602-.597 0-1.128-.107-1.592-.32-.463-.213-.827-.505-1.09-.877-.264-.37-.396-.772-.396-1.203h1.806c.018.34.143.598.376.778.233.18.545.27.936.27.365 0 .64-.07.827-.207.187-.14.28-.32.28-.544zm5.987-.357l1.324-4.805h1.99L18.942 33h-1.818l-2.406-7.132h1.99l1.326 4.805zm4.028-1.292c0-1.093.26-1.974.78-2.642.522-.668 1.224-1.002 2.107-1.002.782 0 1.39.268 1.826.804l.08-.672h1.726v6.895c0 .624-.142 1.166-.426 1.628-.283.462-.682.814-1.196 1.056-.514.24-1.116.362-1.806.362-.523 0-1.033-.104-1.53-.313-.496-.21-.872-.478-1.127-.807l.844-1.16c.473.53 1.05.797 1.726.797.505 0 .9-.135 1.18-.405.28-.27.422-.654.422-1.15v-.383c-.44.497-1.018.745-1.734.745-.857 0-1.55-.335-2.08-1.005-.53-.67-.794-1.56-.794-2.667v-.08zm1.905.14c0 .646.13 1.152.39 1.52.258.366.614.55 1.067.55.58 0 .995-.218 1.246-.653v-3c-.255-.435-.666-.652-1.233-.652-.457 0-.816.187-1.078.56-.26.374-.392.932-.392 1.675z" fill="#FFF"/><path d="M36.75 11.924v1.572H26.39c-2.145 0-3.134-1.74-3.134-3.886V0h1.57L36.75 11.924z" fill="#DAFF82"/></g></svg>