<svg width="37" height="48" viewBox="0 0 37 48" xmlns="http://www.w3.org/2000/svg"><title>doc</title><g fill="none" fill-rule="evenodd"><path d="M36.444 12.632V44.21c0 2.093-1.688 3.79-3.77 3.79H3.77C1.688 48 0 46.303 0 44.21V3.79C0 1.696 1.688 0 3.77 0h20.107l12.567 12.632z" fill="#067FCB"/><path d="M27.44 28.51c-.21-.102-.482-.152-.815-.152-.594 0-1.017.183-1.27.55-.25.366-.377.934-.377 1.702 0 .77.13 1.33.388 1.687.26.354.7.532 1.326.532.27 0 .518-.04.742-.116.226-.077.44-.247.642-.51l1.316.93c-.27.403-.625.708-1.066.916-.442.208-1 .312-1.674.312-1.143 0-2.007-.313-2.592-.94-.585-.626-.878-1.554-.878-2.784 0-1.2.284-2.133.85-2.803.568-.67 1.418-1.004 2.552-1.004.608 0 1.15.1 1.623.3.476.2.836.507 1.084.922l-1.295.93c-.157-.213-.342-.37-.554-.47v-.002zm-8.888 5.852c-2.268 0-3.402-1.25-3.402-3.752 0-1.203.272-2.133.816-2.792.545-.658 1.407-.987 2.586-.987 1.17 0 2.027.33 2.572.988.544.66.816 1.59.816 2.792 0 1.186-.272 2.107-.816 2.765-.545.658-1.402.987-2.572.987zm1.222-5.465c-.243-.36-.65-.54-1.222-.54-.567 0-.977.185-1.228.554-.252.37-.38.936-.38 1.7 0 .76.126 1.32.376 1.68.25.36.66.54 1.232.54.562 0 .967-.18 1.215-.533.247-.356.37-.918.37-1.686 0-.782-.12-1.353-.363-1.712zm-7.83 4.563c-.324.276-.666.495-1.026.658-.36.163-.77.244-1.23.244-.89 0-1.57-.323-2.044-.97-.473-.647-.708-1.56-.708-2.74 0-1.21.26-2.147.78-2.817.52-.67 1.25-1.004 2.19-1.004.332 0 .674.07 1.025.208.352.138.642.314.872.526V24.05h1.74v10.102h-1.598v-.692zm-.142-4.45c-.184-.168-.413-.317-.685-.446-.272-.128-.55-.192-.834-.192-.468 0-.843.202-1.127.607-.284.404-.425.952-.425 1.644 0 .683.116 1.22.348 1.608.232.39.59.584 1.077.584.288 0 .58-.067.88-.2.3-.134.555-.298.767-.493V29.01z" fill="#FFF"/><path d="M36.444 11.924v1.572H26.17c-2.126 0-3.107-1.74-3.107-3.886V0h1.556l11.824 11.924z" fill="#7CC9F9"/></g></svg>