<svg width="37" height="48" viewBox="0 0 37 48" xmlns="http://www.w3.org/2000/svg"><title>zip</title><g fill="none" fill-rule="evenodd"><path d="M36.75 12.632V44.21c0 2.093-1.703 3.79-3.802 3.79H3.802C1.702 48 0 46.303 0 44.21V3.79C0 1.696 1.702 0 3.802 0h20.275L36.75 12.632z" fill="#619C2D"/><path d="M11.432 32.164h3.487V33.7H9v-1.16l3.355-4.43H9.1v-1.542h5.714v1.127l-3.382 4.47zm6.93 1.536H16.45v-7.132h1.91V33.7zm-2.024-8.978c0-.285.095-.52.286-.705.192-.185.452-.277.78-.277.327 0 .586.092.78.277.193.184.29.42.29.705 0 .29-.098.528-.294.712-.196.185-.454.277-.775.277-.32 0-.58-.09-.774-.276-.195-.184-.292-.422-.292-.712zm10.25 5.478c0 1.1-.25 1.98-.747 2.64-.498.66-1.172.992-2.02.992-.72 0-1.303-.25-1.747-.75v3.36h-1.905v-9.874h1.767l.066.7c.462-.555 1.064-.832 1.807-.832.88 0 1.562.325 2.05.976.488.65.732 1.546.732 2.69v.098zm-1.904-.138c0-.664-.118-1.176-.353-1.536-.234-.36-.576-.54-1.024-.54-.598 0-1.008.228-1.233.685v2.92c.233.47.65.706 1.246.706.91 0 1.364-.745 1.364-2.234z" fill="#FFF"/><path d="M36.75 11.924v1.572H26.39c-2.145 0-3.134-1.74-3.134-3.886V0h1.57L36.75 11.924z" fill="#C5FF92"/></g></svg>