<svg width="37" height="48" viewBox="0 0 37 48" xmlns="http://www.w3.org/2000/svg"><title>ppt</title><g fill="none" fill-rule="evenodd"><path d="M36.75 12.632V44.21c0 2.093-1.703 3.79-3.802 3.79H3.802C1.702 48 0 46.303 0 44.21V3.79C0 1.696 1.702 0 3.802 0h20.275L36.75 12.632z" fill="#E45415"/><path d="M15.414 28.5c0 1.098-.25 1.978-.75 2.64-.497.66-1.17.992-2.02.992-.72 0-1.302-.25-1.746-.752v3.362H8.993v-9.874h1.767l.066.698c.46-.553 1.063-.83 1.806-.83.88 0 1.562.325 2.05.975.488.652.732 1.548.732 2.69v.1zm-1.905-.14c0-.662-.12-1.174-.354-1.535-.235-.36-.577-.54-1.025-.54-.597 0-1.008.228-1.232.685v2.92c.233.47.648.706 1.246.706.91 0 1.365-.745 1.365-2.235zm9.742.14c0 1.098-.25 1.978-.748 2.64-.5.66-1.172.992-2.02.992-.72 0-1.303-.25-1.747-.752v3.362h-1.905v-9.874h1.766l.066.698c.462-.553 1.064-.83 1.806-.83.88 0 1.563.325 2.05.975.488.652.732 1.548.732 2.69v.1zm-1.905-.14c0-.662-.117-1.174-.352-1.535-.236-.36-.577-.54-1.025-.54-.598 0-1.01.228-1.233.685v2.92c.233.47.648.706 1.246.706.91 0 1.364-.745 1.364-2.235zm5.604-5.246v1.754h1.22v1.397h-1.22v3.56c0 .263.052.452.153.567.1.114.294.17.58.17.21 0 .398-.014.56-.045v1.443c-.373.115-.758.172-1.153.172-1.336 0-2.018-.675-2.044-2.024v-3.843h-1.04v-1.397h1.04v-1.754h1.905z" fill="#FFF"/><path d="M36.75 11.924v1.572H26.39c-2.145 0-3.134-1.74-3.134-3.886V0h1.57L36.75 11.924z" fill="#FFA279"/></g></svg>