<svg width="37" height="48" viewBox="0 0 37 48" xmlns="http://www.w3.org/2000/svg"><title>xls</title><g fill="none" fill-rule="evenodd"><path d="M36.75 12.632V44.21c0 2.093-1.703 3.79-3.802 3.79H3.802C1.702 48 0 46.303 0 44.21V3.79C0 1.696 1.702 0 3.802 0h20.275L36.75 12.632z" fill="#79AC00"/><path d="M23.71 28.263c-.363 0-.638.062-.824.187-.186.124-.28.283-.28.477 0 .186.085.334.253.445.167.11.5.227.993.35.812.198 1.392.396 1.74.593.346.197.61.44.79.733.178.292.268.65.268 1.075 0 .47-.12.873-.356 1.208-.24.336-.577.59-1.015.767-.44.177-.94.265-1.502.265-1.492 0-2.51-.414-3.05-1.24l1.308-.917c.213.29.46.482.738.58.28.097.578.146.895.146.834 0 1.252-.24 1.252-.725 0-.213-.118-.377-.354-.492-.237-.116-.606-.234-1.11-.356-.948-.208-1.615-.503-2-.882-.387-.38-.58-.873-.58-1.48 0-.628.242-1.146.726-1.553.483-.407 1.194-.61 2.134-.61.64 0 1.203.1 1.69.305.488.203.864.51 1.127.915l-1.313.93c-.314-.48-.824-.72-1.532-.72zm-6.248-4.214h1.756v10.102h-1.756V24.05zm-3.274 10.102l-1.415-2.267-1.485 2.267H9.342l2.464-3.515-2.423-3.602h2.05l1.42 2.253 1.465-2.253h1.94L13.8 30.542l2.47 3.61h-2.082z" fill="#FFF"/><path d="M36.75 11.924v1.572H26.39c-2.145 0-3.134-1.74-3.134-3.886V0h1.57L36.75 11.924z" fill="#B4E441"/></g></svg>