<svg width="22" height="30" viewBox="0 0 22 30" xmlns="http://www.w3.org/2000/svg"><title>D3A54F85-FB05-4E6F-8B2F-723F2D6705F8</title><path d="M19.412 30H2.588C1.158 30 0 28.832 0 27.39V2.61C0 1.167 1.16 0 2.588 0H14.88c.207 0 .384.105.502.258l6.36 6.41c.152.12.256.297.256.506V27.39c0 1.442-1.16 2.61-2.588 2.61zM15.53 2.205v4.317h4.282L15.53 2.205zm5.176 5.62h-5.824c-.357 0-.647-.29-.647-.65v-5.87H2.588c-.714 0-1.294.584-1.294 1.304v24.78c0 .72.58 1.306 1.294 1.306h16.824c.714 0 1.294-.585 1.294-1.305V7.827zm-3.882 16.958H5.176c-.357 0-.647-.292-.647-.653 0-.36.29-.652.646-.652h11.648c.357 0 .647.292.647.652 0 .36-.29.653-.646.653zm0-5.218H5.176c-.357 0-.647-.29-.647-.652 0-.36.29-.652.646-.652h11.648c.357 0 .647.293.647.653 0 .36-.29.652-.646.652zm0-5.217H5.176c-.357 0-.647-.292-.647-.652 0-.36.29-.653.646-.653h11.648c.357 0 .647.293.647.653 0 .36-.29.652-.646.652z" fill="#529B88" fill-rule="evenodd"/></svg>