<svg width="37" height="48" viewBox="0 0 37 48" xmlns="http://www.w3.org/2000/svg"><title>png</title><g fill="none" fill-rule="evenodd"><path d="M36.75 12.632V44.21c0 2.093-1.703 3.79-3.802 3.79H3.802C1.702 48 0 46.303 0 44.21V3.79C0 1.696 1.702 0 3.802 0h20.275L36.75 12.632z" fill="#619C2D"/><path d="M13.86 28.5c0 1.098-.248 1.978-.747 2.64-.5.66-1.172.992-2.02.992-.72 0-1.303-.25-1.747-.752v3.362H7.44v-9.874h1.767l.066.698c.462-.553 1.064-.83 1.807-.83.878 0 1.562.325 2.05.975.487.652.73 1.548.73 2.69v.1zm-1.904-.14c0-.662-.117-1.174-.352-1.535-.236-.36-.577-.54-1.025-.54-.6 0-1.01.228-1.234.685v2.92c.233.47.648.706 1.246.706.91 0 1.364-.745 1.364-2.235zm5.077-3.492l.06.824c.51-.638 1.192-.956 2.05-.956.755 0 1.318.222 1.687.666.37.443.558 1.107.567 1.99V32h-1.905v-4.562c0-.404-.088-.697-.264-.88-.176-.182-.468-.273-.877-.273-.535 0-.937.228-1.205.685V32H15.24v-7.132h1.793zm5.77 3.513c0-1.093.26-1.974.78-2.642.52-.668 1.223-1.002 2.106-1.002.78 0 1.39.268 1.825.804l.08-.672h1.726v6.895c0 .624-.14 1.166-.424 1.628-.284.462-.683.814-1.197 1.056-.515.24-1.117.362-1.807.362-.523 0-1.033-.104-1.53-.313-.496-.21-.87-.478-1.126-.807l.843-1.16c.475.53 1.05.797 1.727.797.506 0 .9-.135 1.18-.405.282-.27.422-.654.422-1.15v-.383c-.44.497-1.018.745-1.734.745-.857 0-1.55-.335-2.08-1.005-.53-.67-.794-1.56-.794-2.667v-.08zm1.904.14c0 .646.13 1.152.39 1.52.258.366.614.55 1.066.55.58 0 .996-.218 1.246-.653v-3c-.256-.435-.666-.652-1.233-.652-.457 0-.817.187-1.078.56-.263.374-.393.932-.393 1.675z" fill="#FFF"/><path d="M36.75 11.924v1.572H26.39c-2.145 0-3.134-1.74-3.134-3.886V0h1.57L36.75 11.924z" fill="#C5FF92"/></g></svg>