<svg width="37" height="48" viewBox="0 0 37 48" xmlns="http://www.w3.org/2000/svg"><title>jpeg</title><g fill="none" fill-rule="evenodd"><path d="M36.75 12.632V44.21c0 2.093-1.703 3.79-3.802 3.79H3.802C1.702 48 0 46.303 0 44.21V3.79C0 1.696 1.702 0 3.802 0h20.275L36.75 12.632z" fill="#E28500"/><path d="M7.717 28.038v7.52c0 .788-.208 1.4-.626 1.837-.416.437-1.018.656-1.805.656-.33 0-.644-.037-.943-.11v-1.51c.23.04.43.06.6.06.576 0 .864-.307.864-.918v-7.534h1.91zm-2.063-1.846c0-.286.096-.52.287-.705.192-.185.452-.277.782-.277s.59.092.78.277c.192.184.288.42.288.705 0 .29-.098.527-.294.712-.195.185-.453.277-.774.277-.32 0-.58-.09-.775-.276-.195-.185-.293-.422-.293-.712zm10.212 5.478c0 1.1-.25 1.98-.75 2.64-.497.66-1.17.992-2.02.992-.72 0-1.302-.25-1.746-.75v3.36H9.445v-9.874h1.767l.066.7c.46-.555 1.063-.832 1.806-.832.88 0 1.562.325 2.05.976.488.65.732 1.546.732 2.69v.098zm-1.905-.14c0-.662-.117-1.174-.352-1.534-.235-.36-.577-.54-1.025-.54-.598 0-1.01.228-1.233.685v2.92c.233.47.648.706 1.246.706.91 0 1.365-.745 1.365-2.235zm6.607 3.772c-1.046 0-1.898-.32-2.555-.962-.657-.642-.985-1.497-.985-2.565v-.184c0-.715.138-1.356.415-1.92.277-.565.67-1 1.177-1.306.506-.305 1.085-.458 1.736-.458.975 0 1.743.308 2.303.923.56.614.84 1.486.84 2.616v.778h-4.542c.062.465.247.84.557 1.12.31.28.702.422 1.177.422.734 0 1.307-.266 1.72-.797l.936 1.047c-.285.404-.672.72-1.16.946-.488.226-1.028.34-1.62.34zm-.218-5.854c-.38 0-.685.128-.92.383-.236.256-.386.62-.452 1.095h2.65v-.152c-.01-.42-.123-.748-.343-.978-.22-.23-.532-.347-.936-.347zm4.192 2.103c0-1.093.26-1.974.78-2.642.522-.668 1.224-1.002 2.108-1.002.782 0 1.39.268 1.825.804l.08-.672h1.727v6.895c0 .624-.142 1.167-.426 1.628-.283.462-.682.814-1.196 1.056-.514.24-1.116.362-1.806.362-.523 0-1.033-.104-1.53-.313-.496-.21-.872-.478-1.127-.807l.844-1.16c.476.53 1.05.797 1.728.797.506 0 .9-.135 1.18-.405.28-.27.422-.654.422-1.15v-.383c-.44.497-1.017.745-1.734.745-.857 0-1.55-.335-2.08-1.005-.53-.67-.794-1.56-.794-2.667v-.08zm1.905.14c0 .646.13 1.152.39 1.52.26.366.614.55 1.067.55.58 0 .995-.218 1.246-.653v-3c-.255-.434-.666-.652-1.233-.652-.457 0-.816.187-1.077.56-.262.374-.393.932-.393 1.675z" fill="#FFF"/><path d="M36.75 11.924v1.572H26.39c-2.145 0-3.134-1.74-3.134-3.886V0h1.57L36.75 11.924z" fill="#FFCF8B"/></g></svg>