<svg width="37" height="48" viewBox="0 0 37 48" xmlns="http://www.w3.org/2000/svg"><title>pdf</title><g fill="none" fill-rule="evenodd"><path d="M36.75 12.632V44.21c0 2.093-1.703 3.79-3.802 3.79H3.802C1.702 48 0 46.303 0 44.21V3.79C0 1.696 1.702 0 3.802 0h20.275L36.75 12.632z" fill="#CB0606"/><path d="M36.75 11.924v1.572H26.39c-2.145 0-3.134-1.74-3.134-3.886V0h1.57L36.75 11.924z" fill="#FB8D8D"/><path d="M28.204 25.535c-.326-.108-.642-.163-.945-.163-.346 0-.583.072-.713.214-.13.143-.194.395-.194.757v.692h1.45v1.39h-1.45v5.727h-1.756v-5.726h-.905v-1.39h.905v-.693c0-.882.22-1.52.657-1.913.438-.394 1.096-.59 1.977-.59.414 0 .852.056 1.315.17l-.34 1.525zm-7.357 7.925c-.327.276-.672.495-1.035.658-.363.163-.776.244-1.238.244-.9 0-1.587-.323-2.063-.97-.476-.647-.714-1.56-.714-2.74 0-1.21.262-2.147.787-2.817.524-.67 1.26-1.004 2.208-1.004.337 0 .68.07 1.036.208.354.138.647.314.878.526V24.05h1.756v10.102h-1.613v-.692zm-.143-4.45c-.186-.168-.416-.317-.69-.446-.276-.128-.556-.192-.842-.192-.47 0-.85.202-1.136.607-.287.404-.43.952-.43 1.644 0 .683.118 1.22.35 1.608.235.39.597.584 1.087.584.29 0 .587-.067.888-.2.303-.134.56-.298.774-.493V29.01zm-7.508 4.89c-.43.308-.945.462-1.545.462-.79 0-1.462-.246-2.02-.74v3.21H7.873v-9.797h1.62v.698c.327-.28.67-.5 1.032-.66.36-.162.774-.242 1.242-.242.903 0 1.59.318 2.062.952.47.633.707 1.553.707 2.76 0 .765-.115 1.44-.347 2.022-.232.584-.563 1.03-.994 1.337zm-.83-4.948c-.24-.388-.6-.58-1.075-.58-.285 0-.58.067-.88.2-.303.133-.563.297-.78.49v3.115c.186.168.416.316.69.445.275.13.557.194.848.194.48 0 .86-.205 1.14-.615.28-.408.42-.952.42-1.63 0-.692-.122-1.232-.362-1.62v.002z" fill="#FFF"/></g></svg>