<svg width="38" height="37" viewBox="0 0 38 37" xmlns="http://www.w3.org/2000/svg" xmlns:xlink="http://www.w3.org/1999/xlink"><title>3B42762C-DCD1-4F50-9DE5-274B0F1839C0</title><defs><path id="a" d="M16.474 11.18V0H0v22.358h16.474v-11.18z"/></defs><g transform="translate(.043)" fill="none" fill-rule="evenodd"><circle fill="#F93640" cx="18" cy="18" r="18"/><g transform="rotate(180 11.185 16.5)"><mask id="b" fill="#fff"><use xlink:href="#a"/></mask><path d="M0 12.107l3.868-7.35c.036-.067.05-.142.044-.218L3.53.34s1.504-.765 2.746 0c1.46.9 1.96 2.452 1.96 4.315 0 1.41-.325 2.906-.39 3.582h6.397c1.05 0 2.003.72 2.194 1.754.164.89-.228 1.707-.886 2.17.557.39.924 1.037.924 1.765 0 .83-.476 1.554-1.17 1.914.243.347.386.77.386 1.222 0 1.073-.794 1.966-1.823 2.13.205.382.298.832.233 1.307-.148 1.08-1.127 1.858-2.22 1.858H2.354c-1.186 0-2.353-.775-2.353-1.96v-8.29z" fill="#FFF" mask="url(#b)"/></g><path d="M26.49 11.427c.54 0 .98.44.98.98 0 .542-.44.98-.98.98-.542 0-.98-.438-.98-.98 0-.54.438-.98.98-.98m-1.766 10.59h5.492c.43 0 .784-.353.784-.784v-10.2c0-.43-.353-.783-.784-.783h-5.492c-.43 0-.784.353-.784.784v10.2c0 .43.353.783.784.783" fill="#FFF"/></g></svg>