<svg width="45" height="45" viewBox="0 0 45 45" xmlns="http://www.w3.org/2000/svg" xmlns:xlink="http://www.w3.org/1999/xlink"><title>D0625C49-7924-49BA-B1F7-01DB07CF95E2</title><defs><circle id="b" cx="18.5" cy="18.5" r="18.5"/><filter x="-50%" y="-50%" width="200%" height="200%" filterUnits="objectBoundingBox" id="a"><feOffset dy="1" in="SourceAlpha" result="shadowOffsetOuter1"/><feGaussianBlur stdDeviation="2" in="shadowOffsetOuter1" result="shadowBlurOuter1"/><feColorMatrix values="0 0 0 0 0.684762968 0 0 0 0 0.684762968 0 0 0 0 0.684762968 0 0 0 0.5 0" in="shadowBlurOuter1"/></filter></defs><g fill="none" fill-rule="evenodd"><g transform="translate(4.043 3)"><use fill="#000" filter="url(#a)" xlink:href="#b"/><use fill="#FFC600" xlink:href="#b"/></g><path d="M22.53 9c-6.9 0-12.487 5.6-12.487 12.5S15.63 34 22.53 34c6.913 0 12.513-5.6 12.513-12.5S29.443 9 22.53 9zm.013 22.5c-5.525 0-10-4.475-10-10s4.475-10 10-10 10 4.475 10 10-4.475 10-10 10z" fill="#FFF"/><path d="M8.043 7h30v30h-30"/><path fill="#FFF" d="M22.918 15h-1.875v7.5l6.563 3.938.937-1.538-5.625-3.337"/></g></svg>