<?xml version="1.0" encoding="UTF-8"?>
<svg width="24px" height="27px" viewBox="0 0 24 27" version="1.1" xmlns="http://www.w3.org/2000/svg" xmlns:xlink="http://www.w3.org/1999/xlink">
    <!-- Generator: sketchtool 39.1 (31720) - http://www.bohemiancoding.com/sketch -->
    <title>E5D47A98-0225-434A-AF89-6CA4FE2F0531</title>
    <desc>Created with sketchtool.</desc>
    <defs></defs>
    <g id="ClassDig-Web-Teachers" stroke="none" stroke-width="1" fill="none" fill-rule="evenodd">
        <g id="Icons-Resources" transform="translate(-605.000000, -1564.000000)" fill="#429C87">
            <g id="Page-1-Copy-7" transform="translate(617.043353, 1578.000000) scale(-1, 1) translate(-617.043353, -1578.000000) translate(605.043353, 1564.000000)">
                <g id="Group-3" transform="translate(0.000000, 0.006341)">
                    <path d="M1.73899733,3.98314912 C1.699424,4.00597671 1.659744,4.02880429 1.62017067,4.05152619 L1.62017067,7.76164262 C1.66977067,7.78658387 1.719264,7.8116308 1.768864,7.83667773 C1.84673067,7.71662155 1.989984,7.59772789 1.99211733,7.47640351 C2.01003733,6.44165874 2.011744,5.40627986 1.99083733,4.37164078 C1.98817067,4.24059354 1.826784,4.11261111 1.73899733,3.98314912 L1.73899733,3.98314912 Z M2.563104,10.0349952 C2.365664,9.36538605 2.20075733,8.77017794 1.99787733,8.18796888 C1.98209067,8.14263076 1.57665067,8.14886607 1.560544,8.1979031 C1.37003733,8.781169 1.21899733,9.37711689 1.039904,10.0349952 L2.563104,10.0349952 Z M1.657504,3.6664164 C1.826144,3.74271971 1.88427733,3.77907475 1.94753067,3.79619544 C5.210144,4.67854496 8.47179733,5.56395928 11.738784,6.43003358 C11.976864,6.49312648 12.2656107,6.45877942 12.510304,6.3938899 C15.349344,5.64142511 18.1847573,4.87543286 21.0201707,4.10986335 C21.4650773,3.98970149 21.905504,3.85368713 22.4909973,3.68353709 C18.995744,2.44736003 15.6608107,1.26508143 12.3213973,0.0953791396 C12.1571307,0.0378874477 11.9361173,0.0404238459 11.7712107,0.0982325876 C8.43233067,1.26793488 5.09793067,2.44989643 1.657504,3.6664164 L1.657504,3.6664164 Z M14.5174507,19.9063398 C12.8732907,20.8857066 11.1763307,20.8564323 9.583904,19.9169081 C9.35201067,20.0668727 9.20449067,20.2091223 9.02849067,20.2690447 C6.96769067,20.9709929 4.90379733,21.6640637 2.83819733,22.3518504 C2.03841067,22.6180665 1.40875733,23.1046322 1.08545067,23.8662915 C0.710090667,24.750649 0.433824,25.6763286 0.103584,26.6155357 L23.9856107,26.6155357 C23.724064,25.838024 23.471904,25.0924286 23.222624,24.3457764 C22.8668907,23.2802778 22.1405973,22.6286348 21.0577173,22.2829449 C19.0516373,21.6425044 17.0621973,20.950279 15.0700907,20.2677765 C14.893344,20.20722 14.7468907,20.0595805 14.5174507,19.9063398 L14.5174507,19.9063398 Z M17.959264,5.68560071 C17.751264,5.7241751 17.646944,5.73622299 17.5466773,5.76306654 C15.871584,6.21063514 14.1997973,6.67088572 12.519584,7.09879723 C12.2278507,7.17319824 11.8867307,7.17340961 11.5932907,7.10408139 C10.6641173,6.88478863 9.74721067,6.61445086 8.82443733,6.36746909 C7.96161067,6.13655117 7.097504,5.910389 6.12897067,5.65431847 C6.12897067,7.02904628 6.11595733,8.31066714 6.139424,9.59154822 C6.14443733,9.86664174 6.11905067,10.0177688 5.85099733,10.1723834 C5.15723733,10.5726059 4.89067733,11.256905 5.09035733,12.02332 C5.25387733,12.6507615 5.43019733,13.2766177 5.64321067,13.8887351 C5.72609067,14.1265225 5.90945067,14.3373606 6.07521067,14.537736 C6.29739733,14.8063829 6.57515733,15.032545 6.779424,15.3126057 C7.46529067,16.2528696 8.12449067,17.2123679 8.802464,18.1584444 C10.4948373,20.5204652 13.601504,20.510531 15.3040107,18.1658422 C16.2848107,16.8149988 17.3785707,15.5411985 18.301984,14.1547399 C18.6932373,13.5673524 18.8020373,12.7859304 18.9953173,12.0809173 C19.2265707,11.2369308 18.949344,10.628618 18.2227307,10.1343374 C18.0877973,10.0424987 17.9732373,9.81929564 17.9706773,9.65485249 C17.9501973,8.35600526 17.959264,7.05662961 17.959264,5.68560071 L17.959264,5.68560071 Z" id="Fill-1"></path>
                </g>
            </g>
        </g>
    </g>
</svg>