<svg width="36" height="27" viewBox="0 0 36 27" xmlns="http://www.w3.org/2000/svg"><title>CDF10DE1-F90E-4A55-9DFB-4706771AC76F</title><g fill="#FFF" fill-rule="evenodd"><path d="M12.995 14.653c-4.013 0-7.277-3.283-7.277-7.32 0-4.035 3.264-7.32 7.277-7.32 4.012 0 7.276 3.285 7.276 7.32 0 4.037-3.263 7.32-7.275 7.32zm0-13.155c-3.202 0-5.802 2.615-5.802 5.836 0 3.22 2.6 5.836 5.802 5.836 3.2 0 5.8-2.616 5.8-5.836s-2.6-5.836-5.8-5.836z"/><path d="M25.255 26.986c-.405 0-.734-.33-.734-.738 0-6.392-5.164-11.588-11.518-11.588-6.354 0-11.527 5.19-11.527 11.58 0 .408-.33.74-.734.74-.404 0-.74-.332-.74-.74 0-7.206 5.83-13.07 12.995-13.07 7.165 0 12.994 5.864 12.994 13.07 0 .408-.33.746-.735.746zM35.056 12.354H23.613c-.406 0-.734-.33-.734-.738s.327-.74.733-.74h11.443c.405 0 .733.332.733.74 0 .407-.33.738-.734.738z"/><path d="M29.33 18.105c-.405 0-.733-.33-.733-.738V5.857c0-.408.328-.738.734-.738.406 0 .735.33.735.737v11.51c.007.408-.33.738-.734.738z"/></g></svg>