<svg width="25" height="19" viewBox="0 0 25 19" xmlns="http://www.w3.org/2000/svg"><title>4BF9FF09-98B0-4390-899F-38975F8E4F36</title><g fill="#CF515D" fill-rule="evenodd"><path d="M22.77 18.114H2.125a1.823 1.823 0 0 1-1.82-1.82V2.246c0-1.004.817-1.82 1.82-1.82H22.77c1.004 0 1.82.816 1.82 1.82v14.046c0 1.004-.816 1.82-1.82 1.82zM2.125 1.504a.743.743 0 0 0-.742.743v14.046c0 .41.333.743.742.743H22.77a.744.744 0 0 0 .742-.743V2.247a.744.744 0 0 0-.742-.742H2.126z"/><path d="M3.477 3.784h1.078v10.971H3.477zM5.793 3.784h1.078v10.971H5.793zM8.071 3.784h1.078v10.971H8.071zM9.719 3.784h1.078v10.971H9.719zM12.79 3.784h1.078v10.971H12.79zM14.086 3.784h1.078v10.971h-1.078zM16.213 3.784h1.078v10.971h-1.078zM18.729 3.784h1.078v10.971h-1.078zM20.693 3.784h1.078v10.971h-1.078z"/></g></svg>