<svg width="27" height="22" viewBox="0 0 27 22" xmlns="http://www.w3.org/2000/svg"><title>7A168A2F-2FD0-4960-B504-A4CED4904310</title><path d="M15.727 3.764a4.738 4.738 0 0 1 2.203 3.518c.49.229 1.036.363 1.614.363a3.823 3.823 0 0 0 0-7.645 3.819 3.819 0 0 0-3.817 3.764zm-2.505 7.825a3.821 3.821 0 1 0 0-7.643 3.823 3.823 0 0 0-3.824 3.822 3.823 3.823 0 0 0 3.824 3.821zm1.621.26H11.6a4.9 4.9 0 0 0-4.894 4.894v3.968l.011.06.273.087c2.574.804 4.812 1.073 6.653 1.073 3.596 0 5.682-1.026 5.81-1.091l.255-.13h.027v-3.967a4.9 4.9 0 0 0-4.892-4.893zm6.323-3.944h-3.218a4.703 4.703 0 0 1-1.453 3.281 5.814 5.814 0 0 1 4.152 5.565v1.221c3.177-.117 5.01-1.016 5.13-1.077l.256-.13h.027v-3.968a4.898 4.898 0 0 0-4.894-4.892zm-14.65-.26c.747 0 1.443-.22 2.033-.591a4.726 4.726 0 0 1 1.777-3.017c.004-.071.01-.143.01-.216a3.821 3.821 0 1 0-7.642 0 3.822 3.822 0 0 0 3.822 3.824zm3.432 3.541a4.711 4.711 0 0 1-1.452-3.263c-.12-.009-.238-.018-.36-.018H4.893A4.898 4.898 0 0 0 0 12.799v3.966l.01.062.274.086c2.064.644 3.909.942 5.51 1.035V16.75a5.811 5.811 0 0 1 4.154-5.565z" fill="#CF515D" fill-rule="evenodd"/></svg>