<svg width="13" height="16" viewBox="0 0 13 16" xmlns="http://www.w3.org/2000/svg"><title>E74B126D-E634-4B34-B557-699011D6E3BB</title><g fill="#CF515D" fill-rule="evenodd"><path d="M10.726 9.257c-1.82-.602-2.576-1.35-2.576-1.35l-.06.059c-.54.515-1.138.818-1.683.818h-.051c-.545 0-1.142-.303-1.682-.818l-.061-.059s-.756.748-2.576 1.35C-.648 10.273.157 14.41.157 14.441c.085.46.134.619.177.636 2.697 1.216 9.398 1.216 12.095 0 .043-.017.092-.176.177-.636 0-.032.816-4.151-1.88-5.184z"/><path d="M9.202 3.982l-.022-.025c-.152-.14-.14-.132-.14-.132s.264-1.347.052-1.984C8.761.824 6.78.14 6.382.063c0-.001-.243-.05-.258-.05 0 0-.313-.064-.675.096-.236.092-1.47.658-1.82 1.732-.212.637.052 1.984.052 1.984s.012-.008-.14.132l-.022.025c-.102.117-.077.485.035.868.101.383.233.486.265.576.32 1.525 1.435 2.826 2.571 2.826 1.136 0 2.192-1.301 2.512-2.826.032-.09.164-.193.265-.576.112-.383.14-.776.035-.868z"/></g></svg>