<?xml version="1.0" encoding="UTF-8"?>
<svg width="370px" height="310px" viewBox="0 0 370 310" version="1.1" xmlns="http://www.w3.org/2000/svg" xmlns:xlink="http://www.w3.org/1999/xlink">
    <!-- Generator: sketchtool 39.1 (31720) - http://www.bohemiancoding.com/sketch -->
    <title>CE804420-0C3E-42FF-9E72-FCDDA4DC9850</title>
    <desc>Created with sketchtool.</desc>
    <defs></defs>
    <g id="ClassDig-Web-Parents" stroke="none" stroke-width="1" fill="none" fill-rule="evenodd">
        <g id="Groups-Empty" transform="translate(-325.000000, -222.000000)" fill="#606060">
            <path d="M548.287825,275.208522 C565.381009,285.89929 577.390333,303.956101 579.56913,324.937379 C586.5335,328.165268 594.282497,330.056811 602.491894,330.056811 C632.456843,330.056811 656.74784,305.847644 656.74784,276.015494 C656.74784,246.183344 632.456843,222 602.491894,222 C572.80578,222 548.715803,245.750807 548.287825,275.208522 L548.287825,275.208522 Z M512.720254,385.815365 C542.685203,385.815365 566.9762,361.632021 566.9762,331.799871 C566.9762,301.961265 542.685203,277.777921 512.720254,277.777921 C482.755306,277.777921 458.438371,301.961265 458.438371,331.799871 C458.438371,361.632021 482.755306,385.815365 512.720254,385.815365 L512.720254,385.815365 Z M535.746771,389.495158 L489.693738,389.495158 C451.396186,389.495158 420.218633,420.540994 420.218633,458.668819 L420.218633,514.750161 L420.367777,515.60878 L424.245518,516.822466 C460.79225,528.191091 492.559894,532 518.698978,532 C569.764542,532 599.372842,517.500323 601.201476,516.570691 L604.819836,514.750161 L605.202422,514.750161 L605.202422,458.668819 C605.202422,420.540994 574.044323,389.495158 535.746771,389.495158 L535.746771,389.495158 Z M625.518411,333.736604 L579.822026,333.736604 C579.342172,351.948354 571.541299,368.339574 559.201265,380.114913 C593.244975,390.198838 618.145516,421.625565 618.145516,458.772111 L618.145516,476.041317 C663.258294,474.382182 689.274172,461.670755 690.973116,460.812137 L694.617414,458.97224 L695,458.97224 L695,402.884442 C695,364.756617 663.8419,333.736604 625.518411,333.736604 L625.518411,333.736604 Z M417.508106,330.056811 C428.116774,330.056811 437.999176,326.958037 446.383656,321.70949 C449.042307,304.433828 458.334619,289.327308 471.608423,279.069077 C471.660299,278.05552 471.764051,277.048418 471.764051,276.015494 C471.764051,246.183344 447.473054,222 417.508106,222 C387.543157,222 363.245676,246.183344 363.245676,276.015494 C363.245676,305.873467 387.543157,330.056811 417.508106,330.056811 L417.508106,330.056811 Z M466.239244,380.114913 C453.95757,368.39122 446.182636,352.071014 445.624967,333.98838 C443.926024,333.86572 442.253019,333.736604 440.502199,333.736604 L394.481589,333.736604 C356.1581,333.736604 325,364.756617 325,402.910265 L325,458.97224 L325.149144,459.856682 L329.026884,461.063912 C358.336897,470.166559 384.527857,474.382182 407.275539,475.692705 L407.275539,458.772111 C407.275539,421.625565 432.169596,390.179471 466.239244,380.114913 L466.239244,380.114913 Z" id="users-group"></path>
        </g>
    </g>
</svg>