<svg width="13" height="16" viewBox="0 0 13 16" xmlns="http://www.w3.org/2000/svg"><title>C4D49BBE-583B-4987-9E2D-FFC11E352C9E</title><g fill="#4A90E2" fill-rule="evenodd"><path d="M10.682 9.257c-1.819-.602-2.575-1.35-2.575-1.35l-.061.059c-.54.515-1.138.818-1.682.818h-.052c-.544 0-1.141-.303-1.682-.818l-.06-.059s-.757.748-2.576 1.35C-.692 10.273.114 14.41.114 14.441c.084.46.134.619.177.636 2.697 1.216 9.398 1.216 12.095 0 .043-.017.092-.176.177-.636-.001-.032.816-4.151-1.88-5.184z"/><path d="M9.159 3.982l-.023-.025c-.15-.14-.14-.132-.14-.132s.264-1.347.053-1.984C8.717.824 6.735.14 6.338.063c0-.001-.242-.05-.257-.05 0 0-.313-.064-.675.096-.237.092-1.47.658-1.82 1.732-.212.637.052 1.984.052 1.984s.011-.008-.14.132l-.022.025c-.102.117-.077.485.035.868.1.383.233.486.264.576.321 1.525 1.436 2.826 2.572 2.826 1.136 0 2.191-1.301 2.512-2.826.032-.09.164-.193.265-.576.112-.383.14-.776.035-.868z"/></g></svg>