<?xml version="1.0" encoding="UTF-8"?>
<svg width="19px" height="18px" viewBox="0 0 19 18" version="1.1" xmlns="http://www.w3.org/2000/svg" xmlns:xlink="http://www.w3.org/1999/xlink">
    <!-- Generator: sketchtool 39.1 (31720) - http://www.bohemiancoding.com/sketch -->
    <title>F9A9554D-0D1B-47A0-9C8E-5DE511BA8579</title>
    <desc>Created with sketchtool.</desc>
    <defs></defs>
    <g id="ClassDig-Web-Teachers" stroke="none" stroke-width="1" fill="none" fill-rule="evenodd">
        <g id="Icons-Resources" transform="translate(-912.000000, -1006.000000)">
            <g id="ic_exit_to_app_black_48dp" transform="translate(909.043353, 1003.000000)">
                <g id="Group-11">
                    <rect id="Rectangle-2" fill-opacity="0" fill="#FF0000" x="0" y="0" width="24" height="24"></rect>
                    <path d="M4,9 L4,4.99980749 C4,4.44762906 4.44463086,4 5.00087166,4 L18.9991283,4 C19.5518945,4 20,4.44463086 20,5.00087166 L20,18.9991283 C20,19.5518945 19.5553691,20 18.9991283,20 L5.00087166,20 C4.4481055,20 4,19.5562834 4,19.0001925 L4,15 L4,15" id="Rectangle-16" stroke="#686868" stroke-width="2"></path>
                    <rect id="Rectangle-18" fill="#686868" x="3" y="11" width="11" height="2"></rect>
                    <g id="Group-9" transform="translate(10.949747, 11.949747) rotate(-45.000000) translate(-10.949747, -11.949747) translate(7.449747, 8.449747)" fill="#686868">
                        <rect id="Rectangle-18-Copy" x="-4.29878355e-13" y="5" width="7" height="2"></rect>
                        <rect id="Rectangle" x="5" y="-4.3254289e-13" width="2" height="6"></rect>
                    </g>
                </g>
            </g>
        </g>
    </g>
</svg>