<?xml version="1.0" encoding="UTF-8"?>
<svg width="66px" height="48px" viewBox="0 0 66 48" version="1.1" xmlns="http://www.w3.org/2000/svg" xmlns:xlink="http://www.w3.org/1999/xlink">
    <!-- Generator: sketchtool 39.1 (31720) - http://www.bohemiancoding.com/sketch -->
    <title>D972EC53-0DA5-41B9-B448-1D2A8242CC8A</title>
    <desc>Created with sketchtool.</desc>
    <defs></defs>
    <g id="ClassDig-Web-Teachers" stroke="none" stroke-width="1" fill="none" fill-rule="evenodd">
        <g id="Icons-Resources" transform="translate(-720.000000, -1407.000000)">
            <g id="Group-10" transform="translate(720.043353, 1407.000000)">
                <path d="M2.98642534,14.9649175 C2.98642534,14.9649175 2.96935362,3.24533571 2.98642534,2.14227281 C3.00349706,1.03920991 2.48217443,-8.17571028e-13 4.9532664,-8.17571028e-13 C7.42435838,-8.17571028e-13 24.5827428,-3.10025224e-10 26.45392,-8.17571028e-13 C28.3250972,3.08390082e-10 28.6285615,0.555277123 28.6285616,1.80454009 C28.6285617,3.05380307 28.6285616,4.03845964 28.6285616,4.03845964 C28.6285616,4.03845964 60.3250479,3.98889738 61.6902356,4.03845964 C63.0554233,4.08802191 62.7125376,4.52063679 62.7125385,5.07186818 C62.7125394,5.62309957 62.7125385,18.4051287 62.7125385,18.4051287 L3.00349705,18.4051287 L2.98642534,14.9649175 Z" id="Path-9" fill="#4B93ED"></path>
                <rect id="Rectangle-28" fill="#FFFFFF" x="4.18099548" y="6.64150943" width="57.3393665" height="17.2075472"></rect>
                <path d="M33.6491975,13.5996462 C33.6491975,13.5996462 2.43305204,13.5735863 1.46329761,13.5996462 C0.493543189,13.6257061 0.210566318,14.4982311 0.210566318,14.4982311 C0.210566318,14.4982311 1.87081452,45.3331134 1.9440929,46.2464623 C2.01737129,47.1598111 1.9440929,47.9917453 2.89776584,47.9917453 C3.85143877,47.9917453 62.6344677,47.9917453 62.6344677,47.9917453 C62.6344677,47.9917453 63.7883246,47.9917453 63.9392499,46.285967 C64.0901752,44.5801887 65.7701852,11.0795991 65.7701852,11.0795991 C65.7701852,11.0795991 66.0806393,9.61615566 64.3872137,9.61615566 C62.693788,9.61615566 39.3027145,9.61615566 39.3027145,9.61615566 L33.6491975,13.5996462 Z" id="Path-8" fill="#4B93ED"></path>
            </g>
        </g>
    </g>
</svg>