<?xml version="1.0" encoding="UTF-8"?>
<svg width="37px" height="48px" viewBox="0 0 37 48" version="1.1" xmlns="http://www.w3.org/2000/svg" xmlns:xlink="http://www.w3.org/1999/xlink">
    <!-- Generator: Sketch 39.1 (31720) - http://www.bohemiancoding.com/sketch -->
    <title>jpg</title>
    <desc>Created with Sketch.</desc>
    <defs></defs>
    <g id="ClassDig-Web-Teachers" stroke="none" stroke-width="1" fill="none" fill-rule="evenodd">
        <g id="Icons-Resources" transform="translate(-463.000000, -1407.000000)">
            <g id="jpg" transform="translate(463.000000, 1407.000000)">
                <g id="Group">
                    <path d="M36.75,12.6315 L36.75,44.21025 C36.75,46.3035 35.0475,48 32.94825,48 L3.80175,48 C1.70175,48 0,46.3035 0,44.21025 L0,3.78975 C0,1.6965 1.70175,0 3.80175,0 L24.07725,0 L36.75,12.6315 L36.75,12.6315 Z" id="Shape" fill="#E28500"></path>
                    <path d="M27.71175,36.1365 C27.12675,36.6 26.18775,36.83175 24.894,36.83175 C23.8275,36.83175 22.89525,36.6285 22.0965,36.22125 L22.614,34.7895 C23.3535,35.133 24.114,35.3055 24.894,35.3055 C25.62,35.3055 26.12475,35.20125 26.409,34.9935 C26.6925,34.785 26.83425,34.43475 26.83425,33.94125 L26.83425,33.35775 C26.253,33.88725 25.55175,34.152 24.7305,34.152 C23.85975,34.152 23.17425,33.84 22.6755,33.216 C22.176,32.59125 21.92625,31.6935 21.92625,30.522 C21.92625,29.78925 22.04325,29.1435 22.27725,28.5855 C22.5105,28.02675 22.85325,27.59475 23.30475,27.2895 C23.75625,26.98425 24.30225,26.83125 24.942,26.83125 C25.3185,26.83125 25.695,26.91375 26.0715,27.07875 C26.448,27.2445 26.76375,27.453 27.018,27.7065 L27.249,27.03525 L28.59,27.03525 L28.59,34.01625 C28.59,34.96575 28.2975,35.673 27.71175,36.1365 L27.71175,36.1365 Z M26.83425,29.00925 C26.35275,28.584 25.82925,28.37175 25.2615,28.37175 C24.8355,28.37175 24.47475,28.566 24.17925,28.95525 C23.8845,29.34375 23.73675,29.8575 23.73675,30.495 C23.73675,31.21875 23.86725,31.75275 24.12825,32.09625 C24.38925,32.43975 24.72825,32.6115 25.146,32.6115 C25.7265,32.6115 26.28975,32.379 26.83425,31.91325 L26.83425,29.00925 L26.83425,29.00925 Z M19.605,33.90075 C19.1745,34.20825 18.65925,34.362 18.06,34.362 C17.271,34.362 16.59675,34.116 16.03875,33.6225 L16.03875,36.83175 L14.283,36.83175 L14.283,27.03525 L15.90225,27.03525 L15.90225,27.7335 C16.22925,27.453 16.57275,27.2325 16.9335,27.072 C17.29425,26.9115 17.70825,26.83125 18.17625,26.83125 C19.07925,26.83125 19.76625,27.14775 20.238,27.7815 C20.7105,28.4145 20.946,29.33475 20.946,30.54225 C20.946,31.30725 20.8305,31.98075 20.59875,32.56425 C20.36775,33.14775 20.03625,33.59325 19.605,33.90075 L19.605,33.90075 Z M18.77475,28.9515 C18.534,28.5645 18.17625,28.37175 17.69925,28.37175 C17.4135,28.37175 17.1195,28.4385 16.818,28.57125 C16.5165,28.70475 16.25625,28.869 16.03875,29.06325 L16.03875,32.17725 C16.22475,32.34525 16.455,32.493 16.7295,32.622 C17.004,32.751 17.28675,32.8155 17.577,32.8155 C18.05775,32.8155 18.438,32.61075 18.717,32.20125 C18.996,31.79175 19.1355,31.248 19.1355,30.57 C19.1355,29.87775 19.0155,29.3385 18.77475,28.9515 L18.77475,28.9515 Z M11.69625,25.983 C11.3235,25.983 11.07,25.9065 10.9335,25.75275 C10.79775,25.599 10.7295,25.37925 10.7295,25.09425 C10.7295,24.77775 10.80225,24.5505 10.947,24.4125 C11.0925,24.2745 11.34225,24.2055 11.69625,24.2055 C12.0495,24.2055 12.303,24.27225 12.4545,24.40575 C12.60675,24.53925 12.6825,24.76875 12.6825,25.09425 C12.6825,25.425 12.6015,25.65525 12.438,25.7865 C12.2745,25.91775 12.027,25.983 11.69625,25.983 L11.69625,25.983 Z M10.8315,27.03525 L12.58725,27.03525 L12.58725,34.45725 C12.58725,35.30775 12.39675,35.916 12.01575,36.282 C11.63475,36.64875 11.01075,36.83175 10.14375,36.83175 C9.94875,36.83175 9.69225,36.81 9.375,36.76725 C9.057,36.7245 8.8125,36.678 8.64,36.6285 L9.021,35.10825 C9.3525,35.2395 9.6945,35.3055 10.0485,35.3055 C10.4025,35.3055 10.6215,35.19675 10.7055,34.97925 C10.7895,34.7625 10.8315,34.40325 10.8315,33.90075 L10.8315,27.03525 L10.8315,27.03525 Z" id="Shape" fill="#FFFFFF"></path>
                    <path d="M36.75,11.92425 L36.75,13.49625 L26.39025,13.49625 C24.24525,13.49625 23.256,11.75625 23.256,9.6105 L23.256,0 L24.825,0 L36.75,11.92425 L36.75,11.92425 Z" id="Shape" fill="#FFCF8B"></path>
                </g>
            </g>
        </g>
    </g>
</svg>