<?xml version="1.0" encoding="UTF-8"?>
<svg width="37px" height="48px" viewBox="0 0 37 48" version="1.1" xmlns="http://www.w3.org/2000/svg" xmlns:xlink="http://www.w3.org/1999/xlink">
    <!-- Generator: Sketch 39.1 (31720) - http://www.bohemiancoding.com/sketch -->
    <title>mp4</title>
    <desc>Created with Sketch.</desc>
    <defs></defs>
    <g id="ClassDig-Web-Teachers" stroke="none" stroke-width="1" fill="none" fill-rule="evenodd">
        <g id="Icons-Resources" transform="translate(-528.000000, -1525.000000)">
            <g id="mp4" transform="translate(528.000000, 1525.000000)">
                <g id="Group">
                    <path d="M36.75,12.6315 L36.75,44.21025 C36.75,46.3035 35.0475,48 32.94825,48 L3.80175,48 C1.70175,48 0,46.3035 0,44.21025 L0,3.78975 C0,1.6965 1.70175,0 3.80175,0 L24.07725,0 L36.75,12.6315 L36.75,12.6315 Z" id="Shape" fill="#CD1782"></path>
                    <path d="M7.14423399,25.8676758 L7.20356017,26.6652832 C7.70893379,26.0456512 8.39227656,25.7358398 9.25360899,25.7358398 C10.1720706,25.7358398 10.8026795,26.098385 11.1454547,26.8234863 C11.6464338,26.098385 12.360538,25.7358398 13.2877887,25.7358398 C14.06123,25.7358398 14.6369079,25.9610573 15.0148395,26.411499 C15.392771,26.8619407 15.581734,27.5397904 15.581734,28.4450684 L15.581734,33 L13.6701129,33 L13.6701129,28.4516602 C13.6701129,28.0473613 13.5910121,27.751832 13.4328082,27.5650635 C13.2746043,27.378295 12.9955544,27.2849121 12.59565,27.2849121 C12.0243581,27.2849121 11.6288542,27.5573703 11.4091266,28.1022949 L11.4157184,33 L9.51068907,33 L9.51068907,28.458252 C9.51068907,28.045164 9.42939106,27.7463388 9.26679259,27.5617676 C9.10419412,27.3771963 8.82734142,27.2849121 8.43622618,27.2849121 C7.89569614,27.2849121 7.50458677,27.509031 7.26288634,27.9572754 L7.26288634,33 L5.35785704,33 L5.35785704,25.8676758 L7.14423399,25.8676758 Z M23.7037583,29.4997559 C23.7037583,30.5983942 23.4543712,31.4783902 22.9555894,32.1397705 C22.4568076,32.8011508 21.7833524,33.1318359 20.9352036,33.1318359 C20.2144969,33.1318359 19.6322274,32.8813502 19.1883775,32.3803711 L19.1883775,35.7421875 L17.2833482,35.7421875 L17.2833482,25.8676758 L19.0499497,25.8676758 L19.1158677,26.5664062 C19.5772958,26.0126925 20.1793406,25.7358398 20.9220201,25.7358398 C21.8009307,25.7358398 22.4842735,26.0610319 22.9720689,26.7114258 C23.4598643,27.3618197 23.7037583,28.2582951 23.7037583,29.4008789 L23.7037583,29.4997559 Z M21.798729,29.3613281 C21.798729,28.6977506 21.6811765,28.1857928 21.4460679,27.8254395 C21.2109593,27.4650861 20.8692879,27.2849121 20.4210435,27.2849121 C19.8233843,27.2849121 19.4124997,27.5134254 19.1883775,27.970459 L19.1883775,30.890625 C19.4212888,31.3608422 19.8365678,31.5959473 20.4342271,31.5959473 C21.3438996,31.5959473 21.798729,30.8510817 21.798729,29.3613281 L21.798729,29.3613281 Z M30.67881,29.3876953 L31.7664565,29.3876953 L31.7664565,30.923584 L30.67881,30.923584 L30.67881,33 L28.7737807,33 L28.7737807,30.923584 L24.838478,30.923584 L24.7527846,29.723877 L28.7540053,23.4023438 L30.67881,23.4023438 L30.67881,29.3876953 Z M26.6512221,29.3876953 L28.7737807,29.3876953 L28.7737807,25.9995117 L28.6485366,26.217041 L26.6512221,29.3876953 Z" id="mp4" fill="#FFFFFF"></path>
                    <path d="M36.75,11.92425 L36.75,13.49625 L26.39025,13.49625 C24.24525,13.49625 23.256,11.75625 23.256,9.6105 L23.256,0 L24.825,0 L36.75,11.92425 L36.75,11.92425 Z" id="Shape" fill="#FF94D3"></path>
                </g>
            </g>
        </g>
    </g>
</svg>