<?xml version="1.0" encoding="UTF-8"?>
<svg width="37px" height="48px" viewBox="0 0 37 48" version="1.1" xmlns="http://www.w3.org/2000/svg" xmlns:xlink="http://www.w3.org/1999/xlink">
    <!-- Generator: Sketch 39.1 (31720) - http://www.bohemiancoding.com/sketch -->
    <title>csv</title>
    <desc>Created with Sketch.</desc>
    <defs></defs>
    <g id="ClassDig-Web-Teachers" stroke="none" stroke-width="1" fill="none" fill-rule="evenodd">
        <g id="Icons-Resources" transform="translate(-705.000000, -1525.000000)">
            <g id="csv" transform="translate(705.000000, 1525.000000)">
                <g id="Group">
                    <path d="M36.75,12.6315 L36.75,44.21025 C36.75,46.3035 35.0475,48 32.94825,48 L3.80175,48 C1.70175,48 0,46.3035 0,44.21025 L0,3.78975 C0,1.6965 1.70175,0 3.80175,0 L24.07725,0 L36.75,12.6315 L36.75,12.6315 Z" id="Shape" fill="#FE6BA1"></path>
                    <path d="M11.4387897,30.5959473 C11.7903539,30.5959473 12.0759956,30.4992685 12.2957233,30.3059082 C12.5154509,30.1125479 12.6297076,29.8554704 12.6384967,29.534668 L14.4248736,29.534668 C14.4204791,30.0180688 14.2886445,30.4608134 14.0293658,30.862915 C13.7700872,31.2650167 13.4152323,31.5770253 12.9647906,31.7989502 C12.5143489,32.0208751 12.0166732,32.1318359 11.4717486,32.1318359 C10.4522123,32.1318359 9.64802112,31.8077425 9.05915099,31.1595459 C8.47028085,30.5113493 8.17585021,29.6159725 8.17585021,28.4733887 L8.17585021,28.3481445 C8.17585021,27.2495062 8.46808361,26.372806 9.05255919,25.7180176 C9.63703477,25.0632291 10.4390287,24.7358398 11.458565,24.7358398 C12.3506594,24.7358398 13.0658622,24.9896215 13.6041949,25.4971924 C14.1425277,26.0047633 14.4160845,26.6804157 14.4248736,27.5241699 L12.6384967,27.5241699 C12.6297076,27.1550275 12.5154509,26.8551037 12.2957233,26.6243896 C12.0759956,26.3936756 11.7859594,26.2783203 11.4256061,26.2783203 C10.9817562,26.2783203 10.6466765,26.4398177 10.420357,26.7628174 C10.1940376,27.085817 10.0808795,27.6098597 10.0808795,28.3349609 L10.0808795,28.5327148 C10.0808795,29.2666052 10.1929389,29.7939437 10.4170611,30.1147461 C10.6411834,30.4355485 10.9817561,30.5959473 11.4387897,30.5959473 L11.4387897,30.5959473 Z M19.6135484,30.0290527 C19.6135484,29.7961414 19.4981931,29.6126716 19.267479,29.4786377 C19.036765,29.3446038 18.6665294,29.224854 18.1567613,29.1193848 C16.4604637,28.763426 15.6123277,28.04273 15.6123277,26.9572754 C15.6123277,26.3244597 15.8748983,25.7960226 16.4000474,25.3719482 C16.9251965,24.9478739 17.6118352,24.7358398 18.4599839,24.7358398 C19.3652619,24.7358398 20.0892537,24.9489725 20.631981,25.3752441 C21.1747083,25.8015158 21.4460679,26.3552212 21.4460679,27.036377 L19.5410386,27.036377 C19.5410386,26.7639147 19.4531489,26.5386972 19.2773667,26.3607178 C19.1015846,26.1827384 18.8269291,26.09375 18.4533921,26.09375 C18.1325897,26.09375 17.8843012,26.166259 17.7085191,26.3112793 C17.5327369,26.4562996 17.4448472,26.640868 17.4448472,26.8649902 C17.4448472,27.0759288 17.5448218,27.2462152 17.744774,27.3758545 C17.9447261,27.5054938 18.282003,27.6175532 18.7566148,27.7120361 C19.2312265,27.806519 19.6311249,27.9130853 19.9563218,28.0317383 C20.9626745,28.4008808 21.4658433,29.0402787 21.4658433,29.9499512 C21.4658433,30.600345 21.1867934,31.1265849 20.6286851,31.5286865 C20.0705768,31.9307881 19.3498809,32.1318359 18.4665757,32.1318359 C17.8689165,32.1318359 17.3382821,32.0252696 16.8746568,31.8121338 C16.4110314,31.598998 16.0473876,31.3067646 15.7837144,30.9354248 C15.5200412,30.5640851 15.3882066,30.1630881 15.3882066,29.7324219 L17.1943589,29.7324219 C17.2119371,30.0708025 17.33718,30.3300772 17.5700913,30.5102539 C17.8030027,30.6904306 18.1150113,30.7805176 18.5061265,30.7805176 C18.8708744,30.7805176 19.1466285,30.7113044 19.333397,30.572876 C19.5201655,30.4344476 19.6135484,30.2531749 19.6135484,30.0290527 L19.6135484,30.0290527 Z M25.5998305,29.6730957 L26.9247817,24.8676758 L28.9155044,24.8676758 L26.5094985,32 L24.6901626,32 L22.2841567,24.8676758 L24.2748794,24.8676758 L25.5998305,29.6730957 Z" id="csv" fill="#FFFFFF"></path>
                    <path d="M36.75,11.92425 L36.75,13.49625 L26.39025,13.49625 C24.24525,13.49625 23.256,11.75625 23.256,9.6105 L23.256,0 L24.825,0 L36.75,11.92425 L36.75,11.92425 Z" id="Shape" fill="#FFA2C4"></path>
                </g>
            </g>
        </g>
    </g>
</svg>