<?xml version="1.0" encoding="UTF-8"?>
<svg width="37px" height="48px" viewBox="0 0 37 48" version="1.1" xmlns="http://www.w3.org/2000/svg" xmlns:xlink="http://www.w3.org/1999/xlink">
    <!-- Generator: Sketch 39.1 (31720) - http://www.bohemiancoding.com/sketch -->
    <title>txt</title>
    <desc>Created with Sketch.</desc>
    <defs></defs>
    <g id="ClassDig-Web-Teachers" stroke="none" stroke-width="1" fill="none" fill-rule="evenodd">
        <g id="Icons-Resources" transform="translate(-463.000000, -1526.000000)">
            <g id="txt" transform="translate(463.000000, 1526.000000)">
                <g id="Group">
                    <path d="M36.75,12.6315 L36.75,44.21025 C36.75,46.3035 35.0475,48 32.94825,48 L3.80175,48 C1.70175,48 0,46.3035 0,44.21025 L0,3.78975 C0,1.6965 1.70175,0 3.80175,0 L24.07725,0 L36.75,12.6315 L36.75,12.6315 Z" id="Shape" fill="#9C9C9C"></path>
                    <path d="M13.1592486,23.1142578 L13.1592486,24.8676758 L14.3787311,24.8676758 L14.3787311,26.2651367 L13.1592486,26.2651367 L13.1592486,29.824707 C13.1592486,30.0883802 13.2097852,30.2773432 13.31086,30.3916016 C13.4119347,30.5058599 13.6052921,30.5629883 13.8909381,30.5629883 C14.1018767,30.5629883 14.2886424,30.5476076 14.4512408,30.5168457 L14.4512408,31.9604492 C14.0777038,32.0747076 13.6931862,32.1318359 13.2976764,32.1318359 C11.9617322,32.1318359 11.2805867,31.4572821 11.2542193,30.1081543 L11.2542193,26.2651367 L10.2127154,26.2651367 L10.2127154,24.8676758 L11.2542193,24.8676758 L11.2542193,23.1142578 L13.1592486,23.1142578 Z M18.394066,26.9968262 L19.593773,24.8676758 L21.6306382,24.8676758 L19.6003648,28.3613281 L21.7163316,32 L19.6728745,32 L18.4006578,29.7587891 L17.1350328,32 L15.0849839,32 L17.2009507,28.3613281 L15.1772691,24.8676758 L17.2207261,24.8676758 L18.394066,26.9968262 Z M25.065895,23.1142578 L25.065895,24.8676758 L26.2853774,24.8676758 L26.2853774,26.2651367 L25.065895,26.2651367 L25.065895,29.824707 C25.065895,30.0883802 25.1164316,30.2773432 25.2175063,30.3916016 C25.318581,30.5058599 25.5119385,30.5629883 25.7975844,30.5629883 C26.008523,30.5629883 26.1952887,30.5476076 26.3578872,30.5168457 L26.3578872,31.9604492 C25.9843501,32.0747076 25.5998325,32.1318359 25.2043227,32.1318359 C23.8683785,32.1318359 23.187233,31.4572821 23.1608657,30.1081543 L23.1608657,26.2651367 L22.1193618,26.2651367 L22.1193618,24.8676758 L23.1608657,24.8676758 L23.1608657,23.1142578 L25.065895,23.1142578 Z" id="txt" fill="#FFFFFF"></path>
                    <path d="M36.75,11.92425 L36.75,13.49625 L26.39025,13.49625 C24.24525,13.49625 23.256,11.75625 23.256,9.6105 L23.256,0 L24.825,0 L36.75,11.92425 L36.75,11.92425 Z" id="Shape" fill="#FFF2E0"></path>
                </g>
            </g>
        </g>
    </g>
</svg>