<?xml version="1.0" encoding="UTF-8"?>
<svg width="37px" height="48px" viewBox="0 0 37 48" version="1.1" xmlns="http://www.w3.org/2000/svg" xmlns:xlink="http://www.w3.org/1999/xlink">
    <!-- Generator: Sketch 39.1 (31720) - http://www.bohemiancoding.com/sketch -->
    <title>zip</title>
    <desc>Created with Sketch.</desc>
    <defs></defs>
    <g id="ClassDig-Web-Teachers" stroke="none" stroke-width="1" fill="none" fill-rule="evenodd">
        <g id="Icons-Resources" transform="translate(-412.000000, -1366.000000)">
            <g id="zip" transform="translate(412.000000, 1366.000000)">
                <g id="Group">
                    <path d="M36.75,12.6315 L36.75,44.21025 C36.75,46.3035 35.0475,48 32.94825,48 L3.80175,48 C1.70175,48 0,46.3035 0,44.21025 L0,3.78975 C0,1.6965 1.70175,0 3.80175,0 L24.07725,0 L36.75,12.6315 L36.75,12.6315 Z" id="Shape" fill="#619C2D"></path>
                    <path d="M11.432373,32.1643066 L14.9194336,32.1643066 L14.9194336,33.7001953 L9,33.7001953 L9,32.5400391 L12.3552246,28.1103516 L9.09887695,28.1103516 L9.09887695,26.5678711 L14.8139648,26.5678711 L14.8139648,27.6950684 L11.432373,32.1643066 Z M18.3612822,33.7001953 L16.4496611,33.7001953 L16.4496611,26.5678711 L18.3612822,26.5678711 L18.3612822,33.7001953 Z M16.3376005,24.722168 C16.3376005,24.436522 16.4331806,24.2014169 16.6243437,24.0168457 C16.8155067,23.8322745 17.0758801,23.7399902 17.4054716,23.7399902 C17.7306685,23.7399902 17.9899433,23.8322745 18.1833036,24.0168457 C18.376664,24.2014169 18.4733427,24.436522 18.4733427,24.722168 C18.4733427,25.0122085 18.3755654,25.2495108 18.1800077,25.434082 C17.9844501,25.6186533 17.726274,25.7109375 17.4054716,25.7109375 C17.0846692,25.7109375 16.8264931,25.6186533 16.6309355,25.434082 C16.4353779,25.2495108 16.3376005,25.0122085 16.3376005,24.722168 L16.3376005,24.722168 Z M26.5887752,30.1999512 C26.5887752,31.2985895 26.3393881,32.1785856 25.8406063,32.8399658 C25.3418245,33.5013461 24.6683693,33.8320312 23.8202206,33.8320312 C23.0995138,33.8320312 22.5172443,33.5815455 22.0733944,33.0805664 L22.0733944,36.4423828 L20.1683651,36.4423828 L20.1683651,26.5678711 L21.9349667,26.5678711 L22.0008846,27.2666016 C22.4623127,26.7128879 23.0643575,26.4360352 23.807037,26.4360352 C24.6859476,26.4360352 25.3692904,26.7612272 25.8570858,27.4116211 C26.3448812,28.062015 26.5887752,28.9584904 26.5887752,30.1010742 L26.5887752,30.1999512 Z M24.683746,30.0615234 C24.683746,29.3979459 24.5661934,28.8859881 24.3310848,28.5256348 C24.0959762,28.1652814 23.7543048,27.9851074 23.3060604,27.9851074 C22.7084012,27.9851074 22.2975166,28.2136208 22.0733944,28.6706543 L22.0733944,31.5908203 C22.3063057,32.0610375 22.7215848,32.2961426 23.319244,32.2961426 C24.2289165,32.2961426 24.683746,31.551277 24.683746,30.0615234 L24.683746,30.0615234 Z" id="zip" fill="#FFFFFF"></path>
                    <path d="M36.75,11.92425 L36.75,13.49625 L26.39025,13.49625 C24.24525,13.49625 23.256,11.75625 23.256,9.6105 L23.256,0 L24.825,0 L36.75,11.92425 L36.75,11.92425 Z" id="Shape" fill="#C5FF92"></path>
                </g>
            </g>
        </g>
    </g>
</svg>