<?xml version="1.0" encoding="UTF-8"?>
<svg width="37px" height="48px" viewBox="0 0 37 48" version="1.1" xmlns="http://www.w3.org/2000/svg" xmlns:xlink="http://www.w3.org/1999/xlink">
    <!-- Generator: Sketch 39.1 (31720) - http://www.bohemiancoding.com/sketch -->
    <title>avi</title>
    <desc>Created with Sketch.</desc>
    <defs></defs>
    <g id="ClassDig-Web-Teachers" stroke="none" stroke-width="1" fill="none" fill-rule="evenodd">
        <g id="Icons-Resources" transform="translate(-592.000000, -1526.000000)">
            <g id="avi" transform="translate(592.000000, 1526.000000)">
                <g id="Group">
                    <path d="M36.4444444,12.6315 L36.4444444,44.21025 C36.4444444,46.3035 34.7560998,48 32.6743039,48 L3.77014059,48 C1.68760091,48 0,46.3035 0,44.21025 L0,3.78975 C0,1.6965 1.68760091,0 3.77014059,0 L23.8770612,0 L36.4444444,12.6315 L36.4444444,12.6315 Z" id="Shape" fill="#1DA0FF"></path>
                    <path d="M14.2370074,32 C14.1491164,31.8286124 14.0853963,31.6154798 14.0458453,31.3605957 C13.5844172,31.8747584 12.9845697,32.1318359 12.2462848,32.1318359 C11.5475508,32.1318359 10.9685771,31.9296895 10.5093463,31.5253906 C10.0501155,31.1210917 9.82050353,30.6113312 9.82050353,29.9960938 C9.82050353,29.2402306 10.1006521,28.6601583 10.6609576,28.2558594 C11.2212632,27.8515605 12.0309474,27.6472168 13.0900348,27.6428223 L13.9667438,27.6428223 L13.9667438,27.2341309 C13.9667438,26.9045394 13.8821499,26.6408701 13.7129596,26.4431152 C13.5437693,26.2453603 13.2768042,26.1464844 12.9120563,26.1464844 C12.5912539,26.1464844 12.3396695,26.2233879 12.1572955,26.3771973 C11.9749216,26.5310066 11.8837359,26.741942 11.8837359,27.0100098 L9.97870665,27.0100098 C9.97870665,26.5969218 10.1061468,26.2146014 10.3610309,25.8630371 C10.615915,25.5114729 10.9762629,25.2357188 11.4420856,25.0357666 C11.9079082,24.8358144 12.4308522,24.7358398 13.0109332,24.7358398 C13.8898439,24.7358398 14.5874687,24.9566628 15.1038287,25.3983154 C15.6201887,25.839968 15.8783649,26.4606894 15.8783649,27.260498 L15.8783649,30.3520508 C15.8827594,31.028812 15.9772409,31.5407697 16.1618121,31.8879395 L16.1618121,32 L14.2370074,32 Z M12.661568,30.6750488 C12.9428194,30.6750488 13.2020941,30.6124274 13.4394,30.4871826 C13.6767059,30.3619379 13.8524854,30.1938487 13.9667438,29.9829102 L13.9667438,28.7568359 L13.2548297,28.7568359 C12.3012116,28.7568359 11.7936484,29.0864225 11.7321246,29.7456055 L11.7255328,29.857666 C11.7255328,30.0949719 11.8090281,30.2905266 11.9760211,30.4443359 C12.1430141,30.5981453 12.3715275,30.6750488 12.661568,30.6750488 L12.661568,30.6750488 Z M20.1507798,29.6730957 L21.475731,24.8676758 L23.4664536,24.8676758 L21.0604478,32 L19.2411119,32 L16.835106,24.8676758 L18.8258286,24.8676758 L20.1507798,29.6730957 Z M26.5523452,32 L24.6407241,32 L24.6407241,24.8676758 L26.5523452,24.8676758 L26.5523452,32 Z M24.5286635,23.0219727 C24.5286635,22.7363267 24.6242436,22.5012216 24.8154067,22.3166504 C25.0065698,22.1320792 25.2669431,22.0397949 25.5965346,22.0397949 C25.9217316,22.0397949 26.1810063,22.1320792 26.3743667,22.3166504 C26.567727,22.5012216 26.6644057,22.7363267 26.6644057,23.0219727 C26.6644057,23.3120132 26.5666284,23.5493155 26.3710708,23.7338867 C26.1755131,23.918458 25.917337,24.0107422 25.5965346,24.0107422 C25.2757322,24.0107422 25.0175561,23.918458 24.8219985,23.7338867 C24.6264409,23.5493155 24.5286635,23.3120132 24.5286635,23.0219727 L24.5286635,23.0219727 Z" id="avi" fill="#FFFFFF"></path>
                    <path d="M36.4444444,11.92425 L36.4444444,13.49625 L26.1708299,13.49625 C24.0436644,13.49625 23.0626395,11.75625 23.0626395,9.6105 L23.0626395,0 L24.6185941,0 L36.4444444,11.92425 L36.4444444,11.92425 Z" id="Shape" fill="#91D1FF"></path>
                </g>
            </g>
        </g>
    </g>
</svg>