<?xml version="1.0" encoding="UTF-8"?>
<svg width="28px" height="24px" viewBox="0 0 28 24" version="1.1" xmlns="http://www.w3.org/2000/svg" xmlns:xlink="http://www.w3.org/1999/xlink">
    <!-- Generator: sketchtool 39.1 (31720) - http://www.bohemiancoding.com/sketch -->
    <title>45540AEF-3427-4147-9EC0-21C78C847559</title>
    <desc>Created with sketchtool.</desc>
    <defs></defs>
    <g id="ClassDig-Web-Teachers" stroke="none" stroke-width="1" fill="none" fill-rule="evenodd">
        <g id="Icons-Resources" transform="translate(-508.000000, -1359.000000)" fill="#529B88">
            <g id="createfoldergr" transform="translate(508.000000, 1359.000000)">
                <g id="Group">
                    <path d="M24.9565217,23.3333333 L24.9565217,23.3333333 L3.04347826,23.3333333 L3.04347826,23.3333333 C1.36226087,23.3333333 0,21.9591228 0,20.2631579 L0,6.14035088 C0,5.80140351 0.272086957,5.52631579 0.608695652,5.52631579 L0.608695652,5.52631579 L2.43478261,5.52631579 L2.43478261,2.45614035 C2.43478261,1.09973684 3.52495652,0 4.86956522,0 L10.9565217,0 C12.3011304,0 13.3913043,1.09973684 13.3913043,2.45614035 L13.3913043,3.07017544 L27.3913043,3.07017544 C27.727913,3.07017544 28,3.34526316 28,3.68421053 L28,20.2631579 C28,21.9591228 26.6377391,23.3333333 24.9565217,23.3333333 L24.9565217,23.3333333 Z M1.2173913,6.75438596 L1.2173913,20.2631579 L1.2173913,20.2631579 C1.2173913,21.280614 2.03547826,22.1052632 3.04347826,22.1052632 L22.5351304,22.1052632 C22.1504348,21.5907018 21.9130435,20.9576316 21.9130435,20.2631579 L21.9130435,6.75438596 L1.2173913,6.75438596 L1.2173913,6.75438596 Z M26.7826087,4.29824561 L12.173913,4.29824561 L12.173913,2.45614035 C12.173913,1.77824561 11.6285217,1.22807018 10.9565217,1.22807018 L4.86956522,1.22807018 C4.19756522,1.22807018 3.65217391,1.77824561 3.65217391,2.45614035 L3.65217391,5.52631579 L22.5217391,5.52631579 L22.5217391,5.52631579 C22.6909565,5.52631579 22.8437391,5.59631579 22.953913,5.70929825 C23.0628696,5.8204386 23.1304348,5.97210526 23.1304348,6.14035088 L23.1304348,6.14035088 L23.1304348,20.2631579 C23.1304348,21.280614 23.947913,22.1052632 24.9565217,22.1052632 C25.9651304,22.1052632 26.7826087,21.280614 26.7826087,20.2631579 L26.7826087,4.29824561 L26.7826087,4.29824561 Z" id="Shape"></path>
                </g>
            </g>
        </g>
    </g>
</svg>