<?xml version="1.0" encoding="UTF-8"?>
<svg width="37px" height="48px" viewBox="0 0 37 48" version="1.1" xmlns="http://www.w3.org/2000/svg" xmlns:xlink="http://www.w3.org/1999/xlink">
    <!-- Generator: Sketch 39.1 (31720) - http://www.bohemiancoding.com/sketch -->
    <title>png</title>
    <desc>Created with Sketch.</desc>
    <defs></defs>
    <g id="ClassDig-Web-Teachers" stroke="none" stroke-width="1" fill="none" fill-rule="evenodd">
        <g id="Icons-Resources" transform="translate(-463.000000, -1469.000000)">
            <g id="png" transform="translate(463.000000, 1469.000000)">
                <g id="Group">
                    <path d="M36.75,12.6315 L36.75,44.21025 C36.75,46.3035 35.0475,48 32.94825,48 L3.80175,48 C1.70175,48 0,46.3035 0,44.21025 L0,3.78975 C0,1.6965 1.70175,0 3.80175,0 L24.07725,0 L36.75,12.6315 L36.75,12.6315 Z" id="Shape" fill="#619C2D"></path>
                    <path d="M13.861275,28.4997559 C13.861275,29.5983942 13.6118879,30.4783902 13.1131061,31.1397705 C12.6143243,31.8011508 11.9408691,32.1318359 11.0927203,32.1318359 C10.3720136,32.1318359 9.78974403,31.8813502 9.34589415,31.3803711 L9.34589415,34.7421875 L7.44086485,34.7421875 L7.44086485,24.8676758 L9.20746642,24.8676758 L9.27338438,25.5664062 C9.73481247,25.0126925 10.3368572,24.7358398 11.0795367,24.7358398 C11.9584474,24.7358398 12.6417901,25.0610319 13.1295856,25.7114258 C13.617381,26.3618197 13.861275,27.2582951 13.861275,28.4008789 L13.861275,28.4997559 Z M11.9562457,28.3613281 C11.9562457,27.6977506 11.8386932,27.1857928 11.6035846,26.8254395 C11.368476,26.4650861 11.0268046,26.2849121 10.5785602,26.2849121 C9.98090093,26.2849121 9.57001636,26.5134254 9.34589415,26.970459 L9.34589415,29.890625 C9.57880547,30.3608422 9.99408452,30.5959473 10.5917438,30.5959473 C11.5014163,30.5959473 11.9562457,29.8510817 11.9562457,28.3613281 L11.9562457,28.3613281 Z M17.0328599,24.8676758 L17.0921861,25.6916504 C17.6019542,25.0544402 18.285297,24.7358398 19.1422349,24.7358398 C19.8980981,24.7358398 20.4605924,24.9577615 20.8297349,25.4016113 C21.1988774,25.8454612 21.3878403,26.5090288 21.3966294,27.392334 L21.3966294,32 L19.4916001,32 L19.4916001,27.4384766 C19.4916001,27.0341777 19.4037104,26.7408456 19.2279283,26.5584717 C19.0521461,26.3760977 18.7599127,26.2849121 18.3512193,26.2849121 C17.8150838,26.2849121 17.4129882,26.5134254 17.1449204,26.970459 L17.1449204,32 L15.2398911,32 L15.2398911,24.8676758 L17.0328599,24.8676758 Z M22.8016128,28.3811035 C22.8016128,27.2868598 23.0619861,26.4057651 23.5827407,25.737793 C24.1034952,25.0698209 24.8055146,24.7358398 25.6888198,24.7358398 C26.4710503,24.7358398 27.0796868,25.0039036 27.5147475,25.5400391 L27.5938491,24.8676758 L29.3208999,24.8676758 L29.3208999,31.7626953 C29.3208999,32.3867219 29.1791777,32.9294411 28.895729,33.3908691 C28.6122803,33.8522972 28.2134806,34.2038562 27.6993178,34.4455566 C27.1851551,34.6872571 26.5831103,34.8081055 25.8931655,34.8081055 C25.3702137,34.8081055 24.8604531,34.7037364 24.3638686,34.4949951 C23.8672841,34.2862538 23.4915554,34.0170915 23.2366714,33.6875 L24.0804214,32.5273438 C24.5550331,33.0590847 25.1307109,33.3249512 25.8074721,33.3249512 C26.3128458,33.3249512 26.7061524,33.1898207 26.9874038,32.9195557 C27.2686552,32.6492906 27.4092788,32.2658716 27.4092788,31.7692871 L27.4092788,31.3869629 C26.9698235,31.8835474 26.3919484,32.1318359 25.6756362,32.1318359 C24.8186983,32.1318359 24.1254679,31.7967563 23.5959243,31.1265869 C23.0663806,30.4564175 22.8016128,29.5676325 22.8016128,28.4602051 L22.8016128,28.3811035 Z M24.7066421,28.5195312 C24.7066421,29.1655306 24.8362794,29.6719952 25.0955581,30.0389404 C25.3548367,30.4058856 25.7107902,30.5893555 26.1634292,30.5893555 C26.7435102,30.5893555 27.1587892,30.3718283 27.4092788,29.9367676 L27.4092788,26.9375 C27.1543947,26.5024392 26.7435101,26.2849121 26.1766128,26.2849121 C25.7195792,26.2849121 25.3603299,26.4716778 25.098854,26.8452148 C24.8373781,27.2187519 24.7066421,27.7768518 24.7066421,28.5195312 L24.7066421,28.5195312 Z" id="png" fill="#FFFFFF"></path>
                    <path d="M36.75,11.92425 L36.75,13.49625 L26.39025,13.49625 C24.24525,13.49625 23.256,11.75625 23.256,9.6105 L23.256,0 L24.825,0 L36.75,11.92425 L36.75,11.92425 Z" id="Shape" fill="#C5FF92"></path>
                </g>
            </g>
        </g>
    </g>
</svg>