<?xml version="1.0" encoding="UTF-8"?>
<svg width="37px" height="48px" viewBox="0 0 37 48" version="1.1" xmlns="http://www.w3.org/2000/svg" xmlns:xlink="http://www.w3.org/1999/xlink">
    <!-- Generator: Sketch 39.1 (31720) - http://www.bohemiancoding.com/sketch -->
    <title>ppt</title>
    <desc>Created with Sketch.</desc>
    <defs></defs>
    <g id="ClassDig-Web-Teachers" stroke="none" stroke-width="1" fill="none" fill-rule="evenodd">
        <g id="Icons-Resources" transform="translate(-656.000000, -1469.000000)">
            <g id="ppt" transform="translate(656.000000, 1469.000000)">
                <g id="Group">
                    <path d="M36.75,12.6315 L36.75,44.21025 C36.75,46.3035 35.0475,48 32.94825,48 L3.80175,48 C1.70175,48 0,46.3035 0,44.21025 L0,3.78975 C0,1.6965 1.70175,0 3.80175,0 L24.07725,0 L36.75,12.6315 L36.75,12.6315 Z" id="Shape" fill="#E45415"></path>
                    <path d="M15.4136432,28.4997559 C15.4136432,29.5983942 15.164256,30.4783902 14.6654742,31.1397705 C14.1666924,31.8011508 13.4932373,32.1318359 12.6450885,32.1318359 C11.9243818,32.1318359 11.3421122,31.8813502 10.8982623,31.3803711 L10.8982623,34.7421875 L8.99323302,34.7421875 L8.99323302,24.8676758 L10.7598346,24.8676758 L10.8257525,25.5664062 C11.2871806,25.0126925 11.8892254,24.7358398 12.6319049,24.7358398 C13.5108155,24.7358398 14.1941583,25.0610319 14.6819537,25.7114258 C15.1697491,26.3618197 15.4136432,27.2582951 15.4136432,28.4008789 L15.4136432,28.4997559 Z M13.5086139,28.3613281 C13.5086139,27.6977506 13.3910613,27.1857928 13.1559527,26.8254395 C12.9208441,26.4650861 12.5791728,26.2849121 12.1309283,26.2849121 C11.5332691,26.2849121 11.1223845,26.5134254 10.8982623,26.970459 L10.8982623,29.890625 C11.1311736,30.3608422 11.5464527,30.5959473 12.1441119,30.5959473 C13.0537844,30.5959473 13.5086139,29.8510817 13.5086139,28.3613281 L13.5086139,28.3613281 Z M23.2522203,28.4997559 C23.2522203,29.5983942 23.0028331,30.4783902 22.5040513,31.1397705 C22.0052695,31.8011508 21.3318143,32.1318359 20.4836656,32.1318359 C19.7629588,32.1318359 19.1806893,31.8813502 18.7368394,31.3803711 L18.7368394,34.7421875 L16.8318101,34.7421875 L16.8318101,24.8676758 L18.5984117,24.8676758 L18.6643296,25.5664062 C19.1257577,25.0126925 19.7278025,24.7358398 20.470482,24.7358398 C21.3493926,24.7358398 22.0327354,25.0610319 22.5205308,25.7114258 C23.0083262,26.3618197 23.2522203,27.2582951 23.2522203,28.4008789 L23.2522203,28.4997559 Z M21.347191,28.3613281 C21.347191,27.6977506 21.2296384,27.1857928 20.9945298,26.8254395 C20.7594212,26.4650861 20.4177498,26.2849121 19.9695054,26.2849121 C19.3718462,26.2849121 18.9609616,26.5134254 18.7368394,26.970459 L18.7368394,29.890625 C18.9697507,30.3608422 19.3850298,30.5959473 19.982689,30.5959473 C20.8923615,30.5959473 21.347191,29.8510817 21.347191,28.3613281 L21.347191,28.3613281 Z M26.9511489,23.1142578 L26.9511489,24.8676758 L28.1706313,24.8676758 L28.1706313,26.2651367 L26.9511489,26.2651367 L26.9511489,29.824707 C26.9511489,30.0883802 27.0016855,30.2773432 27.1027602,30.3916016 C27.2038349,30.5058599 27.3971924,30.5629883 27.6828383,30.5629883 C27.8937769,30.5629883 28.0805426,30.5476076 28.2431411,30.5168457 L28.2431411,31.9604492 C27.8696041,32.0747076 27.4850864,32.1318359 27.0895766,32.1318359 C25.7536324,32.1318359 25.0724869,31.4572821 25.0461196,30.1081543 L25.0461196,26.2651367 L24.0046157,26.2651367 L24.0046157,24.8676758 L25.0461196,24.8676758 L25.0461196,23.1142578 L26.9511489,23.1142578 Z" id="ppt" fill="#FFFFFF"></path>
                    <path d="M36.75,11.92425 L36.75,13.49625 L26.39025,13.49625 C24.24525,13.49625 23.256,11.75625 23.256,9.6105 L23.256,0 L24.825,0 L36.75,11.92425 L36.75,11.92425 Z" id="Shape" fill="#FFA279"></path>
                </g>
            </g>
        </g>
    </g>
</svg>