<?xml version="1.0" encoding="UTF-8"?>
<svg width="37px" height="48px" viewBox="0 0 37 48" version="1.1" xmlns="http://www.w3.org/2000/svg" xmlns:xlink="http://www.w3.org/1999/xlink">
    <!-- Generator: Sketch 39.1 (31720) - http://www.bohemiancoding.com/sketch -->
    <title>mp3</title>
    <desc>Created with Sketch.</desc>
    <defs></defs>
    <g id="ClassDig-Web-Teachers" stroke="none" stroke-width="1" fill="none" fill-rule="evenodd">
        <g id="Icons-Resources" transform="translate(-656.000000, -1526.000000)">
            <g id="mp3" transform="translate(656.000000, 1526.000000)">
                <g id="Group">
                    <path d="M36.75,12.6315 L36.75,44.21025 C36.75,46.3035 35.0475,48 32.94825,48 L3.80175,48 C1.70175,48 0,46.3035 0,44.21025 L0,3.78975 C0,1.6965 1.70175,0 3.80175,0 L24.07725,0 L36.75,12.6315 L36.75,12.6315 Z" id="Shape" fill="#FF4A65"></path>
                    <path d="M7.14423399,24.8676758 L7.20356017,25.6652832 C7.70893379,25.0456512 8.39227656,24.7358398 9.25360899,24.7358398 C10.1720706,24.7358398 10.8026795,25.098385 11.1454547,25.8234863 C11.6464338,25.098385 12.360538,24.7358398 13.2877887,24.7358398 C14.06123,24.7358398 14.6369079,24.9610573 15.0148395,25.411499 C15.392771,25.8619407 15.581734,26.5397904 15.581734,27.4450684 L15.581734,32 L13.6701129,32 L13.6701129,27.4516602 C13.6701129,27.0473613 13.5910121,26.751832 13.4328082,26.5650635 C13.2746043,26.378295 12.9955544,26.2849121 12.59565,26.2849121 C12.0243581,26.2849121 11.6288542,26.5573703 11.4091266,27.1022949 L11.4157184,32 L9.51068907,32 L9.51068907,27.458252 C9.51068907,27.045164 9.42939106,26.7463388 9.26679259,26.5617676 C9.10419412,26.3771963 8.82734142,26.2849121 8.43622618,26.2849121 C7.89569614,26.2849121 7.50458677,26.509031 7.26288634,26.9572754 L7.26288634,32 L5.35785704,32 L5.35785704,24.8676758 L7.14423399,24.8676758 Z M23.7037583,28.4997559 C23.7037583,29.5983942 23.4543712,30.4783902 22.9555894,31.1397705 C22.4568076,31.8011508 21.7833524,32.1318359 20.9352036,32.1318359 C20.2144969,32.1318359 19.6322274,31.8813502 19.1883775,31.3803711 L19.1883775,34.7421875 L17.2833482,34.7421875 L17.2833482,24.8676758 L19.0499497,24.8676758 L19.1158677,25.5664062 C19.5772958,25.0126925 20.1793406,24.7358398 20.9220201,24.7358398 C21.8009307,24.7358398 22.4842735,25.0610319 22.9720689,25.7114258 C23.4598643,26.3618197 23.7037583,27.2582951 23.7037583,28.4008789 L23.7037583,28.4997559 Z M21.798729,28.3613281 C21.798729,27.6977506 21.6811765,27.1857928 21.4460679,26.8254395 C21.2109593,26.4650861 20.8692879,26.2849121 20.4210435,26.2849121 C19.8233843,26.2849121 19.4124997,26.5134254 19.1883775,26.970459 L19.1883775,29.890625 C19.4212888,30.3608422 19.8365678,30.5959473 20.4342271,30.5959473 C21.3438996,30.5959473 21.798729,29.8510817 21.798729,28.3613281 L21.798729,28.3613281 Z M26.980812,26.3574219 L27.9959487,26.3574219 C28.4793495,26.3574219 28.8375003,26.2365735 29.0704116,25.994873 C29.3033229,25.7531726 29.4197768,25.432375 29.4197768,25.0324707 C29.4197768,24.64575 29.3044215,24.3447276 29.0737075,24.1293945 C28.8429934,23.9140614 28.5254917,23.8063965 28.1211928,23.8063965 C27.7564449,23.8063965 27.4510281,23.9063711 27.2049331,24.1063232 C26.9588381,24.3062754 26.8357924,24.5666488 26.8357924,24.8874512 L24.9307631,24.8874512 C24.9307631,24.3864721 25.0658936,23.9371358 25.3361587,23.5394287 C25.6064237,23.1417216 25.9843496,22.8308117 26.4699477,22.6066895 C26.9555458,22.3825672 27.4905747,22.2705078 28.0750503,22.2705078 C29.0901921,22.2705078 29.8855943,22.5133032 30.4612807,22.9989014 C31.0369672,23.4844995 31.3248061,24.1535602 31.3248061,25.0061035 C31.3248061,25.4455588 31.1907743,25.8498517 30.9227065,26.2189941 C30.6546388,26.5881366 30.3030798,26.871581 29.868019,27.0693359 C30.4085491,27.2626963 30.8117433,27.5527324 31.0776137,27.9394531 C31.3434842,28.3261738 31.4764174,28.7832005 31.4764174,29.3105469 C31.4764174,30.1630902 31.1655075,30.846433 30.5436782,31.3605957 C29.9218489,31.8747584 29.0989812,32.1318359 28.0750503,32.1318359 C27.1170377,32.1318359 26.3337203,31.8791529 25.7250747,31.3737793 C25.116429,30.8684057 24.8121108,30.2004436 24.8121108,29.369873 L26.7171401,29.369873 C26.7171401,29.7302264 26.8522706,30.0246571 27.1225356,30.2531738 C27.3928006,30.4816906 27.725683,30.5959473 28.1211928,30.5959473 C28.5738318,30.5959473 28.9286867,30.4761975 29.185768,30.2366943 C29.4428494,29.9971912 29.5713881,29.6796895 29.5713881,29.2841797 C29.5713881,28.3261671 29.0440497,27.847168 27.9893569,27.847168 L26.980812,27.847168 L26.980812,26.3574219 Z" id="mp3" fill="#FFFFFF"></path>
                    <path d="M36.75,11.92425 L36.75,13.49625 L26.39025,13.49625 C24.24525,13.49625 23.256,11.75625 23.256,9.6105 L23.256,0 L24.825,0 L36.75,11.92425 L36.75,11.92425 Z" id="Shape" fill="#FD94A3"></path>
                </g>
            </g>
        </g>
    </g>
</svg>