<?xml version="1.0" encoding="UTF-8"?>
<svg width="37px" height="48px" viewBox="0 0 37 48" version="1.1" xmlns="http://www.w3.org/2000/svg" xmlns:xlink="http://www.w3.org/1999/xlink">
    <!-- Generator: Sketch 39.1 (31720) - http://www.bohemiancoding.com/sketch -->
    <title>jpeg</title>
    <desc>Created with Sketch.</desc>
    <defs></defs>
    <g id="ClassDig-Web-Teachers" stroke="none" stroke-width="1" fill="none" fill-rule="evenodd">
        <g id="Icons-Resources" transform="translate(-413.000000, -1303.000000)">
            <g id="jpeg" transform="translate(413.000000, 1303.000000)">
                <g id="Group">
                    <path d="M36.75,12.6315 L36.75,44.21025 C36.75,46.3035 35.0475,48 32.94825,48 L3.80175,48 C1.70175,48 0,46.3035 0,44.21025 L0,3.78975 C0,1.6965 1.70175,0 3.80175,0 L24.07725,0 L36.75,12.6315 L36.75,12.6315 Z" id="Shape" fill="#E28500"></path>
                    <path d="M7.71725503,28.0378418 L7.71725503,35.559082 C7.71725503,36.3457071 7.50851688,36.9576394 7.09103432,37.3948975 C6.67355177,37.8321555 6.07150701,38.0507812 5.28488198,38.0507812 C4.95529049,38.0507812 4.64108465,38.0134281 4.34225503,37.9387207 L4.34225503,36.4291992 C4.57077179,36.4687502 4.77072097,36.4885254 4.94210854,36.4885254 C5.51779501,36.4885254 5.80563393,36.1831085 5.80563393,35.5722656 L5.80563393,28.0378418 L7.71725503,28.0378418 Z M5.6540226,26.1921387 C5.6540226,25.9064927 5.7496027,25.6713876 5.94076577,25.4868164 C6.13192883,25.3022452 6.39230221,25.2099609 6.7218937,25.2099609 C7.05148519,25.2099609 7.31185856,25.3022452 7.50302163,25.4868164 C7.69418469,25.6713876 7.78976479,25.9064927 7.78976479,26.1921387 C7.78976479,26.4821792 7.69198745,26.7194815 7.49642983,26.9040527 C7.30087221,27.088624 7.04269608,27.1809082 6.7218937,27.1809082 C6.40109131,27.1809082 6.14291518,27.088624 5.94735757,26.9040527 C5.75179995,26.7194815 5.6540226,26.4821792 5.6540226,26.1921387 L5.6540226,26.1921387 Z M15.8656466,31.6699219 C15.8656466,32.7685602 15.6162594,33.6485563 15.1174776,34.3099365 C14.6186958,34.9713168 13.9452406,35.302002 13.0970919,35.302002 C12.3763851,35.302002 11.7941156,35.0515162 11.3502657,34.5505371 L11.3502657,37.9123535 L9.4452364,37.9123535 L9.4452364,28.0378418 L11.211838,28.0378418 L11.2777559,28.7365723 C11.739184,28.1828586 12.3412288,27.9060059 13.0839083,27.9060059 C13.9628189,27.9060059 14.6461617,28.2311979 15.1339571,28.8815918 C15.6217525,29.5319857 15.8656466,30.4284611 15.8656466,31.5710449 L15.8656466,31.6699219 Z M13.9606173,31.5314941 C13.9606173,30.8679166 13.8430647,30.3559588 13.6079561,29.9956055 C13.3728475,29.6352521 13.0311761,29.4550781 12.5829317,29.4550781 C11.9852725,29.4550781 11.5743879,29.6835915 11.3502657,30.140625 L11.3502657,33.060791 C11.583177,33.5310082 11.9984561,33.7661133 12.5961153,33.7661133 C13.5057878,33.7661133 13.9606173,33.0212477 13.9606173,31.5314941 L13.9606173,31.5314941 Z M20.5665283,35.302002 C19.5206247,35.302002 18.6691927,34.9812044 18.012207,34.3395996 C17.3552213,33.6979948 17.0267334,32.8432671 17.0267334,31.7753906 L17.0267334,31.5908203 C17.0267334,30.8745081 17.1651597,30.2340116 17.4420166,29.6693115 C17.7188735,29.1046114 18.1110814,28.6695572 18.6186523,28.3641357 C19.1262232,28.0587143 19.7051969,27.9060059 20.3555908,27.9060059 C21.3311816,27.9060059 22.0991183,28.21362 22.6594238,28.8288574 C23.2197294,29.4440949 23.4998779,30.3164006 23.4998779,31.4458008 L23.4998779,32.2236328 L18.9581299,32.2236328 C19.0196536,32.6894555 19.2053207,33.0629869 19.5151367,33.3442383 C19.8249527,33.6254897 20.2171607,33.7661133 20.6917725,33.7661133 C21.4256628,33.7661133 21.9991434,33.5002468 22.4122314,32.9685059 L23.3482666,34.0166016 C23.0626206,34.4209005 22.6759058,34.7362049 22.1881104,34.9625244 C21.7003149,35.1888439 21.159793,35.302002 20.5665283,35.302002 L20.5665283,35.302002 Z M20.348999,29.4484863 C19.9710674,29.4484863 19.664552,29.5759265 19.4294434,29.8308105 C19.1943348,30.0856946 19.0438236,30.4504371 18.9779053,30.9250488 L21.6278076,30.9250488 L21.6278076,30.7734375 C21.6190185,30.3515604 21.5047618,30.0252697 21.2850342,29.7945557 C21.0653065,29.5638416 20.7532979,29.4484863 20.348999,29.4484863 L20.348999,29.4484863 Z M24.5423124,31.5512695 C24.5423124,30.4570258 24.8026858,29.5759311 25.3234404,28.907959 C25.8441949,28.2399869 26.5462143,27.9060059 27.4295195,27.9060059 C28.2117499,27.9060059 28.8203864,28.1740696 29.2554472,28.7102051 L29.3345488,28.0378418 L31.0615995,28.0378418 L31.0615995,34.9328613 C31.0615995,35.5568879 30.9198773,36.0996071 30.6364286,36.5610352 C30.35298,37.0224632 29.9541802,37.3740222 29.4400175,37.6157227 C28.9258548,37.8574231 28.32381,37.9782715 27.6338652,37.9782715 C27.1109133,37.9782715 26.6011528,37.8739024 26.1045683,37.6651611 C25.6079838,37.4564199 25.2322551,37.1872575 24.977371,36.857666 L25.821121,35.6975098 C26.2957328,36.2292507 26.8714106,36.4951172 27.5481718,36.4951172 C28.0535454,36.4951172 28.446852,36.3599867 28.7281034,36.0897217 C29.0093549,35.8194567 29.1499784,35.4360376 29.1499784,34.9394531 L29.1499784,34.5571289 C28.7105231,35.0537134 28.132648,35.302002 27.4163359,35.302002 C26.559398,35.302002 25.8661676,34.9669223 25.336624,34.2967529 C24.8070803,33.6265836 24.5423124,32.7377985 24.5423124,31.6303711 L24.5423124,31.5512695 Z M26.4473417,31.6896973 C26.4473417,32.3356966 26.5769791,32.8421613 26.8362577,33.2091064 C27.0955364,33.5760516 27.4514899,33.7595215 27.9041288,33.7595215 C28.4842099,33.7595215 28.8994889,33.5419944 29.1499784,33.1069336 L29.1499784,30.107666 C28.8950944,29.6726052 28.4842098,29.4550781 27.9173124,29.4550781 C27.4602789,29.4550781 27.1010296,29.6418438 26.8395536,30.0153809 C26.5780777,30.3889179 26.4473417,30.9470178 26.4473417,31.6896973 L26.4473417,31.6896973 Z" id="jpeg" fill="#FFFFFF"></path>
                    <path d="M36.75,11.92425 L36.75,13.49625 L26.39025,13.49625 C24.24525,13.49625 23.256,11.75625 23.256,9.6105 L23.256,0 L24.825,0 L36.75,11.92425 L36.75,11.92425 Z" id="Shape" fill="#FFCF8B"></path>
                </g>
            </g>
        </g>
    </g>
</svg>