<?xml version="1.0" encoding="UTF-8"?>
<svg width="37px" height="48px" viewBox="0 0 37 48" version="1.1" xmlns="http://www.w3.org/2000/svg" xmlns:xlink="http://www.w3.org/1999/xlink">
    <!-- Generator: Sketch 39.1 (31720) - http://www.bohemiancoding.com/sketch -->
    <title>xls</title>
    <desc>Created with Sketch.</desc>
    <defs></defs>
    <g id="ClassDig-Web-Teachers" stroke="none" stroke-width="1" fill="none" fill-rule="evenodd">
        <g id="Icons-Resources" transform="translate(-528.000000, -1406.000000)">
            <g id="xls" transform="translate(528.000000, 1406.000000)">
                <g id="Group">
                    <path d="M36.75,12.6315 L36.75,44.21025 C36.75,46.3035 35.0475,48 32.94825,48 L3.80175,48 C1.70175,48 0,46.3035 0,44.21025 L0,3.78975 C0,1.6965 1.70175,0 3.80175,0 L24.07725,0 L36.75,12.6315 L36.75,12.6315 Z" id="Shape" fill="#79AC00"></path>
                    <path d="M23.7105,28.263 C23.34675,28.263 23.07225,28.32525 22.88625,28.44975 C22.70025,28.57425 22.60725,28.73325 22.60725,28.9275 C22.60725,29.1135 22.69125,29.26125 22.85925,29.37225 C23.02725,29.48325 23.35875,29.5995 23.853,29.72175 C24.66525,29.9205 25.245,30.1185 25.59225,30.315 C25.9395,30.51225 26.20275,30.756 26.382,31.04775 C26.56125,31.3395 26.6505,31.698 26.6505,32.12325 C26.6505,32.5935 26.53125,32.99625 26.2935,33.33075 C26.055,33.666 25.71675,33.921 25.27875,34.09725 C24.84075,34.27425 24.3405,34.362 23.778,34.362 C22.2855,34.362 21.26925,33.948 20.72925,33.12075 L22.03575,32.205 C22.24875,32.4945 22.4955,32.68725 22.7745,32.78475 C23.0535,32.88225 23.352,32.931 23.66925,32.931 C24.504,32.931 24.92175,32.68875 24.92175,32.205 C24.92175,31.992 24.804,31.8285 24.56775,31.713 C24.3315,31.5975 23.96175,31.479 23.4585,31.35675 C22.50975,31.149 21.843,30.85425 21.4575,30.47475 C21.07125,30.0945 20.8785,29.60175 20.8785,28.99575 C20.8785,28.36725 21.12,27.849 21.60375,27.44175 C22.08675,27.03525 22.79775,26.83125 23.7375,26.83125 C24.37725,26.83125 24.94125,26.93325 25.42875,27.1365 C25.91625,27.3405 26.292,27.64575 26.55525,28.05225 L25.242,28.98225 C24.9285,28.503 24.41775,28.263 23.7105,28.263 L23.7105,28.263 Z M17.4615,24.0495 L19.218,24.0495 L19.218,34.152 L17.4615,34.152 L17.4615,24.0495 L17.4615,24.0495 Z M14.18775,34.152 L12.7725,31.8855 L11.28825,34.152 L9.342,34.152 L11.80575,30.6375 L9.3825,27.03525 L11.4315,27.03525 L12.8535,29.2875 L14.3175,27.03525 L16.257,27.03525 L13.8,30.54225 L16.2705,34.152 L14.18775,34.152 L14.18775,34.152 Z" id="Shape" fill="#FFFFFF"></path>
                    <path d="M36.75,11.92425 L36.75,13.49625 L26.39025,13.49625 C24.24525,13.49625 23.256,11.75625 23.256,9.6105 L23.256,0 L24.825,0 L36.75,11.92425 L36.75,11.92425 Z" id="Shape" fill="#B4E441"></path>
                </g>
            </g>
        </g>
    </g>
</svg>