<?xml version="1.0" encoding="UTF-8"?>
<svg width="37px" height="48px" viewBox="0 0 37 48" version="1.1" xmlns="http://www.w3.org/2000/svg" xmlns:xlink="http://www.w3.org/1999/xlink">
    <!-- Generator: Sketch 39.1 (31720) - http://www.bohemiancoding.com/sketch -->
    <title>pdf</title>
    <desc>Created with Sketch.</desc>
    <defs></defs>
    <g id="ClassDig-Web-Teachers" stroke="none" stroke-width="1" fill="none" fill-rule="evenodd">
        <g id="Icons-Resources" transform="translate(-656.000000, -1407.000000)">
            <g id="pdf" transform="translate(656.000000, 1407.000000)">
                <g id="Group">
                    <path d="M36.75,12.6315 L36.75,44.21025 C36.75,46.3035 35.0475,48 32.94825,48 L3.80175,48 C1.70175,48 0,46.3035 0,44.21025 L0,3.78975 C0,1.6965 1.70175,0 3.80175,0 L24.07725,0 L36.75,12.6315 L36.75,12.6315 Z" id="Shape" fill="#CB0606"></path>
                    <path d="M36.75,11.92425 L36.75,13.49625 L26.39025,13.49625 C24.24525,13.49625 23.256,11.75625 23.256,9.6105 L23.256,0 L24.825,0 L36.75,11.92425 L36.75,11.92425 Z" id="Shape" fill="#FB8D8D"></path>
                    <path d="M28.2045,25.53525 C27.8775,25.42725 27.5625,25.3725 27.25875,25.3725 C26.91375,25.3725 26.67675,25.44375 26.547,25.58625 C26.418,25.72875 26.3535,25.98075 26.3535,26.343 L26.3535,27.03525 L27.80325,27.03525 L27.80325,28.42575 L26.3535,28.42575 L26.3535,34.152 L24.597,34.152 L24.597,28.42575 L23.69175,28.42575 L23.69175,27.03525 L24.597,27.03525 L24.597,26.343 C24.597,25.461 24.816,24.8235 25.254,24.42975 C25.692,24.036 26.3505,23.8395 27.231,23.8395 C27.64425,23.8395 28.08225,23.89575 28.545,24.009 L28.2045,25.53525 L28.2045,25.53525 Z M20.847,33.45975 C20.52,33.73575 20.175,33.9555 19.812,34.11825 C19.449,34.281 19.0365,34.362 18.57375,34.362 C17.67525,34.362 16.9875,34.03875 16.51125,33.39225 C16.03425,32.745 15.7965,31.8315 15.7965,30.651 C15.7965,29.4435 16.05825,28.50525 16.5825,27.8355 C17.10675,27.1665 17.8425,26.83125 18.79125,26.83125 C19.12725,26.83125 19.4715,26.90025 19.8255,27.03825 C20.1795,27.17625 20.47275,27.35175 20.70375,27.564 L20.70375,24.0495 L22.46025,24.0495 L22.46025,34.152 L20.847,34.152 L20.847,33.45975 L20.847,33.45975 Z M20.70375,29.00925 C20.51775,28.842 20.2875,28.6935 20.013,28.5645 C19.7385,28.43625 19.458,28.37175 19.17225,28.37175 C18.7005,28.37175 18.32175,28.57425 18.036,28.9785 C17.7495,29.3835 17.607,29.93175 17.607,30.624 C17.607,31.30725 17.724,31.84275 17.95725,32.232 C18.19125,32.62125 18.55275,32.8155 19.04325,32.8155 C19.3335,32.8155 19.62975,32.74875 19.93125,32.61525 C20.23275,32.48175 20.49075,32.3175 20.70375,32.12325 L20.70375,29.00925 L20.70375,29.00925 Z M13.19625,33.90075 C12.765,34.20825 12.2505,34.362 11.65125,34.362 C10.8615,34.362 10.188,34.116 9.63,33.6225 L9.63,36.83175 L7.8735,36.83175 L7.8735,27.03525 L9.4935,27.03525 L9.4935,27.7335 C9.8205,27.453 10.164,27.2325 10.52475,27.072 C10.8855,26.9115 11.2995,26.83125 11.76675,26.83125 C12.66975,26.83125 13.3575,27.14775 13.82925,27.7815 C14.301,28.4145 14.53725,29.33475 14.53725,30.54225 C14.53725,31.30725 14.42175,31.98075 14.19,32.56425 C13.95825,33.14775 13.6275,33.59325 13.19625,33.90075 L13.19625,33.90075 Z M12.366,28.9515 C12.12525,28.5645 11.76675,28.37175 11.2905,28.37175 C11.00475,28.37175 10.71075,28.4385 10.40925,28.57125 C10.107,28.70475 9.8475,28.869 9.63,29.06325 L9.63,32.17725 C9.816,32.34525 10.04625,32.493 10.32075,32.622 C10.59525,32.751 10.87725,32.8155 11.16825,32.8155 C11.649,32.8155 12.02925,32.61075 12.30825,32.20125 C12.58725,31.79175 12.72675,31.248 12.72675,30.57 C12.72675,29.87775 12.606,29.3385 12.366,28.9515 L12.366,28.9515 Z" id="Shape" fill="#FFFFFF"></path>
                </g>
            </g>
        </g>
    </g>
</svg>