<?xml version="1.0" encoding="UTF-8"?>
<svg width="37px" height="48px" viewBox="0 0 37 48" version="1.1" xmlns="http://www.w3.org/2000/svg" xmlns:xlink="http://www.w3.org/1999/xlink">
    <!-- Generator: Sketch 39.1 (31720) - http://www.bohemiancoding.com/sketch -->
    <title>xml</title>
    <desc>Created with Sketch.</desc>
    <defs></defs>
    <g id="ClassDig-Web-Teachers" stroke="none" stroke-width="1" fill="none" fill-rule="evenodd">
        <g id="Icons-Resources" transform="translate(-592.000000, -1469.000000)">
            <g id="xml" transform="translate(592.000000, 1469.000000)">
                <g id="Group">
                    <path d="M36.4444444,12.6315 L36.4444444,44.21025 C36.4444444,46.3035 34.7560998,48 32.6743039,48 L3.77014059,48 C1.68760091,48 0,46.3035 0,44.21025 L0,3.78975 C0,1.6965 1.68760091,0 3.77014059,0 L23.8770612,0 L36.4444444,12.6315 L36.4444444,12.6315 Z" id="Shape" fill="#FFBF48"></path>
                    <path d="M10.5225299,26.9968262 L11.7222369,24.8676758 L13.7591022,24.8676758 L11.7288287,28.3613281 L13.8447955,32 L11.8013385,32 L10.5291217,29.7587891 L9.26349669,32 L7.21344786,32 L9.32941466,28.3613281 L7.30573302,24.8676758 L9.34919005,24.8676758 L10.5225299,26.9968262 Z M16.6999742,24.8676758 L16.7593003,25.6652832 C17.2646739,25.0456512 17.9480167,24.7358398 18.8093492,24.7358398 C19.7278108,24.7358398 20.3584197,25.098385 20.7011949,25.8234863 C21.2021739,25.098385 21.9162781,24.7358398 22.8435288,24.7358398 C23.6169702,24.7358398 24.192648,24.9610573 24.5705796,25.411499 C24.9485112,25.8619407 25.1374742,26.5397904 25.1374742,27.4450684 L25.1374742,32 L23.2258531,32 L23.2258531,27.4516602 C23.2258531,27.0473613 23.1467523,26.751832 22.9885484,26.5650635 C22.8303445,26.378295 22.5512945,26.2849121 22.1513902,26.2849121 C21.5800983,26.2849121 21.1845944,26.5573703 20.9648667,27.1022949 L20.9714585,32 L19.0664292,32 L19.0664292,27.458252 C19.0664292,27.045164 18.9851312,26.7463388 18.8225328,26.5617676 C18.6599343,26.3771963 18.3830816,26.2849121 17.9919663,26.2849121 C17.4514363,26.2849121 17.0603269,26.509031 16.8186265,26.9572754 L16.8186265,32 L14.9135972,32 L14.9135972,24.8676758 L16.6999742,24.8676758 Z M28.8495864,32 L26.9379653,32 L26.9379653,21.875 L28.8495864,21.875 L28.8495864,32 Z" id="xml" fill="#FFFFFF"></path>
                    <path d="M36.4444444,11.92425 L36.4444444,13.49625 L26.1708299,13.49625 C24.0436644,13.49625 23.0626395,11.75625 23.0626395,9.6105 L23.0626395,0 L24.6185941,0 L36.4444444,11.92425 L36.4444444,11.92425 Z" id="Shape" fill="#FFDB96"></path>
                </g>
            </g>
        </g>
    </g>
</svg>