<?xml version="1.0" encoding="UTF-8"?>
<svg width="22px" height="30px" viewBox="0 0 22 30" version="1.1" xmlns="http://www.w3.org/2000/svg" xmlns:xlink="http://www.w3.org/1999/xlink">
    <!-- Generator: sketchtool 39.1 (31720) - http://www.bohemiancoding.com/sketch -->
    <title>FCFF71B5-AD1D-42D7-82CF-C38CC50479FE</title>
    <desc>Created with sketchtool.</desc>
    <defs></defs>
    <g id="ClassDig-Web-Teachers" stroke="none" stroke-width="1" fill="none" fill-rule="evenodd">
        <g id="Icons-Resources" transform="translate(-466.000000, -1316.000000)" fill="#4785D6">
            <g id="addfilebl" transform="translate(466.000000, 1316.000000)">
                <g id="Group">
                    <path d="M19.4117647,30 L2.58823529,30 C1.15888235,30 0,28.8319565 0,27.3913043 L0,2.60869565 C0,1.16804348 1.15888235,0 2.58823529,0 L14.8648824,0 L14.8694118,0 L14.8823529,0 L14.8823529,0 C15.0894118,0 15.2660588,0.105 15.3844706,0.257608696 L21.7444118,6.66782609 C21.8964706,6.78717391 22,6.96521739 22,7.17391304 L22,7.17391304 L22,7.1876087 L22,7.19086957 L22,27.3913043 C22,28.8319565 20.8411176,30 19.4117647,30 L19.4117647,30 Z M15.5294118,2.205 L15.5294118,6.52173913 L19.8122941,6.52173913 L15.5294118,2.205 L15.5294118,2.205 Z M20.7058824,7.82608696 L14.8823529,7.82608696 C14.5245294,7.82608696 14.2352941,7.53391304 14.2352941,7.17391304 L14.2352941,1.30434783 L2.58823529,1.30434783 C1.87388235,1.30434783 1.29411765,1.88869565 1.29411765,2.60869565 L1.29411765,27.3913043 C1.29411765,28.1113043 1.87388235,28.6956522 2.58823529,28.6956522 L19.4117647,28.6956522 C20.1261176,28.6956522 20.7058824,28.1113043 20.7058824,27.3913043 L20.7058824,7.82608696 L20.7058824,7.82608696 Z M16.8235294,24.7826087 L5.17647059,24.7826087 C4.81864706,24.7826087 4.52941176,24.491087 4.52941176,24.1304348 C4.52941176,23.7704348 4.81864706,23.4782609 5.17647059,23.4782609 L16.8235294,23.4782609 C17.1813529,23.4782609 17.4705882,23.7704348 17.4705882,24.1304348 C17.4705882,24.491087 17.1813529,24.7826087 16.8235294,24.7826087 L16.8235294,24.7826087 Z M16.8235294,19.5652174 L5.17647059,19.5652174 C4.81864706,19.5652174 4.52941176,19.2736957 4.52941176,18.9130435 C4.52941176,18.5530435 4.81864706,18.2608696 5.17647059,18.2608696 L16.8235294,18.2608696 C17.1813529,18.2608696 17.4705882,18.5530435 17.4705882,18.9130435 C17.4705882,19.2736957 17.1813529,19.5652174 16.8235294,19.5652174 L16.8235294,19.5652174 Z M16.8235294,14.3478261 L5.17647059,14.3478261 C4.81864706,14.3478261 4.52941176,14.0563043 4.52941176,13.6956522 C4.52941176,13.3356522 4.81864706,13.0434783 5.17647059,13.0434783 L16.8235294,13.0434783 C17.1813529,13.0434783 17.4705882,13.3356522 17.4705882,13.6956522 C17.4705882,14.0563043 17.1813529,14.3478261 16.8235294,14.3478261 L16.8235294,14.3478261 Z" id="Shape"></path>
                </g>
            </g>
        </g>
    </g>
</svg>