<?xml version="1.0" encoding="UTF-8"?>
<svg width="37px" height="48px" viewBox="0 0 37 48" version="1.1" xmlns="http://www.w3.org/2000/svg" xmlns:xlink="http://www.w3.org/1999/xlink">
    <!-- Generator: Sketch 39.1 (31720) - http://www.bohemiancoding.com/sketch -->
    <title>doc</title>
    <desc>Created with Sketch.</desc>
    <defs></defs>
    <g id="ClassDig-Web-Teachers" stroke="none" stroke-width="1" fill="none" fill-rule="evenodd">
        <g id="Icons-Resources" transform="translate(-592.000000, -1407.000000)">
            <g id="doc" transform="translate(592.000000, 1407.000000)">
                <g id="Group">
                    <path d="M36.4444444,12.6315 L36.4444444,44.21025 C36.4444444,46.3035 34.7560998,48 32.6743039,48 L3.77014059,48 C1.68760091,48 0,46.3035 0,44.21025 L0,3.78975 C0,1.6965 1.68760091,0 3.77014059,0 L23.8770612,0 L36.4444444,12.6315 L36.4444444,12.6315 Z" id="Shape" fill="#067FCB"></path>
                    <path d="M27.4411791,28.5105 C27.2299501,28.4085 26.9577324,28.35825 26.6245261,28.35825 C26.0310023,28.35825 25.6078005,28.54125 25.3556644,28.90725 C25.1035283,29.274 24.9778322,29.84175 24.9778322,30.6105 C24.9778322,31.37925 25.1072472,31.941 25.3660771,32.2965 C25.624907,32.65125 26.0667029,32.829 26.6922086,32.829 C26.962195,32.829 27.2098685,32.79075 27.4344853,32.7135 C27.6598458,32.637 27.8733061,32.46675 28.07561,32.205 L29.3920726,33.13425 C29.1220862,33.537 28.7665669,33.84225 28.3255147,34.05 C27.8844626,34.25775 27.3266395,34.362 26.6520454,34.362 C25.5088798,34.362 24.6446259,34.04925 24.0600272,33.42225 C23.4746848,32.796 23.1823855,31.8675 23.1823855,30.6375 C23.1823855,29.439 23.4657596,28.50525 24.0325079,27.8355 C24.6,27.1665 25.4501224,26.83125 26.5843628,26.83125 C27.1920181,26.83125 27.7327347,26.931 28.2072562,27.12975 C28.6825215,27.32925 29.0432472,27.63675 29.2909206,28.05225 L27.9952834,28.98225 C27.8376054,28.76925 27.6531519,28.6125 27.4411791,28.5105 L27.4411791,28.5105 Z M18.5517098,34.362 C16.2839728,34.362 15.1497324,33.11175 15.1497324,30.6105 C15.1497324,29.4075 15.4219501,28.47675 15.9663855,27.81825 C16.5108209,27.1605 17.3728435,26.83125 18.5517098,26.83125 C19.7216508,26.83125 20.5792109,27.1605 21.1236463,27.81825 C21.6680816,28.47675 21.9402993,29.4075 21.9402993,30.6105 C21.9402993,31.7955 21.6680816,32.71725 21.1236463,33.375 C20.5792109,34.0335 19.7216508,34.362 18.5517098,34.362 L18.5517098,34.362 Z M19.7737143,28.8975 C19.5305034,28.5375 19.1236644,28.35825 18.5517098,28.35825 C17.9849615,28.35825 17.5751474,28.542 17.3237551,28.911 C17.071619,29.27925 16.9451791,29.84625 16.9451791,30.6105 C16.9451791,31.37025 17.0701315,31.92975 17.3200363,32.28975 C17.569941,32.649 17.9804989,32.829 18.5517098,32.829 C19.1139955,32.829 19.5193469,32.65125 19.7670204,32.2965 C20.0139501,31.941 20.1381587,31.37925 20.1381587,30.6105 C20.1381587,29.82825 20.0169252,29.25675 19.7737143,28.8975 L19.7737143,28.8975 Z M11.9441088,33.45975 C11.6198277,33.73575 11.2776961,33.9555 10.9177143,34.11825 C10.5577324,34.281 10.1479184,34.362 9.68901587,34.362 C8.79798639,34.362 8.11669841,34.03875 7.64440816,33.39225 C7.17137415,32.745 6.93560091,31.8315 6.93560091,30.651 C6.93560091,29.4435 7.1951746,28.50525 7.71506576,27.8355 C8.23495692,27.1665 8.96458957,26.83125 9.90545125,26.83125 C10.2379138,26.83125 10.5800454,26.90025 10.931102,27.03825 C11.2821587,27.17625 11.5722268,27.35175 11.8020499,27.564 L11.8020499,24.0495 L13.5432018,24.0495 L13.5432018,34.152 L11.9441088,34.152 L11.9441088,33.45975 L11.9441088,33.45975 Z M11.8020499,29.00925 C11.6175964,28.842 11.3892608,28.6935 11.1170431,28.5645 C10.8448254,28.43625 10.5666576,28.37175 10.2832834,28.37175 C9.81545578,28.37175 9.43985488,28.57425 9.15573696,28.9785 C8.87236281,29.3835 8.73104762,29.93175 8.73104762,30.624 C8.73104762,31.30725 8.84633107,31.84275 9.07838549,32.232 C9.31043991,32.62125 9.66893424,32.8155 10.155356,32.8155 C10.4431927,32.8155 10.7362358,32.74875 11.0359728,32.61525 C11.334966,32.48175 11.5900771,32.3175 11.8020499,32.12325 L11.8020499,29.00925 L11.8020499,29.00925 Z" id="Shape" fill="#FFFFFF"></path>
                    <path d="M36.4444444,11.92425 L36.4444444,13.49625 L26.1708299,13.49625 C24.0436644,13.49625 23.0626395,11.75625 23.0626395,9.6105 L23.0626395,0 L24.6185941,0 L36.4444444,11.92425 L36.4444444,11.92425 Z" id="Shape" fill="#7CC9F9"></path>
                </g>
            </g>
        </g>
    </g>
</svg>