<?xml version="1.0" encoding="UTF-8"?>
<svg width="37px" height="48px" viewBox="0 0 37 48" version="1.1" xmlns="http://www.w3.org/2000/svg" xmlns:xlink="http://www.w3.org/1999/xlink">
    <!-- Generator: Sketch 39.1 (31720) - http://www.bohemiancoding.com/sketch -->
    <title>svg</title>
    <desc>Created with Sketch.</desc>
    <defs></defs>
    <g id="ClassDig-Web-Teachers" stroke="none" stroke-width="1" fill="none" fill-rule="evenodd">
        <g id="Icons-Resources" transform="translate(-528.000000, -1468.000000)">
            <g id="svg" transform="translate(528.000000, 1468.000000)">
                <g id="Group">
                    <path d="M36.75,12.6315 L36.75,44.21025 C36.75,46.3035 35.0475,48 32.94825,48 L3.80175,48 C1.70175,48 0,46.3035 0,44.21025 L0,3.78975 C0,1.6965 1.70175,0 3.80175,0 L24.07725,0 L36.75,12.6315 L36.75,12.6315 Z" id="Shape" fill="#79AC00"></path>
                    <path d="M12.045235,31.0290527 C12.045235,30.7961414 11.9298797,30.6126716 11.6991656,30.4786377 C11.4684516,30.3446038 11.098216,30.224854 10.5884479,30.1193848 C8.89215032,29.763426 8.04401427,29.04273 8.04401427,27.9572754 C8.04401427,27.3244597 8.30658488,26.7960226 8.83173399,26.3719482 C9.3568831,25.9478739 10.0435217,25.7358398 10.8916705,25.7358398 C11.7969485,25.7358398 12.5209403,25.9489725 13.0636676,26.3752441 C13.6063949,26.8015158 13.8777545,27.3552212 13.8777545,28.036377 L11.9727252,28.036377 C11.9727252,27.7639147 11.8848355,27.5386972 11.7090533,27.3607178 C11.5332712,27.1827384 11.2586157,27.09375 10.8850787,27.09375 C10.5642763,27.09375 10.3159878,27.166259 10.1402057,27.3112793 C9.96442354,27.4562996 9.8765338,27.640868 9.8765338,27.8649902 C9.8765338,28.0759288 9.97650839,28.2462152 10.1764606,28.3758545 C10.3764127,28.5054938 10.7136896,28.6175532 11.1883014,28.7120361 C11.6629131,28.806519 12.0628115,28.9130853 12.3880084,29.0317383 C13.3943611,29.4008808 13.8975299,30.0402787 13.8975299,30.9499512 C13.8975299,31.600345 13.6184799,32.1265849 13.0603717,32.5286865 C12.5022634,32.9307881 11.7815675,33.1318359 10.8982623,33.1318359 C10.3006031,33.1318359 9.76996873,33.0252696 9.30634337,32.8121338 C8.842718,32.598998 8.47907418,32.3067646 8.21540099,31.9354248 C7.95172779,31.5640851 7.81989317,31.1630881 7.81989317,30.7324219 L9.62604552,30.7324219 C9.64362373,31.0708025 9.76886662,31.3300772 10.0017779,31.5102539 C10.2346893,31.6904306 10.5466979,31.7805176 10.9378131,31.7805176 C11.302561,31.7805176 11.5783151,31.7113044 11.7650836,31.572876 C11.9518521,31.4344476 12.045235,31.2531749 12.045235,31.0290527 L12.045235,31.0290527 Z M18.0315171,30.6730957 L19.3564683,25.8676758 L21.347191,25.8676758 L18.9411851,33 L17.1218492,33 L14.7158433,25.8676758 L16.706566,25.8676758 L18.0315171,30.6730957 Z M22.0600356,29.3811035 C22.0600356,28.2868598 22.320409,27.4057651 22.8411635,26.737793 C23.3619181,26.0698209 24.0639374,25.7358398 24.9472426,25.7358398 C25.7294731,25.7358398 26.3381096,26.0039036 26.7731704,26.5400391 L26.8522719,25.8676758 L28.5793227,25.8676758 L28.5793227,32.7626953 C28.5793227,33.3867219 28.4376005,33.9294411 28.1541518,34.3908691 C27.8707031,34.8522972 27.4719034,35.2038562 26.9577407,35.4455566 C26.443578,35.6872571 25.8415332,35.8081055 25.1515883,35.8081055 C24.6286365,35.8081055 24.118876,35.7037364 23.6222915,35.4949951 C23.125707,35.2862538 22.7499783,35.0170915 22.4950942,34.6875 L23.3388442,33.5273438 C23.813456,34.0590847 24.3891338,34.3249512 25.065895,34.3249512 C25.5712686,34.3249512 25.9645752,34.1898207 26.2458266,33.9195557 C26.527078,33.6492906 26.6677016,33.2658716 26.6677016,32.7692871 L26.6677016,32.3869629 C26.2282463,32.8835474 25.6503712,33.1318359 24.934059,33.1318359 C24.0771212,33.1318359 23.3838908,32.7967563 22.8543471,32.1265869 C22.3248035,31.4564175 22.0600356,30.5676325 22.0600356,29.4602051 L22.0600356,29.3811035 Z M23.9650649,29.5195312 C23.9650649,30.1655306 24.0947023,30.6719952 24.3539809,31.0389404 C24.6132596,31.4058856 24.969213,31.5893555 25.421852,31.5893555 C26.001933,31.5893555 26.4172121,31.3718283 26.6677016,30.9367676 L26.6677016,27.9375 C26.4128175,27.5024392 26.001933,27.2849121 25.4350356,27.2849121 C24.9780021,27.2849121 24.6187527,27.4716778 24.3572768,27.8452148 C24.0958009,28.2187519 23.9650649,28.7768518 23.9650649,29.5195312 L23.9650649,29.5195312 Z" id="svg" fill="#FFFFFF"></path>
                    <path d="M36.75,11.92425 L36.75,13.49625 L26.39025,13.49625 C24.24525,13.49625 23.256,11.75625 23.256,9.6105 L23.256,0 L24.825,0 L36.75,11.92425 L36.75,11.92425 Z" id="Shape" fill="#DAFF82"></path>
                </g>
            </g>
        </g>
    </g>
</svg>