<svg width="170" height="204" viewBox="0 0 170 204" xmlns="http://www.w3.org/2000/svg"><title>BDC63E81-66E5-4FD3-BF58-FCEC9E5A03D3</title><g fill="none" fill-rule="evenodd"><rect fill="#FFF" width="170" height="204" rx="4.15"/><path d="M117.683 126.096V40.203c0-1.395-1.125-2.525-2.515-2.525h-55.3c-.022 0-.043.006-.068.007-.09.003-.18.012-.268.025-.524.07-1.036.3-1.442.707l-5.027 5.048c-.49.495-.736 1.14-.736 1.785v85.83c0 1.396 1.125 2.526 2.514 2.526h55.3c1.39 0 2.516-1.13 2.516-2.525V45.25c0-1.393-1.126-2.523-2.515-2.523h.002-52.787L59.87 40.2h52.964c1.33 0 2.413 1.035 2.505 2.346h.01v86.062c1.302-.092 2.333-1.182 2.333-2.514" fill="#4B93EB"/><text font-family="Lato-Black, Lato" font-size="45.267" font-weight="700" fill="#FFF" transform="translate(52 37)"><tspan x="13.905" y="61.167">A</tspan></text><text font-family="Roboto-Regular, Roboto" font-size="20" fill="#4E4E4E"><tspan x="52.467" y="173">Grades</tspan></text></g></svg>