<?xml version="1.0" encoding="UTF-8"?>
<svg width="38px" height="37px" viewBox="0 0 38 37" version="1.1" xmlns="http://www.w3.org/2000/svg" xmlns:xlink="http://www.w3.org/1999/xlink">
    <!-- Generator: sketchtool 39.1 (31720) - http://www.bohemiancoding.com/sketch -->
    <title>0F15B1E9-B85E-4CD1-A3CF-32044F18DBDA</title>
    <desc>Created with sketchtool.</desc>
    <defs></defs>
    <g id="ClassDig-Web-Teachers" stroke="none" stroke-width="1" fill="none" fill-rule="evenodd">
        <g id="Icons-Resources" transform="translate(-759.000000, -1054.000000)">
            <g id="Group-5" transform="translate(759.000000, 1054.000000)">
                <g transform="translate(0.043353, 0.000000)">
                    <circle id="Oval-8" fill="#FBD131" cx="18" cy="18" r="18"></circle>
                    <g id="premium-services" transform="translate(4.000000, 8.000000)" fill="#FFFFFF">
                        <path d="M23.8150048,5.09023665 C23.8150048,5.87176921 24.1941818,6.5494929 24.765933,6.93210277 C23.5522679,8.73392833 21.8504498,10.8308677 20.09489,11.4329592 C17.7795215,12.2322876 15.6223923,7.32657652 14.5609952,4.41251296 C15.3477129,4.11591616 15.9194641,3.31065585 15.9194641,2.36154609 C15.9194641,1.16181204 15.0207847,0.188974532 13.91311,0.188974532 C12.8054354,0.188974532 11.9082488,1.16181204 11.9082488,2.36154609 C11.9082488,3.31065585 12.4785072,4.11591616 13.2667177,4.41251296 C12.2053206,7.32657652 10.0526699,12.2322876 7.73879426,11.4329592 C5.98323445,10.8308677 4.27395215,8.73392833 3.0677512,6.93210277 C3.6335311,6.5494929 4.0171866,5.87176921 4.0171866,5.09023665 C4.0171866,3.89050259 3.11402871,2.91766509 2.00635407,2.91766509 C0.898679426,2.91766509 0,3.89050259 0,5.09023665 C0,6.28848772 0.898679426,7.2628082 2.00635407,7.2628082 C2.02874641,7.2628082 4.77554067,19.7688123 4.77554067,19.7688123 L23.0506794,19.7688123 L25.7631388,7.25687627 C26.9290335,7.2628082 27.8336842,6.28848772 27.8336842,5.09023665 C27.8277129,3.89050259 26.9290335,2.91766509 25.8273301,2.91766509 C24.7136842,2.91766509 23.8150048,3.89050259 23.8150048,5.09023665 Z" id="Fill-1"></path>
                    </g>
                </g>
            </g>
        </g>
    </g>
</svg>