<?xml version="1.0" encoding="UTF-8"?>
<svg width="36px" height="27px" viewBox="0 0 36 27" version="1.1" xmlns="http://www.w3.org/2000/svg" xmlns:xlink="http://www.w3.org/1999/xlink">
    <!-- Generator: sketchtool 39.1 (31720) - http://www.bohemiancoding.com/sketch -->
    <title>CDF10DE1-F90E-4A55-9DFB-4706771AC76F</title>
    <desc>Created with sketchtool.</desc>
    <defs></defs>
    <g id="ClassDig-Web-Teachers" stroke="none" stroke-width="1" fill="none" fill-rule="evenodd">
        <g id="Icons-Resources-Android" transform="translate(-518.000000, -915.000000)" fill="#FFFFFF">
            <g id="1472562199_add_user" transform="translate(518.000000, 915.000000)">
                <g id="Layer_1">
                    <g>
                        <g id="Group">
                            <path d="M12.9946546,14.653125 C8.98231908,14.653125 5.71792763,11.3695312 5.71792763,7.33359375 C5.71792763,3.29765625 8.98231908,0.0140625 12.9946546,0.0140625 C17.0069901,0.0140625 20.2713816,3.29765625 20.2713816,7.33359375 C20.2713816,11.3695312 17.0069901,14.653125 12.9946546,14.653125 L12.9946546,14.653125 Z M12.9946546,1.49765625 C9.79317434,1.49765625 7.19284539,4.11328125 7.19284539,7.33359375 C7.19284539,10.5539062 9.79317434,13.1695312 12.9946546,13.1695312 C16.1961349,13.1695312 18.7964638,10.5539062 18.7964638,7.33359375 C18.7964638,4.11328125 16.1961349,1.49765625 12.9946546,1.49765625 L12.9946546,1.49765625 Z" id="Shape"></path>
                            <path d="M25.2553454,26.9859375 C24.8499178,26.9859375 24.5213816,26.6554688 24.5213816,26.2476563 C24.5213816,19.85625 19.3556743,14.6601563 13.0016447,14.6601563 C6.64761513,14.6601563 1.47491776,19.8492188 1.47491776,26.240625 C1.47491776,26.6484375 1.14638158,26.9789063 0.740953947,26.9789063 C0.335526316,26.9789063 0,26.6484375 0,26.240625 C0,19.0335938 5.82976974,13.1695313 12.9946546,13.1695313 C20.1595395,13.1695313 25.9893092,19.0335938 25.9893092,26.240625 C25.9893092,26.6484375 25.660773,26.9859375 25.2553454,26.9859375 L25.2553454,26.9859375 Z" id="Shape"></path>
                            <path d="M35.0555099,12.3539062 L23.6126645,12.3539062 C23.2072368,12.3539062 22.8787007,12.0234375 22.8787007,11.615625 C22.8787007,11.2078125 23.2072368,10.8773437 23.6126645,10.8773437 L35.0555099,10.8773437 C35.4609375,10.8773437 35.7894737,11.2078125 35.7894737,11.615625 C35.7894737,12.0234375 35.4609375,12.3539062 35.0555099,12.3539062 L35.0555099,12.3539062 Z" id="Shape"></path>
                            <path d="M29.3305921,18.1054687 C28.9251645,18.1054687 28.5966283,17.775 28.5966283,17.3671875 L28.5966283,5.85703125 C28.5966283,5.44921875 28.9251645,5.11875 29.3305921,5.11875 C29.7360197,5.11875 30.0645559,5.44921875 30.0645559,5.85703125 L30.0645559,17.3671875 C30.0715461,17.775 29.7360197,18.1054687 29.3305921,18.1054687 L29.3305921,18.1054687 Z" id="Shape"></path>
                        </g>
                    </g>
                </g>
            </g>
        </g>
    </g>
</svg>