<?xml version="1.0" encoding="UTF-8"?>
<svg width="29px" height="25px" viewBox="0 0 29 25" version="1.1" xmlns="http://www.w3.org/2000/svg" xmlns:xlink="http://www.w3.org/1999/xlink">
    <!-- Generator: sketchtool 39.1 (31720) - http://www.bohemiancoding.com/sketch -->
    <title>62E62F8A-40B5-49E7-BCF3-10706DC5AFE1</title>
    <desc>Created with sketchtool.</desc>
    <defs></defs>
    <g id="ClassDig-Web-Teachers" stroke="none" stroke-width="1" fill="none" fill-rule="evenodd">
        <g id="Icons-Resources" transform="translate(-576.000000, -1763.000000)">
            <g id="1472759988_ic_settings_backup_restore_48px" transform="translate(576.000000, 1759.000000)">
                <g id="Group">
                    <polygon id="Shape" points="0 0 33 0 33 33 0 33"></polygon>
                    <path d="M19.25,16.5 C19.25,14.980625 18.019375,13.75 16.5,13.75 C14.980625,13.75 13.75,14.980625 13.75,16.5 C13.75,18.019375 14.980625,19.25 16.5,19.25 C18.019375,19.25 19.25,18.019375 19.25,16.5 L19.25,16.5 Z M16.5,4.125 C9.66625,4.125 4.125,9.66625 4.125,16.5 L0,16.5 L5.5,22 L11,16.5 L6.875,16.5 C6.875,11.185625 11.185625,6.875 16.5,6.875 C21.814375,6.875 26.125,11.185625 26.125,16.5 C26.125,21.814375 21.814375,26.125 16.5,26.125 C14.416875,26.125 12.49875,25.458125 10.9175,24.330625 L8.971875,26.30375 C11.061875,27.9125 13.6675,28.875 16.5,28.875 C23.33375,28.875 28.875,23.33375 28.875,16.5 C28.875,9.66625 23.33375,4.125 16.5,4.125 L16.5,4.125 Z" id="Shape" fill="#3678BF"></path>
                </g>
            </g>
        </g>
    </g>
</svg>