<?xml version="1.0" encoding="UTF-8"?>
<svg width="17px" height="17px" viewBox="0 0 17 17" version="1.1" xmlns="http://www.w3.org/2000/svg" xmlns:xlink="http://www.w3.org/1999/xlink">
    <!-- Generator: sketchtool 39.1 (31720) - http://www.bohemiancoding.com/sketch -->
    <title>518FBC9F-9D70-4BEC-BEC2-4B7205EC6527</title>
    <desc>Created with sketchtool.</desc>
    <defs></defs>
    <g id="ClassDig-Web-Teachers" stroke="none" stroke-width="1" fill="none" fill-rule="evenodd">
        <g id="Icons-Resources" transform="translate(-284.000000, -1810.000000)" stroke="#979797">
            <path d="M287.692489,1811 C286.229839,1811 285.043353,1812.16435 285.043353,1813.60066 L285.043353,1820.90431 C285.043353,1822.34062 286.229839,1823.50497 287.692489,1823.50497 C288.321925,1823.50497 288.631332,1823.77732 288.623464,1824.18141 L288.623464,1825.38282 C288.617169,1825.70965 288.5816,1826.20991 288.822359,1825.98353 L292.037462,1823.5807 C292.199542,1823.45652 291.813226,1823.50497 292.203574,1823.5807 L297.57374,1823.5807 C298.774782,1823.50497 299.96048,1822.34062 299.96048,1820.90574 L299.96048,1813.60066 C299.96048,1812.16435 298.774781,1811 297.312131,1811 L287.692489,1811 Z M288.921451,1818.17432 C288.427251,1818.17432 288.026779,1817.77114 288.026779,1817.27361 C288.026779,1816.77608 288.427251,1816.37219 288.921451,1816.37219 C289.415651,1816.37219 289.816834,1816.77608 289.816834,1817.27361 C289.816834,1817.77114 289.415651,1818.17432 288.921451,1818.17432 L288.921451,1818.17432 Z M292.502272,1818.17432 C292.008072,1818.17432 291.606889,1817.77114 291.606889,1817.27361 C291.606889,1816.77608 292.008072,1816.37219 292.502272,1816.37219 C292.996472,1816.37219 293.396944,1816.77608 293.396944,1817.27361 C293.396944,1817.77114 292.996472,1818.17432 292.502272,1818.17432 L292.502272,1818.17432 Z M296.082382,1818.17432 C295.587472,1818.17432 295.187,1817.77114 295.187,1817.27361 C295.187,1816.77608 295.587472,1816.37219 296.082382,1816.37219 C296.576582,1816.37219 296.977055,1816.77608 296.977055,1817.27361 C296.977055,1817.77114 296.576582,1818.17432 296.082382,1818.17432 L296.082382,1818.17432 Z" id="chatrectdots" transform="translate(292.501917, 1818.520223) scale(-1, 1) translate(-292.501917, -1818.520223) "></path>
        </g>
    </g>
</svg>