<?xml version="1.0" encoding="UTF-8"?>
<svg width="16px" height="15px" viewBox="0 0 16 15" version="1.1" xmlns="http://www.w3.org/2000/svg" xmlns:xlink="http://www.w3.org/1999/xlink">
    <!-- Generator: sketchtool 39.1 (31720) - http://www.bohemiancoding.com/sketch -->
    <title>B3309992-C0D5-437E-A168-B9E8281A2002</title>
    <desc>Created with sketchtool.</desc>
    <defs></defs>
    <g id="ClassDig-Web-Teachers" stroke="none" stroke-width="1" fill="none" fill-rule="evenodd">
        <g id="Icons-Resources" transform="translate(-240.000000, -1842.000000)" fill="#F9685F">
            <path d="M248.939956,1855.87733 C248.438766,1856.36186 247.674844,1856.35883 247.175082,1855.87278 C244.806211,1853.56386 242.964945,1851.58326 241.249334,1849.45708 C239.478035,1847.57582 239.657949,1844.40702 241.789076,1842.78736 C243.012065,1841.85773 244.667705,1841.75536 246.013493,1842.46965 C246.789551,1842.88139 247.333578,1843.47056 247.696976,1844.14163 C247.856186,1844.4366 248.25671,1844.4328 248.416633,1844.13784 C248.805734,1843.41976 249.402592,1842.79571 250.270036,1842.38245 C251.395215,1841.84711 252.723153,1841.87138 253.819774,1842.47041 C256.436384,1843.89898 256.712681,1847.53867 254.812158,1849.55717 C252.819536,1851.97908 250.82263,1854.05673 248.939956,1855.87733" id="heart"></path>
        </g>
    </g>
</svg>