<?xml version="1.0" encoding="UTF-8"?>
<svg width="16px" height="15px" viewBox="0 0 16 15" version="1.1" xmlns="http://www.w3.org/2000/svg" xmlns:xlink="http://www.w3.org/1999/xlink">
    <!-- Generator: sketchtool 39.1 (31720) - http://www.bohemiancoding.com/sketch -->
    <title>C41AC349-896D-4F87-888C-6BCDFF37B69C</title>
    <desc>Created with sketchtool.</desc>
    <defs></defs>
    <g id="ClassDig-Web-Teachers" stroke="none" stroke-width="1" fill="none" fill-rule="evenodd">
        <g id="Icons-Resources" transform="translate(-285.000000, -1842.000000)" fill="#FDBA00">
            <path d="M287.707207,1842 C286.23643,1842 285.043353,1843.16435 285.043353,1844.60066 L285.043353,1851.90431 C285.043353,1853.34062 286.23643,1854.50497 287.707207,1854.50497 C288.340139,1854.50497 288.651265,1854.77732 288.643353,1855.18141 L288.643353,1856.38282 C288.637024,1856.70965 288.601257,1857.20991 288.843353,1856.98353 L292.076319,1854.5807 C292.239299,1854.45652 291.850836,1854.50497 292.243353,1854.5807 L297.643353,1854.5807 C298.851068,1854.50497 300.043353,1853.34062 300.043353,1851.90574 L300.043353,1844.60066 C300.043353,1843.16435 298.851067,1842 297.380291,1842 L287.707207,1842 Z M288.942996,1849.17432 C288.44605,1849.17432 288.043353,1848.77114 288.043353,1848.27361 C288.043353,1847.77608 288.44605,1847.37219 288.942996,1847.37219 C289.439942,1847.37219 289.843353,1847.77608 289.843353,1848.27361 C289.843353,1848.77114 289.439942,1849.17432 288.942996,1849.17432 L288.942996,1849.17432 Z M292.54371,1849.17432 C292.046764,1849.17432 291.643353,1848.77114 291.643353,1848.27361 C291.643353,1847.77608 292.046764,1847.37219 292.54371,1847.37219 C293.040656,1847.37219 293.443353,1847.77608 293.443353,1848.27361 C293.443353,1848.77114 293.040656,1849.17432 292.54371,1849.17432 L292.54371,1849.17432 Z M296.14371,1849.17432 C295.64605,1849.17432 295.243353,1848.77114 295.243353,1848.27361 C295.243353,1847.77608 295.64605,1847.37219 296.14371,1847.37219 C296.640656,1847.37219 297.043353,1847.77608 297.043353,1848.27361 C297.043353,1848.77114 296.640656,1849.17432 296.14371,1849.17432 L296.14371,1849.17432 Z" id="chatrectdots" transform="translate(292.543353, 1849.520223) scale(-1, 1) translate(-292.543353, -1849.520223) "></path>
        </g>
    </g>
</svg>