<?xml version="1.0" encoding="UTF-8"?>
<svg width="316px" height="255px" viewBox="0 0 316 255" version="1.1" xmlns="http://www.w3.org/2000/svg" xmlns:xlink="http://www.w3.org/1999/xlink">
    <!-- Generator: sketchtool 39.1 (31720) - http://www.bohemiancoding.com/sketch -->
    <title>6FC49D84-EF2C-4A49-9EFA-5DF73CA29FFB</title>
    <desc>Created with sketchtool.</desc>
    <defs>
        <polygon id="path-1" points="0 254.804436 316.145437 254.804436 316.145437 0 0 0"></polygon>
    </defs>
    <g id="ClassDig-Web-Student" stroke="none" stroke-width="1" fill="none" fill-rule="evenodd">
        <g id="Exams" transform="translate(-466.000000, -305.000000)">
            <g id="Group" transform="translate(465.000000, 305.000000)">
                <path d="M66.0282355,0.47893985 C54.4033108,0.47893985 44.9801994,9.94078195 44.9801994,21.6113459 L44.9801994,66.7751053 L87.0762717,66.7751053 L87.0762717,21.6113459 C87.0762717,9.94078195 77.6531602,0.47893985 66.0282355,0.47893985 L66.0282355,0.47893985 Z" id="Shape" stroke="#606060"></path>
                <mask id="mask-2" fill="white">
                    <use xlink:href="#path-1"></use>
                </mask>
                <g id="Shape"></g>
                <polygon id="Shape" fill="#FFFFFF" mask="url(#mask-2)" points="285.909175 48.6848684 296.252732 48.6848684 296.252732 25.6773496 285.909175 25.6773496"></polygon>
                <polygon id="Shape" stroke="#606060" mask="url(#mask-2)" points="285.909175 48.6848684 296.252732 48.6848684 296.252732 25.6773496 285.909175 25.6773496"></polygon>
                <path d="M315.667645,37.1813008 L315.667645,37.1813008 C315.667645,30.827391 310.537401,25.6775414 304.209814,25.6775414 L296.253305,25.6775414 L296.253305,48.6850602 L304.209814,48.6850602 C310.537401,48.6850602 315.667645,43.5342519 315.667645,37.1813008" id="Shape" fill="#FFFFFF" mask="url(#mask-2)"></path>
                <path d="M315.667645,37.1813008 L315.667645,37.1813008 C315.667645,30.827391 310.537401,25.6775414 304.209814,25.6775414 L296.253305,25.6775414 L296.253305,48.6850602 L304.209814,48.6850602 C310.537401,48.6850602 315.667645,43.5342519 315.667645,37.1813008 L315.667645,37.1813008 Z" id="Shape" stroke="#606060" mask="url(#mask-2)"></path>
                <polygon id="Shape" fill="#FFFFFF" mask="url(#mask-2)" points="42.2890413 25.6774455 32.268213 25.6774455 1.3731256 37.1812049 32.268213 48.6849643 42.2890413 48.6849643"></polygon>
                <polygon id="Shape" stroke="#606060" mask="url(#mask-2)" points="42.2890413 25.6774455 32.268213 25.6774455 1.3731256 37.1812049 32.268213 48.6849643 42.2890413 48.6849643"></polygon>
                <path d="M285.909079,25.6774455 L32.268022,25.6774455 C34.3781726,25.6774455 36.0872991,27.3943816 36.0872991,29.512032 C36.0872991,31.6296823 34.3781726,33.3466184 32.268022,33.3466184 L285.909079,33.3466184 L285.909079,25.6774455 Z" id="Shape" fill="#FFFFFF" mask="url(#mask-2)"></path>
                <path d="M285.909079,25.6774455 L32.268022,25.6774455 C34.3781726,25.6774455 36.0872991,27.3943816 36.0872991,29.512032 C36.0872991,31.6296823 34.3781726,33.3466184 32.268022,33.3466184 L285.909079,33.3466184 L285.909079,25.6774455 L285.909079,25.6774455 Z" id="Shape" stroke="#606060" mask="url(#mask-2)"></path>
                <path d="M285.909079,33.3466184 L32.268022,33.3466184 C34.3781726,33.3466184 36.0872991,35.0635545 36.0872991,37.1812049 C36.0872991,39.2988553 34.3781726,41.0157914 32.268022,41.0157914 L285.909079,41.0157914 L285.909079,33.3466184 Z" id="Shape" fill="#FFFFFF" mask="url(#mask-2)"></path>
                <path d="M285.909079,33.3466184 L32.268022,33.3466184 C34.3781726,33.3466184 36.0872991,35.0635545 36.0872991,37.1812049 C36.0872991,39.2988553 34.3781726,41.0157914 32.268022,41.0157914 L285.909079,41.0157914 L285.909079,33.3466184 L285.909079,33.3466184 Z" id="Shape" stroke="#606060" mask="url(#mask-2)"></path>
                <path d="M285.909079,41.0157914 L32.268022,41.0157914 C34.3781726,41.0157914 36.0872991,42.7327274 36.0872991,44.8503778 C36.0872991,46.9680282 34.3781726,48.6849643 32.268022,48.6849643 L285.909079,48.6849643 L285.909079,41.0157914 Z" id="Shape" fill="#FFFFFF" mask="url(#mask-2)"></path>
                <path d="M285.909079,41.0157914 L32.268022,41.0157914 C34.3781726,41.0157914 36.0872991,42.7327274 36.0872991,44.8503778 C36.0872991,46.9680282 34.3781726,48.6849643 32.268022,48.6849643 L285.909079,48.6849643 L285.909079,41.0157914 L285.909079,41.0157914 Z" id="Shape" stroke="#606060" mask="url(#mask-2)"></path>
                <polygon id="Shape" fill="#FFFFFF" mask="url(#mask-2)" points="1.37293464 37.1812049 11.5751786 33.3466184 11.5751786 40.9803214"></polygon>
                <polygon id="Shape" stroke="#606060" fill="#606060" mask="url(#mask-2)" points="1.37293464 37.1812049 11.5751786 33.3466184 11.5751786 40.9803214"></polygon>
                <path d="M66.0280446,0.47893985 C77.6529693,0.47893985 87.0770355,9.94078195 87.0770355,21.6113459 L87.0770355,66.7751053 L87.0770355,254.324729 L266.798849,254.324729 L266.798849,21.6113459 C266.798849,9.94078195 257.375737,0.47893985 245.750813,0.47893985 L66.0280446,0.47893985 Z" id="Shape" fill="#FFFFFF" mask="url(#mask-2)"></path>
                <path d="M245.750813,0.47893985 L66.0280446,0.47893985 C77.6529693,0.47893985 87.0770355,9.94078195 87.0770355,21.6113459 L87.0770355,66.7751053 L87.0770355,254.324729 L266.798849,254.324729 L266.798849,21.6113459 C266.798849,9.94078195 257.375737,0.47893985 245.750813,0.47893985 L245.750813,0.47893985 Z" id="Shape" stroke="#606060" mask="url(#mask-2)"></path>
                <polygon id="Shape" fill="#606060" mask="url(#mask-2)" points="106.551148 37.181109 248.933798 37.181109 248.933798 34.0655075 106.551148 34.0655075"></polygon>
                <polygon id="Shape" fill="#606060" mask="url(#mask-2)" points="106.551148 44.2118233 248.933798 44.2118233 248.933798 41.0962218 106.551148 41.0962218"></polygon>
                <polygon id="Shape" fill="#606060" mask="url(#mask-2)" points="106.551148 51.2415789 248.933798 51.2415789 248.933798 48.1259774 106.551148 48.1259774"></polygon>
                <polygon id="Shape" fill="#606060" mask="url(#mask-2)" points="106.551148 58.2713346 157.951934 58.2713346 157.951934 55.1557331 106.551148 55.1557331"></polygon>
                <polygon id="Shape" fill="#606060" mask="url(#mask-2)" points="128.041265 75.5384774 179.442051 75.5384774 179.442051 72.4228759 128.041265 72.4228759"></polygon>
                <path d="M107.916539,77.4720677 L114.870488,77.4720677 L114.870488,70.4902444 L107.916539,70.4902444 L107.916539,77.4720677 Z M106.551148,78.8429323 L116.236834,78.8429323 L116.236834,69.1184211 L106.551148,69.1184211 L106.551148,78.8429323 Z" id="Shape" fill="#606060" mask="url(#mask-2)"></path>
                <polygon id="Shape" fill="#606060" mask="url(#mask-2)" points="128.041265 91.2650752 179.442051 91.2650752 179.442051 88.1494737 128.041265 88.1494737"></polygon>
                <path d="M107.916539,93.1977068 L114.870488,93.1977068 L114.870488,86.2158835 L107.916539,86.2158835 L107.916539,93.1977068 Z M106.551148,94.5695301 L116.236834,94.5695301 L116.236834,84.8450188 L106.551148,84.8450188 L106.551148,94.5695301 Z" id="Shape" fill="#606060" mask="url(#mask-2)"></path>
                <polygon id="Shape" fill="#606060" mask="url(#mask-2)" points="128.041265 106.990714 179.442051 106.990714 179.442051 103.875113 128.041265 103.875113"></polygon>
                <path d="M107.916539,108.924305 L114.870488,108.924305 L114.870488,101.942481 L107.916539,101.942481 L107.916539,108.924305 Z M106.551148,110.295169 L116.236834,110.295169 L116.236834,100.570658 L106.551148,100.570658 L106.551148,110.295169 Z" id="Shape" fill="#606060" mask="url(#mask-2)"></path>
                <polygon id="Shape" fill="#606060" mask="url(#mask-2)" points="128.041265 122.717312 179.442051 122.717312 179.442051 119.601711 128.041265 119.601711"></polygon>
                <path d="M107.916539,124.649944 L114.870488,124.649944 L114.870488,117.66812 L107.916539,117.66812 L107.916539,124.649944 Z M106.551148,126.021767 L116.236834,126.021767 L116.236834,116.297256 L106.551148,116.297256 L106.551148,126.021767 Z" id="Shape" fill="#606060" mask="url(#mask-2)"></path>
                <polygon id="Shape" fill="#606060" mask="url(#mask-2)" points="106.551148 142.23344 248.933798 142.23344 248.933798 139.117838 106.551148 139.117838"></polygon>
                <polygon id="Shape" fill="#606060" mask="url(#mask-2)" points="106.551148 149.263195 248.933798 149.263195 248.933798 146.147594 106.551148 146.147594"></polygon>
                <polygon id="Shape" fill="#606060" mask="url(#mask-2)" points="106.551148 156.292951 248.933798 156.292951 248.933798 153.17735 106.551148 153.17735"></polygon>
                <polygon id="Shape" fill="#606060" mask="url(#mask-2)" points="106.551148 163.323665 157.951934 163.323665 157.951934 160.208064 106.551148 160.208064"></polygon>
                <polygon id="Shape" fill="#606060" mask="url(#mask-2)" points="128.041265 180.590808 179.442051 180.590808 179.442051 177.475207 128.041265 177.475207"></polygon>
                <path d="M107.916539,182.52344 L114.870488,182.52344 L114.870488,175.541617 L107.916539,175.541617 L107.916539,182.52344 Z M106.551148,183.895263 L116.236834,183.895263 L116.236834,174.170752 L106.551148,174.170752 L106.551148,183.895263 Z" id="Shape" fill="#606060" mask="url(#mask-2)"></path>
                <polygon id="Shape" fill="#606060" mask="url(#mask-2)" points="128.041265 196.316447 179.442051 196.316447 179.442051 193.200846 128.041265 193.200846"></polygon>
                <path d="M107.916539,198.250038 L114.870488,198.250038 L114.870488,191.268214 L107.916539,191.268214 L107.916539,198.250038 Z M106.551148,199.620902 L116.236834,199.620902 L116.236834,189.896391 L106.551148,189.896391 L106.551148,199.620902 Z" id="Shape" fill="#606060" mask="url(#mask-2)"></path>
                <polygon id="Shape" fill="#606060" mask="url(#mask-2)" points="128.041265 212.043045 179.442051 212.043045 179.442051 208.927444 128.041265 208.927444"></polygon>
                <path d="M107.916539,213.975677 L114.870488,213.975677 L114.870488,206.993853 L107.916539,206.993853 L107.916539,213.975677 Z M106.551148,215.3475 L116.236834,215.3475 L116.236834,205.622989 L106.551148,205.622989 L106.551148,215.3475 Z" id="Shape" fill="#606060" mask="url(#mask-2)"></path>
                <polygon id="Shape" fill="#606060" mask="url(#mask-2)" points="128.041265 227.768684 179.442051 227.768684 179.442051 224.653083 128.041265 224.653083"></polygon>
                <path d="M107.916539,229.702274 L114.870488,229.702274 L114.870488,222.720451 L107.916539,222.720451 L107.916539,229.702274 Z M106.551148,231.073139 L116.236834,231.073139 L116.236834,221.348628 L106.551148,221.348628 L106.551148,231.073139 Z" id="Shape" fill="#606060" mask="url(#mask-2)"></path>
                <polygon id="Shape" fill="#231F1F" mask="url(#mask-2)" points="111.357326 74.2314586 106.998576 69.8552368 105.918675 70.9385075 111.357326 76.3989586 119.863811 67.8583759 118.784865 66.7741466"></polygon>
                <polygon id="Shape" fill="#231F1F" mask="url(#mask-2)" points="111.357326 209.638855 106.998576 205.262633 105.918675 206.345904 111.357326 211.806355 119.863811 203.265773 118.784865 202.181543"></polygon>
            </g>
        </g>
    </g>
</svg>