<?xml version="1.0" encoding="UTF-8"?>
<svg width="170px" height="204px" viewBox="0 0 170 204" version="1.1" xmlns="http://www.w3.org/2000/svg" xmlns:xlink="http://www.w3.org/1999/xlink">
    <!-- Generator: sketchtool 39.1 (31720) - http://www.bohemiancoding.com/sketch -->
    <title>F3C86C5E-9EDB-48CB-8285-A2412C87322E</title>
    <desc>Created with sketchtool.</desc>
    <defs></defs>
    <g id="ClassDig-Web-Teachers" stroke="none" stroke-width="1" fill="none" fill-rule="evenodd">
        <g id="Icons-Resources" transform="translate(-1759.000000, -2499.000000)">
            <g id="behaviourwt-copy-2" transform="translate(1759.000000, 2499.000000)">
                <rect id="Mask" fill="#FFFFFF" x="0" y="0" width="170" height="204" rx="4.14967742"></rect>
                <g id="Group" transform="translate(36.000000, 45.000000)" fill="#CF515D">
                    <g id="Shape">
                        <path d="M30.4319549,28.9295714 L7.72067669,28.9295714 C3.72180451,28.9295714 0.467293233,32.1858571 0.467293233,36.192 L0.467293233,79.6671429 C0.467293233,83.6732857 3.72180451,86.9295714 7.72067669,86.9295714 L30.4319549,86.9295714 C34.4308271,86.9295714 37.6853383,83.6732857 37.6853383,79.6671429 L37.6853383,36.192 C37.6853383,32.19 34.4308271,28.9295714 30.4319549,28.9295714 L30.4319549,28.9295714 Z"></path>
                        <path d="M98.7808271,39.5062857 C98.7808271,32.9274286 89.9684211,28.9295714 86.1018797,28.9295714 L68.6755639,28.9295714 C71.6323308,16.0245714 68.0593985,8.65857143 65.5451128,5.32771429 C63.0556391,2.03414286 59.6233083,0.0662857143 56.3605263,0.0662857143 C53.8255639,0.0662857143 51.6421053,1.26357143 50.3932331,3.364 C50.2030075,3.683 50.0996241,4.05585714 50.0996241,4.42871429 L50.0996241,15.5564286 C47.5977444,22.7898571 45.1537594,28.4448571 41.8289474,32.7285714 L41.8289474,82.3558571 C42.6105263,82.6168571 43.3631579,82.795 43.9793233,82.795 L82.1360902,82.795 C83.9308271,82.795 85.6759398,81.8587143 87.2184211,80.1062857 C89.3522556,77.6537143 90.7789474,73.8754286 90.8327068,70.7765714 C93.9259398,68.4482857 95.3981203,64.1977143 95.125188,58.348 C98.4541353,54.8845714 98.2473684,49.967 97.1639098,46.9302857 C98.5244361,44.9831429 98.7808271,41.6812857 98.7808271,39.5062857 L98.7808271,39.5062857 Z"></path>
                    </g>
                </g>
                <text id="Behaviour" font-family="Roboto-Regular, Roboto" font-size="20" font-weight="normal" fill="#4E4E4E">
                    <tspan x="39.7324219" y="173">Behaviour</tspan>
                </text>
            </g>
        </g>
    </g>
</svg>