<?xml version="1.0" encoding="UTF-8"?>
<svg width="170px" height="204px" viewBox="0 0 170 204" version="1.1" xmlns="http://www.w3.org/2000/svg" xmlns:xlink="http://www.w3.org/1999/xlink">
    <!-- Generator: sketchtool 39.1 (31720) - http://www.bohemiancoding.com/sketch -->
    <title>6827B76F-EFD1-4E91-A3EE-5552057F6B5B</title>
    <desc>Created with sketchtool.</desc>
    <defs></defs>
    <g id="ClassDig-Web-Teachers" stroke="none" stroke-width="1" fill="none" fill-rule="evenodd">
        <g id="Icons-Resources" transform="translate(-1406.000000, -306.000000)">
            <g id="attendancewt" transform="translate(1406.000000, 306.000000)">
                <rect id="Mask" fill="#FFFFFF" x="0" y="0" width="170" height="204" rx="4.14967742"></rect>
                <path d="M73.4586466,47.0344828 L73.4586466,43.6826749 C73.4586466,40.0045269 76.466769,37 80.1774761,37 L83.4959933,37 C87.2191543,37 90.2148228,39.9919355 90.2148228,43.6826749 L90.2148228,47.0344828 L96.9321141,47.0344828 C98.777775,47.0344828 100.268528,48.5304505 100.268528,50.3758202 L100.268528,53.7276281 C100.268528,55.588343 98.774765,57.0689655 96.9321141,57.0689655 L66.7413553,57.0689655 C64.8956944,57.0689655 63.4049409,55.5729978 63.4049409,53.7276281 L63.4049409,50.3758202 C63.4049409,48.5151052 64.8987044,47.0344828 66.7413553,47.0344828 L73.4586466,47.0344828 L73.4586466,47.0344828 L73.4586466,47.0344828 Z M103.619744,50.3793103 L106.979639,50.3793103 C110.687769,50.3793103 113.673469,53.3797544 113.673469,57.0809897 L113.673469,127.298321 C113.673469,131.023896 110.676539,134 106.979639,134 L56.6938307,134 C52.9857006,134 50,130.999556 50,127.298321 L50,57.0809897 C50,53.355415 52.9969301,50.3793103 56.6938307,50.3793103 L60.053725,50.3793103 C60.0537121,50.3847514 60.0537057,50.390194 60.0537057,50.3956381 L60.0537057,53.7078102 C60.0537057,57.4114223 63.0481773,60.4137931 66.7654259,60.4137931 L96.9080435,60.4137931 C100.614824,60.4137931 103.619764,57.4238524 103.619764,53.7078102 L103.619764,50.3956381 C103.619764,50.390194 103.619757,50.3847514 103.619744,50.3793103 L103.619744,50.3793103 L103.619744,50.3793103 L103.619744,50.3793103 Z M81.8367347,47.0344828 C82.7621528,47.0344828 83.5123523,46.2857176 83.5123523,45.362069 C83.5123523,44.4384203 82.7621528,43.6896552 81.8367347,43.6896552 C80.9113166,43.6896552 80.1611171,44.4384203 80.1611171,45.362069 C80.1611171,46.2857176 80.9113166,47.0344828 81.8367347,47.0344828 L81.8367347,47.0344828 L81.8367347,47.0344828 Z M76.8098818,77.137931 L76.8098818,80.4827586 L103.619764,80.4827586 L103.619764,77.137931 L76.8098818,77.137931 L76.8098818,77.137931 L76.8098818,77.137931 Z M60.0537057,73.7931034 L60.0537057,83.8275862 L70.1074114,83.8275862 L70.1074114,73.7931034 L60.0537057,73.7931034 L60.0537057,73.7931034 L60.0537057,73.7931034 Z M63.4049409,77.137931 L63.4049409,80.4827586 L66.7561762,80.4827586 L66.7561762,77.137931 L63.4049409,77.137931 L63.4049409,77.137931 L63.4049409,77.137931 Z M60.0537057,90.5172414 L60.0537057,100.551724 L70.1074114,100.551724 L70.1074114,90.5172414 L60.0537057,90.5172414 L60.0537057,90.5172414 L60.0537057,90.5172414 Z M63.4049409,93.862069 L63.4049409,97.2068966 L66.7561762,97.2068966 L66.7561762,93.862069 L63.4049409,93.862069 L63.4049409,93.862069 L63.4049409,93.862069 Z M76.8098818,93.862069 L76.8098818,97.2068966 L103.619764,97.2068966 L103.619764,93.862069 L76.8098818,93.862069 L76.8098818,93.862069 L76.8098818,93.862069 Z M60.0537057,107.241379 L60.0537057,117.275862 L70.1074114,117.275862 L70.1074114,107.241379 L60.0537057,107.241379 L60.0537057,107.241379 L60.0537057,107.241379 Z M63.4049409,110.586207 L63.4049409,113.931034 L66.7561762,113.931034 L66.7561762,110.586207 L63.4049409,110.586207 L63.4049409,110.586207 L63.4049409,110.586207 Z M76.8098818,110.586207 L76.8098818,113.931034 L103.619764,113.931034 L103.619764,110.586207 L76.8098818,110.586207 L76.8098818,110.586207 L76.8098818,110.586207 Z" id="Shape" fill="#4B93EB"></path>
                <text id="Attendance" font-family="Roboto-Regular, Roboto" font-size="20" font-weight="normal" fill="#4E4E4E">
                    <tspan x="33.0820312" y="173">Attendance</tspan>
                </text>
            </g>
        </g>
    </g>
</svg>