<?xml version="1.0" encoding="UTF-8"?>
<svg width="469px" height="410px" viewBox="0 0 469 410" version="1.1" xmlns="http://www.w3.org/2000/svg" xmlns:xlink="http://www.w3.org/1999/xlink">
    <!-- Generator: sketchtool 39.1 (31720) - http://www.bohemiancoding.com/sketch -->
    <title>5156251F-F33E-482D-9860-591210F52791</title>
    <desc>Created with sketchtool.</desc>
    <defs>
        <polygon id="path-1" points="20.6481621 0.42983237 0.20586371 0.42983237 0.20586371 167.977205 20.6481621 167.977205 20.6481621 0.42983237"></polygon>
        <polygon id="path-3" points="5.68434189e-14 0.644145087 5.68434189e-14 2.91458439 15.1287415 2.91458439 15.1287415 0.644145087 5.68434623e-14 0.644145087"></polygon>
        <polygon id="path-5" points="5.68434189e-14 0.97094104 5.68434189e-14 3.24138035 15.1287415 3.24138035 15.1287415 0.97094104 5.68434623e-14 0.97094104"></polygon>
    </defs>
    <g id="ClassDig-Web-Teachers" stroke="none" stroke-width="1" fill="none" fill-rule="evenodd">
        <g id="Icons-Resources" transform="translate(-1653.000000, -1019.000000)">
            <g id="megphone" transform="translate(1593.000000, 1020.000000)">
                <g transform="translate(0.043353, 0.000000)">
                    <g id="Group-3-Copy" transform="translate(233.898775, 212.038426) scale(-1, 1) rotate(20.000000) translate(-233.898775, -212.038426) translate(35.398775, 74.538426)">
                        <g id="Page-1" transform="translate(0.000000, 0.000000)">
                            <path d="M294.155229,262.300349 L223.559665,262.300349 C215.341124,262.300349 207.378713,260.659164 199.896544,257.423227 C199.320253,257.175048 199.05612,256.507366 199.305846,255.932551 C199.55237,255.354534 200.218306,255.085539 200.796197,255.340123 C207.993423,258.452771 215.651681,260.029909 223.559665,260.029909 L291.886886,260.029909 L291.886886,187.585603 L281.625717,187.585603 C272.701221,187.585603 264.229753,185.308759 257.123773,181.001649 C256.485052,180.612568 255.737475,180.117811 254.906656,179.541395 C254.391197,179.185938 254.261531,178.478227 254.618511,177.962655 C254.975491,177.450285 255.683048,177.322192 256.196906,177.676048 C256.987705,178.222042 257.695261,178.692782 258.300366,179.061048 C265.050967,183.152002 273.11583,185.315164 281.625717,185.315164 L294.155229,185.315164 L294.155229,262.300349 Z" id="Fill-1" fill="#606060"></path>
                            <path d="M156.316989,190.687683 C155.412533,190.687683 154.527288,190.991902 153.826134,191.545902 C152.806421,192.327266 152.226929,193.502515 152.226929,194.777035 L152.226929,204.680186 C152.226929,205.956307 152.809622,207.133157 153.824533,207.91292 C154.530489,208.468521 155.412533,208.769538 156.316989,208.769538 L205.514574,208.769538 C207.92859,208.769538 210.198533,207.831261 211.904993,206.126029 C213.616255,204.411191 214.560731,202.140752 214.560731,199.732613 C214.560731,194.745012 210.502687,190.687683 205.514574,190.687683 L156.316989,190.687683 Z M205.514574,211.039977 L156.316989,211.039977 C154.905078,211.039977 153.525183,210.566035 152.431832,209.704613 C150.864642,208.502145 149.958586,206.66722 149.958586,204.680186 L149.958586,194.777035 C149.958586,192.788399 150.861441,190.959879 152.433433,189.754209 C153.52038,188.895989 154.903477,188.417243 156.316989,188.417243 L205.514574,188.417243 C211.752917,188.417243 216.829074,193.494509 216.829074,199.732613 C216.829074,202.74759 215.649279,205.588041 213.509001,207.730388 C211.373525,209.864729 208.535296,211.039977 205.514574,211.039977 L205.514574,211.039977 Z" id="Fill-3" fill="#606060"></path>
                            <path d="M200.635476,194.568565 C197.789242,194.568565 195.471274,196.883836 195.471274,199.732293 C195.471274,202.579149 197.789242,204.896021 200.635476,204.896021 L205.871714,204.896021 C208.717948,204.896021 211.035915,202.579149 211.035915,199.732293 C211.035915,196.883836 208.717948,194.568565 205.871714,194.568565 L200.635476,194.568565 Z M205.871714,207.166461 L200.635476,207.166461 C196.537411,207.166461 193.202931,203.831253 193.202931,199.732293 C193.202931,195.633334 196.537411,192.298125 200.635476,192.298125 L205.871714,192.298125 C209.969778,192.298125 213.304258,195.633334 213.304258,199.732293 C213.304258,203.831253 209.969778,207.166461 205.871714,207.166461 L205.871714,207.166461 Z" id="Fill-5" fill="#606060"></path>
                            <path d="M205.515214,190.687683 L156.317629,190.687683 C154.904117,190.687683 153.524222,190.212139 152.430871,189.350717 C150.863682,188.14985 149.959226,186.316527 149.959226,184.32629 L149.959226,180.068816 C149.959226,179.442764 150.466682,178.933596 151.094198,178.933596 C151.720113,178.933596 152.227569,179.442764 152.227569,180.068816 L152.227569,184.32629 C152.227569,185.604012 152.808662,186.782463 153.823573,187.559024 C154.529529,188.116226 155.411573,188.417243 156.317629,188.417243 L205.515214,188.417243 C207.92923,188.417243 210.199174,187.477365 211.905633,185.772134 C213.616896,184.057295 214.559771,181.788457 214.559771,179.38192 C214.559771,174.391116 210.503327,170.333787 205.515214,170.333787 L180.677101,170.333787 C180.051186,170.333787 179.54373,169.82622 179.54373,169.198567 C179.54373,168.570914 180.051186,168.063347 180.677101,168.063347 L205.515214,168.063347 C211.753557,168.063347 216.828113,173.140613 216.828113,179.38192 C216.828113,182.393694 215.64992,185.234145 213.509642,187.376492 C211.374166,189.512434 208.535936,190.687683 205.515214,190.687683" id="Fill-7" fill="#606060"></path>
                            <path d="M200.635476,174.214829 C197.789242,174.214829 195.471274,176.530101 195.471274,179.378557 C195.471274,182.225413 197.789242,184.542286 200.635476,184.542286 L205.871714,184.542286 C208.717948,184.542286 211.035915,182.225413 211.035915,179.378557 C211.035915,176.530101 208.717948,174.214829 205.871714,174.214829 L200.635476,174.214829 Z M205.871714,186.812725 L200.635476,186.812725 C196.537411,186.812725 193.202931,183.477517 193.202931,179.378557 C193.202931,175.279598 196.537411,171.94439 200.635476,171.94439 L205.871714,171.94439 C209.969778,171.94439 213.304258,175.279598 213.304258,179.378557 C213.304258,183.477517 209.969778,186.812725 205.871714,186.812725 L205.871714,186.812725 Z" id="Fill-9" fill="#606060"></path>
                            <path d="M163.065829,231.393713 C162.150168,231.393713 161.284131,231.693129 160.558966,232.256736 C159.552059,233.034898 158.975769,234.211748 158.975769,235.484667 L158.975769,245.386216 C158.975769,246.668742 159.55526,247.845592 160.562168,248.61895 C161.293736,249.180956 162.159773,249.47717 163.065829,249.47717 L205.514414,249.47717 C207.930031,249.47717 210.198373,248.537291 211.904833,246.83206 C213.617696,245.117222 214.560571,242.848384 214.560571,240.440245 C214.560571,235.451043 210.502527,231.393713 205.514414,231.393713 L163.065829,231.393713 Z M205.514414,251.747609 L163.065829,251.747609 C161.655519,251.747609 160.312442,251.288077 159.180672,250.420251 C157.632692,249.233794 156.707426,247.350835 156.707426,245.386216 L156.707426,235.484667 C156.707426,233.502436 157.603877,231.673916 159.167865,230.463442 C160.291631,229.587609 161.641111,229.123274 163.065829,229.123274 L205.514414,229.123274 C211.752756,229.123274 216.828914,234.20054 216.828914,240.440245 C216.828914,243.453621 215.65072,246.294072 213.508841,248.436418 C211.374966,250.572361 208.535135,251.747609 205.514414,251.747609 L205.514414,251.747609 Z" id="Fill-11" fill="#606060"></path>
                            <path d="M200.635476,235.274595 C197.789242,235.274595 195.471274,237.591468 195.471274,240.439925 C195.471274,243.28678 197.789242,245.602052 200.635476,245.602052 L205.871714,245.602052 C208.717948,245.602052 211.035915,243.28678 211.035915,240.439925 C211.035915,237.591468 208.717948,235.274595 205.871714,235.274595 L200.635476,235.274595 Z M205.871714,247.872491 L200.635476,247.872491 C196.537411,247.872491 193.202931,244.537283 193.202931,240.439925 C193.202931,236.339364 196.537411,233.004156 200.635476,233.004156 L205.871714,233.004156 C209.969778,233.004156 213.304258,236.339364 213.304258,240.439925 C213.304258,244.537283 209.969778,247.872491 205.871714,247.872491 L205.871714,247.872491 Z" id="Fill-13" fill="#606060"></path>
                            <path d="M158.589334,183.093239 C153.65885,183.093239 150.609314,180.917268 150.422019,180.779569 C148.67554,179.709997 147.06833,178.275361 145.720451,176.570129 C144.102035,174.52065 144.366169,171.563314 146.323955,169.832465 L149.224616,167.254603 L148.850027,170.247164 C148.785995,170.754731 148.864435,171.139008 149.082144,171.385586 C149.45033,171.803488 150.335576,171.870736 151.451338,171.569719 C152.853644,171.188644 154.468858,170.250366 155.885572,168.998262 C157.875374,167.23539 159.221652,165.088239 159.3161,163.527112 C159.343314,163.083592 159.258471,162.74895 159.066374,162.531193 C158.853467,162.29102 158.490084,162.167731 157.981027,162.161326 L155.043548,162.119696 L169.402781,149.436939 C174.344471,145.068985 181.159104,143.222852 187.632765,144.497372 L220.735842,151.009274 C223.690931,151.588892 226.48754,152.91465 228.821515,154.844043 L257.754491,178.763713 C258.236334,179.162401 258.305169,179.876517 257.906568,180.360066 C257.507967,180.845216 256.794007,180.912465 256.308963,180.512176 L227.377588,156.592505 C225.333358,154.904887 222.885725,153.744049 220.298822,153.236482 L187.194144,146.722979 C181.40883,145.582956 175.320963,147.233748 170.905939,151.138968 L160.241366,160.556968 C160.455874,160.710679 160.628761,160.873997 160.76483,161.027708 C161.36033,161.698592 161.643673,162.60965 161.581241,163.661609 C161.451576,165.826372 159.845967,168.522719 157.388729,170.697089 C155.696677,172.195771 153.799721,173.282956 152.046838,173.760101 C150.020217,174.310898 148.361781,174.000274 147.378886,172.885869 C147.284439,172.778592 147.196394,172.661708 147.116354,172.543222 C146.778584,173.395037 146.895443,174.397361 147.500548,175.162713 C148.683544,176.658193 150.090652,177.916702 151.686656,178.89821 C151.997213,179.11917 157.62885,183.061216 166.093915,178.983072 L188.124213,162.740945 L209.811939,168.865366 C210.415443,169.03669 210.766019,169.661141 210.596334,170.264777 C210.425048,170.868413 209.795931,171.222268 209.195628,171.049343 L188.57564,165.22754 L167.179261,180.978112 C163.934427,182.560054 161.030564,183.093239 158.589334,183.093239" id="Fill-15" fill="#606060"></path>
                            <path d="M148.829697,170.64361 C148.840903,170.959038 148.925746,171.208818 149.082625,171.386547 C149.35156,171.690766 149.846209,171.754813 150.214395,171.754813 C151.767177,171.754813 153.993899,170.674032 155.884451,168.999223 C157.875854,167.234749 159.222133,165.087599 159.31658,163.528073 C159.342193,163.082951 159.258951,162.74831 159.065254,162.532154 C158.914778,162.36083 158.687463,162.248749 158.386512,162.195911 L148.829697,170.64361 Z M150.214395,174.023651 C149.016992,174.023651 148.037298,173.631368 147.379367,172.885229 C146.723036,172.13909 146.4541,171.128761 146.598173,169.96472 L146.6526,169.540414 L157.573302,159.885443 L158.011923,159.890246 C159.476661,159.911061 160.317084,160.521102 160.76531,161.027067 C161.36081,161.697951 161.644153,162.609009 161.580121,163.66257 C161.452056,165.825732 159.844846,168.52368 157.389209,170.696449 C155.034423,172.781154 152.353072,174.023651 150.214395,174.023651 L150.214395,174.023651 Z" id="Fill-17" fill="#606060"></path>
                            <path d="M300.193471,183.56542 C296.863794,183.56542 294.155229,186.272975 294.155229,189.60338 L294.155229,259.287293 C294.155229,262.617698 296.863794,265.325253 300.193471,265.325253 L313.523386,265.325253 L313.523386,183.56542 L300.193471,183.56542 Z M315.791729,267.595692 L300.193471,267.595692 C295.613564,267.595692 291.886886,263.868201 291.886886,259.287293 L291.886886,189.60338 C291.886886,185.022472 295.613564,181.294981 300.193471,181.294981 L315.791729,181.294981 L315.791729,267.595692 Z" id="Fill-19" fill="#606060"></path>
                            <path d="M156.316989,211.039977 C155.414134,211.039977 154.528888,211.344197 153.826134,211.899798 C152.806421,212.681162 152.226929,213.856411 152.226929,215.130931 L152.226929,225.034082 C152.226929,226.310203 152.809622,227.487053 153.824533,228.266816 C154.530489,228.822417 155.412533,229.123434 156.316989,229.123434 L205.514574,229.123434 C207.920586,229.123434 210.190529,228.183555 211.906594,226.476723 C213.616255,224.765087 214.560731,222.496249 214.560731,220.086509 C214.560731,215.097307 210.502687,211.039977 205.514574,211.039977 L156.316989,211.039977 Z M205.514574,231.393873 L156.316989,231.393873 C154.905078,231.393873 153.525183,230.919931 152.431832,230.058509 C150.864642,228.856041 149.958586,227.021116 149.958586,225.034082 L149.958586,215.130931 C149.958586,213.142295 150.861441,211.313775 152.433433,210.108105 C153.521981,209.248284 154.905078,208.769538 156.316989,208.769538 L205.514574,208.769538 C211.752917,208.769538 216.829074,213.846804 216.829074,220.086509 C216.829074,223.101486 215.649279,225.941937 213.509001,228.082683 C211.36232,230.218625 208.52409,231.393873 205.514574,231.393873 L205.514574,231.393873 Z" id="Fill-21" fill="#606060"></path>
                            <path d="M200.635476,214.922461 C197.789242,214.922461 195.471274,217.237732 195.471274,220.086189 C195.471274,222.933045 197.789242,225.248316 200.635476,225.248316 L205.871714,225.248316 C208.717948,225.248316 211.035915,222.933045 211.035915,220.086189 C211.035915,217.237732 208.717948,214.922461 205.871714,214.922461 L200.635476,214.922461 Z M205.871714,227.518755 L200.635476,227.518755 C196.537411,227.518755 193.202931,224.183547 193.202931,220.086189 C193.202931,215.987229 196.537411,212.652021 200.635476,212.652021 L205.871714,212.652021 C209.969778,212.652021 213.304258,215.987229 213.304258,220.086189 C213.304258,224.183547 209.969778,227.518755 205.871714,227.518755 L205.871714,227.518755 Z" id="Fill-23" fill="#606060"></path>
                            <path d="M165.371631,251.747449 L165.371631,256.117004 C165.371631,261.19427 169.503312,265.325253 174.58107,265.325253 L189.332502,265.325253 C194.41026,265.325253 198.541941,261.19427 198.541941,256.117004 L198.541941,251.747449 L165.371631,251.747449 Z M189.332502,267.595692 L174.58107,267.595692 C168.251481,267.595692 163.103288,262.446374 163.103288,256.117004 L163.103288,249.47701 L200.810284,249.47701 L200.810284,256.117004 C200.810284,262.446374 195.66209,267.595692 189.332502,267.595692 L189.332502,267.595692 Z" id="Fill-25" fill="#606060"></path>
                            <path d="M344.214048,248.41064 C340.861959,248.41064 338.135785,251.137409 338.135785,254.490229 C338.135785,257.841449 340.861959,260.568218 344.214048,260.568218 C347.566136,260.568218 350.29231,257.841449 350.29231,254.490229 C350.29231,251.137409 347.566136,248.41064 344.214048,248.41064 M344.214048,262.838657 C339.611729,262.838657 335.867443,259.093553 335.867443,254.490229 C335.867443,249.886906 339.611729,246.140201 344.214048,246.140201 C348.816366,246.140201 352.560652,249.886906 352.560652,254.490229 C352.560652,259.093553 348.816366,262.838657 344.214048,262.838657" id="Fill-27" fill="#606060"></path>
                            <path d="M21.0973484,59.0457543 C10.6152677,59.7950954 2.2686629,70.8686908 2.2686629,84.372841 C2.2686629,97.8785925 10.6152677,108.953789 21.0973484,109.70313 L21.0973484,59.0457543 Z M23.3656911,112.013598 L22.2323202,112.013598 C9.97334435,112.013598 0.000320161291,99.6142457 0.000320161291,84.372841 C0.000320161291,69.1346387 9.97334435,56.7352861 22.2323202,56.7352861 L23.3656911,56.7352861 L23.3656911,112.013598 Z" id="Fill-29" fill="#606060"></path>
                            <g id="Group-33" transform="translate(20.810484, 0.171324)">
                                <mask id="mask-2" fill="white">
                                    <use xlink:href="#path-1"></use>
                                </mask>
                                <g id="Clip-32"></g>
                                <path d="M7.36306935,2.6994711 C4.66731129,2.6994711 2.47420645,4.89945954 2.47420645,7.60381214 L2.47420645,160.800824 C2.47420645,163.506777 4.66731129,165.706766 7.36467016,165.706766 C7.76167016,165.706766 8.16187177,165.65713 8.55406935,165.561061 L11.8165129,164.752477 C15.7096742,163.790182 18.3798194,160.384523 18.3798194,156.450483 L18.3798194,11.9541532 C18.3798194,8.01851156 15.7096742,4.6128526 11.8885492,3.67137283 L8.55246855,2.8451763 C8.16187177,2.74750578 7.76006935,2.6994711 7.36306935,2.6994711 M7.36467016,167.977205 L7.36306935,167.977205 C3.41708145,167.977205 0.20586371,164.75728 0.20586371,160.800824 L0.20586371,7.60381214 C0.20586371,3.64895665 3.41708145,0.429031792 7.36306935,0.429031792 C7.9441621,0.429031792 8.52845645,0.501083815 9.09994435,0.643586705 L12.3079605,1.43776012 C17.2704605,2.66104335 20.6481621,6.97135549 20.6481621,11.9541532 L20.6481621,156.450483 C20.6481621,161.431679 17.2704605,165.743592 12.4312226,166.938055 L9.09994435,167.76265 C8.52845645,167.905153 7.9441621,167.977205 7.36467016,167.977205" id="Fill-31" fill="#606060" mask="url(#mask-2)"></path>
                            </g>
                            <path d="M250.443448,105.748275 L255.942218,105.748275 C261.271303,105.748275 265.607888,101.412344 265.607888,96.0820954 L265.607888,72.666789 C265.607888,67.3365405 261.271303,63.0006098 255.942218,63.0006098 L250.443448,63.0006098 L250.443448,105.748275 Z M255.942218,108.018714 L248.175105,108.018714 L248.175105,60.7301705 L255.942218,60.7301705 C262.521533,60.7301705 267.87623,66.0860376 267.87623,72.666789 L267.87623,96.0820954 C267.87623,102.662847 262.521533,108.018714 255.942218,108.018714 L255.942218,108.018714 Z" id="Fill-34" fill="#606060"></path>
                            <path d="M47.4411798,9.35515665 C44.1419177,9.35515665 41.4589661,12.0483012 41.4589661,15.3562896 L41.4589661,153.391954 C41.4589661,156.699943 44.1419177,159.393087 47.4411798,159.393087 L47.4411798,159.393087 C47.9102161,159.393087 48.3840548,159.337047 48.8482887,159.226567 C73.3870508,153.371139 96.1233048,148.236232 116.423131,143.961145 C122.163623,142.750671 130.206075,141.602642 140.326373,140.545879 C165.07164,137.960012 196.906877,136.443717 215.92766,135.537463 C220.185805,135.334116 223.774813,135.162792 226.460966,135.017087 C238.638301,134.363816 248.174305,124.295746 248.174305,112.094937 L248.174305,56.6533069 C248.174305,44.4524977 238.638301,34.3844283 226.460966,33.7311566 C223.774813,33.5854514 220.185805,33.4141277 215.92766,33.2107809 C196.906877,32.3045266 165.07164,30.7882318 140.326373,28.2023647 C130.206075,27.1456017 122.163623,25.9975728 116.423131,24.7870988 C96.1233048,20.5120121 73.3870508,15.3771046 48.8482887,9.52167688 C48.3840548,9.41119711 47.9102161,9.35515665 47.4411798,9.35515665 M47.4411798,161.661925 L47.4411798,161.661925 C42.8916879,161.661925 39.1906234,157.952047 39.1906234,153.391954 L39.1906234,15.3562896 C39.1906234,10.794596 42.8916879,7.0863185 47.4411798,7.0863185 C48.0879056,7.0863185 48.7378331,7.16317399 49.374954,7.31528382 C73.8929056,13.1643069 96.60995,18.2960121 116.890567,22.5662954 C122.555821,23.7591566 130.519833,24.8959775 140.563293,25.9447347 C165.244527,28.5241971 197.039744,30.0388908 216.034914,30.9435439 C220.297861,31.1468908 223.893273,31.3198156 226.584228,31.4639197 C239.963769,32.1828387 250.444248,43.2468272 250.444248,56.6533069 L250.444248,112.094937 C250.444248,125.501417 239.963769,136.565405 226.584228,137.284324 C223.893273,137.428428 220.297861,137.601353 216.034914,137.8047 C197.039744,138.709353 165.244527,140.224047 140.563293,142.803509 C130.519833,143.852266 122.555821,144.989087 116.890567,146.181949 C96.60995,150.452232 73.8929056,155.583937 49.374954,161.43296 C48.7378331,161.58507 48.0879056,161.661925 47.4411798,161.661925" id="Fill-36" fill="#606060"></path>
                            <path d="M199.676433,149.157697 C199.048917,149.157697 198.543062,148.650131 198.543062,148.022477 L198.543062,137.469258 C198.543062,136.843206 199.048917,136.334038 199.676433,136.334038 C200.303949,136.334038 200.811404,136.843206 200.811404,137.469258 L200.811404,148.022477 C200.811404,148.650131 200.303949,149.157697 199.676433,149.157697" id="Fill-38" fill="#606060"></path>
                            <path d="M164.237459,156.649026 C163.609943,156.649026 163.102488,156.14146 163.102488,155.513806 L163.102488,139.614327 C163.102488,138.988275 163.609943,138.479107 164.237459,138.479107 C164.864975,138.479107 165.37083,138.988275 165.37083,139.614327 L165.37083,155.513806 C165.37083,156.14146 164.864975,156.649026 164.237459,156.649026" id="Fill-40" fill="#606060"></path>
                            <g id="Group-44" transform="translate(0.000000, 77.627971)">
                                <mask id="mask-4" fill="white">
                                    <use xlink:href="#path-3"></use>
                                </mask>
                                <g id="Clip-43"></g>
                                <path d="M13.9953706,2.91458439 L1.13449153,2.91458439 C0.506975403,2.91458439 -0.000480241935,2.40701792 -0.000480241935,1.77936474 C-0.000480241935,1.15171156 0.506975403,0.644145087 1.13449153,0.644145087 L13.9953706,0.644145087 C14.6228867,0.644145087 15.1287415,1.15171156 15.1287415,1.77936474 C15.1287415,2.40701792 14.6228867,2.91458439 13.9953706,2.91458439" id="Fill-42" fill="#606060" mask="url(#mask-4)"></path>
                            </g>
                            <g id="Group-47" transform="translate(-0.000000, 87.234908)">
                                <mask id="mask-6" fill="white">
                                    <use xlink:href="#path-5"></use>
                                </mask>
                                <g id="Clip-46"></g>
                                <path d="M13.9953706,3.24138035 L1.13449153,3.24138035 C0.506975403,3.24138035 -0.000480241935,2.73381387 -0.000480241935,2.10616069 C-0.000480241935,1.47850751 0.506975403,0.97094104 1.13449153,0.97094104 L13.9953706,0.97094104 C14.6228867,0.97094104 15.1287415,1.47850751 15.1287415,2.10616069 C15.1287415,2.73381387 14.6228867,3.24138035 13.9953706,3.24138035" id="Fill-45" fill="#606060" mask="url(#mask-6)"></path>
                            </g>
                            <path d="M266.741419,73.8016884 L257.032527,73.8016884 C256.405011,73.8016884 255.897556,73.294122 255.897556,72.6664688 C255.897556,72.0404168 256.405011,71.5312491 257.032527,71.5312491 L266.741419,71.5312491 C267.368935,71.5312491 267.87479,72.0404168 267.87479,72.6664688 C267.87479,73.294122 267.368935,73.8016884 266.741419,73.8016884" id="Fill-48" fill="#606060"></path>
                            <path d="M266.741419,85.5087012 L257.032527,85.5087012 C256.405011,85.5087012 255.897556,85.0011347 255.897556,84.3734815 C255.897556,83.7458283 256.405011,83.2382618 257.032527,83.2382618 L266.741419,83.2382618 C267.368935,83.2382618 267.87479,83.7458283 267.87479,84.3734815 C267.87479,85.0011347 267.368935,85.5087012 266.741419,85.5087012" id="Fill-50" fill="#606060"></path>
                            <path d="M266.741419,95.4736561 L257.032527,95.4736561 C256.405011,95.4736561 255.897556,94.9660896 255.897556,94.3384364 C255.897556,93.7107832 256.405011,93.2032168 257.032527,93.2032168 L266.741419,93.2032168 C267.368935,93.2032168 267.87479,93.7107832 267.87479,94.3384364 C267.87479,94.9660896 267.368935,95.4736561 266.741419,95.4736561" id="Fill-52" fill="#606060"></path>
                            <path d="M95.7303069,150.730673 C95.1027907,150.730673 94.5969359,150.223106 94.5969359,149.595453 L94.5969359,19.1524705 C94.5969359,18.5264185 95.1027907,18.0172509 95.7303069,18.0172509 C96.357823,18.0172509 96.8636778,18.5264185 96.8636778,19.1524705 L96.8636778,149.595453 C96.8636778,150.223106 96.357823,150.730673 95.7303069,150.730673" id="Fill-54" fill="#606060"></path>
                            <path d="M40.3249548,135.285281 L32.9644468,135.285281 C32.3385315,135.285281 31.8310758,134.777714 31.8310758,134.150061 C31.8310758,133.522408 32.3385315,133.014842 32.9644468,133.014842 L40.3249548,133.014842 C40.952471,133.014842 41.4583258,133.522408 41.4583258,134.150061 C41.4583258,134.777714 40.952471,135.285281 40.3249548,135.285281" id="Fill-56" fill="#606060"></path>
                            <path d="M40.3249548,35.7335624 L32.9644468,35.7335624 C32.3385315,35.7335624 31.8310758,35.225996 31.8310758,34.5983428 C31.8310758,33.9722908 32.3385315,33.4631231 32.9644468,33.4631231 L40.3249548,33.4631231 C40.952471,33.4631231 41.4583258,33.9722908 41.4583258,34.5983428 C41.4583258,35.225996 40.952471,35.7335624 40.3249548,35.7335624" id="Fill-58" fill="#606060"></path>
                            <path d="M29.5915476,20.7071931 L22.2310395,20.7071931 C21.6051242,20.7071931 21.0976685,20.1996266 21.0976685,19.5719734 C21.0976685,18.9443202 21.6051242,18.4367538 22.2310395,18.4367538 L29.5915476,18.4367538 C30.2190637,18.4367538 30.7249185,18.9443202 30.7249185,19.5719734 C30.7249185,20.1996266 30.2190637,20.7071931 29.5915476,20.7071931" id="Fill-60" fill="#606060"></path>
                            <path d="M29.5915476,28.2798607 L22.2310395,28.2798607 C21.6051242,28.2798607 21.0976685,27.7722942 21.0976685,27.144641 C21.0976685,26.5169879 21.6051242,26.0094214 22.2310395,26.0094214 L29.5915476,26.0094214 C30.2190637,26.0094214 30.7249185,26.5169879 30.7249185,27.144641 C30.7249185,27.7722942 30.2190637,28.2798607 29.5915476,28.2798607" id="Fill-62" fill="#606060"></path>
                            <path d="M29.5915476,142.738983 L22.2310395,142.738983 C21.6051242,142.738983 21.0976685,142.231416 21.0976685,141.603763 C21.0976685,140.97611 21.6051242,140.468543 22.2310395,140.468543 L29.5915476,140.468543 C30.2190637,140.468543 30.7249185,140.97611 30.7249185,141.603763 C30.7249185,142.231416 30.2190637,142.738983 29.5915476,142.738983" id="Fill-64" fill="#606060"></path>
                            <path d="M29.5915476,150.31165 L22.2310395,150.31165 C21.6051242,150.31165 21.0976685,149.804084 21.0976685,149.176431 C21.0976685,148.548777 21.6051242,148.041211 22.2310395,148.041211 L29.5915476,148.041211 C30.2190637,148.041211 30.7249185,148.548777 30.7249185,149.176431 C30.7249185,149.804084 30.2190637,150.31165 29.5915476,150.31165" id="Fill-66" fill="#606060"></path>
                            <path d="M229.893255,52.919411 L157.842558,52.919411 C157.215042,52.919411 156.707586,52.4118445 156.707586,51.7841913 C156.707586,51.1581393 157.215042,50.6489717 157.842558,50.6489717 L229.893255,50.6489717 C230.520771,50.6489717 231.026626,51.1581393 231.026626,51.7841913 C231.026626,52.4118445 230.520771,52.919411 229.893255,52.919411" id="Fill-68" fill="#606060"></path>
                            <path d="M147.694725,52.919411 L134.904282,52.919411 C134.278367,52.919411 133.770911,52.4118445 133.770911,51.7841913 C133.770911,51.1581393 134.278367,50.6489717 134.904282,50.6489717 L147.694725,50.6489717 C148.322242,50.6489717 148.828096,51.1581393 148.828096,51.7841913 C148.828096,52.4118445 148.322242,52.919411 147.694725,52.919411" id="Fill-70" fill="#606060"></path>
                            <path d="M125.267747,52.919411 L112.478904,52.919411 C111.851388,52.919411 111.343933,52.4118445 111.343933,51.7841913 C111.343933,51.1581393 111.851388,50.6489717 112.478904,50.6489717 L125.267747,50.6489717 C125.895263,50.6489717 126.401118,51.1581393 126.401118,51.7841913 C126.401118,52.4118445 125.895263,52.919411 125.267747,52.919411" id="Fill-72" fill="#606060"></path>
                            <path d="M181.957266,63.0001295 L141.299984,63.0001295 C140.672468,63.0001295 140.165012,62.492563 140.165012,61.8649098 C140.165012,61.2388578 140.672468,60.7296902 141.299984,60.7296902 L181.957266,60.7296902 C182.584782,60.7296902 183.090637,61.2388578 183.090637,61.8649098 C183.090637,62.492563 182.584782,63.0001295 181.957266,63.0001295" id="Fill-74" fill="#606060"></path>
                            <path d="M137.476298,63.0001295 L124.685854,63.0001295 C124.059939,63.0001295 123.552483,62.492563 123.552483,61.8649098 C123.552483,61.2388578 124.059939,60.7296902 124.685854,60.7296902 L137.476298,60.7296902 C138.103814,60.7296902 138.611269,61.2388578 138.611269,61.8649098 C138.611269,62.492563 138.103814,63.0001295 137.476298,63.0001295" id="Fill-76" fill="#606060"></path>
                            <path d="M203.253915,63.0001295 L190.463471,63.0001295 C189.837556,63.0001295 189.3301,62.492563 189.3301,61.8649098 C189.3301,61.2388578 189.837556,60.7296902 190.463471,60.7296902 L203.253915,60.7296902 C203.881431,60.7296902 204.387286,61.2388578 204.387286,61.8649098 C204.387286,62.492563 203.881431,63.0001295 203.253915,63.0001295" id="Fill-78" fill="#606060"></path>
                            <path d="M322.158456,272.299728 C318.647888,272.299728 315.792049,269.443266 315.792049,265.931931 L315.792049,182.960023 C315.792049,179.450289 318.647888,176.593827 322.158456,176.593827 L396.933727,176.593827 L396.933727,174.323387 L322.158456,174.323387 C317.396057,174.323387 313.523706,178.198185 313.523706,182.960023 L313.523706,265.931931 C313.523706,270.69537 317.396057,274.570168 322.158456,274.570168 L396.933727,274.570168 L396.933727,272.299728 L322.158456,272.299728 Z" id="Fill-80" fill="#606060"></path>
                        </g>
                    </g>
                    <path d="M411.8,74.2021277 L490.2,0.79787234" id="Line-Copy" stroke="#606060" stroke-width="1.6" stroke-linecap="square" stroke-dasharray="16"></path>
                    <path d="M418.798507,85.2 L524.201493,38.8" id="Line-Copy-2" stroke="#606060" stroke-width="1.6" stroke-linecap="square" stroke-dasharray="16"></path>
                    <path d="M419.801471,99.25 L527.198529,94.75" id="Line-Copy-3" stroke="#606060" stroke-width="1.6" stroke-linecap="square" stroke-dasharray="16"></path>
                </g>
            </g>
        </g>
    </g>
</svg>