<?xml version="1.0" encoding="UTF-8"?>
<svg width="20px" height="18px" viewBox="0 0 20 18" version="1.1" xmlns="http://www.w3.org/2000/svg" xmlns:xlink="http://www.w3.org/1999/xlink">
    <!-- Generator: sketchtool 39.1 (31720) - http://www.bohemiancoding.com/sketch -->
    <title>93EBF602-2B40-4314-AEE6-2F46ED35BDE5</title>
    <desc>Created with sketchtool.</desc>
    <defs></defs>
    <g id="ClassDig-Web-Teachers" stroke="none" stroke-width="1" fill="none" fill-rule="evenodd">
        <g id="Icons-Resources" transform="translate(-144.000000, -1472.000000)" fill="#F83327">
            <g id="1471448405_megaphone-copy" transform="translate(153.543353, 1481.000000) scale(-1, 1) translate(-153.543353, -1481.000000) translate(144.043353, 1472.000000)">
                <g id="Layer_1" transform="translate(0.000000, -0.000000)">
                    <g id="Group">
                        <path d="M17.4953116,5.16808163 C17.4243172,5.12850171 17.3514545,5.10343443 17.2769905,5.09208819 C17.206263,5.053036 17.1336672,5.02823259 17.0594701,5.01662248 C16.9887426,4.97783416 16.9161468,4.95276688 16.8416828,4.9408929 C16.7706884,4.90236845 16.6980927,4.87730117 16.6236286,4.86489947 C16.5529011,4.82663888 16.4803054,4.80209933 16.4063751,4.78943376 C16.3353808,4.75143704 16.262785,4.72663362 16.1885879,4.71370418 C16.1173266,4.67570746 16.0444639,4.65090405 15.9699999,4.63771074 C15.8992724,4.60024176 15.8266766,4.57570221 15.7527464,4.56224504 C15.681752,4.52477605 15.6091562,4.5002365 15.5349591,4.4862516 C15.4636978,4.44904648 15.3911021,4.42450693 15.3169049,4.41052202 C15.2459105,4.37358077 15.1733148,4.34904122 15.0993845,4.33479245 C15.0283902,4.29811506 14.9557944,4.27357551 14.8818642,4.25906288 C14.810336,4.22238549 14.7374733,4.19784594 14.6632762,4.18306944 C14.5922818,4.14691978 14.519686,4.1226441 14.4460227,4.10760373 C14.3747614,4.07145407 14.3021656,4.04691452 14.2282354,4.03187416 C14.1569741,3.9957245 14.0843784,3.97144882 14.0104481,3.95614458 C13.9389199,3.92025879 13.8660573,3.89571924 13.792127,3.88015114 C13.7211327,3.84479308 13.6488038,3.8205174 13.5751404,3.80468544 C13.5038792,3.76906351 13.4307496,3.74452396 13.3568194,3.728692 C13.2855581,3.69333394 13.2126954,3.66905826 13.1390321,3.65296242 C13.0675039,3.61786823 12.9949082,3.59359255 12.9212448,3.57723285 C12.8499835,3.54213866 12.7773878,3.51786297 12.7037244,3.50150328 C12.6313956,3.46614522 12.5577322,3.44186954 12.4830013,3.42524597 C12.4114731,3.39067951 12.3388773,3.36613996 12.2649471,3.3495164 C12.1928851,3.31468607 12.1197556,3.29014652 12.0452915,3.27352296 C11.9732296,3.2389565 11.8998331,3.21415308 11.825636,3.19752952 C11.753574,3.16322692 11.6801776,3.13815964 11.6059804,3.12153608 C11.5339185,3.08776122 11.4607889,3.0621662 11.3865918,3.0458065 C11.3145298,3.01203164 11.2414002,2.98643663 11.1672031,2.96981307 C11.0951411,2.93656594 11.0222785,2.91070706 10.9483482,2.89408349 C10.8760194,2.86083636 10.8028898,2.83471362 10.7286927,2.81809005 C10.6563638,2.78484292 10.5835012,2.75872018 10.5090371,2.74209661 C10.4391103,2.71016881 10.3683828,2.6837822 10.2963209,2.66715864 C10.223992,2.63364764 10.1497949,2.6075249 10.0750639,2.59010973 C10.0032689,2.55712647 9.9304062,2.53153146 9.85647596,2.51438016 C9.78147813,2.48245236 9.70888237,2.45659348 9.63495213,2.43944218 C9.56315706,2.40672279 9.4905613,2.38086391 9.41663105,2.36344874 C9.34456909,2.33099321 9.27170643,2.30487047 9.19724239,2.28745531 C9.12518043,2.25526364 9.05258466,2.2291409 8.97865442,2.21172573 C8.90659245,2.17953407 8.83399669,2.15341132 8.76006645,2.13599616 C8.68800448,2.10380449 8.61540872,2.07768175 8.54174537,2.06026658 C8.4696834,2.02833879 8.39735454,2.00221604 8.3234243,1.98453701 C8.25136233,1.95260921 8.17849967,1.9262226 8.10456943,1.90854357 C8.03250746,1.87687964 7.9599117,1.85049303 7.88624835,1.832814 C7.8128519,1.80141393 7.73998925,1.77502732 7.666059,1.75708442 C7.59399704,1.72568436 7.52140127,1.69929775 7.44773793,1.68135485 C7.37567596,1.64995478 7.3028133,1.62356817 7.22914996,1.60562528 C7.15708799,1.57448908 7.08449223,1.5478386 7.01109578,1.5298957 C6.93876691,1.4987595 6.86590425,1.47184516 6.79197401,1.45390226 C6.71991204,1.42302993 6.64731628,1.39637945 6.57391983,1.37843656 C6.50159097,1.34730036 6.42872831,1.32064988 6.35479807,1.30244312 C6.28300299,1.27183465 6.21120792,1.24544804 6.13781147,1.22724128 C6.0657495,1.19636894 5.99315374,1.16971846 5.9194904,1.1515117 C5.84796222,1.12090323 5.77590025,1.09478049 5.7027707,1.07657373 C5.63044183,1.04570139 5.55757917,1.01931478 5.48391583,1.00058029 C5.41212076,0.970235685 5.34005879,0.943849075 5.26692923,0.925378447 C5.19460037,0.894506112 5.12147082,0.868119501 5.04754057,0.849385007 C4.9760124,0.819040405 4.90421732,0.793181526 4.83108777,0.774447032 C4.7590258,0.744102429 4.68669694,0.717715818 4.61330049,0.698981325 C4.57326606,0.681830028 4.53189715,0.670747651 4.49132893,0.656762747 C4.13955977,0.360968838 3.76270236,0.197899582 3.36956428,0.197899582 C1.50849721,0.197899582 0,3.81576781 0,8.27879919 C0,12.7418306 1.50849721,16.3596988 3.36956428,16.3596988 C3.76270236,16.3596988 4.13982666,16.1966295 4.49026135,15.900044 C4.53056267,15.886323 4.57139779,15.8752406 4.61116532,15.8583532 C4.68456177,15.8396187 4.75715753,15.813496 4.8289526,15.7831514 C4.90314974,15.7644169 4.97654619,15.7375025 5.04940885,15.7066302 C5.12173771,15.6881596 5.19379968,15.6620368 5.26479406,15.6319561 C5.33819051,15.6137493 5.41105317,15.5870988 5.48284824,15.5564904 C5.55624469,15.5382836 5.62884046,15.511897 5.70063553,15.4812885 C5.77376508,15.4630818 5.84636084,15.4364313 5.91815592,15.4060867 C5.99181926,15.3878799 6.06468192,15.3612294 6.13647699,15.3303571 C6.20987344,15.3124142 6.28193541,15.2857637 6.35346359,15.2551553 C6.42712693,15.2374762 6.49998959,15.2105619 6.57205156,15.1796896 C6.6459818,15.1617467 6.71937825,15.1348323 6.79170712,15.1034323 C6.86510357,15.0857532 6.93743243,15.0591027 7.0092275,15.0279665 C7.08315774,15.0102875 7.15575351,14.983637 7.22781548,14.952237 C7.30147882,14.9345579 7.37460837,14.9079075 7.44640345,14.8765074 C7.52033369,14.8588284 7.59373014,14.8321779 7.66579211,14.800514 C7.73945545,14.7828349 7.81205122,14.7564483 7.88357939,14.7250483 C7.95750963,14.7073692 8.03037229,14.6809826 8.10243426,14.6493187 C8.17609761,14.6319035 8.24896026,14.605253 8.32075534,14.5735891 C8.39468558,14.5561739 8.46781513,14.5297873 8.5396102,14.4978595 C8.61327355,14.4804444 8.68613621,14.4540578 8.75793128,14.42213 C8.83186152,14.4047148 8.90499108,14.3785921 8.97651925,14.3464004 C9.05044949,14.3292491 9.12331215,14.3031263 9.19510722,14.2706708 C9.26957126,14.2535195 9.34296771,14.2271329 9.41502968,14.1946774 C9.48842613,14.1775261 9.56102189,14.1514033 9.63228317,14.1192117 C9.70621341,14.1020604 9.77934296,14.0759376 9.85113804,14.0434821 C9.92506828,14.0263308 9.99819783,14.0004719 10.069726,13.9677525 C10.1444569,13.9506012 10.2186541,13.9242146 10.2909829,13.8907036 C10.3633118,13.87408 10.4343062,13.8474296 10.5047668,13.8152379 C10.578697,13.7986143 10.6512928,13.7724916 10.722821,13.7397722 C10.7970181,13.7231486 10.8704146,13.6972898 10.9424765,13.6637788 C11.0164068,13.6471552 11.0898032,13.6215602 11.1618652,13.5880492 C11.2360623,13.5714256 11.3094588,13.5458306 11.3812538,13.5120557 C11.455451,13.4954322 11.5288474,13.4703649 11.6006425,13.4363262 C11.6748396,13.4197026 11.748503,13.3946353 11.8202981,13.3603327 C11.8947621,13.3437092 11.9684254,13.3189058 12.0404874,13.2840754 C12.1144177,13.2674519 12.1875472,13.2429123 12.2590754,13.2083459 C12.3332725,13.1917223 12.406669,13.1674466 12.478464,13.1326163 C12.5526612,13.1159927 12.6260576,13.0919809 12.6978527,13.0568867 C12.7717829,13.0402631 12.8451794,13.0159875 12.9164407,12.9806294 C12.990104,12.9642697 13.0626998,12.9402579 13.1336942,12.9051637 C13.2073575,12.8890679 13.2804871,12.8647922 13.3514814,12.8294341 C13.4254117,12.8136022 13.4982743,12.7893265 13.5695356,12.7537045 C13.643199,12.7378726 13.7160616,12.7138608 13.787056,12.6782388 C13.8609863,12.6624069 13.9338489,12.6383951 14.0048433,12.6025093 C14.0787735,12.587205 14.1519031,12.5629294 14.2228975,12.5267797 C14.2965608,12.5114755 14.3694235,12.4871998 14.440151,12.4510501 C14.1027942,14.9546118 12.7341506,15.9802593 12.7341506,15.9802593 C12.7341506,15.9802593 12.7341506,18.9743481 15.005704,17.2280822 C16.9196165,15.756237 17.579117,12.33706 17.7392547,11.2966359 C18.298936,10.9483326 18.7123581,9.73138213 18.7123581,8.28038239 C18.7160947,6.62066456 18.1764306,5.26808688 17.4953116,5.16808163 L17.4953116,5.16808163 Z M3.36956428,15.3042344 C2.557933,15.3042344 1.06758472,12.6370757 1.06758472,8.27879919 C1.06758472,3.92052266 2.557933,1.25336402 3.36956428,1.25336402 C4.18119557,1.25336402 5.67154384,3.92052266 5.67154384,8.27879919 C5.67154384,12.6370757 4.18119557,15.3042344 3.36956428,15.3042344 L3.36956428,15.3042344 Z" id="Shape"></path>
                        <path d="M2.66762733,8.64161509 C2.66762733,9.7604074 3.5852164,10.6675791 4.7171231,10.6675791 C4.75021823,10.6675791 4.78304646,10.6641488 4.81587469,10.6628295 C4.97841446,9.94511368 5.07102744,9.12317074 5.07102744,8.24871846 C5.07102744,7.68272565 5.03206059,7.13916146 4.96053242,6.6312192 C4.88046356,6.62172002 4.79959402,6.6156511 4.7171231,6.6156511 C3.5852164,6.6156511 2.66762733,7.52255892 2.66762733,8.64161509 L2.66762733,8.64161509 Z" id="Shape"></path>
                    </g>
                </g>
            </g>
        </g>
    </g>
</svg>