<?xml version="1.0" encoding="UTF-8"?>
<svg width="71px" height="104px" viewBox="0 0 71 104" version="1.1" xmlns="http://www.w3.org/2000/svg" xmlns:xlink="http://www.w3.org/1999/xlink">
    <!-- Generator: sketchtool 39.1 (31720) - http://www.bohemiancoding.com/sketch -->
    <title>58173F08-05EE-403F-A756-364B334B3560</title>
    <desc>Created with sketchtool.</desc>
    <defs></defs>
    <g id="ClassDig-Web-Teachers" stroke="none" stroke-width="1" fill="none" fill-rule="evenodd">
        <g id="Icons-Resources" transform="translate(-200.000000, -2207.000000)">
            <g id="studgrade_blue" transform="translate(200.043353, 2207.000000)">
                <g id="Group-Copy-4" fill="#FFFFFF">
                    <g id="Group">
                        <g id="Shape">
                            <path d="M70.6587447,95.5250909 L70.6587447,3.43418182 C70.6587447,1.93818182 69.4482449,0.726545455 67.9536483,0.726545455 L8.46405253,0.726545455 C8.44080164,0.727272727 8.41755074,0.733818182 8.39066689,0.734545455 C8.29330377,0.738181818 8.19666724,0.747636364 8.10293706,0.760727273 C7.53837626,0.836363636 6.98834726,1.08218182 6.55166638,1.51927273 L1.14365342,6.93163636 C0.615422139,7.46181818 0.351669794,8.15418182 0.351669794,8.84581818 L0.351669794,100.870545 C0.351669794,102.365818 1.56216954,103.577455 3.05603957,103.577455 L62.5456353,103.577455 C64.040232,103.578182 65.2507317,102.365818 65.2507317,100.870545 L65.2507317,8.84654545 C65.2507317,7.352 64.040232,6.14036364 62.5456353,6.14036364 L62.5470885,6.13963636 L5.76040935,6.13963636 L8.4662323,3.43272727 L11.2112911,3.43345455 L65.2507317,3.43345455 L65.4425516,3.43345455 C66.8732083,3.43345455 68.0379328,4.54254545 68.1374757,5.94836364 L68.1491011,5.94836364 L68.1491011,98.2210909 C69.5499676,98.1229091 70.6587447,96.9541818 70.6587447,95.5250909"></path>
                        </g>
                    </g>
                </g>
                <text id="Students-Copy-2" font-family="Lato-Black, Lato" font-size="48.5512258" font-weight="700" fill="#4785D6">
                    <tspan x="17.1088733" y="66">A</tspan>
                </text>
            </g>
        </g>
    </g>
</svg>