<?xml version="1.0" encoding="UTF-8"?>
<svg width="23px" height="23px" viewBox="0 0 23 23" version="1.1" xmlns="http://www.w3.org/2000/svg" xmlns:xlink="http://www.w3.org/1999/xlink">
    <!-- Generator: sketchtool 39.1 (31720) - http://www.bohemiancoding.com/sketch -->
    <title>762A69B6-A601-4EDF-8F16-C0982B8A4619</title>
    <desc>Created with sketchtool.</desc>
    <defs></defs>
    <g id="ClassDig-Web-Parents" stroke="none" stroke-width="1" fill="none" fill-rule="evenodd">
        <g id="Find-people-Active-User" transform="translate(-611.000000, -927.000000)">
            <g id="ic_search_black_24px" transform="translate(608.000000, 924.000000)">
                <g id="Group">
                    <path d="M19.375,17.5 L18.3875,17.5 L18.0375,17.1625 C19.2625,15.7375 20,13.8875 20,11.875 C20,7.3875 16.3625,3.75 11.875,3.75 C7.3875,3.75 3.75,7.3875 3.75,11.875 C3.75,16.3625 7.3875,20 11.875,20 C13.8875,20 15.7375,19.2625 17.1625,18.0375 L17.5,18.3875 L17.5,19.375 L23.75,25.6125 L25.6125,23.75 L19.375,17.5 L19.375,17.5 Z M11.875,17.5 C8.7625,17.5 6.25,14.9875 6.25,11.875 C6.25,8.7625 8.7625,6.25 11.875,6.25 C14.9875,6.25 17.5,8.7625 17.5,11.875 C17.5,14.9875 14.9875,17.5 11.875,17.5 L11.875,17.5 Z" id="Shape" fill="#FFFFFF"></path>
                    <polygon id="Shape" points="0 0 30 0 30 30 0 30"></polygon>
                </g>
            </g>
        </g>
    </g>
</svg>