<?xml version="1.0" encoding="UTF-8"?>
<svg width="417px" height="256px" viewBox="0 0 417 256" version="1.1" xmlns="http://www.w3.org/2000/svg" xmlns:xlink="http://www.w3.org/1999/xlink">
    <!-- Generator: sketchtool 39.1 (31720) - http://www.bohemiancoding.com/sketch -->
    <title>6186781C-F68D-4F54-AE45-A46C50CD9E5A</title>
    <desc>Created with sketchtool.</desc>
    <defs>
        <polygon id="path-1" points="157.835153 0.483482054 0.185370334 0.483482054 0.185370334 180.055745 157.835153 180.055745"></polygon>
        <polygon id="path-3" points="115.204833 180.055745 0.185370334 146.446288 42.8156909 0.481565164 157.835153 34.0952822"></polygon>
        <mask id="mask-4" maskContentUnits="userSpaceOnUse" maskUnits="objectBoundingBox" x="0" y="0" width="157.649783" height="179.57418" fill="white">
            <use xlink:href="#path-3"></use>
        </mask>
    </defs>
    <g id="ClassDig-Web-Parents" stroke="none" stroke-width="1" fill="none" fill-rule="evenodd">
        <g id="Files-Empty" transform="translate(-417.000000, -305.000000)">
            <g id="Group" transform="translate(419.000000, 305.000000)">
                <path d="M58.6313761,188.737803 C45.0572143,191.504513 31.8088323,182.74007 29.040768,169.153585 C26.2748329,155.57775 35.0432091,142.321396 48.6152416,139.554686 C62.2021791,136.785846 75.4569489,145.554549 78.222884,159.134644 C80.9909483,172.716869 72.214055,185.968963 58.6313761,188.737803 L58.6313761,188.737803 Z M96.6965197,155.366892 C96.402679,153.931355 96.0385721,152.538415 95.6233625,151.166775 L103.022611,143.518387 C101.355385,139.509958 99.228234,135.786934 96.7284589,132.39191 L86.3503468,134.80506 C84.4190896,132.645365 82.2791629,130.696528 79.9752816,128.964938 L81.474295,118.426307 C77.8332257,116.209105 73.9259964,114.420009 69.8356489,113.112264 L62.862256,121.161069 C60.0643817,120.562574 57.1941119,120.226053 54.2748686,120.181326 L49.2859649,110.790698 C47.1779774,110.952569 45.0678607,111.242232 42.9407097,111.676727 C40.8178172,112.106962 38.7609325,112.67138 36.7466333,113.348681 L35.8459478,123.934169 C33.1673132,125.12264 30.6526331,126.556047 28.3104248,128.200312 L18.7520856,123.525232 C15.5028039,126.317501 12.6069827,129.497407 10.1242419,132.966977 L15.6241729,142.08072 C14.174133,144.574806 12.9753482,147.203074 12.0405942,149.948485 L1.54324239,151.786569 C0.565902736,155.888712 0.0676511497,160.150595 0.0953317934,164.493414 L9.9113139,168.633895 C10.0539757,170.056653 10.2711623,171.47941 10.5607444,172.917077 C10.8567143,174.348355 11.2101749,175.743424 11.6402895,177.108675 L4.22400626,184.767712 C5.89549129,188.771881 8.01838373,192.494906 10.5266759,195.900579 L20.9090466,193.485299 C22.8339159,195.630085 24.9759719,197.593831 27.2777239,199.312642 L25.7829691,209.859792 C29.4219091,212.076994 33.3270092,213.86609 37.4152273,215.167445 L44.386491,207.12077 C47.1843653,207.721396 50.0610229,208.060046 52.9845248,208.091994 L57.9585235,217.49966 C60.0750281,217.325011 62.1872742,217.043867 64.3080373,216.611502 C66.433059,216.177007 68.4920731,215.61046 70.4999844,214.943808 L71.4091871,204.339151 C74.0835631,203.163459 76.5939846,201.727922 78.9340636,200.079397 L88.4987906,204.756607 C91.7523309,201.960079 94.6481521,198.788692 97.1308929,195.323382 L91.6330912,186.19899 C93.0788725,183.717683 94.2840452,181.070246 95.2166699,178.339744 L105.707634,176.50379 C106.684974,172.388868 107.187484,168.131244 107.149157,163.794815 L97.3502088,159.645815 C97.1947713,158.220927 96.9882311,156.800299 96.6965197,155.366892 L96.6965197,155.366892 Z" id="Shape" stroke="#979797" stroke-width="2.96511628" fill="#FFFFFF"></path>
                <path d="M129.76102,93.2170842 C127.780789,94.6462316 125.70687,95.8410926 123.592495,96.9039011 L129.712046,105.374422 L142.641036,96.0263919 L136.378823,87.3620527 C134.400721,89.4855399 132.201175,91.4514163 129.76102,93.2170842" id="Shape" stroke="#979797" stroke-width="2.96511628" fill="#FFFFFF"></path>
                <path d="M165.552092,127.239738 L142.909325,95.8815602 L129.980336,105.2232 L152.620973,136.577118 C153.919834,138.366215 155.806376,139.452452 157.816417,139.778323 C159.837104,140.102064 161.972772,139.66118 163.757109,138.374734 C167.330041,135.795453 168.134909,130.809411 165.552092,127.239738" id="Shape" stroke="#979797" stroke-width="2.96511628" fill="#FFFFFF"></path>
                <path d="M56.2931793,179.680461 C47.501381,181.471687 38.9203815,175.789176 37.1296568,167.003434 C35.3410613,158.211302 41.0177226,149.638547 49.8116501,147.845191 C58.5970606,146.056094 67.1716723,151.727957 68.9666556,160.515829 C70.7531217,169.303701 65.0828483,177.889234 56.2931793,179.680461 M46.7305816,132.733714 C29.6005217,136.224583 18.5389106,152.939856 22.0309303,170.081106 C25.5229499,187.218095 42.2378002,198.278546 59.3678601,194.789807 C76.5064371,191.298939 87.5680481,174.577276 84.0760285,157.438156 C80.5840088,140.301167 63.8670293,129.240716 46.7305816,132.733714" id="Shape" stroke="#979797" stroke-width="2.96511628" fill="#FFFFFF"></path>
                <path d="M139.224238,232.361941 C129.171905,234.408753 119.379345,227.919018 117.326719,217.870259 C115.278352,207.81511 121.764139,198.019806 131.816472,195.970865 C141.856028,193.921923 151.663493,200.403139 153.711861,210.456158 C155.758099,220.507047 149.270182,230.31513 139.224238,232.361941 M167.379711,207.670279 C167.160395,206.6096 166.894235,205.57235 166.587619,204.564918 L172.05774,198.905835 C170.827016,195.934657 169.251348,193.182856 167.396745,190.673861 L159.722819,192.454438 C158.304718,190.86342 156.718404,189.421493 155.006463,188.135048 L156.113689,180.337568 C153.422279,178.695433 150.539233,177.379169 147.511397,176.407946 L142.350021,182.363081 C140.28249,181.920067 138.155339,181.675131 135.994119,181.643183 L132.310465,174.687005 C130.751831,174.821187 129.182552,175.032045 127.615402,175.349397 C126.046122,175.671008 124.519428,176.092724 123.03319,176.576206 L122.360338,184.422672 C120.377978,185.295922 118.521245,186.354471 116.790141,187.57489 L109.716671,184.11171 C107.312714,186.179821 105.168529,188.526945 103.326701,191.093447 L107.402144,197.838767 C106.331116,199.68963 105.441077,201.634207 104.746931,203.657591 L96.9814461,205.020712 C96.2702665,208.057916 95.8933839,211.203744 95.9125474,214.419858 L103.173393,217.486881 C103.275599,218.53904 103.443812,219.595459 103.658869,220.656138 C103.873926,221.710427 104.135828,222.749807 104.448832,223.759369 L98.9680646,229.424841 C100.205176,232.38111 101.778715,235.143561 103.62693,237.661075 L111.305115,235.869849 C112.73812,237.460867 114.318046,238.909183 116.02147,240.180719 L114.912115,247.988848 C117.614172,249.628853 120.501476,250.951507 123.525054,251.920601 L128.680042,245.963335 C130.749702,246.408479 132.876853,246.649156 135.038073,246.683234 L138.728115,253.635152 C140.286749,253.511619 141.85177,253.300761 143.425308,252.983409 C144.994587,252.659668 146.517023,252.242212 148.001131,251.745951 L148.678242,243.903744 C150.649956,243.030495 152.510947,241.971946 154.244181,240.755786 L161.31765,244.212576 C163.723737,242.142336 165.861534,239.797342 167.701232,237.2351 L163.632178,230.47913 C164.705335,228.647436 165.599633,226.690079 166.285261,224.664566 L174.044358,223.309965 C174.770443,220.2685 175.140937,217.112023 175.117515,213.908688 L167.863057,210.839535 C167.752335,209.785246 167.594768,208.726698 167.379711,207.670279" id="Shape" stroke="#979797" stroke-width="2.96511628" fill="#FFFFFF"></path>
                <path d="M138.764528,226.93558 C132.265965,228.264623 125.91858,224.062376 124.592039,217.564122 C123.267626,211.055218 127.468696,204.710315 133.971518,203.385532 C140.476469,202.060748 146.817466,206.258735 148.141878,212.763379 C149.464162,219.263764 145.273738,225.615057 138.764528,226.93558 M131.697447,192.201548 C119.017583,194.787219 110.841146,207.161803 113.421834,219.836701 C116.002522,232.522247 128.365123,240.703104 141.044987,238.119564 C153.720593,235.536023 161.905546,223.165698 159.324859,210.482281 C156.739912,197.807384 144.370923,189.620137 131.697447,192.201548" id="Shape" stroke="#979797" stroke-width="2.96511628" fill="#FFFFFF"></path>
                <path d="M131.243431,37.4043528 C142.113407,52.4540629 138.721464,73.471688 123.678098,84.3510991 C108.617699,95.2305103 87.6102196,91.8397463 76.7317267,76.7900362 C65.8574923,61.7275468 69.2409186,40.7163113 84.3034474,29.8347703 C99.3532004,18.9617488 120.367068,22.3503829 131.243431,37.4043528" id="Shape" stroke="#979797" stroke-width="1.48255814" fill="#FFFFFF"></path>
                <path d="M124.390064,85.0734255 C109.329664,95.9528366 88.3221849,92.5620726 77.4436919,77.5123625 C66.5694575,62.4498731 69.9528838,41.4386376 85.0154126,30.5570966 C100.063036,19.6840751 121.076903,23.0727092 131.955396,38.1266791 C142.823243,53.1763892 139.4313,74.1940143 124.390064,85.0734255 M141.168792,31.4708138 C126.613032,11.3243083 98.4980153,6.78980043 78.3592824,21.3368596 C58.2226788,35.8881785 53.6851825,64.0281119 68.2409425,84.1703577 C82.7839268,104.314733 110.898944,108.849241 131.039806,94.2979223 C151.178539,79.7487332 155.711777,51.6109297 141.168792,31.4708138" id="Shape" stroke="#979797" stroke-width="2.96511628" fill="#FFFFFF"></path>
                <path d="M124.681529,62.5158306 C123.035595,62.2517259 121.917723,60.7011755 122.183883,59.0633002 C123.797878,49.0464892 116.965017,39.5834461 106.965917,37.9732592 C105.315725,37.7070246 104.202111,36.160734 104.468271,34.516469 C104.728043,32.874334 106.27603,31.7582785 107.921964,32.0245131 C121.202285,34.1650393 130.273019,46.7270532 128.133092,60.0238746 C127.869062,61.66175 126.323204,62.7820652 124.681529,62.5158306" id="Shape" fill="#979797"></path>
                <polygon id="Shape" stroke="#979797" stroke-width="2.96511628" fill="#FFFFFF" points="321.524002 219.165224 225.797948 147.075281 317.229244 25.5956229 412.953168 97.6813062"></polygon>
                <polygon id="Shape" fill="#B666A3" points="336.409801 56.4447598 319.486281 43.6995765 321.894497 40.5047611 338.813758 53.2499444"></polygon>
                <polygon id="Shape" fill="#979797" points="395.054438 101.538513 366.330447 79.9074836 368.734405 76.7126682 397.458396 98.3479577"></polygon>
                <polygon id="Shape" fill="#979797" points="390.61063 110.59262 313.09844 52.2169541 315.502397 49.0242687 393.012458 107.395675"></polygon>
                <polygon id="Shape" fill="#979797" points="384.227048 119.112127 306.710599 60.7385916 309.110298 57.5437762 386.633135 115.913052"></polygon>
                <polygon id="Shape" fill="#B666A3" points="377.843466 125.495368 300.322758 67.1282222 302.730974 63.9334069 380.249552 122.304813"></polygon>
                <polygon id="Shape" fill="#979797" points="371.451366 134.017006 293.934917 75.6498597 296.343133 72.4529145 373.853194 130.822191"></polygon>
                <polygon id="Shape" fill="#979797" points="367.192806 142.540773 289.676357 84.1693672 292.080314 80.972422 369.60528 139.343828"></polygon>
                <polygon id="Shape" fill="#979797" points="360.804965 151.058151 283.288516 92.6867449 285.696732 89.4919296 363.211052 147.865465"></polygon>
                <polygon id="Shape" fill="#979797" points="354.417124 157.449911 276.900675 99.0785054 279.304633 95.8815602 356.818952 154.252966"></polygon>
                <polygon id="Shape" fill="#979797" points="348.033542 165.965159 270.512834 107.595883 272.916792 104.401068 350.433241 162.776734"></polygon>
                <polygon id="Shape" fill="#979797" points="341.645701 174.484667 264.124993 116.115391 266.537468 112.920575 344.047529 171.291981"></polygon>
                <polygon id="Shape" fill="#B666A3" points="337.385011 180.874297 259.866433 122.502891 262.27039 119.310206 339.791098 177.679482"></polygon>
                <polygon id="Shape" fill="#B666A3" points="330.995041 189.393805 253.478592 131.022399 255.88255 127.829714 333.396869 186.19899"></polygon>
                <polygon id="Shape" fill="#B666A3" points="324.609329 197.919702 247.090751 139.546166 249.496838 136.349221 327.011157 194.720627"></polygon>
                <polygon id="Shape" fill="#B666A3" points="318.219359 204.305073 240.70291 145.933667 243.111126 142.738852 320.625446 201.110258"></polygon>
                <polygon id="Shape" fill="#979797" points="377.843466 125.495368 300.322758 67.1282222 302.730974 63.9334069 380.249552 122.304813"></polygon>
                <g transform="translate(203.375865, 0.037100)">
                    <mask id="mask-2" fill="white">
                        <use xlink:href="#path-1"></use>
                    </mask>
                    <g id="Shape"></g>
                    <g id="Shape" mask="url(#mask-2)" stroke-width="5.93023256" stroke="#979797" fill="#FFFFFF">
                        <use mask="url(#mask-4)" xlink:href="#path-3"></use>
                    </g>
                </g>
                <polygon id="Shape" fill="#979797" points="273.813219 24.7266332 253.478592 18.7800169 254.604981 14.9462385 274.931091 20.888595"></polygon>
                <polygon id="Shape" fill="#979797" points="345.491181 45.9103887 310.96916 35.8254216 312.095549 31.9852536 346.609053 42.0723505"></polygon>
                <polygon id="Shape" fill="#979797" points="344.481902 54.5172212 251.349312 27.3016543 252.471443 23.465746 345.606162 50.6813129"></polygon>
                <polygon id="Shape" fill="#979797" points="340.221212 65.1687355 247.090751 37.9552985 248.210753 34.1151305 341.345472 61.3328272"></polygon>
                <polygon id="Shape" fill="#3F91C3" points="338.089803 73.6946327 244.961471 46.4790658 246.081472 42.634638 339.211933 69.8587244"></polygon>
                <polygon id="Shape" fill="#979797" points="335.962652 82.2162701 242.832191 54.9985734 243.947934 51.1541456 337.082653 78.378232"></polygon>
                <polygon id="Shape" fill="#979797" points="333.835501 92.8592649 240.70291 65.6458279 241.820783 61.80353 334.951244 89.0233567"></polygon>
                <polygon id="Shape" fill="#979797" points="329.572682 101.376643 236.44435 74.1632056 237.564351 70.3230376 330.694812 97.5386044"></polygon>
                <polygon id="Shape" fill="#3F91C3" points="327.449789 112.028157 234.31507 84.81259 235.435071 80.972422 328.574049 108.190119"></polygon>
                <polygon id="Shape" fill="#3F91C3" points="325.31625 120.549794 232.185789 93.3363573 233.301532 89.4919296 326.434122 116.711756"></polygon>
                <polygon id="Shape" fill="#3F91C3" points="321.059819 131.197049 227.927229 103.985742 229.04723 100.141314 322.177691 127.361141"></polygon>
                <polygon id="Shape" fill="#3F91C3" points="318.932668 139.716556 225.797948 112.49673 226.922208 108.660822 320.052669 135.874259"></polygon>
                <polygon id="Shape" fill="#3F91C3" points="316.805517 150.363811 223.668668 123.146114 224.797187 119.310206 317.92126 146.527903"></polygon>
                <polygon id="Shape" fill="#3F91C3" points="312.53631 158.887578 219.410108 131.667752 220.523721 127.829714 313.656311 155.04528"></polygon>
                <polygon id="Shape" fill="#3F91C3" points="310.409159 167.404956 217.280827 140.187259 218.400829 136.349221 311.52916 163.569048"></polygon>
                <polygon id="Shape" fill="#979797" points="338.089803 73.6946327 244.961471 46.4790658 246.081472 42.634638 339.211933 69.8587244"></polygon>
                <polygon id="Shape" stroke="#979797" stroke-width="2.96511628" fill="#FFFFFF" points="295.668152 189.632351 176.824502 174.273809 196.307416 23.465746 315.142549 38.8264182"></polygon>
                <polygon id="Shape" fill="#979797" points="227.644034 40.800814 206.634426 38.085221 207.149712 34.1151305 228.152932 36.8349833"></polygon>
                <polygon id="Shape" fill="#979797" points="301.91546 51.2095224 266.254274 46.5983389 266.765301 42.634638 302.430746 47.2436916"></polygon>
                <polygon id="Shape" fill="#979797" points="300.735839 61.164567 204.505146 48.7324756 205.014044 44.7645149 301.242607 57.2008661"></polygon>
                <polygon id="Shape" fill="#979797" points="300.729451 71.8182111 204.505146 59.3776002 205.018302 55.4138994 301.242607 67.8502505"></polygon>
                <polygon id="Shape" fill="#E3E2E2" points="298.604429 80.3355888 202.375865 67.9013676 202.884763 63.9334069 299.115456 76.3697581"></polygon>
                <polygon id="Shape" fill="#E3E2E2" points="296.47302 90.989233 200.246585 78.550752 200.759742 74.5827913 296.990435 87.0212724"></polygon>
                <polygon id="Shape" fill="#E3E2E2" points="296.47302 99.5023509 200.246585 87.0659998 200.757612 83.1022989 296.984047 95.5386501"></polygon>
                <polygon id="Shape" fill="#E3E2E2" points="294.34161 110.155995 198.117305 97.7175141 198.63472 93.7516833 294.861154 106.190164"></polygon>
                <polygon id="Shape" fill="#E3E2E2" points="294.339481 120.79899 198.117305 108.362639 198.632591 104.401068 294.854767 116.835289"></polygon>
                <polygon id="Shape" fill="#E3E2E2" points="292.208071 129.322757 195.988024 116.886406 196.501181 112.920575 292.729745 125.359056"></polygon>
                <polygon id="Shape" fill="#E3E2E2" points="290.083049 139.972142 193.858744 127.533661 194.371901 123.56996 290.600465 136.006311"></polygon>
                <polygon id="Shape" fill="#E3E2E2" points="290.078791 148.491649 193.858744 136.055298 194.369771 132.089467 290.596206 144.521559"></polygon>
                <polygon id="Shape" fill="#E3E2E2" points="287.955898 159.147423 191.729464 146.708942 192.240491 142.738852 288.466926 155.177333"></polygon>
                <polygon id="Shape" fill="#E3E2E2" points="287.95164 169.790418 191.729464 157.349807 192.240491 153.388236 288.466926 165.826717"></polygon>
                <polygon id="Shape" fill="#E3E2E2" points="285.82236 178.305666 189.600184 165.869315 190.11334 161.907744 286.339775 174.341965"></polygon>
                <polygon id="Shape" fill="#979797" points="298.604429 80.3355888 202.375865 67.9013676 202.884763 63.9334069 299.115456 76.3697581"></polygon>
                <path d="M314.190761,82.3461926 L228.934378,82.3461926 L216.337556,69.7437111 L216.309875,69.7884385 C214.252991,67.5222495 211.323101,66.0632838 208.039751,66.0632838 L162.477411,66.0632838 C156.315274,66.0632838 151.273138,71.1068323 151.273138,77.2685661 L151.273138,93.5536048 L151.273138,179.519696 L151.273138,195.806864 C151.273138,201.972858 156.319533,207.014277 162.477411,207.014277 L314.190761,207.014277 C320.34651,207.014277 325.392904,201.972858 325.392904,195.806864 L325.392904,93.5536048 C325.392904,87.3876112 320.34651,82.3461926 314.190761,82.3461926" id="Shape" stroke="#979797" stroke-width="2.96511628" fill="#FFFFFF"></path>
                <path d="M333.09664,224.238591 C333.09664,231.397107 327.230473,237.256398 320.071833,237.256398 L157.034971,237.256398 C149.874201,237.256398 144.014422,231.397107 144.014422,224.238591 L134.238896,121.689278 C134.238896,114.528632 140.102934,108.660822 147.261574,108.660822 L329.836712,108.660822 C337.00387,108.660822 342.863649,114.528632 342.863649,121.689278 L333.09664,224.238591 Z" id="Shape" stroke="#979797" stroke-width="2.96511628" fill="#FFFFFF"></path>
                <polygon id="Shape" stroke="#979797" stroke-width="2.96511628" fill="#FFFFFF" points="151.273138 107.583104 325.390775 107.583104 325.390775 98.0114371 151.273138 98.0114371"></polygon>
            </g>
        </g>
    </g>
</svg>