<?xml version="1.0" encoding="UTF-8"?>
<svg width="433px" height="215px" viewBox="0 0 433 215" version="1.1" xmlns="http://www.w3.org/2000/svg" xmlns:xlink="http://www.w3.org/1999/xlink">
    <!-- Generator: sketchtool 39.1 (31720) - http://www.bohemiancoding.com/sketch -->
    <title>08A5EE30-9F1D-4ABF-82B2-C93351317F81</title>
    <desc>Created with sketchtool.</desc>
    <defs></defs>
    <g id="ClassDig-Web-Teachers" stroke="none" stroke-width="1" fill="none" fill-rule="evenodd">
        <g id="Icons-Resources" transform="translate(-1038.000000, -951.000000)">
            <g id="pools" transform="translate(1038.000000, 951.000000)">
                <g transform="translate(0.043353, 0.000000)" id="Shape">
                    <path d="M85.7695911,26.5384787 C85.5286708,26.5384787 85.2991394,26.397483 85.1983909,26.1610306 C85.0634755,25.8457608 85.2097799,25.481449 85.5251665,25.3474594 C86.3924796,24.9770173 87.3649217,24.8535367 88.2830471,24.9770173 C88.6220877,25.0216806 88.8612559,25.3343231 88.8157,25.6741139 C88.7701442,26.013029 88.4591379,26.2617418 88.1174691,26.2065696 C87.4174861,26.1128644 86.6745754,26.2065696 86.0131396,26.4876852 C85.9334169,26.5218394 85.851066,26.5384787 85.7695911,26.5384787 M91.8933476,29.1639756 C91.6419144,29.1639756 91.4053745,29.0098437 91.3125106,28.7602551 C91.0602013,28.0868037 90.629173,27.4939213 90.0658575,27.0429104 C89.7977789,26.8283517 89.7548512,26.4377675 89.9686133,26.1697881 C90.1832514,25.9026845 90.5731043,25.8597728 90.8420589,26.0734557 C91.5797132,26.6637108 92.1447808,27.4431279 92.4750607,28.3258834 C92.5950828,28.6464077 92.4321331,29.0037134 92.11149,29.1245669 C92.039652,29.1508394 91.9660618,29.1639756 91.8933476,29.1639756 M82.9871804,30.3602494 C82.9687828,30.3602494 82.9495092,30.3593736 82.9311117,30.3576221 C82.5894428,30.3269709 82.3380096,30.0248373 82.3677961,29.6841708 C82.4527753,28.7427401 82.7918159,27.8424696 83.3489989,27.0788161 C83.551372,26.8038308 83.9385966,26.7416525 84.2171881,26.9439507 C84.4931514,27.1453731 84.5544766,27.5342058 84.3521035,27.8109427 C83.9272077,28.3924403 83.669642,29.0781522 83.6048125,29.795391 C83.575902,30.1176668 83.3051952,30.3602494 82.9871804,30.3602494 M91.5324052,33.140754 C91.423772,33.140754 91.3133867,33.1118543 91.2135143,33.0523033 C90.9191535,32.8762776 90.8236614,32.4953266 90.9997523,32.2010748 C91.3685794,31.5862987 91.5639438,30.8786931 91.5639438,30.1570755 C91.5639438,29.8137817 91.8416593,29.5361691 92.1842042,29.5361691 C92.5276251,29.5361691 92.8053406,29.8137817 92.8053406,30.1570755 C92.8053406,31.1037607 92.549527,32.0303036 92.0650581,32.8386204 C91.9485403,33.0330368 91.7426629,33.140754 91.5324052,33.140754 M85.0345651,34.6207706 C84.9162951,34.6207706 84.7980251,34.5874921 84.6920202,34.5174322 C83.9035537,33.9954855 83.2710283,33.2703649 82.8627779,32.4226394 C82.7138453,32.1134998 82.8435043,31.7421821 83.1527584,31.5933047 C83.4628885,31.4444272 83.8325917,31.5757897 83.9815243,31.8831777 C84.2925305,32.5312323 84.7761233,33.084706 85.3779861,33.483172 C85.6635861,33.6714582 85.7424328,34.0576637 85.5523248,34.343158 C85.4331787,34.5235624 85.2360621,34.6207706 85.0345651,34.6207706 M87.5760555,35.3844242 L87.344772,35.3791697 C87.0022271,35.3660334 86.7350245,35.0779118 86.7472896,34.7354938 C86.7595546,34.4009575 87.0346418,34.1382326 87.3675499,34.1382326 C87.3754345,34.1382326 87.3833192,34.1382326 87.3912039,34.1391084 L87.5760555,34.1426114 C88.2357391,34.1426114 88.8884142,33.9788462 89.4648708,33.6688309 C89.7662402,33.5068173 90.1438281,33.6180375 90.3059017,33.9210468 C90.4679754,34.2223046 90.3549619,34.5988769 90.0535924,34.7617663 C89.2966646,35.168114 88.4398643,35.3844242 87.5760555,35.3844242" fill="#606060"></path>
                    <path d="M19.4677053,185.758054 C19.226785,185.758054 18.9972536,185.617058 18.8965051,185.380605 C18.7615897,185.065336 18.9078941,184.701024 19.2232807,184.567034 C20.0905938,184.196592 21.0621598,184.073112 21.9811613,184.196592 C22.3202019,184.242131 22.5593701,184.553898 22.5138142,184.893689 C22.4682584,185.23348 22.1598804,185.474311 21.8155833,185.426144 C21.1138482,185.331564 20.3718136,185.426144 19.7112538,185.70726 C19.6315311,185.741414 19.5491802,185.758054 19.4677053,185.758054 M25.5923379,188.38355 C25.3409047,188.38355 25.1043648,188.229419 25.0115009,187.97983 C24.7591916,187.307254 24.3281633,186.713496 23.7648478,186.262485 C23.4967692,186.047927 23.4538415,185.657342 23.6676036,185.389363 C23.8822417,185.122259 24.2729706,185.079348 24.5401732,185.293031 C25.2787035,185.884161 25.8437711,186.662703 26.174051,187.545458 C26.2940731,187.865982 26.1311234,188.223288 25.8104803,188.344142 C25.7386423,188.370414 25.6650521,188.38355 25.5923379,188.38355 M16.6852946,189.578948 C16.6668971,189.578948 16.6476234,189.578073 16.6292259,189.576321 C16.2875571,189.54567 16.0361239,189.243536 16.0659104,188.90287 C16.1508895,187.962315 16.4899301,187.061169 17.0471131,186.297515 C17.2494862,186.02253 17.6367109,185.960352 17.9144263,186.16265 C18.1921417,186.364072 18.2525908,186.752905 18.0502177,187.029642 C17.6253219,187.611139 17.3668801,188.296851 17.3029267,189.01409 C17.2740163,189.336366 17.0033094,189.578948 16.6852946,189.578948 M25.2305194,192.360329 C25.1218862,192.360329 25.0115009,192.332305 24.9116285,192.271878 C24.6172677,192.095852 24.5217756,191.714901 24.6978665,191.42065 C25.0666936,190.804998 25.2620581,190.097392 25.2620581,189.375775 C25.2620581,189.032481 25.5397735,188.754868 25.8823184,188.754868 C26.2257393,188.754868 26.5034548,189.032481 26.5034548,189.375775 C26.5034548,190.321584 26.2476412,191.249003 25.7631723,192.058195 C25.6475306,192.252612 25.4407771,192.360329 25.2305194,192.360329 M18.7326793,193.840345 C18.6144093,193.840345 18.4961394,193.806191 18.3901344,193.736131 C17.6016679,193.214185 16.9691426,192.48994 16.5608921,191.641338 C16.4119596,191.332199 16.5416185,190.960881 16.8508726,190.812004 C17.1610027,190.664002 17.5307059,190.793613 17.6796385,191.102753 C17.9906447,191.749931 18.4742375,192.303405 19.0761003,192.701871 C19.3617004,192.891033 19.440547,193.276363 19.250439,193.561857 C19.1312929,193.742261 18.9341763,193.840345 18.7326793,193.840345 M21.2750458,194.603123 L21.0428862,194.597869 C20.7003413,194.584732 20.4331387,194.296611 20.4454038,193.954193 C20.4585449,193.611775 20.744145,193.327156 21.0893181,193.357807 L21.2750458,193.36131 C21.9338533,193.36131 22.5865284,193.197545 23.162985,192.88753 C23.4643544,192.725516 23.8410662,192.836737 24.0040159,193.139746 C24.1660896,193.441004 24.0530761,193.817576 23.7517067,193.980465 C22.9947788,194.387689 22.1388546,194.603123 21.2750458,194.603123" fill="#606060"></path>
                    <path d="M391.032518,166.672057 C390.791597,166.672057 390.562066,166.531061 390.461318,166.294609 C390.326402,165.979339 390.472706,165.615027 390.788093,165.481038 C391.655406,165.110596 392.628724,164.987991 393.545974,165.110596 C393.885014,165.156135 394.124182,165.467901 394.078627,165.807692 C394.033071,166.147483 393.722941,166.38919 393.380396,166.340148 C392.681289,166.246443 391.937502,166.340148 391.276066,166.621263 C391.196344,166.655418 391.113993,166.672057 391.032518,166.672057 M397.156274,169.297554 C396.904841,169.297554 396.668301,169.143422 396.575437,168.893833 C396.323128,168.221258 395.8921,167.6275 395.328784,167.176489 C395.060705,166.96193 395.017778,166.571346 395.23154,166.303366 C395.446178,166.035387 395.836031,165.992475 396.104109,166.207034 C396.84264,166.798165 397.407707,167.576706 397.737987,168.459462 C397.858009,168.779986 397.69506,169.137292 397.374417,169.258145 C397.302579,169.284418 397.228988,169.297554 397.156274,169.297554 M388.250107,170.493828 C388.231709,170.493828 388.212436,170.492952 388.194038,170.4912 C387.852369,170.460549 387.600936,170.158416 387.630723,169.817749 C387.715702,168.877194 388.054743,167.976048 388.611926,167.212394 C388.814299,166.937409 389.202399,166.875231 389.480115,167.077529 C389.756078,167.278951 389.817403,167.667784 389.61503,167.944521 C389.190134,168.526019 388.932569,169.21173 388.867739,169.928969 C388.838829,170.251245 388.568122,170.493828 388.250107,170.493828 M396.795332,173.274332 C396.686699,173.274332 396.576313,173.245433 396.476441,173.186757 C396.18208,173.009856 396.086588,172.628905 396.262679,172.334653 C396.631506,171.719877 396.82687,171.012271 396.82687,170.290654 C396.82687,169.94736 397.104586,169.669747 397.447131,169.669747 C397.790552,169.669747 398.068267,169.94736 398.068267,170.290654 C398.068267,171.237339 397.812454,172.163882 397.327985,172.972199 C397.211467,173.166615 397.00559,173.274332 396.795332,173.274332 M390.297492,174.755225 C390.179222,174.755225 390.060952,174.72107 389.954947,174.65101 C389.16648,174.129064 388.533955,173.403943 388.125704,172.556218 C387.976772,172.247078 388.106431,171.87576 388.415685,171.727759 C388.724939,171.578006 389.095518,171.709368 389.244451,172.017632 C389.555457,172.664811 390.03905,173.218284 390.640913,173.61675 C390.926513,173.805912 391.005359,174.191242 390.815251,174.476736 C390.696105,174.657141 390.498989,174.755225 390.297492,174.755225 M392.838982,175.518002 L392.607699,175.512748 C392.265154,175.499612 391.997951,175.21149 392.010216,174.869072 C392.022481,174.535412 392.297568,174.271811 392.630476,174.271811 C392.638361,174.271811 392.646246,174.271811 392.65413,174.272687 L392.838982,174.27619 C393.498666,174.27619 394.151341,174.112425 394.727797,173.802409 C395.028291,173.640396 395.405879,173.751616 395.568828,174.054625 C395.730902,174.355883 395.617888,174.732455 395.316519,174.895345 C394.559591,175.302568 393.702791,175.518002 392.838982,175.518002" fill="#606060"></path>
                    <path d="M324.331259,183.372862 C324.090339,183.372862 323.860807,183.231867 323.760059,182.995414 C323.625143,182.680144 323.771448,182.315833 324.086834,182.181843 C324.954148,181.810525 325.927466,181.687044 326.844715,181.811401 C327.184632,181.85694 327.422924,182.168707 327.377368,182.508497 C327.331812,182.848288 327.025186,183.097877 326.680013,183.040953 C325.980906,182.948999 325.236243,183.041829 324.574808,183.322069 C324.495085,183.356223 324.412734,183.372862 324.331259,183.372862 M330.455892,185.998359 C330.204458,185.998359 329.967918,185.844227 329.875055,185.594639 C329.622745,184.922063 329.191717,184.328305 328.628401,183.877294 C328.360323,183.662735 328.317395,183.272151 328.532033,183.004172 C328.745795,182.737068 329.135648,182.694156 329.404603,182.907839 C330.142257,183.49897 330.707325,184.277511 331.037605,185.160267 C331.157627,185.480791 330.994677,185.838097 330.674034,185.95895 C330.602196,185.985223 330.528606,185.998359 330.455892,185.998359 M321.548848,187.193757 C321.530451,187.193757 321.511177,187.192881 321.49278,187.19113 C321.151111,187.160479 320.899678,186.858345 320.929464,186.517679 C321.014443,185.577999 321.353484,184.675977 321.909791,183.912324 C322.112164,183.637339 322.501141,183.57516 322.77798,183.777458 C323.054819,183.978881 323.115268,184.367714 322.913771,184.64445 C322.489752,185.225948 322.23131,185.91166 322.16648,186.628899 C322.13757,186.951175 321.866863,187.193757 321.548848,187.193757 M330.094073,189.975138 C329.98544,189.975138 329.875055,189.947114 329.775182,189.886687 C329.480821,189.710661 329.385329,189.32971 329.56142,189.035458 C329.930247,188.419806 330.125612,187.712201 330.125612,186.990583 C330.125612,186.64729 330.403327,186.369677 330.745872,186.369677 C331.089293,186.369677 331.367008,186.64729 331.367008,186.990583 C331.367008,187.936393 331.111195,188.863811 330.626726,189.673004 C330.511084,189.86742 330.304331,189.975138 330.094073,189.975138 M323.597109,191.455154 C323.478839,191.455154 323.359693,191.421 323.254564,191.35094 C322.466098,190.829869 321.833572,190.103873 321.424446,189.256147 C321.275513,188.947008 321.405172,188.57569 321.714426,188.426812 C322.022804,188.278811 322.39426,188.408422 322.543192,188.716686 C322.855074,189.36474 323.338667,189.918214 323.94053,190.31668 C324.22613,190.505842 324.304101,190.891171 324.114869,191.176666 C323.995723,191.35707 323.79773,191.455154 323.597109,191.455154 M326.138599,192.217932 L325.90644,192.212677 C325.563895,192.199541 325.296692,191.91142 325.308957,191.569002 C325.321223,191.234465 325.59631,190.97174 325.929218,190.97174 C325.937102,190.97174 325.944987,190.97174 325.952872,190.972616 L326.138599,190.976119 C326.797407,190.976119 327.450082,190.812354 328.026539,190.502339 C328.327908,190.340325 328.70462,190.451545 328.86757,190.754555 C329.029643,191.055812 328.91663,191.432385 328.61526,191.595274 C327.858333,192.002498 327.002408,192.217932 326.138599,192.217932" fill="#606060"></path>
                    <path d="M41.3725314,138.185415 C41.1316111,138.185415 40.9020797,138.04442 40.8013312,137.807967 C40.6664158,137.492697 40.8127202,137.128386 41.1281068,136.994396 C41.9954199,136.623954 42.9678619,136.502225 43.8859874,136.623954 C44.225028,136.669493 44.4641962,136.98126 44.4186403,137.321926 C44.3730845,137.660841 44.0612022,137.908678 43.7204094,137.853506 C43.0204264,137.760677 42.2775157,137.853506 41.6160799,138.134622 C41.5363572,138.168776 41.4540063,138.185415 41.3725314,138.185415 M47.4962879,140.810912 C47.2448547,140.810912 47.0083148,140.65678 46.9154509,140.407192 C46.6631416,139.734616 46.2321133,139.140858 45.6687978,138.689847 C45.4007192,138.475288 45.3577915,138.084704 45.5724296,137.816725 C45.7861917,137.548745 46.1769206,137.506709 46.4449992,137.720392 C47.1826535,138.311523 47.7477211,139.090064 48.078001,139.97282 C48.1980231,140.293344 48.0350734,140.65065 47.7144303,140.771503 C47.6425923,140.797776 47.5690021,140.810912 47.4962879,140.810912 M38.5901207,142.007186 C38.5717231,142.007186 38.5524495,142.00631 38.534052,142.004559 C38.1923831,141.973907 37.9409499,141.671774 37.9707364,141.331107 C38.0557156,140.390552 38.3947562,139.489406 38.9519392,138.725753 C39.1543123,138.450767 39.5415369,138.388589 39.8201284,138.590887 C40.0969678,138.79231 40.1574169,139.181142 39.9550438,139.457879 C39.530148,140.039377 39.2725823,140.725089 39.2077528,141.442327 C39.1788423,141.764603 38.9081355,142.007186 38.5901207,142.007186 M47.1353455,144.78769 C47.0267123,144.78769 46.916327,144.758791 46.8164546,144.700116 C46.5220937,144.523214 46.4266017,144.142263 46.6026925,143.848011 C46.9715197,143.233235 47.1668841,142.52563 47.1668841,141.804012 C47.1668841,141.460718 47.4445996,141.183106 47.7871445,141.183106 C48.1305654,141.183106 48.4082808,141.460718 48.4082808,141.804012 C48.4082808,142.750697 48.1524673,143.678116 47.6679984,144.485557 C47.5514806,144.679973 47.3456032,144.78769 47.1353455,144.78769 M40.6375054,146.268583 C40.5192354,146.268583 40.4009654,146.234429 40.2949605,146.164369 C39.506494,145.642422 38.8739686,144.918177 38.4657182,144.069576 C38.3167856,143.760436 38.4464446,143.389119 38.7556987,143.240241 C39.0649527,143.091364 39.435532,143.222726 39.5844646,143.53099 C39.8954708,144.178169 40.3790636,144.731643 40.9809264,145.130109 C41.2665264,145.31927 41.3453731,145.7046 41.1561411,145.990095 C41.036119,146.170499 40.8390024,146.268583 40.6375054,146.268583 M43.1789958,147.031361 L42.9477122,147.026106 C42.6051674,147.01297 42.3379648,146.724848 42.3502299,146.38243 C42.3624949,146.040888 42.6419625,145.7335 42.9941442,145.786045 L43.1789958,145.789548 C43.8386794,145.789548 44.4913545,145.625783 45.0678111,145.315767 C45.3691805,145.153754 45.7458923,145.264974 45.908842,145.567983 C46.0709157,145.869241 45.9579022,146.245813 45.6565327,146.408703 C44.8996049,146.815926 44.0428046,147.031361 43.1789958,147.031361" fill="#606060"></path>
                    <path d="M7.71342183,164.484347 C4.51049566,164.484347 1.90505189,167.088826 1.90505189,170.290566 C1.90505189,173.491431 4.51049566,176.09591 7.71342183,176.09591 L44.052091,176.09591 C47.2541411,176.09591 49.8604609,173.491431 49.8604609,170.290566 C49.8604609,167.088826 47.2541411,164.484347 44.052091,164.484347 L7.71342183,164.484347 Z M44.052091,177.337722 L7.71342183,177.337722 C3.82628195,177.337722 0.663655179,174.175391 0.663655179,170.290566 C0.663655179,166.40399 3.82628195,163.242534 7.71342183,163.242534 L44.052091,163.242534 C47.9392309,163.242534 51.1018577,166.40399 51.1018577,170.290566 C51.1018577,174.175391 47.9392309,177.337722 44.052091,177.337722 L44.052091,177.337722 Z" fill="#606060"></path>
                    <path d="M59.1459682,186.108704 C57.022365,186.108704 55.2947473,187.835682 55.2947473,189.958498 C55.2947473,192.082191 57.022365,193.809169 59.1459682,193.809169 L91.0122801,193.809169 C93.1358832,193.809169 94.863501,192.082191 94.863501,189.958498 C94.863501,187.835682 93.1358832,186.108704 91.0122801,186.108704 L59.1459682,186.108704 Z M91.0122801,195.050982 L59.1459682,195.050982 C56.3372753,195.050982 54.0524745,192.767027 54.0524745,189.958498 C54.0524745,187.151721 56.3372753,184.866891 59.1459682,184.866891 L91.0122801,184.866891 C93.820973,184.866891 96.1057737,187.151721 96.1057737,189.958498 C96.1057737,192.767027 93.820973,195.050982 91.0122801,195.050982 L91.0122801,195.050982 Z" fill="#606060"></path>
                    <path d="M361.108637,205.903707 C358.985034,205.903707 357.25654,207.630685 357.25654,209.753502 C357.25654,211.876318 358.985034,213.603296 361.108637,213.603296 L392.974949,213.603296 C395.098552,213.603296 396.827046,211.876318 396.827046,209.753502 C396.827046,207.630685 395.098552,205.903707 392.974949,205.903707 L361.108637,205.903707 Z M392.974949,214.845109 L361.108637,214.845109 C358.299944,214.845109 356.016019,212.561154 356.016019,209.753502 C356.016019,206.946725 358.299944,204.661894 361.108637,204.661894 L392.974949,204.661894 C395.783642,204.661894 398.068442,206.946725 398.068442,209.753502 C398.068442,212.561154 395.783642,214.845109 392.974949,214.845109 L392.974949,214.845109 Z" fill="#606060"></path>
                    <path d="M325.271286,26.5752601 C323.272086,26.5752601 321.646093,28.2006512 321.646093,30.1991115 C321.646093,32.196696 323.272086,33.8220871 325.271286,33.8220871 L377.602684,33.8220871 C379.601885,33.8220871 381.227878,32.196696 381.227878,30.1991115 C381.227878,28.2006512 379.601885,26.5752601 377.602684,26.5752601 L325.271286,26.5752601 Z M377.602684,35.0638998 L325.271286,35.0638998 C322.587872,35.0638998 320.404696,32.8815321 320.404696,30.1991115 C320.404696,27.5158151 322.587872,25.3334474 325.271286,25.3334474 L377.602684,25.3334474 C380.286099,25.3334474 382.469275,27.5158151 382.469275,30.1991115 C382.469275,32.8815321 380.286099,35.0638998 377.602684,35.0638998 L377.602684,35.0638998 Z" fill="#606060"></path>
                    <path d="M51.2091767,44.3014805 C49.6646584,44.3014805 48.4083685,45.558181 48.4083685,47.1012516 C48.4083685,48.6451979 49.6646584,49.9018984 51.2091767,49.9018984 L77.6289372,49.9018984 C79.1734555,49.9018984 80.4297455,48.6451979 80.4297455,47.1012516 C80.4297455,45.558181 79.1734555,44.3014805 77.6289372,44.3014805 L51.2091767,44.3014805 Z M77.6289372,51.1428354 L51.2091767,51.1428354 C48.9795686,51.1428354 47.1669717,49.330034 47.1669717,47.1012516 C47.1669717,44.8724692 48.9795686,43.0596677 51.2091767,43.0596677 L77.6289372,43.0596677 C79.8576692,43.0596677 81.6711422,44.8724692 81.6711422,47.1012516 C81.6711422,49.330034 79.8576692,51.1428354 77.6289372,51.1428354 L77.6289372,51.1428354 Z" fill="#606060"></path>
                    <path d="M110.313765,53.6584258 L93.1926528,53.6584258 C92.8492319,53.6584258 92.5723925,53.3808132 92.5723925,53.0375194 C92.5723925,52.6951014 92.8492319,52.416613 93.1926528,52.416613 L110.313765,52.416613 C110.657186,52.416613 110.934025,52.6951014 110.934025,53.0375194 C110.934025,53.3808132 110.657186,53.6584258 110.313765,53.6584258" fill="#606060"></path>
                    <path d="M340.405872,168.792159 L312.173514,168.792159 C311.830969,168.792159 311.553254,168.514546 311.553254,168.171252 C311.553254,167.827959 311.830969,167.550346 312.173514,167.550346 L340.405872,167.550346 C340.749293,167.550346 341.027008,167.827959 341.027008,168.171252 C341.027008,168.514546 340.749293,168.792159 340.405872,168.792159" fill="#606060"></path>
                    <path d="M110.313765,198.74209 L101.753647,198.74209 C101.410226,198.74209 101.132511,198.464478 101.132511,198.121184 C101.132511,197.77789 101.410226,197.500278 101.753647,197.500278 L110.313765,197.500278 C110.657186,197.500278 110.934025,197.77789 110.934025,198.121184 C110.934025,198.464478 110.657186,198.74209 110.313765,198.74209" fill="#606060"></path>
                    <path d="M401.790384,38.9888339 L393.230266,38.9888339 C392.886845,38.9888339 392.609129,38.7112213 392.609129,38.3679275 C392.609129,38.0246337 392.886845,37.7470211 393.230266,37.7470211 L401.790384,37.7470211 C402.133805,37.7470211 402.410644,38.0246337 402.410644,38.3679275 C402.410644,38.7112213 402.133805,38.9888339 401.790384,38.9888339" fill="#606060"></path>
                    <path d="M346.573899,21.8629398 C346.230478,21.8629398 345.953639,21.5853272 345.953639,21.2420334 L345.953639,14.2360376 C345.953639,13.8927438 346.230478,13.6151312 346.573899,13.6151312 C346.91732,13.6151312 347.19416,13.8927438 347.19416,14.2360376 L347.19416,21.2420334 C347.19416,21.5853272 346.91732,21.8629398 346.573899,21.8629398" fill="#606060"></path>
                    <path d="M350.078195,18.3599419 L343.069604,18.3599419 C342.726183,18.3599419 342.449343,18.0823293 342.449343,17.7390355 C342.449343,17.3957417 342.726183,17.1181291 343.069604,17.1181291 L350.078195,17.1181291 C350.421616,17.1181291 350.698455,17.3957417 350.698455,17.7390355 C350.698455,18.0823293 350.421616,18.3599419 350.078195,18.3599419" fill="#606060"></path>
                    <path d="M64.4191446,176.537025 C64.0757236,176.537025 63.7980082,176.259412 63.7980082,175.916118 L63.7980082,168.910122 C63.7980082,168.567704 64.0757236,168.289216 64.4191446,168.289216 C64.7625655,168.289216 65.0394049,168.567704 65.0394049,168.910122 L65.0394049,175.916118 C65.0394049,176.259412 64.7625655,176.537025 64.4191446,176.537025" fill="#606060"></path>
                    <path d="M67.9234402,173.034027 L60.914849,173.034027 C60.571428,173.034027 60.2945887,172.756414 60.2945887,172.41312 C60.2945887,172.070702 60.571428,171.792214 60.914849,171.792214 L67.9234402,171.792214 C68.2668611,171.792214 68.5437005,172.070702 68.5437005,172.41312 C68.5437005,172.756414 68.2668611,173.034027 67.9234402,173.034027" fill="#606060"></path>
                    <path d="M39.9181611,42.4918318 C39.5747401,42.4918318 39.2970247,42.2142192 39.2970247,41.8709254 L39.2970247,34.8649296 C39.2970247,34.5216358 39.5747401,34.2440232 39.9181611,34.2440232 C40.2615821,34.2440232 40.5384214,34.5216358 40.5384214,34.8649296 L40.5384214,41.8709254 C40.5384214,42.2142192 40.2615821,42.4918318 39.9181611,42.4918318" fill="#606060"></path>
                    <path d="M43.4224567,38.9888339 L36.4138655,38.9888339 C36.0704446,38.9888339 35.7927291,38.7112213 35.7927291,38.3679275 C35.7927291,38.0246337 36.0704446,37.7470211 36.4138655,37.7470211 L43.4224567,37.7470211 C43.7658777,37.7470211 44.042717,38.0246337 44.042717,38.3679275 C44.042717,38.7112213 43.7658777,38.9888339 43.4224567,38.9888339" fill="#606060"></path>
                    <path d="M13.1619882,122.33724 C12.8185672,122.33724 12.5417279,122.059627 12.5417279,121.716333 L12.5417279,114.710337 C12.5417279,114.367044 12.8185672,114.089431 13.1619882,114.089431 C13.5054092,114.089431 13.7822485,114.367044 13.7822485,114.710337 L13.7822485,121.716333 C13.7822485,122.059627 13.5054092,122.33724 13.1619882,122.33724" fill="#606060"></path>
                    <path d="M16.6662838,118.834242 L9.65769263,118.834242 C9.31427166,118.834242 9.03743231,118.556629 9.03743231,118.213335 C9.03743231,117.870041 9.31427166,117.592429 9.65769263,117.592429 L16.6662838,117.592429 C17.0097048,117.592429 17.2865441,117.870041 17.2865441,118.213335 C17.2865441,118.556629 17.0097048,118.834242 16.6662838,118.834242" fill="#606060"></path>
                    <path d="M346.629939,153.674358 C346.286518,153.674358 346.009678,153.396746 346.009678,153.053452 L346.009678,146.047456 C346.009678,145.704162 346.286518,145.42655 346.629939,145.42655 C346.97336,145.42655 347.250199,145.704162 347.250199,146.047456 L347.250199,153.053452 C347.250199,153.396746 346.97336,153.674358 346.629939,153.674358" fill="#606060"></path>
                    <path d="M350.134234,150.17136 L343.125643,150.17136 C342.782222,150.17136 342.505383,149.893748 342.505383,149.550454 C342.505383,149.20716 342.782222,148.929548 343.125643,148.929548 L350.134234,148.929548 C350.477655,148.929548 350.754495,149.20716 350.754495,149.550454 C350.754495,149.893748 350.477655,150.17136 350.134234,150.17136" fill="#606060"></path>
                    <path d="M346.629939,212.145173 C346.286518,212.145173 346.009678,211.867561 346.009678,211.524267 L346.009678,204.518271 C346.009678,204.174977 346.286518,203.897365 346.629939,203.897365 C346.97336,203.897365 347.250199,204.174977 347.250199,204.518271 L347.250199,211.524267 C347.250199,211.867561 346.97336,212.145173 346.629939,212.145173" fill="#606060"></path>
                    <path d="M350.134234,208.642176 L343.125643,208.642176 C342.782222,208.642176 342.505383,208.364563 342.505383,208.021269 C342.505383,207.677975 342.782222,207.400363 343.125643,207.400363 L350.134234,207.400363 C350.477655,207.400363 350.754495,207.677975 350.754495,208.021269 C350.754495,208.364563 350.477655,208.642176 350.134234,208.642176" fill="#606060"></path>
                    <path d="M320.791395,69.4459119 C320.447974,69.4459119 320.171135,69.1682994 320.171135,68.8250056 L320.171135,61.8190097 C320.171135,61.4757159 320.447974,61.1981034 320.791395,61.1981034 C321.134816,61.1981034 321.411655,61.4757159 321.411655,61.8190097 L321.411655,68.8250056 C321.411655,69.1682994 321.134816,69.4459119 320.791395,69.4459119" fill="#606060"></path>
                    <path d="M324.29569,65.942914 L317.287099,65.942914 C316.943678,65.942914 316.666839,65.6653014 316.666839,65.3220077 C316.666839,64.9787139 316.943678,64.7011013 317.287099,64.7011013 L324.29569,64.7011013 C324.639111,64.7011013 324.915951,64.9787139 324.915951,65.3220077 C324.915951,65.6653014 324.639111,65.942914 324.29569,65.942914" fill="#606060"></path>
                    <path d="M42.401305,104.072258 L39.9185115,104.072258 C39.5750906,104.072258 39.2973751,103.794646 39.2973751,103.451352 C39.2973751,103.108058 39.5750906,102.830445 39.9185115,102.830445 L42.401305,102.830445 C42.7447259,102.830445 43.0215653,103.108058 43.0215653,103.451352 C43.0215653,103.794646 42.7447259,104.072258 42.401305,104.072258 M47.3677679,104.072258 L44.8849745,104.072258 C44.5415535,104.072258 44.2638381,103.794646 44.2638381,103.451352 C44.2638381,103.108058 44.5415535,102.830445 44.8849745,102.830445 L47.3677679,102.830445 C47.7111888,102.830445 47.9889043,103.108058 47.9889043,103.451352 C47.9889043,103.794646 47.7111888,104.072258 47.3677679,104.072258 M52.3351069,104.072258 L49.8514374,104.072258 C49.5080164,104.072258 49.2311771,103.794646 49.2311771,103.451352 C49.2311771,103.108058 49.5080164,102.830445 49.8514374,102.830445 L52.3351069,102.830445 C52.6776518,102.830445 52.9553672,103.108058 52.9553672,103.451352 C52.9553672,103.794646 52.6776518,104.072258 52.3351069,104.072258 M57.3015698,104.072258 L54.8179003,104.072258 C54.4753554,104.072258 54.19764,103.794646 54.19764,103.451352 C54.19764,103.108058 54.4753554,102.830445 54.8179003,102.830445 L57.3015698,102.830445 C57.6441147,102.830445 57.9218301,103.108058 57.9218301,103.451352 C57.9218301,103.794646 57.6441147,104.072258 57.3015698,104.072258 M61.0432814,104.072258 L59.7852393,104.072258 C59.4418183,104.072258 59.1641029,103.794646 59.1641029,103.451352 C59.1641029,103.108058 59.4418183,102.830445 59.7852393,102.830445 L61.0432814,102.830445 C61.3867024,102.830445 61.6644178,103.108058 61.6644178,103.451352 C61.6644178,103.794646 61.3867024,104.072258 61.0432814,104.072258" fill="#606060"></path>
                    <path d="M412.640968,99.792558 C412.400048,99.792558 412.170516,99.6515624 412.069768,99.41511 C411.934852,99.0998402 412.081157,98.7355284 412.396543,98.6015387 C413.263857,98.2310967 414.236299,98.1093675 415.154424,98.2310967 C415.493465,98.2766357 415.732633,98.5884025 415.687077,98.929069 C415.641521,99.2679841 415.329639,99.5158212 414.988846,99.460649 C414.288863,99.3678195 413.545952,99.460649 412.884517,99.7417646 C412.804794,99.7759188 412.722443,99.792558 412.640968,99.792558 M418.764725,102.418055 C418.513291,102.418055 418.276751,102.263923 418.183888,102.014334 C417.931578,101.341759 417.50055,100.748001 416.937234,100.29699 C416.669156,100.082431 416.626228,99.6918468 416.840866,99.4238675 C417.054628,99.1558882 417.445357,99.1138522 417.713436,99.3275351 C418.45109,99.918666 419.016158,100.697207 419.346438,101.579963 C419.46646,101.900487 419.30351,102.257793 418.982867,102.378646 C418.911029,102.404919 418.837439,102.418055 418.764725,102.418055 M409.858557,103.614329 C409.84016,103.614329 409.820886,103.613453 409.802489,103.611702 C409.46082,103.58105 409.209387,103.278917 409.239173,102.93825 C409.324152,101.997695 409.663193,101.096549 410.220376,100.332895 C410.422749,100.05791 410.809974,99.9957319 411.088565,100.19803 C411.365404,100.399452 411.425853,100.788285 411.22348,101.065022 C410.798585,101.64652 410.541019,102.332232 410.476189,103.04947 C410.447279,103.371746 410.176572,103.614329 409.858557,103.614329 M418.403782,106.394833 C418.295149,106.394833 418.184764,106.365934 418.084891,106.307258 C417.79053,106.130357 417.695038,105.749406 417.871129,105.455154 C418.239956,104.840378 418.435321,104.132772 418.435321,103.411155 C418.435321,103.067861 418.713036,102.790248 419.055581,102.790248 C419.399002,102.790248 419.676717,103.067861 419.676717,103.411155 C419.676717,104.35784 419.420904,105.285259 418.936435,106.0927 C418.819917,106.287116 418.61404,106.394833 418.403782,106.394833 M411.905942,107.875726 C411.787672,107.875726 411.669402,107.841571 411.563397,107.771512 C410.774931,107.249565 410.142405,106.52532 409.734155,105.676719 C409.585222,105.367579 409.714881,104.996261 410.024135,104.847384 C410.333389,104.698507 410.703969,104.829869 410.852901,105.138133 C411.163907,105.785312 411.6475,106.338785 412.249363,106.737251 C412.534963,106.926413 412.61381,107.311743 412.424578,107.597237 C412.304556,107.777642 412.107439,107.875726 411.905942,107.875726 M414.447432,108.638504 L414.216149,108.633249 C413.873604,108.620113 413.606401,108.331991 413.618666,107.989573 C413.630931,107.648031 413.910399,107.340643 414.262581,107.393188 L414.447432,107.396691 C415.107116,107.396691 415.759791,107.232926 416.336248,106.92291 C416.637617,106.760897 417.014329,106.872117 417.177279,107.175126 C417.339352,107.476384 417.226339,107.852956 416.924969,108.015846 C416.168041,108.423069 415.311241,108.638504 414.447432,108.638504" fill="#606060"></path>
                    <path d="M378.981858,126.09149 C375.778932,126.09149 373.173488,128.695969 373.173488,131.897709 C373.173488,135.098573 375.778932,137.703052 378.981858,137.703052 L415.320528,137.703052 C418.522578,137.703052 421.128898,135.098573 421.128898,131.897709 C421.128898,128.695969 418.522578,126.09149 415.320528,126.09149 L378.981858,126.09149 Z M415.320528,138.944865 L378.981858,138.944865 C375.094719,138.944865 371.932092,135.782534 371.932092,131.897709 C371.932092,128.011133 375.094719,124.849677 378.981858,124.849677 L415.320528,124.849677 C419.207667,124.849677 422.370294,128.011133 422.370294,131.897709 C422.370294,135.782534 419.207667,138.944865 415.320528,138.944865 L415.320528,138.944865 Z" fill="#606060"></path>
                    <path d="M384.430425,83.9443824 C384.087004,83.9443824 383.810164,83.6667699 383.810164,83.3234761 L383.810164,76.3174802 C383.810164,75.9741864 384.087004,75.6965739 384.430425,75.6965739 C384.773846,75.6965739 385.050685,75.9741864 385.050685,76.3174802 L385.050685,83.3234761 C385.050685,83.6667699 384.773846,83.9443824 384.430425,83.9443824" fill="#606060"></path>
                    <path d="M387.93472,80.4413845 L380.926129,80.4413845 C380.582708,80.4413845 380.305869,80.1637719 380.305869,79.8204781 C380.305869,79.4771844 380.582708,79.1995718 380.926129,79.1995718 L387.93472,79.1995718 C388.278141,79.1995718 388.554981,79.4771844 388.554981,79.8204781 C388.554981,80.1637719 388.278141,80.4413845 387.93472,80.4413845" fill="#606060"></path>
                    <path d="M413.669742,65.679401 L411.186948,65.679401 C410.843527,65.679401 410.565812,65.4017884 410.565812,65.0584946 C410.565812,64.7152008 410.843527,64.4375883 411.186948,64.4375883 L413.669742,64.4375883 C414.013163,64.4375883 414.290002,64.7152008 414.290002,65.0584946 C414.290002,65.4017884 414.013163,65.679401 413.669742,65.679401 M418.636204,65.679401 L416.153411,65.679401 C415.80999,65.679401 415.532275,65.4017884 415.532275,65.0584946 C415.532275,64.7152008 415.80999,64.4375883 416.153411,64.4375883 L418.636204,64.4375883 C418.979625,64.4375883 419.257341,64.7152008 419.257341,65.0584946 C419.257341,65.4017884 418.979625,65.679401 418.636204,65.679401 M423.603543,65.679401 L421.119874,65.679401 C420.776453,65.679401 420.499614,65.4017884 420.499614,65.0584946 C420.499614,64.7152008 420.776453,64.4375883 421.119874,64.4375883 L423.603543,64.4375883 C423.946088,64.4375883 424.223804,64.7152008 424.223804,65.0584946 C424.223804,65.4017884 423.946088,65.679401 423.603543,65.679401 M428.570006,65.679401 L426.086337,65.679401 C425.743792,65.679401 425.466077,65.4017884 425.466077,65.0584946 C425.466077,64.7152008 425.743792,64.4375883 426.086337,64.4375883 L428.570006,64.4375883 C428.912551,64.4375883 429.190267,64.7152008 429.190267,65.0584946 C429.190267,65.4017884 428.912551,65.679401 428.570006,65.679401 M432.311718,65.679401 L431.053676,65.679401 C430.710255,65.679401 430.432539,65.4017884 430.432539,65.0584946 C430.432539,64.7152008 430.710255,64.4375883 431.053676,64.4375883 L432.311718,64.4375883 C432.655139,64.4375883 432.932854,64.7152008 432.932854,65.0584946 C432.932854,65.4017884 432.655139,65.679401 432.311718,65.679401" fill="#606060"></path>
                    <path d="M303.242467,65.942914 L300.758797,65.942914 C300.416252,65.942914 300.138537,65.6653014 300.138537,65.3220077 C300.138537,64.9787139 300.416252,64.7011013 300.758797,64.7011013 L303.242467,64.7011013 C303.585888,64.7011013 303.862727,64.9787139 303.862727,65.3220077 C303.862727,65.6653014 303.585888,65.942914 303.242467,65.942914 M308.208929,65.942914 L305.726136,65.942914 C305.382715,65.942914 305.105,65.6653014 305.105,65.3220077 C305.105,64.9787139 305.382715,64.7011013 305.726136,64.7011013 L308.208929,64.7011013 C308.55235,64.7011013 308.830066,64.9787139 308.830066,65.3220077 C308.830066,65.6653014 308.55235,65.942914 308.208929,65.942914 M313.176268,65.942914 L310.692599,65.942914 C310.349178,65.942914 310.071463,65.6653014 310.071463,65.3220077 C310.071463,64.9787139 310.349178,64.7011013 310.692599,64.7011013 L313.176268,64.7011013 C313.518813,64.7011013 313.796529,64.9787139 313.796529,65.3220077 C313.796529,65.6653014 313.518813,65.942914 313.176268,65.942914 M318.142731,65.942914 L315.659062,65.942914 C315.316517,65.942914 315.038802,65.6653014 315.038802,65.3220077 C315.038802,64.9787139 315.316517,64.7011013 315.659062,64.7011013 L318.142731,64.7011013 C318.485276,64.7011013 318.762992,64.9787139 318.762992,65.3220077 C318.762992,65.6653014 318.485276,65.942914 318.142731,65.942914 M321.885319,65.942914 L320.626401,65.942914 C320.28298,65.942914 320.005265,65.6653014 320.005265,65.3220077 C320.005265,64.9787139 320.28298,64.7011013 320.626401,64.7011013 L321.885319,64.7011013 C322.227864,64.7011013 322.505579,64.9787139 322.505579,65.3220077 C322.505579,65.6653014 322.227864,65.942914 321.885319,65.942914" fill="#606060"></path>
                    <path d="M133.552414,208.642176 L131.06962,208.642176 C130.726199,208.642176 130.448484,208.364563 130.448484,208.021269 C130.448484,207.677975 130.726199,207.400363 131.06962,207.400363 L133.552414,207.400363 C133.895835,207.400363 134.17355,207.677975 134.17355,208.021269 C134.17355,208.364563 133.895835,208.642176 133.552414,208.642176 M138.518876,208.642176 L136.036083,208.642176 C135.692662,208.642176 135.414947,208.364563 135.414947,208.021269 C135.414947,207.677975 135.692662,207.400363 136.036083,207.400363 L138.518876,207.400363 C138.862297,207.400363 139.140013,207.677975 139.140013,208.021269 C139.140013,208.364563 138.862297,208.642176 138.518876,208.642176 M143.486215,208.642176 L141.002546,208.642176 C140.659125,208.642176 140.38141,208.364563 140.38141,208.021269 C140.38141,207.677975 140.659125,207.400363 141.002546,207.400363 L143.486215,207.400363 C143.82876,207.400363 144.106476,207.677975 144.106476,208.021269 C144.106476,208.364563 143.82876,208.642176 143.486215,208.642176 M148.452678,208.642176 L145.969009,208.642176 C145.626464,208.642176 145.348749,208.364563 145.348749,208.021269 C145.348749,207.677975 145.626464,207.400363 145.969009,207.400363 L148.452678,207.400363 C148.795223,207.400363 149.072939,207.677975 149.072939,208.021269 C149.072939,208.364563 148.795223,208.642176 148.452678,208.642176 M153.419141,208.642176 L150.936348,208.642176 C150.592927,208.642176 150.315212,208.364563 150.315212,208.021269 C150.315212,207.677975 150.592927,207.400363 150.936348,207.400363 L153.419141,207.400363 C153.762562,207.400363 154.040278,207.677975 154.040278,208.021269 C154.040278,208.364563 153.762562,208.642176 153.419141,208.642176 M158.38648,208.642176 L155.902811,208.642176 C155.560266,208.642176 155.282551,208.364563 155.282551,208.021269 C155.282551,207.677975 155.560266,207.400363 155.902811,207.400363 L158.38648,207.400363 C158.729025,207.400363 159.006741,207.677975 159.006741,208.021269 C159.006741,208.364563 158.729025,208.642176 158.38648,208.642176 M163.352943,208.642176 L160.869274,208.642176 C160.526729,208.642176 160.249013,208.364563 160.249013,208.021269 C160.249013,207.677975 160.526729,207.400363 160.869274,207.400363 L163.352943,207.400363 C163.696364,207.400363 163.97408,207.677975 163.97408,208.021269 C163.97408,208.364563 163.696364,208.642176 163.352943,208.642176" fill="#606060"></path>
                    <path d="M185.641697,27.4450902 L121.748153,27.4450902 C118.234261,27.4450902 115.880488,29.8670516 115.880488,33.3799649 L115.880488,77.034557 C115.880488,80.5479562 118.234261,83.7309112 121.748153,83.7309112 L162.724607,83.7309112 L174.621781,100.459648 L174.621781,83.7309112 L185.641697,83.7309112 C189.155103,83.7309112 191.7548,80.5479562 191.7548,77.034557 L191.7548,33.3799649 C191.7548,29.8670516 189.155103,27.4450902 185.641697,27.4450902" stroke="#606060" stroke-width="0.930000007" fill="#FFFFFF"></path>
                    <path d="M216.460718,62.9296929 L161.210475,62.9296929 C158.171906,62.9296929 155.040994,64.2592448 155.040994,67.2978734 L155.040994,105.046748 C155.040994,108.085376 158.171906,109.426105 161.210475,109.426105 L196.64538,109.426105 L206.440051,125.302976 L206.440051,109.426105 L216.460718,109.426105 C219.500259,109.426105 222.348796,108.085376 222.348796,105.046748 L222.348796,67.2978734 C222.348796,64.2592448 219.500259,62.9296929 216.460718,62.9296929" stroke="#606060" stroke-width="0.930000007" fill="#FFFFFF"></path>
                    <path d="M299.270047,41.7164885 L334.725851,41.7164885 C336.676717,41.7164885 337.865511,42.1893152 337.865511,44.1399078 L337.865511,68.364868 C337.865511,70.3149746 336.676717,71.4078701 334.725851,71.4078701 L311.987129,71.4078701 L305.471119,81.363959 L305.471119,71.4078701 L299.270047,71.4078701 C297.320153,71.4078701 295.572441,70.3149746 295.572441,68.364868 L295.572441,44.1399078 C295.572441,42.1893152 297.320153,41.7164885 299.270047,41.7164885" stroke="#606060" stroke-width="0.930000007" fill="#FFFFFF"></path>
                    <path d="M185.93081,0.485704353 L234.150839,0.485704353 C236.80254,0.485704353 238.419513,1.12909861 238.419513,3.78091318 L238.419513,36.7266841 C238.419513,39.3780127 236.80254,40.8645256 234.150839,40.8645256 L203.22713,40.8645256 L194.364151,54.404476 L194.364151,40.8645256 L185.93081,40.8645256 C183.279595,40.8645256 180.902493,39.3780127 180.902493,36.7266841 L180.902493,3.78091318 C180.902493,1.12909861 183.279595,0.485704353 185.93081,0.485704353" stroke="#606060" stroke-width="0.930000007" fill="#FFFFFF"></path>
                    <path d="M273.898208,29.8921751 L235.312951,29.8921751 C233.191007,29.8921751 231.480232,31.9224631 231.480232,34.0436231 L231.480232,60.4062656 C231.480232,62.5269398 233.191007,64.1529195 235.312951,64.1529195 L242.494316,64.1529195 L242.494316,74.5507345 L249.151757,64.1529195 L273.898208,64.1529195 C276.01918,64.1529195 276.759868,62.5269398 276.759868,60.4062656 L276.759868,34.0436231 C276.759868,31.9224631 276.01918,29.8921751 273.898208,29.8921751" stroke="#606060" stroke-width="0.930000007" fill="#FFFFFF"></path>
                    <path d="M331.496238,89.8489881 L258.033535,89.8489881 C253.993774,89.8489881 249.685732,92.7627282 249.685732,96.8024084 L249.685732,146.992506 C249.685732,151.033644 253.993774,154.699631 258.033535,154.699631 L270.490598,154.699631 L270.490598,173.926623 L284.381894,154.699631 L331.496238,154.699631 C335.535513,154.699631 339.021216,151.033644 339.021216,146.992506 L339.021216,96.8024084 C339.021216,92.7627282 335.535513,89.8489881 331.496238,89.8489881" stroke="#606060" stroke-width="0.930000007" fill="#FFFFFF"></path>
                    <path d="M267.769358,121.662405 L194.308599,121.662405 C190.267866,121.662405 187.42419,124.704435 187.42419,128.744601 L187.42419,178.935185 C187.42419,182.976323 190.267866,187.736663 194.308599,187.736663 L207.004783,187.736663 L207.004783,205.869301 L220.655987,187.736663 L267.769358,187.736663 C271.810091,187.736663 275.536858,182.976323 275.536858,178.935185 L275.536858,128.744601 C275.536858,124.704435 271.810091,121.662405 267.769358,121.662405" stroke="#606060" stroke-width="0.930000007" fill="#FFFFFF"></path>
                    <path d="M144.146391,89.8489881 L95.0427852,89.8489881 C92.341997,89.8489881 89.616422,91.528908 89.616422,94.2298032 L89.616422,127.779121 C89.616422,130.47953 92.341997,132.674554 95.0427852,132.674554 L126.534646,132.674554 L134.896057,145.782983 L134.896057,132.674554 L144.146391,132.674554 C146.847179,132.674554 149.581502,130.47953 149.581502,127.779121 L149.581502,94.2298032 C149.581502,91.528908 146.847179,89.8489881 144.146391,89.8489881" stroke="#606060" stroke-width="0.930000007" fill="#FFFFFF"></path>
                    <path d="M176.457298,153.409149 L148.430728,153.409149 C146.889086,153.409149 145.203585,155.57453 145.203585,157.118385 L145.203585,176.265682 C145.203585,177.807106 146.889086,178.641478 148.430728,178.641478 L166.405039,178.641478 L171.586451,186.542496 L171.586451,178.641478 L176.457298,178.641478 C177.998453,178.641478 179.615913,177.807106 179.615913,176.265682 L179.615913,157.118385 C179.615913,155.57453 177.998453,153.409149 176.457298,153.409149" stroke="#606060" stroke-width="0.930000007" fill="#FFFFFF"></path>
                </g>
            </g>
        </g>
    </g>
</svg>