<svg width="170" height="204" viewBox="0 0 170 204" xmlns="http://www.w3.org/2000/svg"><title>FE80636A-D239-4DCD-97C3-C2E525E2A144</title><g fill="none" fill-rule="evenodd"><rect fill="#4B93EB" width="170" height="204" rx="4.15"/><g fill="#FFF"><path d="M66.432 73.93h-22.71c-4 0-7.255 3.256-7.255 7.262v43.475c0 4.006 3.255 7.263 7.254 7.263h22.712c4 0 7.253-3.257 7.253-7.263V81.192c0-4.002-3.254-7.262-7.253-7.262zM134.78 84.506c0-6.58-8.812-10.576-12.678-10.576h-17.426c2.956-12.905-.617-20.27-3.13-23.602-2.49-3.294-5.923-5.262-9.185-5.262-2.534 0-4.718 1.198-5.967 3.298-.19.32-.293.692-.293 1.065v11.126c-2.502 7.234-4.946 12.89-8.27 17.173v49.626c.78.26 1.533.44 2.15.44h38.156c1.795 0 3.54-.937 5.082-2.69 2.134-2.452 3.56-6.23 3.615-9.33 3.093-2.328 4.565-6.578 4.292-12.428 3.33-3.463 3.122-8.38 2.04-11.418 1.36-1.947 1.616-5.25 1.616-7.424z"/></g><text font-family="Roboto-Regular, Roboto" font-size="20" fill="#FFF"><tspan x="39.732" y="173">Behaviour</tspan></text></g></svg>