<svg width="170" height="204" viewBox="0 0 170 204" xmlns="http://www.w3.org/2000/svg"><title>6827B76F-EFD1-4E91-A3EE-5552057F6B5B</title><g fill="none" fill-rule="evenodd"><rect fill="#FFF" width="170" height="204" rx="4.15"/><path d="M73.46 47.034v-3.35c0-3.68 3.007-6.684 6.717-6.684h3.32c3.722 0 6.718 2.992 6.718 6.683v3.35h6.717c1.846 0 3.337 1.497 3.337 3.343v3.352c0 1.86-1.495 3.34-3.338 3.34h-30.19c-1.846 0-3.337-1.495-3.337-3.34v-3.352c0-1.86 1.494-3.342 3.336-3.342h6.72zm30.16 3.345h3.36c3.708 0 6.693 3 6.693 6.7V127.3c0 3.726-2.996 6.702-6.693 6.702H56.694c-3.708 0-6.694-3-6.694-6.702V57.08c0-3.725 2.997-6.7 6.694-6.7h3.36v3.328c0 3.703 2.994 6.706 6.71 6.706H96.91c3.707 0 6.712-2.99 6.712-6.706v-3.312-.017zm-21.783-3.346c.925 0 1.675-.748 1.675-1.672 0-.924-.75-1.672-1.675-1.672-.926 0-1.676.748-1.676 1.672 0 .924.75 1.672 1.677 1.672zM76.81 77.138v3.345h26.81v-3.345H76.81zm-16.756-3.345v10.035h10.053V73.793H60.054zm3.35 3.345v3.345h3.352v-3.345h-3.35zm-3.35 13.38v10.034h10.053V90.517H60.054zm3.35 3.344v3.345h3.352v-3.345h-3.35zm13.406 0v3.345h26.81v-3.345H76.81zm-16.756 13.38v10.034h10.053V107.24H60.054zm3.35 3.344v3.345h3.352v-3.344h-3.35zm13.406 0v3.345h26.81v-3.344H76.81z" fill="#4B93EB"/><text font-family="Roboto-Regular, Roboto" font-size="20" fill="#4E4E4E"><tspan x="33.082" y="173">Attendance</tspan></text></g></svg>