<?xml version="1.0" encoding="UTF-8"?>
<svg width="8px" height="10px" viewBox="0 0 8 10" version="1.1" xmlns="http://www.w3.org/2000/svg" xmlns:xlink="http://www.w3.org/1999/xlink">
    <!-- Generator: sketchtool 39.1 (31720) - http://www.bohemiancoding.com/sketch -->
    <title>1975ACA2-6D5D-496C-B884-6485E79D9633</title>
    <desc>Created with sketchtool.</desc>
    <defs></defs>
    <g id="ClassDig-Web-Parents" stroke="none" stroke-width="1" fill="none" fill-rule="evenodd">
        <g id="Events" transform="translate(-1138.000000, -352.000000)">
            <g id="ic_location_on_black_24px" transform="translate(1136.000000, 351.000000)">
                <g id="Group">
                    <path d="M6,1 C4.065,1 2.5,2.565 2.5,4.5 C2.5,7.125 6,11 6,11 C6,11 9.5,7.125 9.5,4.5 C9.5,2.565 7.935,1 6,1 L6,1 Z M6,5.75 C5.31,5.75 4.75,5.19 4.75,4.5 C4.75,3.81 5.31,3.25 6,3.25 C6.69,3.25 7.25,3.81 7.25,4.5 C7.25,5.19 6.69,5.75 6,5.75 L6,5.75 Z" id="Shape" fill="#CF515D"></path>
                    <polygon id="Shape" points="0 0 12 0 12 12 0 12"></polygon>
                </g>
            </g>
        </g>
    </g>
</svg>