<svg width="469" height="410" viewBox="0 0 469 410" xmlns="http://www.w3.org/2000/svg" xmlns:xlink="http://www.w3.org/1999/xlink"><title>5156251F-F33E-482D-9860-591210F52791</title><defs><path id="a" d="M20.648.43H.206v167.547h20.442V.43z"/><path id="c" d="M0 .644v2.27h15.13V.645H0z"/><path id="e" d="M0 .97v2.27h15.13V.97H0z"/></defs><g fill="none" fill-rule="evenodd"><path d="M126.74 363.028l66.338-24.145c7.723-2.81 14.644-7.076 20.568-12.676.457-.43.476-1.148.045-1.603-.428-.46-1.146-.484-1.602-.047-5.698 5.387-12.355 9.488-19.787 12.193l-64.205 23.37-24.778-68.076 9.643-3.51c8.386-3.052 15.568-8.09 20.772-14.567.467-.584 1-1.305 1.584-2.13.363-.51.243-1.22-.27-1.582-.51-.36-1.218-.238-1.58.27-.557.784-1.06 1.468-1.503 2.02-4.944 6.154-11.783 10.945-19.78 13.856l-11.774 4.286 26.33 72.342zM231.772 248.59c.85-.308 1.786-.325 2.635-.044 1.225.385 2.172 1.29 2.607 2.49l3.388 9.305c.436 1.2.29 2.505-.396 3.585-.473.764-1.2 1.348-2.05 1.657l-46.23 16.827c-2.268.825-4.722.72-6.91-.3-2.194-1.026-3.858-2.836-4.68-5.1-1.707-4.686.72-9.886 5.406-11.592l46.23-16.827zm-39.27 35.953l46.23-16.827c1.328-.483 2.463-1.4 3.195-2.584 1.062-1.666 1.286-3.7.606-5.567l-3.387-9.306c-.68-1.87-2.154-3.28-4.043-3.874-1.315-.435-2.78-.412-4.107.072l-46.23 16.826c-5.863 2.134-8.896 8.64-6.763 14.503 1.03 2.833 3.112 5.1 5.855 6.38 2.737 1.275 5.806 1.41 8.645.376z" fill="#606060"/><path d="M191.454 267.396c2.675-.974 5.645.41 6.62 3.086.973 2.675-.413 5.645-3.088 6.618l-4.92 1.79c-2.675.975-5.645-.41-6.62-3.085-.973-2.676.413-5.645 3.088-6.618l4.92-1.79zm-.612 13.63l4.92-1.792c3.852-1.402 5.844-5.676 4.442-9.528-1.4-3.852-5.676-5.845-9.527-4.444l-4.92 1.79c-3.85 1.403-5.844 5.677-4.442 9.53 1.402 3.85 5.676 5.844 9.527 4.443zM185.54 265.418l46.232-16.827c1.328-.482 2.462-1.4 3.195-2.584 1.062-1.665 1.285-3.697.604-5.567l-1.455-4.002c-.214-.588-.865-.893-1.455-.678-.588.214-.89.866-.677 1.454l1.457 4c.437 1.2.294 2.507-.395 3.584-.472.765-1.198 1.35-2.05 1.66l-46.23 16.826c-2.27.826-4.723.72-6.91-.3-2.195-1.026-3.857-2.835-4.68-5.097-1.707-4.69.718-9.89 5.405-11.596l23.34-8.494c.588-.214.89-.864.677-1.454-.215-.59-.865-.893-1.454-.68l-23.34 8.496c-5.862 2.134-8.894 8.64-6.76 14.505 1.03 2.83 3.11 5.096 5.853 6.378 2.738 1.277 5.807 1.41 8.645.378" fill="#606060"/><path d="M184.493 248.27c2.674-.974 5.644.41 6.62 3.086.972 2.675-.414 5.645-3.088 6.618l-4.92 1.79c-2.675.974-5.646-.41-6.62-3.085-.974-2.678.413-5.646 3.087-6.62l4.92-1.79zm-.612 13.63l4.92-1.792c3.852-1.402 5.845-5.677 4.443-9.528-1.402-3.852-5.676-5.846-9.527-4.444l-4.92 1.79c-3.85 1.402-5.844 5.677-4.442 9.53 1.402 3.85 5.676 5.844 9.527 4.443zM239.353 289.15c.86-.313 1.777-.328 2.65-.046 1.213.387 2.157 1.296 2.592 2.492l3.387 9.304c.44 1.205.297 2.51-.385 3.58-.495.78-1.208 1.353-2.06 1.663l-39.888 14.52c-2.27.825-4.724.717-6.91-.3-2.197-1.027-3.86-2.836-4.682-5.1-1.707-4.688.72-9.888 5.406-11.594l39.89-14.52zm-32.927 33.645l39.888-14.518c1.326-.482 2.43-1.374 3.197-2.576 1.05-1.644 1.275-3.73.604-5.576l-3.387-9.304c-.678-1.863-2.146-3.274-4.03-3.877-1.355-.44-2.782-.413-4.12.074l-39.89 14.518c-5.86 2.134-8.895 8.64-6.76 14.504 1.03 2.83 3.108 5.097 5.854 6.378 2.737 1.277 5.807 1.41 8.646.377z" fill="#606060"/><path d="M205.376 305.647c2.675-.974 5.645.41 6.62 3.087.973 2.676-.413 5.644-3.087 6.618l-4.922 1.79c-2.675.974-5.645-.41-6.618-3.084-.974-2.677.41-5.647 3.086-6.62l4.92-1.79zm-.61 13.63l4.92-1.792c3.85-1.402 5.843-5.676 4.44-9.526-1.4-3.855-5.675-5.848-9.526-4.447l-4.92 1.79c-3.852 1.403-5.844 5.677-4.442 9.53 1.402 3.85 5.676 5.845 9.527 4.443zM227.04 242.232c4.633-1.687 6.754-4.774 6.883-4.968 1.275-1.602 2.295-3.5 2.978-5.563.82-2.48-.438-5.167-2.87-6.124l-3.607-1.43 1.375 2.683c.234.454.292.842.17 1.15-.202.517-1.01.883-2.162.982-1.448.12-3.287-.208-5.046-.9-2.473-.976-4.473-2.533-5.095-3.968-.178-.407-.212-.75-.106-1.02.117-.3.416-.54.892-.72l2.746-1.044-17.83-7.006c-6.138-2.415-13.173-1.82-18.82 1.593l-28.88 17.44c-2.58 1.556-4.753 3.76-6.287 6.37l-19.006 32.373c-.316.54-.137 1.234.403 1.552.54.32 1.235.14 1.554-.404l19.006-32.372c1.344-2.285 3.247-4.213 5.504-5.574l28.88-17.444c5.047-3.05 11.332-3.58 16.817-1.42l13.242 5.202c-.15.217-.256.43-.33.62-.332.835-.286 1.788.132 2.755.862 1.99 3.293 3.975 6.346 5.178 2.103.83 4.257 1.202 6.068 1.05 2.092-.175 3.544-1.034 4.087-2.417.052-.133.095-.273.13-.412.608.685.84 1.667.534 2.593-.6 1.81-1.492 3.474-2.656 4.942-.215.313-4.16 5.943-13.508 5.006l-26.257-7.728-18.285 13.173c-.51.37-.624 1.075-.258 1.584.367.51 1.08.626 1.584.26l17.385-12.525 25.494 7.482c3.59.377 6.502-.115 8.796-.95" fill="#606060"/><path d="M231.953 227.195c.097.3.103.564.016.785-.15.377-.592.607-.938.733-1.46.53-3.922.277-6.27-.65-2.476-.977-4.475-2.535-5.097-3.968-.177-.41-.213-.752-.105-1.022.083-.212.258-.395.523-.548l11.87 4.67zm-.145 3.65c1.125-.41 1.91-1.113 2.274-2.04.362-.925.27-1.967-.265-3.01l-.196-.38-13.563-5.34-.41.156c-1.37.52-1.95 1.382-2.2 2.01-.33.835-.284 1.788.137 2.756.86 1.99 3.293 3.974 6.343 5.176 2.926 1.154 5.87 1.404 7.88.673zM94.137 291.107c3.13-1.14 6.6.48 7.74 3.61l23.832 65.48c1.138 3.13-.48 6.6-3.61 7.74l-12.526 4.558-27.963-76.83 12.527-4.558zm14.082 84.298l14.657-5.335c4.304-1.567 6.53-6.344 4.964-10.65l-23.832-65.48c-1.567-4.305-6.344-6.533-10.648-4.967l-14.657 5.335 29.516 81.097zM238.733 267.716c.85-.31 1.785-.326 2.635-.044 1.226.385 2.172 1.292 2.608 2.49l3.387 9.305c.436 1.2.29 2.505-.396 3.584-.473.765-1.2 1.35-2.05 1.66l-46.23 16.825c-2.26.823-4.715.716-6.91-.3-2.193-1.024-3.857-2.833-4.68-5.098-1.707-4.688.718-9.888 5.406-11.594l46.23-16.827zm-39.27 35.953l46.232-16.828c1.327-.483 2.46-1.4 3.194-2.583 1.06-1.667 1.284-3.7.605-5.57l-3.388-9.305c-.68-1.868-2.153-3.278-4.043-3.873-1.317-.436-2.78-.412-4.107.07l-46.23 16.827c-5.863 2.133-8.896 8.64-6.762 14.503 1.03 2.833 3.11 5.1 5.854 6.38 2.747 1.272 5.816 1.405 8.644.376z" fill="#606060"/><path d="M198.415 286.522c2.675-.973 5.645.41 6.62 3.086.973 2.675-.413 5.644-3.088 6.617l-4.92 1.79c-2.675.975-5.645-.408-6.62-3.083-.973-2.677.413-5.646 3.088-6.62l4.92-1.79zm-.612 13.628l4.92-1.79c3.852-1.403 5.844-5.677 4.443-9.528-1.402-3.85-5.676-5.845-9.527-4.443l-4.922 1.79c-3.85 1.4-5.843 5.676-4.44 9.527 1.4 3.85 5.674 5.844 9.525 4.443zM244.148 309.065l1.494 4.106c1.737 4.772-.733 10.067-5.505 11.804l-13.86 5.045c-4.773 1.736-10.068-.733-11.805-5.504l-1.494-4.106 31.17-11.345zm-17.096 23.088l13.862-5.045c5.948-2.165 9.024-8.765 6.86-14.712l-2.27-6.24-35.434 12.897 2.27 6.24c2.165 5.947 8.764 9.025 14.712 6.86zM74.95 367.097c3.15-1.146 6.644.484 7.79 3.635 1.147 3.15-.483 6.643-3.632 7.79-3.15 1.146-6.645-.484-7.79-3.633-1.148-3.15.48-6.646 3.63-7.793m4.936 13.558c4.325-1.574 6.562-6.374 4.988-10.7-1.574-4.325-6.374-6.565-10.7-4.99-4.324 1.573-6.56 6.374-4.987 10.7 1.575 4.326 6.374 6.564 10.7 4.99M313.813 78.64C323.92 75.76 335.55 83.31 340.17 96c4.618 12.69.563 25.953-9.03 30.243L313.812 78.64zm15.985 50.55l1.065-.388c11.52-4.193 16.65-19.255 11.437-33.578-5.212-14.32-18.824-22.56-30.344-18.367l-1.065.388L329.8 129.19z" fill="#606060"/><g transform="rotate(160 144.926 37.524)"><mask id="b" fill="#fff"><use xlink:href="#a"/></mask><path d="M7.363 2.7c-2.696 0-4.89 2.2-4.89 4.904V160.8c0 2.707 2.194 4.907 4.892 4.907.397 0 .797-.05 1.19-.146l3.262-.808c3.893-.962 6.563-4.367 6.563-8.302V11.954c0-3.935-2.67-7.34-6.49-8.283L8.55 2.846c-.39-.097-.792-.146-1.19-.146m.003 165.277h-.002c-3.946 0-7.157-3.22-7.157-7.176V7.605C.206 3.65 3.416.43 7.363.43c.58 0 1.165.07 1.737.214l3.208.794c4.962 1.223 8.34 5.533 8.34 10.516V156.45c0 4.982-3.378 9.294-8.217 10.488l-3.33.825c-.572.142-1.156.214-1.735.214" fill="#606060" mask="url(#b)"/></g><path d="M114.272 200.967l-5.168 1.88c-5.007 1.824-10.565-.768-12.388-5.776l-8.01-22.003c-1.822-5.008.77-10.566 5.778-12.39l5.167-1.88 14.622 40.17zm-4.39 4.014l7.298-2.655-16.174-44.437-7.3 2.657c-6.18 2.25-9.38 9.114-7.13 15.298l8.008 22.003c2.25 6.184 9.114 9.386 15.297 7.135z" fill="#606060"/><path d="M272.063 40.957c3.1-1.13 6.542.484 7.674 3.593l47.21 129.71c1.132 3.11-.468 6.558-3.568 7.686-.442.16-.906.27-1.38.325-25.062 2.89-48.183 5.842-68.72 8.768-5.81.826-13.76 2.498-23.63 4.966-24.138 6.034-54.572 15.497-72.756 21.15-4.07 1.266-7.502 2.333-10.076 3.114-11.666 3.55-24.07-2.648-28.243-14.113l-18.963-52.098c-4.173-11.465 1.345-24.187 12.564-28.966 2.475-1.055 5.79-2.443 9.72-4.09 17.564-7.358 46.96-19.67 69.33-30.564 9.148-4.455 16.313-8.284 21.293-11.385 17.613-10.96 37.22-23.56 58.278-37.456.398-.262.824-.477 1.265-.637m52.092 143.12c4.275-1.555 6.484-6.307 4.924-10.592l-47.212-129.71c-1.56-4.288-6.306-6.507-10.58-4.95-.61.22-1.193.515-1.74.876-21.04 13.883-40.63 26.475-58.228 37.424-4.915 3.06-12.01 6.85-21.09 11.27-22.31 10.867-51.67 23.165-69.21 30.51-3.936 1.65-7.256 3.043-9.735 4.098-12.327 5.252-18.39 19.233-13.806 31.83l18.96 52.1c4.587 12.597 18.22 19.41 31.038 15.51 2.578-.786 6.016-1.853 10.09-3.12 18.16-5.647 48.556-15.098 72.63-21.115 9.797-2.45 17.67-4.106 23.4-4.922 20.52-2.924 43.622-5.87 68.66-8.76.652-.076 1.29-.226 1.897-.447" fill="#606060"/><path d="M176.824 224.395c.59-.214.89-.864.677-1.454l-3.61-9.916c-.213-.588-.862-.893-1.452-.68-.59.216-.893.868-.678 1.456l3.61 9.917c.214.59.864.893 1.454.678M212.688 219.314c.59-.214.893-.865.678-1.455l-5.438-14.94c-.214-.59-.865-.895-1.455-.68-.59.215-.89.866-.676 1.454l5.437 14.94c.215.59.864.895 1.454.68" fill="#606060"/><g transform="rotate(160 162.16 74.418)"><mask id="d" fill="#fff"><use xlink:href="#c"/></mask><path d="M13.995 2.915H1.135C.506 2.915 0 2.407 0 1.78 0 1.15.507.643 1.134.643h12.86c.63 0 1.135.508 1.135 1.135s-.507 1.135-1.135 1.135" fill="#606060" mask="url(#d)"/></g><g transform="rotate(160 163.007 79.222)"><mask id="f" fill="#fff"><use xlink:href="#e"/></mask><path d="M13.995 3.24H1.135C.506 3.24 0 2.735 0 2.107 0 1.48.507.97 1.134.97h12.86c.63 0 1.135.51 1.135 1.136 0 .628-.507 1.135-1.135 1.135" fill="#606060" mask="url(#f)"/></g><path d="M88.03 176.522l9.123-3.32c.59-.216.893-.866.68-1.456-.215-.588-.866-.893-1.456-.68l-9.123 3.322c-.59.215-.89.866-.677 1.454.214.59.863.894 1.453.68M92.034 187.523l9.123-3.32c.59-.216.893-.866.68-1.456-.216-.59-.866-.893-1.456-.68l-9.122 3.322c-.59.214-.892.864-.677 1.453.215.59.864.894 1.454.68M95.442 196.887l9.124-3.32c.59-.216.893-.866.678-1.456-.215-.59-.865-.892-1.455-.678l-9.124 3.32c-.59.216-.892.866-.677 1.455.214.59.863.894 1.452.68M275.04 190.322c.59-.215.89-.865.676-1.455L231.102 66.29c-.214-.587-.864-.893-1.453-.678-.59.215-.892.866-.678 1.454l44.614 122.577c.215.59.864.894 1.453.68M321.82 156.858l6.917-2.517c.588-.213.892-.864.677-1.454-.215-.59-.865-.893-1.453-.68l-6.916 2.52c-.59.213-.89.863-.677 1.453.215.59.864.893 1.454.678M287.772 63.31l6.916-2.517c.59-.214.892-.865.677-1.455-.214-.588-.865-.893-1.453-.68l-6.917 2.52c-.59.213-.89.865-.676 1.453.213.59.862.895 1.452.68M292.72 45.52L299.634 43c.588-.215.892-.865.677-1.455-.215-.59-.865-.893-1.453-.68l-6.918 2.518c-.59.215-.89.865-.677 1.455.215.59.864.894 1.454.68M295.31 52.635l6.915-2.517c.588-.215.892-.865.677-1.455-.215-.59-.865-.893-1.453-.68l-6.918 2.518c-.59.216-.89.866-.677 1.456.215.59.864.894 1.454.68M334.456 160.19l6.917-2.516c.588-.214.89-.865.676-1.454-.215-.59-.866-.894-1.454-.68l-6.917 2.518c-.59.214-.892.864-.677 1.454.214.59.863.894 1.453.68M337.046 167.307l6.917-2.517c.588-.214.89-.865.676-1.454-.215-.59-.866-.894-1.454-.68l-6.917 2.518c-.59.214-.892.864-.677 1.454.214.59.863.894 1.453.68M115.514 144.296l67.705-24.643c.59-.215.892-.865.678-1.455-.215-.588-.866-.893-1.455-.68l-67.706 24.644c-.59.215-.89.866-.676 1.455.215.59.864.893 1.454.68M192.755 116.182l12.02-4.374c.587-.214.89-.865.676-1.455-.213-.588-.864-.893-1.452-.68l-12.02 4.376c-.59.213-.89.865-.676 1.453.215.59.864.894 1.453.68M213.83 108.512l12.017-4.374c.59-.215.893-.865.68-1.455-.216-.59-.867-.893-1.456-.68l-12.017 4.375c-.59.215-.89.866-.677 1.455.215.59.864.893 1.454.68M164.007 137.373l38.205-13.905c.59-.215.893-.865.678-1.455-.214-.588-.865-.893-1.454-.68L163.23 135.24c-.59.215-.89.866-.677 1.454.215.59.864.894 1.454.68M205.805 122.16l12.02-4.374c.587-.215.89-.865.676-1.455-.213-.587-.864-.892-1.452-.678l-12.02 4.375c-.59.214-.892.866-.678 1.455.215.59.866.893 1.455.678M143.994 144.657l12.02-4.374c.588-.214.89-.865.676-1.455-.214-.588-.865-.893-1.453-.68l-12.02 4.376c-.59.214-.89.866-.676 1.454.216.59.865.894 1.454.68M103.845 382.002c3.3-1.2 5.006-4.86 3.805-8.16l-28.378-77.97c-1.2-3.297-4.86-5.004-8.16-3.804L.846 317.643.07 315.51l70.266-25.575c4.475-1.63 9.44.688 11.067 5.162l28.38 77.968c1.628 4.477-.686 9.442-5.16 11.07l-70.267 25.576-.776-2.133 70.265-25.575z" fill="#606060"/><path d="M351.843 75.202l78.4-73.404M358.842 86.2l105.403-46.4M359.845 100.25l107.397-4.5" stroke="#606060" stroke-width="1.6" stroke-linecap="square" stroke-dasharray="16"/></g></svg>