<svg width="20" height="18" viewBox="0 0 20 18" xmlns="http://www.w3.org/2000/svg"><title>93EBF602-2B40-4314-AEE6-2F46ED35BDE5</title><g fill="#F83327" fill-rule="evenodd"><path d="M1.548 5.168c.07-.04.144-.065.218-.076.07-.04.144-.064.218-.075.07-.04.143-.064.218-.076.07-.038.143-.063.218-.075.07-.038.143-.063.217-.076.07-.04.144-.063.218-.076.07-.038.144-.063.218-.076.07-.038.144-.062.218-.076.072-.037.144-.062.218-.076.072-.037.144-.06.218-.075.07-.036.144-.06.218-.075.07-.037.144-.06.217-.076.073-.038.146-.062.22-.077.07-.036.144-.06.217-.075.072-.037.144-.06.218-.076.07-.036.144-.06.218-.076.07-.036.144-.06.218-.076.072-.035.145-.06.218-.075.07-.036.145-.06.22-.076.07-.037.143-.06.216-.077.072-.035.144-.06.218-.076.07-.035.144-.06.218-.075.072-.036.146-.06.22-.077.072-.034.144-.06.218-.075.072-.035.146-.06.22-.076.072-.035.146-.06.22-.076.072-.035.145-.06.22-.076.07-.034.145-.06.22-.076.07-.034.144-.06.218-.076.072-.033.145-.06.22-.076.07-.033.144-.06.22-.076.07-.033.144-.06.218-.076.07-.032.14-.058.213-.075.072-.033.147-.06.22-.077.073-.033.146-.058.22-.076.075-.032.147-.057.22-.075.073-.033.146-.06.22-.077.072-.032.145-.058.22-.076.07-.032.144-.058.218-.075.072-.032.144-.06.218-.076.072-.032.145-.058.22-.076.07-.032.143-.058.217-.075.072-.032.145-.06.22-.076.07-.033.143-.06.217-.077.074-.032.146-.058.22-.076.072-.03.145-.058.22-.076.07-.03.144-.056.217-.074.072-.032.145-.058.218-.076.073-.03.145-.058.22-.076.07-.03.144-.058.217-.076.072-.03.145-.057.22-.076.07-.03.142-.057.216-.075.072-.03.144-.057.218-.075.07-.03.143-.057.217-.075.073-.03.146-.058.22-.076.07-.03.143-.056.216-.075.073-.03.146-.057.22-.076.07-.03.143-.057.216-.076.072-.03.145-.056.218-.075.04-.018.08-.03.122-.043.352-.296.73-.46 1.122-.46 1.86 0 3.37 3.62 3.37 8.082 0 4.462-1.51 8.08-3.37 8.08-.393 0-.77-.163-1.12-.46-.04-.014-.082-.025-.122-.042-.073-.018-.146-.045-.218-.075-.074-.02-.147-.045-.22-.076-.072-.02-.144-.045-.215-.075-.075-.018-.148-.045-.22-.076-.073-.018-.145-.044-.217-.075-.073-.017-.146-.044-.218-.074-.073-.018-.146-.045-.218-.076-.074-.018-.146-.044-.217-.075-.074-.018-.147-.044-.22-.075-.073-.018-.146-.045-.218-.077-.074-.017-.146-.044-.218-.075-.074-.018-.146-.044-.218-.076-.074-.017-.147-.044-.22-.075-.073-.018-.146-.045-.218-.076-.074-.017-.147-.044-.218-.075-.074-.018-.147-.044-.22-.076-.073-.018-.146-.045-.217-.076-.074-.018-.147-.044-.22-.076-.073-.018-.146-.044-.218-.076-.074-.017-.147-.043-.218-.076-.074-.017-.147-.043-.22-.075-.073-.016-.147-.043-.22-.075-.072-.017-.145-.044-.216-.076-.073-.018-.146-.044-.218-.077-.074-.017-.147-.043-.218-.075-.075-.017-.15-.044-.222-.077-.072-.016-.143-.043-.213-.075-.075-.016-.148-.043-.22-.075-.074-.017-.147-.043-.22-.076-.073-.017-.146-.042-.22-.076-.073-.017-.146-.042-.218-.076-.074-.017-.147-.042-.22-.076-.073-.016-.147-.04-.22-.076-.073-.016-.147-.04-.22-.076-.073-.017-.146-.04-.218-.076-.074-.016-.147-.04-.22-.075-.073-.017-.147-.04-.218-.076-.074-.017-.148-.04-.22-.076-.073-.016-.145-.04-.216-.075-.074-.016-.147-.04-.218-.076-.074-.016-.147-.04-.218-.076-.074-.016-.147-.04-.218-.076-.074-.016-.146-.04-.217-.075-.075-.016-.15-.04-.22-.076-.073-.016-.146-.04-.217-.076.338 2.505 1.706 3.53 1.706 3.53s0 2.994-2.272 1.248c-1.914-1.472-2.574-4.89-2.734-5.93C.744 10.947.33 9.73.33 8.28.328 6.62.868 5.268 1.55 5.168zm14.126 10.136c.81 0 2.302-2.667 2.302-7.025 0-4.36-1.49-7.027-2.302-7.027S13.372 3.92 13.372 8.28c0 4.357 1.49 7.024 2.302 7.024z"/><path d="M16.376 8.642c0 1.118-.918 2.026-2.05 2.026-.033 0-.066-.004-.1-.005-.16-.718-.254-1.54-.254-2.414 0-.567.04-1.11.11-1.62.08-.008.162-.014.244-.014 1.132 0 2.05.907 2.05 2.026z"/></g></svg>