<svg width="71" height="104" viewBox="0 0 71 104" xmlns="http://www.w3.org/2000/svg"><title>58173F08-05EE-403F-A756-364B334B3560</title><g fill="none" fill-rule="evenodd"><path d="M70.702 95.525V3.435c0-1.497-1.21-2.708-2.705-2.708H8.507c-.023 0-.046.007-.073.008-.097.003-.194.013-.288.026-.564.076-1.114.322-1.55.76L1.185 6.93c-.527.53-.79 1.222-.79 1.914v92.025c0 1.496 1.21 2.707 2.703 2.707h59.49c1.494 0 2.704-1.21 2.704-2.706V8.848c0-1.495-1.21-2.707-2.705-2.707H5.804L8.51 3.433H65.485c1.432 0 2.596 1.11 2.696 2.515h.012V98.22c1.4-.097 2.51-1.266 2.51-2.695" fill="#FFF"/><text font-family="Lato-Black, Lato" font-size="48.551" font-weight="700" fill="#4785D6" transform="translate(.043)"><tspan x="17.109" y="66">A</tspan></text></g></svg>