<svg width="316" height="255" viewBox="0 0 316 255" xmlns="http://www.w3.org/2000/svg" xmlns:xlink="http://www.w3.org/1999/xlink"><title>6FC49D84-EF2C-4A49-9EFA-5DF73CA29FFB</title><defs><path id="a" d="M0 254.804h316.145V0H0z"/></defs><g transform="translate(-1)" fill="none" fill-rule="evenodd"><path d="M66.028.48C54.403.48 44.98 9.94 44.98 21.61v45.165h42.096V21.61C87.076 9.94 77.653.48 66.028.48z" stroke="#606060"/><mask id="b" fill="#fff"><use xlink:href="#a"/></mask><path fill="#FFF" mask="url(#b)" d="M285.91 48.685h10.343V25.677H285.91"/><path stroke="#606060" mask="url(#b)" d="M285.91 48.685h10.343V25.677H285.91z"/><path d="M315.668 37.18c0-6.353-5.13-11.502-11.458-11.502h-7.957v23.007h7.957c6.327 0 11.458-5.15 11.458-11.504" fill="#FFF" mask="url(#b)"/><path d="M315.668 37.18c0-6.353-5.13-11.502-11.458-11.502h-7.957v23.007h7.957c6.327 0 11.458-5.15 11.458-11.504z" stroke="#606060" mask="url(#b)"/><path fill="#FFF" mask="url(#b)" d="M42.29 25.677H32.267L1.373 37.18l30.895 11.505h10.02"/><path stroke="#606060" mask="url(#b)" d="M42.29 25.677H32.267L1.373 37.18l30.895 11.505h10.02z"/><path d="M285.91 25.677H32.267c2.11 0 3.82 1.717 3.82 3.835s-1.71 3.835-3.82 3.835h253.64v-7.67z" fill="#FFF" mask="url(#b)"/><path d="M285.91 25.677H32.267c2.11 0 3.82 1.717 3.82 3.835s-1.71 3.835-3.82 3.835h253.64v-7.67z" stroke="#606060" mask="url(#b)"/><path d="M285.91 33.347H32.267c2.11 0 3.82 1.717 3.82 3.834 0 2.12-1.71 3.836-3.82 3.836h253.64v-7.67z" fill="#FFF" mask="url(#b)"/><path d="M285.91 33.347H32.267c2.11 0 3.82 1.717 3.82 3.834 0 2.12-1.71 3.836-3.82 3.836h253.64v-7.67z" stroke="#606060" mask="url(#b)"/><path d="M285.91 41.016H32.267c2.11 0 3.82 1.717 3.82 3.834 0 2.118-1.71 3.835-3.82 3.835h253.64v-7.67z" fill="#FFF" mask="url(#b)"/><path d="M285.91 41.016H32.267c2.11 0 3.82 1.717 3.82 3.834 0 2.118-1.71 3.835-3.82 3.835h253.64v-7.67z" stroke="#606060" mask="url(#b)"/><path fill="#FFF" mask="url(#b)" d="M1.373 37.18l10.202-3.833v7.633"/><path stroke="#606060" fill="#606060" mask="url(#b)" d="M1.373 37.18l10.202-3.833v7.633z"/><path d="M66.028.48c11.625 0 21.05 9.46 21.05 21.13v232.715h179.72V21.61c0-11.67-9.422-21.13-21.047-21.13H66.03z" fill="#FFF" mask="url(#b)"/><path d="M245.75.48H66.03c11.625 0 21.05 9.46 21.05 21.13v232.715h179.72V21.61c0-11.67-9.422-21.13-21.047-21.13z" stroke="#606060" mask="url(#b)"/><path fill="#606060" mask="url(#b)" d="M106.55 37.18h142.384v-3.114H106.55M106.55 44.212h142.384v-3.116H106.55M106.55 51.242h142.384v-3.116H106.55M106.55 58.27h51.402v-3.114h-51.4M128.04 75.538h51.402v-3.115h-51.4M107.917 77.472h6.953V70.49h-6.953v6.982zm-1.366 1.37h9.687V69.12h-9.686v9.725zM128.04 91.265h51.402V88.15h-51.4M107.917 93.198h6.953v-6.982h-6.953v6.982zm-1.366 1.372h9.687v-9.725h-9.686v9.725zM128.04 106.99h51.402v-3.115h-51.4M107.917 108.924h6.953v-6.982h-6.953v6.982zm-1.366 1.37h9.687v-9.723h-9.686v9.725zM128.04 122.717h51.402v-3.115h-51.4M107.917 124.65h6.953v-6.982h-6.953v6.982zm-1.366 1.372h9.687v-9.725h-9.686v9.725zM106.55 142.233h142.384v-3.115H106.55M106.55 149.263h142.384v-3.115H106.55M106.55 156.293h142.384v-3.116H106.55M106.55 163.324h51.402v-3.116h-51.4M128.04 180.59h51.402v-3.115h-51.4M107.917 182.523h6.953v-6.98h-6.953v6.98zm-1.366 1.372h9.687v-9.724h-9.686v9.725zM128.04 196.316h51.402V193.2h-51.4M107.917 198.25h6.953v-6.982h-6.953v6.982zm-1.366 1.37h9.687v-9.724h-9.686v9.725zM128.04 212.043h51.402v-3.116h-51.4M107.917 213.976h6.953v-6.982h-6.953v6.982zm-1.366 1.37h9.687v-9.723h-9.686v9.725zM128.04 227.77h51.402v-3.117h-51.4M107.917 229.702h6.953v-6.982h-6.953v6.982zm-1.366 1.37h9.687v-9.723h-9.686v9.723z"/><path fill="#231F1F" mask="url(#b)" d="M111.357 74.23L107 69.856l-1.08 1.084 5.437 5.46 8.507-8.542-1.08-1.084M111.357 209.64L107 205.262l-1.08 1.083 5.437 5.46 8.507-8.54-1.08-1.084"/></g></svg>