<svg width="38" height="37" viewBox="0 0 38 37" xmlns="http://www.w3.org/2000/svg"><title>0F15B1E9-B85E-4CD1-A3CF-32044F18DBDA</title><g transform="translate(.043)" fill="none" fill-rule="evenodd"><circle fill="#FBD131" cx="18" cy="18" r="18"/><path d="M27.815 13.09c0 .782.38 1.46.95 1.842-1.213 1.802-2.915 3.9-4.67 4.5-2.315.8-4.473-4.105-5.534-7.02.788-.296 1.36-1.1 1.36-2.05 0-1.2-.9-2.173-2.007-2.173-1.108 0-2.005.972-2.005 2.172 0 .95.57 1.754 1.36 2.05-1.063 2.915-3.215 7.82-5.53 7.02-1.755-.6-3.464-2.698-4.67-4.5.566-.383.95-1.06.95-1.842 0-1.2-.904-2.172-2.012-2.172C4.9 10.918 4 11.89 4 13.09c0 1.198.9 2.173 2.006 2.173.023 0 2.77 12.506 2.77 12.506H27.05l2.713-12.513c1.166.006 2.07-.97 2.07-2.167-.005-1.2-.904-2.172-2.006-2.172-1.113 0-2.012.973-2.012 2.172z" fill="#FFF"/></g></svg>