<svg width="38" height="34" viewBox="0 0 38 34" xmlns="http://www.w3.org/2000/svg"><title>C7187990-4CA1-4C91-917C-2FD175A6567F</title><g transform="translate(-2.957 -3)" fill="none" fill-rule="evenodd"><ellipse fill="#429C87" cx="22" cy="22" rx="5.867" ry="5.867"/><path d="M16.5 3.667l-3.355 3.666H7.333c-2.016 0-3.666 1.65-3.666 3.667v22c0 2.017 1.65 3.667 3.666 3.667h29.334c2.016 0 3.666-1.65 3.666-3.667V11c0-2.017-1.65-3.667-3.666-3.667h-5.812L27.5 3.667h-11zm5.5 27.5c-5.06 0-9.167-4.107-9.167-9.167S16.94 12.833 22 12.833 31.167 16.94 31.167 22 27.06 31.167 22 31.167z" fill="#429C87"/><path d="M0 0h44v44H0"/></g></svg>