<svg width="10" height="14" viewBox="0 0 10 14" xmlns="http://www.w3.org/2000/svg"><title>82589329-A029-4C9F-97CC-576D46BF9B95</title><g fill="none" fill-rule="evenodd"><path fill="none" d="M-3-1h16v16H-3z"/><path d="M5 0C2.24 0 0 2.155 0 4.813 0 7.47 5 14 5 14s5-6.53 5-9.188C10 2.155 7.76 0 5 0zM.91 4.813C.91 2.64 2.743.874 5 .874S9.09 2.64 9.09 4.813c0 1.512-2.273 5.163-4.09 7.682C3.183 9.975.91 6.325.91 4.813zM5 2.624c-1.255 0-2.273.98-2.273 2.188C2.727 6.02 3.745 7 5 7c1.255 0 2.273-.98 2.273-2.188 0-1.208-1.018-2.187-2.273-2.187zm0 3.5c-.752 0-1.364-.59-1.364-1.313S4.248 3.5 5 3.5c.752 0 1.364.59 1.364 1.313S5.752 6.125 5 6.125z" fill="#B2B2B2"/></g></svg>