<?xml version="1.0" encoding="UTF-8"?>
<svg width="220px" height="222px" viewBox="0 0 220 222" version="1.1" xmlns="http://www.w3.org/2000/svg" xmlns:xlink="http://www.w3.org/1999/xlink">
    <!-- Generator: sketchtool 39.1 (31720) - http://www.bohemiancoding.com/sketch -->
    <title>16993FD0-1C8D-49A7-B439-8DA26B1A41BB</title>
    <desc>Created with sketchtool.</desc>
    <defs></defs>
    <g id="ClassDig-Web-Teachers" stroke="none" stroke-width="1" fill="none" fill-rule="evenodd">
        <g id="Icons-Resources" transform="translate(-1148.000000, -1492.000000)">
            <g id="grades" transform="translate(1143.000000, 1487.000000)">
                <g transform="translate(0.043353, 0.000000)">
                    <g transform="translate(137.782397, 133.299853) rotate(20.000000) translate(-137.782397, -133.299853) translate(28.282397, 31.299853)">
                        <path d="M127.681839,0.436847453 L18.152098,0.436847453 C8.36801567,0.436847453 0.436437405,8.37746455 0.436437405,18.1726969 L0.436437405,186.12452 C0.436437405,195.919752 8.36714349,203.860369 18.1512258,203.860369 L72.9160961,203.860369 L72.9160961,203.861242 L88.5533588,203.860369 C119.9465,203.861242 145.396627,178.382986 145.396627,146.952322 L145.397499,18.1726969 C145.397499,8.37746455 137.465921,0.436847453 127.681839,0.436847453 L127.681839,0.436847453 Z" id="Stroke-1" stroke="#606060" stroke-width="0.896414343"></path>
                        <path d="M98.2173424,38.8327959 C95.3016544,15.7094815 94.0396142,17.4523308 89.0263404,29.2165637 C87.2968133,33.3056235 85.930984,36.8576831 84.926236,39.8709963 C90.0049231,38.7542106 92.7845514,38.6232349 98.2173424,38.8327959 M103.251548,43.3540754 C103.425984,44.1521537 103.805381,45.2252808 104.3941,46.5769496 C104.304266,48.5293599 102.180515,49.9735848 99.2029025,48.6027063 C98.1789666,46.5577398 98.6324987,44.914432 98.6324987,42.7306313 C98.6324987,42.9724997 98.0603505,43.0938704 96.9195429,43.0929973 C95.7264047,43.0938704 84.5843426,43.3383583 83.8089772,44.2368513 C83.4801665,44.618427 83.2647387,46.4730422 83.1600775,49.7989506 C81.5831813,52.109361 78.0735408,49.9098433 78.0735408,47.9286183 C78.0735408,47.7548572 82.3297649,34.1106872 82.3820955,33.946531 C87.0203332,21.2296685 90.8788445,14.8703641 93.9585018,14.8703641 C100.758866,14.8703641 102.264244,32.0403987 102.941926,38.8327959 C103.84114,39.0406106 104.411544,39.2134985 104.654881,39.3514595 C106.052109,40.1416793 105.845403,43.2920803 103.251548,43.3540754" id="Fill-3" fill="#606060"></path>
                        <path d="M98.2173424,38.8327959 C95.3016544,15.7094815 94.0396142,17.4523308 89.0263404,29.2165637 C87.2968133,33.3056235 85.930984,36.8576831 84.926236,39.8709963 C90.0049231,38.7542106 92.7845514,38.6232349 98.2173424,38.8327959 L98.2173424,38.8327959 Z M103.251548,43.3540754 C103.425984,44.1521537 103.805381,45.2252808 104.3941,46.5769496 C104.304266,48.5293599 102.180515,49.9735848 99.2029025,48.6027063 C98.1789666,46.5577398 98.6324987,44.914432 98.6324987,42.7306313 C98.6324987,42.9724997 98.0603505,43.0938704 96.9195429,43.0929973 C95.7264047,43.0938704 84.5843426,43.3383583 83.8089772,44.2368513 C83.4801665,44.618427 83.2647387,46.4730422 83.1600775,49.7989506 C81.5831813,52.109361 78.0735408,49.9098433 78.0735408,47.9286183 C78.0735408,47.7548572 82.3297649,34.1106872 82.3820955,33.946531 C87.0203332,21.2296685 90.8788445,14.8703641 93.9585018,14.8703641 C100.758866,14.8703641 102.264244,32.0403987 102.941926,38.8327959 C103.84114,39.0406106 104.411544,39.2134985 104.654881,39.3514595 C106.052109,40.1416793 105.845403,43.2920803 103.251548,43.3540754 L103.251548,43.3540754 Z" id="Stroke-5" stroke="#606060" stroke-width="0.896414343"></path>
                        <path d="M126.013277,24.6915296 C126.013277,27.5677549 123.81539,26.9905889 117.877609,26.9905889 C117.877609,31.4996439 117.724978,31.4516195 118.280555,33.5201616 C117.913368,34.0606545 117.510422,34.328718 117.070845,34.3278448 C115.384055,34.3278448 114.541532,33.5708055 114.542404,32.0541075 L114.541532,26.9905889 L107.505679,26.9905889 C106.911727,25.9619934 106.661412,25.0809639 107.467303,24.1842173 C107.810941,23.8035147 108.202549,23.6157829 108.642126,23.6149098 C108.672652,23.6157829 111.383379,23.9100416 114.542404,23.9100416 L114.541532,17.1944834 C115.200898,16.8530735 115.751241,16.6810588 116.190819,16.6810588 C116.960951,16.6810588 118.461968,17.3909469 118.461968,18.1855325 C118.461968,18.6011619 118.364284,19.2053962 118.17066,20.000855 C117.792136,21.5262847 117.876737,22.1078166 117.877609,23.9100416 C122.825469,23.9091684 122.883033,24.034905 125.13325,23.6157829 C125.720225,23.9248855 126.013277,24.2863783 126.013277,24.6915296" id="Fill-7" fill="#606060"></path>
                        <path d="M126.013277,24.6915296 C126.013277,27.5677549 123.81539,26.9905889 117.877609,26.9905889 C117.877609,31.4996439 117.724978,31.4516195 118.280555,33.5201616 C117.913368,34.0606545 117.510422,34.328718 117.070845,34.3278448 C115.384055,34.3278448 114.541532,33.5708055 114.542404,32.0541075 L114.541532,26.9905889 L107.505679,26.9905889 C106.911727,25.9619934 106.661412,25.0809639 107.467303,24.1842173 C107.810941,23.8035147 108.202549,23.6157829 108.642126,23.6149098 C108.672652,23.6157829 111.383379,23.9100416 114.542404,23.9100416 L114.541532,17.1944834 C115.200898,16.8530735 115.751241,16.6810588 116.190819,16.6810588 C116.960951,16.6810588 118.461968,17.3909469 118.461968,18.1855325 C118.461968,18.6011619 118.364284,19.2053962 118.17066,20.000855 C117.792136,21.5262847 117.876737,22.1078166 117.877609,23.9100416 C122.825469,23.9091684 122.883033,24.034905 125.13325,23.6157829 C125.720225,23.9248855 126.013277,24.2863783 126.013277,24.6915296 L126.013277,24.6915296 Z" id="Stroke-9" stroke="#606060" stroke-width="0.896414343"></path>
                        <path d="M121.270552,63.8321183 L70.269126,63.8321183 L19.2676997,63.8321183 C17.9175696,63.8321183 16.8256039,64.9262016 16.8256039,66.2778703 C16.8256039,67.629539 17.9175696,68.7244955 19.2676997,68.7244955 L70.269126,68.7244955 L121.270552,68.7244955 C122.620682,68.7253686 123.71352,67.6304122 123.71352,66.2778703 C123.71352,64.9253284 122.620682,63.8321183 121.270552,63.8321183 L121.270552,63.8321183 Z" id="Stroke-11" stroke="#606060" stroke-width="0.896414343"></path>
                        <path d="M123.713171,81.5649989 C123.713171,80.2142034 122.620333,79.1183738 121.270203,79.1183738 L105.332912,79.1183738 L70.2687771,79.1175006 L70.2687771,79.1183738 L19.268223,79.1183738 C17.9180929,79.1183738 16.825255,80.2133302 16.8243829,81.5649989 C16.8243829,82.9175408 17.9172207,84.0107509 19.268223,84.0107509 L70.2696493,84.0107509 L121.270203,84.0107509 C122.620333,84.0107509 123.713171,82.9175408 123.713171,81.5649989 L123.713171,81.5649989 Z" id="Stroke-13" stroke="#606060" stroke-width="0.896414343"></path>
                        <path d="M123.713607,96.8523022 C123.713607,95.4997603 122.62077,94.4065502 121.270639,94.4065502 L19.2677869,94.4065502 C17.9176568,94.4065502 16.824819,95.5006335 16.824819,96.8523022 C16.824819,98.2039709 17.9176568,99.2980542 19.2677869,99.2980542 L70.2692132,99.2980542 L121.270639,99.2980542 C122.62077,99.297181 123.713607,98.2030978 123.713607,96.8523022 L123.713607,96.8523022 Z" id="Stroke-15" stroke="#606060" stroke-width="0.896414343"></path>
                        <path d="M123.713171,112.139693 C123.713171,110.787151 122.620333,109.693068 121.270203,109.693068 L104.269728,109.693068 L70.2687771,109.692194 L70.2687771,109.693068 L19.268223,109.693068 C17.9180929,109.693068 16.825255,110.787151 16.8243829,112.139693 C16.8243829,113.492235 17.9172207,114.586318 19.268223,114.586318 L70.2696493,114.586318 L121.270203,114.586318 C122.620333,114.586318 123.713171,113.492235 123.713171,112.139693 L123.713171,112.139693 Z" id="Stroke-17" stroke="#606060" stroke-width="0.896414343"></path>
                        <path d="M121.270552,124.981419 L70.269126,124.981419 L19.2676997,124.981419 C17.9175696,124.981419 16.8256039,126.076375 16.8247317,127.427171 C16.8247317,128.778839 17.9175696,129.872923 19.2676997,129.872923 L70.269126,129.872923 L121.270552,129.872923 C122.620682,129.87205 123.71352,128.777966 123.71352,127.427171 C123.71352,126.075502 122.620682,124.981419 121.270552,124.981419 L121.270552,124.981419 Z" id="Stroke-19" stroke="#606060" stroke-width="0.896414343"></path>
                        <path d="M123.713607,142.714561 C123.713607,144.06623 122.62077,145.16206 121.270639,145.161186 L19.2677869,145.161186 C17.9176568,145.161186 16.824819,144.065357 16.824819,142.714561 C16.824819,141.362019 17.9176568,140.267936 19.2677869,140.267936 L121.270639,140.267936 C122.62077,140.267936 123.713607,141.362019 123.713607,142.714561 L123.713607,142.714561 Z" id="Stroke-21" stroke="#606060" stroke-width="0.896414343"></path>
                        <path d="M70.2689515,140.268198 L70.2698237,145.161448 L121.270378,145.161448 C122.620508,145.161448 123.713346,144.066492 123.713346,142.714823 C123.713346,141.362281 122.620508,140.268198 121.270378,140.268198 L70.2689515,140.268198 L70.2689515,140.268198 Z" id="Stroke-23" stroke="#606060" stroke-width="0.896414343"></path>
                        <path d="M121.270552,155.554366 L70.269126,155.554366 L19.2676997,155.554366 C17.9175696,155.554366 16.8247317,156.649323 16.8247317,158.001865 C16.8247317,159.353533 17.9175696,160.447617 19.2676997,160.447617 L70.269126,160.447617 L121.270552,160.447617 C122.620682,160.446743 123.71352,159.35266 123.71352,158.001865 C123.71352,156.650196 122.620682,155.554366 121.270552,155.554366 L121.270552,155.554366 Z" id="Stroke-25" stroke="#606060" stroke-width="0.896414343"></path>
                        <path d="M121.270552,170.842455 L70.269126,170.842455 L19.2676997,170.842455 C17.9175696,170.842455 16.8256039,171.936539 16.8256039,173.289081 C16.8247317,174.639876 17.9175696,175.734833 19.2676997,175.734833 L70.269126,175.734833 L121.270552,175.734833 C122.620682,175.734833 123.71352,174.639876 123.71352,173.289081 C123.71352,171.936539 122.620682,170.842455 121.270552,170.842455 L121.270552,170.842455 Z" id="Stroke-27" stroke="#606060" stroke-width="0.896414343"></path>
                        <path d="M145.396714,146.951711 L145.396714,146.318662 C145.396714,157.865475 136.051337,167.219756 124.522028,167.219756 L108.799292,167.224122 L108.797548,182.96041 C108.797548,194.507223 99.4512985,203.860631 87.9219898,203.860631 L88.553446,203.860631 C119.94746,203.861504 145.396714,178.379755 145.396714,146.951711" id="Fill-29" fill="#606060"></path>
                        <path d="M145.396714,146.951711 L145.396714,146.318662 C145.396714,157.865475 136.051337,167.219756 124.522028,167.219756 L108.799292,167.224122 L108.797548,182.96041 C108.797548,194.507223 99.4512985,203.860631 87.9219898,203.860631 L88.553446,203.860631 C119.94746,203.861504 145.396714,178.379755 145.396714,146.951711 L145.396714,146.951711 Z" id="Stroke-31" stroke="#606060" stroke-width="0.896414343"></path>
                        <path d="M117.943197,80.1921995 C117.910926,79.9712872 117.796671,79.7617262 117.607409,79.6124139 C117.592582,79.6001896 117.573394,79.59757 117.556822,79.587092 C117.481815,79.5347017 117.403319,79.4910432 117.31959,79.464848 C117.280342,79.4517505 117.241094,79.4517505 117.200974,79.4456383 C117.149516,79.4369066 117.099801,79.4194432 117.048343,79.4194432 C117.036133,79.4194432 117.025666,79.4264285 117.013456,79.4273017 C116.927983,79.4307944 116.847742,79.4517505 116.765758,79.479692 C116.733487,79.49017 116.699472,79.4927895 116.668074,79.5076334 C116.55818,79.5582773 116.455263,79.628131 116.369789,79.725053 L65.6230387,137.264403 C64.7212076,138.286013 63.3937541,138.825632 62.0357744,138.723471 C60.6777947,138.620437 59.4471529,137.885227 58.7092911,136.739627 L52.1208655,126.489472 C51.3184626,125.242584 49.6979576,124.81473 48.3870755,125.505409 C47.0753212,126.194341 46.5066617,127.772161 47.0779377,129.141293 L55.9880986,150.520885 C56.9736587,152.886305 59.1671841,154.526993 61.7130689,154.801169 C64.2580816,155.076218 66.7516358,153.941969 68.2177655,151.841119 L82.4054699,131.521557 L117.789694,80.8444582 C117.927498,80.6471216 117.976339,80.4139849 117.943197,80.1921995" id="Fill-33" fill="#606060"></path>
                        <path d="M117.943197,80.1921995 C117.910926,79.9712872 117.796671,79.7617262 117.607409,79.6124139 C117.592582,79.6001896 117.573394,79.59757 117.556822,79.587092 C117.481815,79.5347017 117.403319,79.4910432 117.31959,79.464848 C117.280342,79.4517505 117.241094,79.4517505 117.200974,79.4456383 C117.149516,79.4369066 117.099801,79.4194432 117.048343,79.4194432 C117.036133,79.4194432 117.025666,79.4264285 117.013456,79.4273017 C116.927983,79.4307944 116.847742,79.4517505 116.765758,79.479692 C116.733487,79.49017 116.699472,79.4927895 116.668074,79.5076334 C116.55818,79.5582773 116.455263,79.628131 116.369789,79.725053 L65.6230387,137.264403 C64.7212076,138.286013 63.3937541,138.825632 62.0357744,138.723471 C60.6777947,138.620437 59.4471529,137.885227 58.7092911,136.739627 L52.1208655,126.489472 C51.3184626,125.242584 49.6979576,124.81473 48.3870755,125.505409 C47.0753212,126.194341 46.5066617,127.772161 47.0779377,129.141293 L55.9880986,150.520885 C56.9736587,152.886305 59.1671841,154.526993 61.7130689,154.801169 C64.2580816,155.076218 66.7516358,153.941969 68.2177655,151.841119 L82.4054699,131.521557 L117.789694,80.8444582 C117.927498,80.6471216 117.976339,80.4139849 117.943197,80.1921995 L117.943197,80.1921995 Z" id="Stroke-35" stroke="#606060" stroke-width="0.896414343"></path>
                        <polygon id="Stroke-37" stroke="#606060" stroke-width="0.896414343" points="173.764622 75.2826209 173.757645 75.2756355 173.755901 75.2721428 173.755901 75.2738892 153.255379 55.8667905 159.794962 83.3568332 159.800195 83.3542136 165.616744 93.4419582 179.579427 85.3738582 173.762006 75.2861136"></polygon>
                        <path d="M199.750179,120.353787 L173.754941,75.2737146 C173.723543,75.2213243 173.679062,75.1794121 173.625859,75.153217 C173.585739,75.133134 173.539513,75.1322609 173.49416,75.1313877 C173.480205,75.1305145 173.467123,75.1217828 173.452296,75.1235291 L173.452296,75.1235291 L173.451424,75.1235291 C173.451424,75.1235291 173.450551,75.1244023 173.449679,75.1244023 C173.410431,75.1296413 173.372928,75.1436121 173.338913,75.1628218 C173.332807,75.1671877 173.331935,75.1776657 173.324958,75.1820316 C173.26565,75.2213243 173.216808,75.2745877 173.19762,75.3470609 L173.196748,75.3488073 C172.778975,76.9091638 171.230861,77.849569 169.670536,77.5553104 C169.594657,77.5413396 169.518777,77.5387201 169.442898,77.517764 L169.442026,77.517764 L169.440281,77.5168909 C169.048674,77.4129835 168.647472,77.645247 168.542811,78.0355544 L168.541939,78.0407935 C168.104106,79.6762427 166.426037,80.6463357 164.79245,80.2088771 L164.7846,80.2071307 C164.394737,80.1023502 163.992663,80.3346137 163.888002,80.7249211 L163.88713,80.7284138 C163.676063,81.5151409 163.161478,82.184863 162.457632,82.5917607 C161.752912,82.9986584 160.915623,83.1078048 160.130663,82.8973706 L160.126302,82.8956242 C160.009431,82.8633169 159.884709,82.9061023 159.810574,83.0030243 C159.736439,83.0999462 159.727717,83.2309219 159.787898,83.3365756 L198.618093,150.673777 L212.580776,142.603057 L199.750179,120.353787 Z" id="Fill-39" fill="#F0F0F0"></path>
                        <path d="M199.750179,120.353787 L173.754941,75.2737146 C173.723543,75.2213243 173.679062,75.1794121 173.625859,75.153217 C173.585739,75.133134 173.539513,75.1322609 173.49416,75.1313877 C173.480205,75.1305145 173.467123,75.1217828 173.452296,75.1235291 L173.452296,75.1235291 L173.451424,75.1235291 C173.451424,75.1235291 173.450551,75.1244023 173.449679,75.1244023 C173.410431,75.1296413 173.372928,75.1436121 173.338913,75.1628218 C173.332807,75.1671877 173.331935,75.1776657 173.324958,75.1820316 C173.26565,75.2213243 173.216808,75.2745877 173.19762,75.3470609 L173.196748,75.3488073 C172.778975,76.9091638 171.230861,77.849569 169.670536,77.5553104 C169.594657,77.5413396 169.518777,77.5387201 169.442898,77.517764 L169.442026,77.517764 L169.440281,77.5168909 C169.048674,77.4129835 168.647472,77.645247 168.542811,78.0355544 L168.541939,78.0407935 C168.104106,79.6762427 166.426037,80.6463357 164.79245,80.2088771 L164.7846,80.2071307 C164.394737,80.1023502 163.992663,80.3346137 163.888002,80.7249211 L163.88713,80.7284138 C163.676063,81.5151409 163.161478,82.184863 162.457632,82.5917607 C161.752912,82.9986584 160.915623,83.1078048 160.130663,82.8973706 L160.126302,82.8956242 C160.009431,82.8633169 159.884709,82.9061023 159.810574,83.0030243 C159.736439,83.0999462 159.727717,83.2309219 159.787898,83.3365756 L198.618093,150.673777 L212.580776,142.603057 L199.750179,120.353787 L199.750179,120.353787 Z" id="Stroke-41" stroke="#606060" stroke-width="0.896414343" fill="#FFFFFF"></path>
                        <path d="M153.25564,55.8664412 L154.818581,62.4387994 C155.438699,62.2903603 156.05184,62.0580968 156.629221,61.7201796 C157.210963,61.3840088 157.722059,60.9736184 158.158147,60.5090914 L153.25564,55.8664412 Z" id="Fill-43" fill="#000000"></path>
                        <path d="M153.25564,55.8664412 L154.818581,62.4387994 C155.438699,62.2903603 156.05184,62.0580968 156.629221,61.7201796 C157.210963,61.3840088 157.722059,60.9736184 158.158147,60.5090914 L153.25564,55.8664412 L153.25564,55.8664412 Z" id="Stroke-45" stroke="#606060" stroke-width="0.896414343"></path>
                        <path d="M217.484242,152.357513 L213.76964,145.911764 L207.330357,149.634092 L200.892818,153.35642 L204.610037,159.798676 C206.661397,163.358594 211.207184,164.579287 214.761305,162.522969 C214.762178,162.522969 214.762178,162.522969 214.76305,162.522096 L214.76305,162.522096 C218.318043,160.467525 219.535603,155.914811 217.484242,152.357513 L217.484242,152.357513 Z" id="Stroke-47" stroke="#000000" stroke-width="0.896414343"></path>
                        <path d="M217.512239,147.167122 L214.998625,142.808253 C214.696852,142.28435 214.199711,141.902774 213.616224,141.745603 C213.032738,141.588433 212.410875,141.671384 211.888441,141.973501 L205.156107,145.866097 L205.156107,145.866971 L198.424644,149.757821 C197.335295,150.387377 196.962003,151.780958 197.590843,152.871548 L200.102713,157.228672 C200.404486,157.752574 200.902499,158.135896 201.485985,158.291321 C202.069472,158.448492 202.690462,158.366413 203.213768,158.063423 L216.678438,150.281723 C217.223548,149.967382 217.588991,149.460942 217.739877,148.896874 C217.890764,148.333679 217.827095,147.712854 217.512239,147.167122" id="Fill-49" fill="#FFFFFF"></path>
                        <path d="M217.512239,147.167122 L214.998625,142.808253 C214.696852,142.28435 214.199711,141.902774 213.616224,141.745603 C213.032738,141.588433 212.410875,141.671384 211.888441,141.973501 L205.156107,145.866097 L205.156107,145.866971 L198.424644,149.757821 C197.335295,150.387377 196.962003,151.780958 197.590843,152.871548 L200.102713,157.228672 C200.404486,157.752574 200.902499,158.135896 201.485985,158.291321 C202.069472,158.448492 202.690462,158.366413 203.213768,158.063423 L216.678438,150.281723 C217.223548,149.967382 217.588991,149.460942 217.739877,148.896874 C217.890764,148.333679 217.827095,147.712854 217.512239,147.167122 L217.512239,147.167122 Z" id="Stroke-51" stroke="#000000" stroke-width="0.896414343"></path>
                    </g>
                </g>
            </g>
        </g>
    </g>
</svg>