<svg width="170" height="204" viewBox="0 0 170 204" xmlns="http://www.w3.org/2000/svg"><title>F6F68332-C43A-4C39-8F1F-ACF00E181213</title><g fill="none" fill-rule="evenodd"><rect fill="#FFF" width="170" height="204" rx="4.15"/><path fill="#787A7B" d="M48.052 49.932h86.398v82.048H45.084l-4.87-2.014-3.334-5.549-1.619-5.319 2.152-5.795 3.263-4.307 7.175-1.898z"/><path d="M36.92 118.629h-3.318c0 7.702 6.306 13.928 14.105 13.928h88.78V47.35h-87.12v-12.29h-1.66c-7.8 0-14.105 6.227-14.105 13.928v69.642h3.319c0-5.899 4.812-10.651 10.786-10.651h1.66V50.626h83.801v78.654h-85.46c-5.975 0-10.787-4.752-10.787-10.651zm9.128-13.846a14.084 14.084 0 0 0-9.127 4.834v-60.63c0-5.325 3.982-9.75 9.127-10.487v66.283z" fill="#787A7B"/><path d="M117.404 57.18h-9.957v55.304l4.978 9.832 4.979-9.832V57.18zm-3.32 3.278v9.012h-3.318v-9.012h3.319zm-1.659 54.484l-1.66-3.277V72.747h3.32v38.918l-1.66 3.277zM66.79 96.508v3.277h6.638L69.28 122.48l3.236.573 4.231-23.268h9.957l4.232 23.268 3.236-.573-4.15-22.695h6.639v-3.277h-7.219l-1.908-10.815c2.572-1.803 4.148-4.834 4.148-8.03 0-4.834-3.567-8.93-8.297-9.668V57.18h-3.319v10.815c-4.73.82-8.297 4.834-8.297 9.668 0 3.196 1.577 6.145 4.149 8.03l-1.909 10.815h-7.218zm11.783-13.11c-2.158-1.147-3.485-3.359-3.485-5.735 0-3.605 2.987-6.554 6.638-6.554 3.65 0 6.637 2.95 6.637 6.554 0 2.376-1.327 4.588-3.484 5.736l-1.079.573 2.323 12.536h-8.795l2.24-12.536-.995-.573z" fill="#FFF"/><text font-family="Roboto-Regular, Roboto" font-size="20" fill="#4E4E4E"><tspan x="47.359" y="173">Projects</tspan></text></g></svg>