<svg width="170" height="204" viewBox="0 0 170 204" xmlns="http://www.w3.org/2000/svg"><title>A4E85B55-885C-423F-9572-0CF143BB4B35</title><g fill="none" fill-rule="evenodd"><rect fill="#FFF" width="170" height="204" rx="4.15"/><path d="M117.683 126.096V40.203a2.52 2.52 0 0 0-2.515-2.525h-55.3c-.022 0-.043.006-.068.007-.09.003-.18.012-.268.025-.524.07-1.036.3-1.442.707l-5.027 5.048a2.526 2.526 0 0 0-.736 1.785v85.831a2.519 2.519 0 0 0 2.514 2.525h55.3c1.39 0 2.515-1.13 2.515-2.525v-85.83a2.519 2.519 0 0 0-2.515-2.524h.001-52.787l2.515-2.525h52.964a2.516 2.516 0 0 1 2.505 2.346h.01v86.062a2.517 2.517 0 0 0 2.334-2.514" fill="#787A7B"/><text font-family="Lato-Black, Lato" font-size="45.267" font-weight="700" fill="#FFF" transform="translate(52 37)"><tspan x="13.905" y="61.167">A</tspan></text><text font-family="Roboto-Regular, Roboto" font-size="20" fill="#4E4E4E"><tspan x="72.623" y="173">All</tspan></text></g></svg>