<svg width="170" height="204" viewBox="0 0 170 204" xmlns="http://www.w3.org/2000/svg"><title>4AAB33CB-BB2F-4CDB-AF17-EBB13FE7E2C3</title><g fill="none" fill-rule="evenodd"><rect fill="#FFF" width="170" height="204" rx="4.15"/><path d="M62.239 43.199L45 61.275v73.512h73.341V43.199H62.239zM50.45 61.715H64.21V47.962h48.682v82.061H50.45V61.715z" fill="#787A7B"/><path d="M122.858 70.315l-29.85 37.89-28.524 11.386L59.9 115.9l4.565-30.715 42.427-53.856 3.262.972c11.028 3.284 18.161 8.869 23.634 19.154l1.584 2.975-12.514 15.885z" fill="#FEFEFE"/><path d="M65.332 113.752l24.564-9.805 28.868-36.644L98.14 50.649 69.263 87.303l-3.93 26.449zm8.964-24.088l12.205 9.855-9.49 3.983-4.422-3.57 1.707-10.268zm55.04-35.782l-7.279 9.24-20.625-16.653 7.294-9.26c9.73 2.897 15.773 7.583 20.61 16.673z" fill="#787A7B"/><text font-family="Roboto-Regular, Roboto" font-size="20" fill="#4E4E4E"><tspan x="54" y="173">Exams</tspan></text></g></svg>