<?xml version="1.0" encoding="UTF-8"?>
<svg width="170px" height="204px" viewBox="0 0 170 204" version="1.1" xmlns="http://www.w3.org/2000/svg" xmlns:xlink="http://www.w3.org/1999/xlink">
    <!-- Generator: sketchtool 39.1 (31720) - http://www.bohemiancoding.com/sketch -->
    <title>A37B9E99-6E84-4DD3-8A55-6C3388CF8B60</title>
    <desc>Created with sketchtool.</desc>
    <defs></defs>
    <g id="ClassDig-Web-Teachers" stroke="none" stroke-width="1" fill="none" fill-rule="evenodd">
        <g id="Icons-Resources" transform="translate(-1242.000000, -1909.000000)">
            <g id="examsbl" transform="translate(1242.000000, 1909.000000)">
                <rect id="Mask" fill="#4B93EB" x="0" y="0" width="170" height="204" rx="4.14967742"></rect>
                <g id="Page-1" transform="translate(45.000000, 31.000000)">
                    <path d="M17.2389807,12.1985747 L0,30.2754861 L0,103.78703 L73.3409522,103.78703 L73.3409522,12.1985747 L17.2389807,12.1985747 Z M5.45046121,30.7150123 L19.2089664,30.7150123 L19.2089664,16.9621696 L67.8908162,16.9621696 L67.8908162,99.0231063 L5.45046121,99.0231063 L5.45046121,30.7150123 Z" id="Fill-1" fill="#FFFFFF"></path>
                    <g id="Group-6" transform="translate(14.634109, 0.116177)">
                        <path d="M63.223612,39.1987848 L33.3736064,77.0886835 L4.85010152,88.475038 L0.266048106,84.7833671 L4.83058937,54.0691392 L47.2577988,0.212936709 L50.5199044,1.18448101 C61.5481691,4.46837975 68.6811591,10.0537722 74.154316,20.3392405 L75.7374014,23.3141013 L63.223612,39.1987848 Z" id="Fill-2" fill="#4B93EB"></path>
                        <path d="M5.69835953,82.6358658 L30.2618745,72.8305747 L59.1300939,36.1867013 L38.5054308,19.5325494 L9.62908127,56.1869544 L5.69835953,82.6358658 Z M14.6622392,58.5480177 L26.8667611,68.4030051 L17.3776795,72.3856127 L12.9549265,68.8150557 C13.5237055,65.3922709 14.093135,61.9701443 14.6622392,58.5480177 L14.6622392,58.5480177 Z M69.70275,22.7657646 L62.4230937,32.0062962 L41.7981054,15.3531316 L49.0920706,6.09318228 C58.8211516,8.98971392 64.8653639,13.6759671 69.70275,22.7657646 L69.70275,22.7657646 Z" id="Fill-4" fill="#FFFFFF"></path>
                    </g>
                </g>
                <text id="Exams" font-family="Roboto-Regular, Roboto" font-size="20" font-weight="normal" fill="#FFFFFF">
                    <tspan x="54" y="173">Exams</tspan>
                </text>
            </g>
        </g>
    </g>
</svg>