<?xml version="1.0" encoding="UTF-8"?>
<svg width="170px" height="204px" viewBox="0 0 170 204" version="1.1" xmlns="http://www.w3.org/2000/svg" xmlns:xlink="http://www.w3.org/1999/xlink">
    <!-- Generator: sketchtool 39.1 (31720) - http://www.bohemiancoding.com/sketch -->
    <title>098840F4-CB0A-46C8-BC91-94948E2D7948</title>
    <desc>Created with sketchtool.</desc>
    <defs></defs>
    <g id="ClassDig-Web-Teachers" stroke="none" stroke-width="1" fill="none" fill-rule="evenodd">
        <g id="Icons-Resources" transform="translate(-1423.000000, -2131.000000)">
            <g id="projectswt" transform="translate(1423.000000, 2131.000000)">
                <rect id="Mask" fill="#FFFFFF" x="0" y="0" width="170" height="204" rx="4.14967742"></rect>
                <g id="Group-13" transform="translate(33.000000, 35.000000)">
                    <polygon id="Path-11" fill="#4B93EB" points="15.0522978 14.9316471 101.449731 14.9316471 101.449731 96.9800518 12.084374 96.9800518 7.21369969 94.9656259 3.8802293 89.4174383 2.26130031 84.0984079 4.41339009 78.3033113 7.67555631 73.9961232 14.8513497 72.0983138"></polygon>
                    <g id="1473182394_construction_project_plan_building_architect_design_develop-12" transform="translate(0.601858, 0.059018)">
                        <g id="Слой_1">
                            <g id="Group">
                                <path d="M3.31888545,83.570009 L0,83.570009 C0,91.2715589 6.30588235,97.4983439 14.1052632,97.4983439 L102.885449,97.4983439 L102.885449,12.2897072 L15.7647059,12.2897072 L15.7647059,0 L14.1052632,0 C6.30588235,0 0,6.22678499 0,13.9283348 L0,83.570009 L3.31888545,83.570009 C3.31888545,77.6709496 8.13126935,72.9189295 14.1052632,72.9189295 L15.7647059,72.9189295 L15.7647059,15.5669625 L99.5665635,15.5669625 L99.5665635,94.2210886 L14.1052632,94.2210886 C8.13126935,94.2210886 3.31888545,89.4690685 3.31888545,83.570009 L3.31888545,83.570009 Z M12.4458204,69.7236056 C8.79504644,70.1332625 5.55913313,71.9357529 3.31888545,74.5575571 L3.31888545,13.9283348 C3.31888545,8.60279505 7.30154799,4.17850045 12.4458204,3.44111802 L12.4458204,69.7236056 L12.4458204,69.7236056 Z" id="Shape" fill="#4B93EB"></path>
                                <path d="M83.8018576,22.121473 L73.8452012,22.121473 L73.8452012,77.4251554 L78.8235294,87.2569212 L83.8018576,77.4251554 L83.8018576,22.121473 L83.8018576,22.121473 Z M80.4829721,25.3987282 L80.4829721,34.4111802 L77.1640867,34.4111802 L77.1640867,25.3987282 L80.4829721,25.3987282 L80.4829721,25.3987282 Z M78.8235294,79.8830969 L77.1640867,76.6058416 L77.1640867,37.6884354 L80.4829721,37.6884354 L80.4829721,76.6058416 L78.8235294,79.8830969 L78.8235294,79.8830969 Z" id="Shape" fill="#FFFFFF"></path>
                                <path d="M33.1888545,61.4485361 L33.1888545,64.7257913 L39.8266254,64.7257913 L35.6780186,87.420784 L38.9139319,87.9943036 L43.1455108,64.7257913 L53.1021672,64.7257913 L57.3337461,87.9943036 L60.5696594,87.420784 L56.4210526,64.7257913 L63.0588235,64.7257913 L63.0588235,61.4485361 L55.8402477,61.4485361 L53.9318885,50.6335937 C56.5040248,48.8311033 58.0804954,45.7996422 58.0804954,42.6043183 C58.0804954,37.7703668 54.5126935,33.6737978 49.7832817,32.9364153 L49.7832817,22.121473 L46.4643963,22.121473 L46.4643963,32.9364153 C41.7349845,33.7557291 38.1671827,37.7703668 38.1671827,42.6043183 C38.1671827,45.7996422 39.7436533,48.7491719 42.3157895,50.6335937 L40.4074303,61.4485361 L33.1888545,61.4485361 L33.1888545,61.4485361 Z M44.9708978,48.339515 C42.8136223,47.1924757 41.4860681,44.9803284 41.4860681,42.6043183 C41.4860681,38.9993375 44.473065,36.0498078 48.123839,36.0498078 C51.774613,36.0498078 54.7616099,38.9993375 54.7616099,42.6043183 C54.7616099,44.9803284 53.4340557,47.1924757 51.2767802,48.339515 L50.1981424,48.9130347 L52.5213622,61.4485361 L43.7263158,61.4485361 L45.9665635,48.9130347 L44.9708978,48.339515 L44.9708978,48.339515 Z" id="Shape" fill="#FFFFFF"></path>
                            </g>
                        </g>
                    </g>
                </g>
                <text id="Projects" font-family="Roboto-Regular, Roboto" font-size="20" font-weight="normal" fill="#4E4E4E">
                    <tspan x="47.359375" y="173">Projects</tspan>
                </text>
            </g>
        </g>
    </g>
</svg>